G04*
G04 #@! TF.GenerationSoftware,Altium Limited,Altium Designer,26.2.0 (7)*
G04*
G04 Layer_Color=32768*
%FSLAX44Y44*%
%MOMM*%
G71*
G04*
G04 #@! TF.SameCoordinates,562C6166-C518-446A-8980-B7ECEE3FE5AD*
G04*
G04*
G04 #@! TF.FilePolarity,Positive*
G04*
G01*
G75*
%ADD10C,0.2000*%
%ADD12C,0.1000*%
%ADD59C,0.0500*%
D10*
X608076Y952942D02*
G03*
X608076Y785942I0J-83500D01*
G01*
D02*
G03*
X608076Y952942I0J83500D01*
G01*
X465000Y651000D02*
G03*
X465000Y484000I0J-83500D01*
G01*
D02*
G03*
X465000Y651000I0J83500D01*
G01*
X830288Y788166D02*
Y852166D01*
X857288D01*
Y788166D02*
Y852166D01*
X830288Y788166D02*
X857288D01*
X786600Y899164D02*
Y963164D01*
X813600D01*
Y899164D02*
Y963164D01*
X786600Y899164D02*
X813600D01*
X726940Y694337D02*
Y758337D01*
X699940Y694337D02*
X726940D01*
X699940D02*
Y758337D01*
X726940D01*
X585190Y694337D02*
Y758337D01*
X558190Y694337D02*
X585190D01*
X558190D02*
Y758337D01*
X585190D01*
X283600Y359350D02*
Y426650D01*
Y359350D02*
X481700D01*
Y426650D01*
X283600D02*
X481700D01*
X655130Y559450D02*
Y580550D01*
X564870D02*
X655130D01*
X564870Y559450D02*
Y580550D01*
Y559450D02*
X655130D01*
X766500Y1041000D02*
X793500D01*
X766500Y999000D02*
Y1041000D01*
Y999000D02*
X793500D01*
Y1041000D01*
X755130Y559450D02*
Y580550D01*
X664870D02*
X755130D01*
X664870Y559450D02*
Y580550D01*
Y559450D02*
X755130D01*
X826500Y951000D02*
X853500D01*
X826500Y909000D02*
Y951000D01*
Y909000D02*
X853500D01*
Y951000D01*
X874608Y778242D02*
X939108D01*
Y860742D01*
X874608D02*
X939108D01*
X874608Y778242D02*
Y860742D01*
D12*
X444600Y705000D02*
Y715000D01*
X439600Y710000D02*
X449600D01*
X444600Y808333D02*
Y818333D01*
X439600Y813333D02*
X449600D01*
X444600Y1015000D02*
Y1025000D01*
X439600Y1020000D02*
X449600D01*
X444600Y911667D02*
Y921667D01*
X439600Y916667D02*
X449600D01*
X266000Y747500D02*
X340000D01*
X266000Y667500D02*
Y747500D01*
Y667500D02*
X340000D01*
Y747500D01*
X266000Y1087500D02*
X340000D01*
X266000Y1007500D02*
Y1087500D01*
Y1007500D02*
X340000D01*
Y1087500D01*
X266000Y857500D02*
X340000D01*
X266000Y777500D02*
Y857500D01*
Y777500D02*
X340000D01*
Y857500D01*
X266000Y972500D02*
X340000D01*
X266000Y892500D02*
Y972500D01*
Y892500D02*
X340000D01*
Y972500D01*
X761572Y840740D02*
X771572D01*
X766572Y835740D02*
Y845740D01*
X950500Y1082500D02*
Y1117500D01*
X829500Y1082500D02*
X950500D01*
X829500D02*
Y1117500D01*
X950500D01*
X329500Y1186600D02*
X342200Y1199300D01*
X329500Y1155300D02*
Y1199300D01*
Y1155300D02*
X430500D01*
Y1199300D01*
X329500D02*
X430500D01*
X236158Y635200D02*
X361158D01*
X236158Y482800D02*
Y635200D01*
Y482800D02*
X361158D01*
Y635200D01*
X642940Y705337D02*
Y715337D01*
X637940Y710337D02*
X647940D01*
X782500Y490500D02*
X817500D01*
Y369500D02*
Y490500D01*
X782500Y369500D02*
X817500D01*
X782500D02*
Y490500D01*
D59*
X949500Y930000D02*
G03*
X949500Y930000I-29500J0D01*
G01*
X915000D02*
X925000D01*
X920000Y925000D02*
Y935000D01*
X390600Y685700D02*
X498600D01*
X390600Y739200D02*
X498600D01*
X390600Y685700D02*
Y739200D01*
X498600Y685700D02*
Y739200D01*
X390600Y789033D02*
X498600D01*
X390600Y842533D02*
X498600D01*
X390600Y789033D02*
Y842533D01*
X498600Y789033D02*
Y842533D01*
X390600Y995700D02*
X498600D01*
X390600Y1049200D02*
X498600D01*
X390600Y995700D02*
Y1049200D01*
X498600Y995700D02*
Y1049200D01*
X390600Y892367D02*
X498600D01*
X390600Y945867D02*
X498600D01*
X390600Y892367D02*
Y945867D01*
X498600Y892367D02*
Y945867D01*
X718072Y787240D02*
Y894240D01*
X815072Y787240D02*
Y894240D01*
X718072D02*
X815072D01*
X718072Y787240D02*
X815072D01*
X589440Y661837D02*
X696440D01*
X589440Y758837D02*
X696440D01*
X589440Y661837D02*
Y758837D01*
X696440Y661837D02*
Y758837D01*
M02*
