G04*
G04 #@! TF.GenerationSoftware,Altium Limited,Altium Designer,26.2.0 (7)*
G04*
G04 Layer_Color=32768*
%FSLAX44Y44*%
%MOMM*%
G71*
G04*
G04 #@! TF.SameCoordinates,EF66C442-CE4D-47CB-B162-2981B1276574*
G04*
G04*
G04 #@! TF.FilePolarity,Positive*
G04*
G01*
G75*
%ADD13C,0.2000*%
%ADD14C,0.1000*%
%ADD58C,0.0500*%
D13*
X56500Y390000D02*
G03*
X223500Y390000I83500J0D01*
G01*
D02*
G03*
X56500Y390000I-83500J0D01*
G01*
X623500Y290000D02*
G03*
X456500Y290000I-83500J0D01*
G01*
D02*
G03*
X623500Y290000I83500J0D01*
G01*
X821500Y114000D02*
Y156000D01*
X848500D01*
Y114000D02*
Y156000D01*
X821500Y114000D02*
X848500D01*
Y39000D02*
Y81000D01*
X821500Y39000D02*
X848500D01*
X821500D02*
Y81000D01*
X848500D01*
X534870Y544450D02*
X625130D01*
X534870D02*
Y565550D01*
X625130D01*
Y544450D02*
Y565550D01*
X534870Y450550D02*
X625130D01*
Y429450D02*
Y450550D01*
X534870Y429450D02*
X625130D01*
X534870D02*
Y450550D01*
X78600Y198350D02*
X276700D01*
X78600D02*
Y265650D01*
X276700D01*
Y198350D02*
Y265650D01*
X276500Y162000D02*
X303500D01*
X276500Y98000D02*
Y162000D01*
Y98000D02*
X303500D01*
Y162000D01*
X833000Y216500D02*
Y243500D01*
Y216500D02*
X897000D01*
Y243500D01*
X833000D02*
X897000D01*
X321500Y273000D02*
X348500D01*
Y337000D01*
X321500D02*
X348500D01*
X321500Y273000D02*
Y337000D01*
X826500Y303000D02*
X853500D01*
Y367000D01*
X826500D02*
X853500D01*
X826500Y303000D02*
Y367000D01*
D14*
X928800Y744150D02*
Y845150D01*
X884800Y744150D02*
X928800D01*
X884800D02*
Y845150D01*
X928800D01*
X916100D02*
X928800Y832450D01*
X660000Y700000D02*
Y710000D01*
X655000Y705000D02*
X665000D01*
X540000Y700000D02*
Y710000D01*
X535000Y705000D02*
X545000D01*
X420000Y700000D02*
Y710000D01*
X415000Y705000D02*
X425000D01*
X285000Y700000D02*
Y710000D01*
X280000Y705000D02*
X290000D01*
X770000Y265000D02*
Y275000D01*
X765000Y270000D02*
X775000D01*
X802500Y29500D02*
Y150500D01*
X767500D02*
X802500D01*
X767500Y29500D02*
Y150500D01*
Y29500D02*
X802500D01*
X547500D02*
Y150500D01*
X512500D02*
X547500D01*
X512500Y29500D02*
Y150500D01*
Y29500D02*
X547500D01*
X370000Y195000D02*
X380000D01*
X375000Y190000D02*
Y200000D01*
X607500Y850000D02*
X687500D01*
X607500D02*
Y924000D01*
X687500D01*
Y850000D02*
Y924000D01*
X492500Y850000D02*
X572500D01*
X492500D02*
Y924000D01*
X572500D01*
Y850000D02*
Y924000D01*
X377500Y850000D02*
X457500D01*
X377500D02*
Y924000D01*
X457500D01*
Y850000D02*
Y924000D01*
X267500Y850000D02*
X347500D01*
X267500D02*
Y924000D01*
X347500D01*
Y850000D02*
Y924000D01*
X99800Y156000D02*
X252200D01*
Y31000D02*
Y156000D01*
X99800Y31000D02*
X252200D01*
X99800D02*
Y156000D01*
D58*
X939500Y150000D02*
G03*
X939500Y150000I-29500J0D01*
G01*
X635700Y651000D02*
X689200D01*
X635700Y759000D02*
X689200D01*
Y651000D02*
Y759000D01*
X635700Y651000D02*
Y759000D01*
X515700Y651000D02*
X569200D01*
X515700Y759000D02*
X569200D01*
Y651000D02*
Y759000D01*
X515700Y651000D02*
Y759000D01*
X395700Y651000D02*
X449200D01*
X395700Y759000D02*
X449200D01*
Y651000D02*
Y759000D01*
X395700Y651000D02*
Y759000D01*
X260700Y651000D02*
X314200D01*
X260700Y759000D02*
X314200D01*
Y651000D02*
Y759000D01*
X260700Y651000D02*
Y759000D01*
X721500Y216500D02*
X818500D01*
X721500Y323500D02*
X818500D01*
Y216500D02*
Y323500D01*
X721500Y216500D02*
Y323500D01*
X321500Y146500D02*
Y243500D01*
X428500Y146500D02*
Y243500D01*
X321500Y146500D02*
X428500D01*
X321500Y243500D02*
X428500D01*
X323000Y93000D02*
X407000D01*
Y27000D02*
Y93000D01*
X323000Y27000D02*
X407000D01*
X323000D02*
Y93000D01*
X905000Y150000D02*
X915000D01*
X910000Y145000D02*
Y155000D01*
M02*
