G04*
G04 #@! TF.GenerationSoftware,Altium Limited,Altium Designer,26.2.0 (7)*
G04*
G04 Layer_Color=65535*
%FSLAX44Y44*%
%MOMM*%
G71*
G04*
G04 #@! TF.SameCoordinates,562C6166-C518-446A-8980-B7ECEE3FE5AD*
G04*
G04*
G04 #@! TF.FilePolarity,Positive*
G04*
G01*
G75*
%ADD10C,0.2000*%
%ADD11C,0.2500*%
%ADD12C,0.1000*%
%ADD13C,0.6000*%
%ADD14C,0.1500*%
%ADD15C,0.2540*%
%ADD16C,0.1270*%
D10*
X947500Y930000D02*
G03*
X947500Y930000I-27500J0D01*
G01*
X760222Y891740D02*
G03*
X772922Y891740I6350J0D01*
G01*
X367158Y591200D02*
G03*
X366158Y591200I-500J0D01*
G01*
D02*
G03*
X367158Y591200I500J0D01*
G01*
D02*
G03*
X366158Y591200I-500J0D01*
G01*
X591940Y703987D02*
G03*
X591940Y716687I0J6350D01*
G01*
X831288Y800166D02*
Y840166D01*
X853538D02*
X856288D01*
X831288D02*
X834038D01*
X856288Y800166D02*
Y840166D01*
X853538Y800166D02*
X856288D01*
X831288D02*
X834038D01*
X787600Y911164D02*
Y951164D01*
X809850D02*
X812600D01*
X787600D02*
X790350D01*
X812600Y911164D02*
Y951164D01*
X809850Y911164D02*
X812600D01*
X787600D02*
X790350D01*
X725940Y706337D02*
Y746337D01*
X700940Y706337D02*
X703690D01*
X723190D02*
X725940D01*
X700940D02*
Y746337D01*
X703690D01*
X723190D02*
X725940D01*
X584190Y706337D02*
Y746337D01*
X559190Y706337D02*
X561940D01*
X581440D02*
X584190D01*
X559190D02*
Y746337D01*
X561940D01*
X581440D02*
X584190D01*
X393100Y687950D02*
Y736950D01*
X496100Y687950D02*
Y736950D01*
X393100Y687950D02*
X496100D01*
X393100Y736950D02*
X496100D01*
X393100Y731950D02*
X496100D01*
X393100Y791283D02*
Y840283D01*
X496100Y791283D02*
Y840283D01*
X393100Y791283D02*
X496100D01*
X393100Y840283D02*
X496100D01*
X393100Y835283D02*
X496100D01*
X393100Y997950D02*
Y1046950D01*
X496100Y997950D02*
Y1046950D01*
X393100Y997950D02*
X496100D01*
X393100Y1046950D02*
X496100D01*
X393100Y1041950D02*
X496100D01*
X393100Y894617D02*
Y943617D01*
X496100Y894617D02*
Y943617D01*
X393100Y894617D02*
X496100D01*
X393100Y943617D02*
X496100D01*
X393100Y938617D02*
X496100D01*
X266000Y747500D02*
X340000D01*
X266000Y667500D02*
Y747500D01*
Y667500D02*
X340000D01*
Y747500D01*
X266000Y1087500D02*
X340000D01*
X266000Y1007500D02*
Y1087500D01*
Y1007500D02*
X340000D01*
Y1087500D01*
X266000Y857500D02*
X340000D01*
X266000Y777500D02*
Y857500D01*
Y777500D02*
X340000D01*
Y857500D01*
X266000Y972500D02*
X340000D01*
X266000Y892500D02*
Y972500D01*
Y892500D02*
X340000D01*
Y972500D01*
X740072Y789740D02*
Y891740D01*
X793072Y789740D02*
Y891740D01*
X740072D02*
X760222D01*
X772922D02*
X793072D01*
X740072Y789740D02*
X793072D01*
X948000Y1117500D02*
X950500D01*
Y1110000D02*
Y1117500D01*
X829500D02*
X950000D01*
X829500Y1112000D02*
Y1117500D01*
Y1082500D02*
Y1088000D01*
Y1082500D02*
X950500D01*
Y1088000D01*
X329500Y1170000D02*
Y1199300D01*
X430500D01*
Y1155300D02*
Y1199300D01*
X361158Y482800D02*
Y635200D01*
X236158Y482800D02*
X361158D01*
X236158D02*
Y635200D01*
X361158D01*
X583200Y570000D02*
X587200D01*
X632800D02*
X636800D01*
X625000Y561450D02*
Y578550D01*
X632800Y560450D02*
Y579550D01*
X587200D02*
X632800D01*
X587200Y560450D02*
Y579550D01*
Y560450D02*
X632800D01*
X566826Y939192D02*
X649326D01*
X789750Y1040000D02*
X792500D01*
X767500D02*
X770250D01*
X767500Y1000000D02*
Y1040000D01*
X789750Y1000000D02*
X792500D01*
X767500D02*
X770250D01*
X792500D02*
Y1040000D01*
X423750Y637250D02*
X506250D01*
X591940Y683837D02*
X693940D01*
X591940Y736837D02*
X693940D01*
X591940Y683837D02*
Y703987D01*
Y716687D02*
Y736837D01*
X693940Y683837D02*
Y736837D01*
X683200Y570000D02*
X687200D01*
X732800D02*
X736800D01*
X725000Y561450D02*
Y578550D01*
X732800Y560450D02*
Y579550D01*
X687200D02*
X732800D01*
X687200Y560450D02*
Y579550D01*
Y560450D02*
X732800D01*
X849750Y950000D02*
X852500D01*
X827500D02*
X830250D01*
X827500Y910000D02*
Y950000D01*
X849750Y910000D02*
X852500D01*
X827500D02*
X830250D01*
X852500D02*
Y950000D01*
X895858Y788242D02*
X917858D01*
X938108Y798492D02*
Y840492D01*
X895858Y850742D02*
X917858D01*
X875608Y798492D02*
Y840492D01*
X782500Y488000D02*
Y490500D01*
X790000D01*
X782500Y369500D02*
Y490000D01*
Y369500D02*
X788000D01*
X812000D02*
X817500D01*
Y490500D01*
X812000D02*
X817500D01*
D11*
X387850Y710000D02*
G03*
X387850Y710000I-1250J0D01*
G01*
Y813333D02*
G03*
X387850Y813333I-1250J0D01*
G01*
Y1020000D02*
G03*
X387850Y1020000I-1250J0D01*
G01*
Y916667D02*
G03*
X387850Y916667I-1250J0D01*
G01*
X729722Y891840D02*
G03*
X729722Y891840I-1250J0D01*
G01*
X593090Y672237D02*
G03*
X593090Y672237I-1250J0D01*
G01*
X885608Y773742D02*
G03*
X885608Y773742I-1250J0D01*
G01*
D12*
X300000Y753000D02*
G03*
X300000Y754000I0J500D01*
G01*
D02*
G03*
X300000Y753000I0J-500D01*
G01*
Y1093000D02*
G03*
X300000Y1094000I0J500D01*
G01*
D02*
G03*
X300000Y1093000I0J-500D01*
G01*
Y863000D02*
G03*
X300000Y864000I0J500D01*
G01*
D02*
G03*
X300000Y863000I0J-500D01*
G01*
Y978000D02*
G03*
X300000Y979000I0J500D01*
G01*
D02*
G03*
X300000Y978000I0J-500D01*
G01*
X930000Y1076000D02*
G03*
X930000Y1077000I0J500D01*
G01*
D02*
G03*
X930000Y1076000I0J-500D01*
G01*
X824000Y470000D02*
G03*
X823000Y470000I-500J0D01*
G01*
D02*
G03*
X824000Y470000I500J0D01*
G01*
X283600Y359350D02*
Y427000D01*
Y359350D02*
X481700D01*
Y427000D01*
X283600D02*
X481700D01*
D13*
X753072Y881740D02*
G03*
X753072Y881740I-3000J0D01*
G01*
X604940Y693837D02*
G03*
X604940Y693837I-3000J0D01*
G01*
D14*
X690576Y869442D02*
G03*
X690576Y869442I-82500J0D01*
G01*
X547500Y567500D02*
G03*
X547500Y567500I-82500J0D01*
G01*
D15*
X570000Y610000D02*
X575000D01*
X595000D01*
Y595000D02*
X605000D01*
X725000Y610000D02*
X750000D01*
X595000Y595000D02*
Y625000D01*
X725000D01*
Y595000D02*
Y625000D01*
X605000Y595000D02*
X725000D01*
X790000Y706600D02*
Y711600D01*
Y686600D02*
Y706600D01*
X775000Y676600D02*
Y686600D01*
X790000Y531600D02*
Y556600D01*
X775000Y686600D02*
X805000D01*
Y556600D02*
Y686600D01*
X775000Y556600D02*
X805000D01*
X775000D02*
Y676600D01*
X565000Y360000D02*
Y440000D01*
Y360000D02*
X735000D01*
Y525000D01*
X565000D02*
X735000D01*
X565000Y440000D02*
Y525000D01*
X840000Y705000D02*
Y710000D01*
Y685000D02*
Y705000D01*
X825000Y675000D02*
Y685000D01*
X840000Y530000D02*
Y555000D01*
X825000Y685000D02*
X855000D01*
Y555000D02*
Y685000D01*
X825000Y555000D02*
X855000D01*
X825000D02*
Y675000D01*
X890000Y705000D02*
Y710000D01*
Y685000D02*
Y705000D01*
X875000Y675000D02*
Y685000D01*
X890000Y530000D02*
Y555000D01*
X875000Y685000D02*
X905000D01*
Y555000D02*
Y685000D01*
X875000Y555000D02*
X905000D01*
X875000D02*
Y675000D01*
X924762Y733298D02*
X929762D01*
X904762D02*
X924762D01*
X894762Y748298D02*
X904762D01*
X749762Y733298D02*
X774762D01*
X904762Y718298D02*
Y748298D01*
X774762Y718298D02*
X904762D01*
X774762D02*
Y748298D01*
X894762D01*
X550000Y1145000D02*
Y1150000D01*
Y1125000D02*
Y1145000D01*
X535000Y1115000D02*
Y1125000D01*
X550000Y970000D02*
Y995000D01*
X535000Y1125000D02*
X565000D01*
Y995000D02*
Y1125000D01*
X535000Y995000D02*
X565000D01*
X535000D02*
Y1115000D01*
X600000Y970000D02*
Y975000D01*
Y995000D01*
X615000D02*
Y1005000D01*
X600000Y1125000D02*
Y1150000D01*
X585000Y995000D02*
X615000D01*
X585000D02*
Y1125000D01*
X615000D01*
Y1005000D02*
Y1125000D01*
X632206Y364744D02*
Y379979D01*
X639823D01*
X642363Y377440D01*
Y372361D01*
X639823Y369822D01*
X632206D01*
X647441Y379979D02*
Y364744D01*
X652519Y369822D01*
X657598Y364744D01*
Y379979D01*
X662676Y364744D02*
Y379979D01*
X667755Y374901D01*
X672833Y379979D01*
Y364744D01*
X905213Y994622D02*
X906545Y991956D01*
X909211Y989290D01*
X911877D01*
X913210Y990623D01*
Y993289D01*
X911877Y994622D01*
X910544D01*
X909211Y993289D01*
Y989290D01*
X906545Y997287D02*
X905213Y998620D01*
Y1001286D01*
X906545Y1002619D01*
X911877D01*
X913210Y1001286D01*
Y998620D01*
X911877Y997287D01*
X906545D01*
X905213Y1013282D02*
X913210D01*
X909211D01*
Y1018614D01*
X905213D01*
X913210D01*
X907878Y1021280D02*
Y1026611D01*
X913210Y1021280D01*
Y1026611D01*
X905213Y1042606D02*
Y1037274D01*
X909211D01*
Y1039940D01*
Y1037274D01*
X913210D01*
Y1045272D02*
X907878D01*
X905213Y1047938D01*
X907878Y1050604D01*
X913210D01*
X909211D01*
Y1045272D01*
X906545Y1058601D02*
X905213Y1057268D01*
Y1054602D01*
X906545Y1053269D01*
X907878D01*
X909211Y1054602D01*
Y1057268D01*
X910544Y1058601D01*
X911877D01*
X913210Y1057268D01*
Y1054602D01*
X911877Y1053269D01*
X905213Y1061267D02*
Y1066598D01*
Y1063933D01*
X913210D01*
X888210Y994622D02*
Y989290D01*
X882878Y994622D01*
X881545D01*
X880213Y993289D01*
Y990623D01*
X881545Y989290D01*
X880213Y1002619D02*
Y997288D01*
X884211D01*
X882878Y999953D01*
Y1001286D01*
X884211Y1002619D01*
X886877D01*
X888210Y1001286D01*
Y998620D01*
X886877Y997288D01*
X880213Y1013282D02*
X888210D01*
X884211D01*
Y1018614D01*
X880213D01*
X888210D01*
X882878Y1021280D02*
Y1026611D01*
X888210Y1021280D01*
Y1026611D01*
X880213Y1037275D02*
X888210D01*
Y1041273D01*
X886877Y1042606D01*
X881545D01*
X880213Y1041273D01*
Y1037275D01*
Y1050604D02*
Y1045272D01*
X888210D01*
Y1050604D01*
X884211Y1045272D02*
Y1047938D01*
X880213Y1058601D02*
Y1053269D01*
X884211D01*
Y1055935D01*
Y1053269D01*
X888210D01*
X863210Y989290D02*
Y991956D01*
Y990623D01*
X855213D01*
X856545Y989290D01*
X855213Y1003952D02*
X863210D01*
X859211D01*
Y1009284D01*
X855213D01*
X863210D01*
X857878Y1011949D02*
Y1017281D01*
X863210Y1011949D01*
Y1017281D01*
X856545Y1033276D02*
X855213Y1031943D01*
Y1029277D01*
X856545Y1027944D01*
X857878D01*
X859211Y1029277D01*
Y1031943D01*
X860544Y1033276D01*
X861877D01*
X863210Y1031943D01*
Y1029277D01*
X861877Y1027944D01*
X855213Y1035942D02*
X863210D01*
Y1041273D01*
X855213Y1047938D02*
Y1045272D01*
X856545Y1043939D01*
X861877D01*
X863210Y1045272D01*
Y1047938D01*
X861877Y1049271D01*
X856545D01*
X855213Y1047938D01*
Y1051936D02*
X863210D01*
X860544Y1054602D01*
X863210Y1057268D01*
X855213D01*
X830213Y994622D02*
Y989290D01*
X834211D01*
Y991956D01*
Y989290D01*
X838210D01*
Y997288D02*
X830213D01*
Y1001286D01*
X831545Y1002619D01*
X834211D01*
X835544Y1001286D01*
Y997288D01*
Y999953D02*
X838210Y1002619D01*
X830213Y1010617D02*
Y1005285D01*
X838210D01*
Y1010617D01*
X834211Y1005285D02*
Y1007951D01*
X836877Y1018614D02*
X831545D01*
X830213Y1017281D01*
Y1014615D01*
X831545Y1013282D01*
X836877D01*
X838210Y1014615D01*
Y1017281D01*
X835544Y1015948D02*
X838210Y1018614D01*
Y1017281D02*
X836877Y1018614D01*
X830213Y1021280D02*
X836877D01*
X838210Y1022613D01*
Y1025278D01*
X836877Y1026611D01*
X830213D01*
Y1034609D02*
Y1029277D01*
X838210D01*
Y1034609D01*
X834211Y1029277D02*
Y1031943D01*
X838210Y1037275D02*
X830213D01*
X838210Y1042606D01*
X830213D01*
X831545Y1050604D02*
X830213Y1049271D01*
Y1046605D01*
X831545Y1045272D01*
X836877D01*
X838210Y1046605D01*
Y1049271D01*
X836877Y1050604D01*
X830213Y1053269D02*
X831545D01*
X834211Y1055935D01*
X831545Y1058601D01*
X830213D01*
X834211Y1055935D02*
X838210D01*
X842540Y480537D02*
Y472540D01*
X845206Y475206D01*
X847872Y472540D01*
Y480537D01*
X854536D02*
X851870D01*
X850537Y479204D01*
Y473873D01*
X851870Y472540D01*
X854536D01*
X855869Y473873D01*
Y479204D01*
X854536Y480537D01*
X858535Y472540D02*
Y480537D01*
X862534D01*
X863866Y479204D01*
Y476539D01*
X862534Y475206D01*
X858535D01*
X861201D02*
X863866Y472540D01*
X866532Y480537D02*
Y472540D01*
Y475206D01*
X871864Y480537D01*
X867865Y476539D01*
X871864Y472540D01*
X882527Y480537D02*
X887859D01*
X885193D01*
Y472540D01*
X890525Y480537D02*
X893190D01*
X891857D01*
Y472540D01*
X890525D01*
X893190D01*
X897189D02*
Y480537D01*
X899855Y477872D01*
X902521Y480537D01*
Y472540D01*
X910518Y480537D02*
X905186D01*
Y472540D01*
X910518D01*
X905186Y476539D02*
X907852D01*
X842540Y449204D02*
X843873Y450537D01*
X846539D01*
X847872Y449204D01*
Y447872D01*
X846539Y446539D01*
X845206D01*
X846539D01*
X847872Y445206D01*
Y443873D01*
X846539Y442540D01*
X843873D01*
X842540Y443873D01*
X858535Y442540D02*
Y447872D01*
X859868D01*
X861201Y446539D01*
Y442540D01*
Y446539D01*
X862534Y447872D01*
X863866Y446539D01*
Y442540D01*
X866532D02*
X869198D01*
X867865D01*
Y447872D01*
X866532D01*
X873197Y442540D02*
Y447872D01*
X877196D01*
X878528Y446539D01*
Y442540D01*
X847872Y420537D02*
X842540D01*
Y416539D01*
X845206Y417872D01*
X846539D01*
X847872Y416539D01*
Y413873D01*
X846539Y412540D01*
X843873D01*
X842540Y413873D01*
X858535Y412540D02*
Y417872D01*
X859868D01*
X861201Y416539D01*
Y412540D01*
Y416539D01*
X862534Y417872D01*
X863866Y416539D01*
Y412540D01*
X866532D02*
X869198D01*
X867865D01*
Y417872D01*
X866532D01*
X873197Y412540D02*
Y417872D01*
X877196D01*
X878528Y416539D01*
Y412540D01*
X842540Y382540D02*
X845206D01*
X843873D01*
Y390537D01*
X842540Y389204D01*
X849204D02*
X850537Y390537D01*
X853203D01*
X854536Y389204D01*
Y383873D01*
X853203Y382540D01*
X850537D01*
X849204Y383873D01*
Y389204D01*
X865199Y382540D02*
Y387872D01*
X866532D01*
X867865Y386539D01*
Y382540D01*
Y386539D01*
X869198Y387872D01*
X870531Y386539D01*
Y382540D01*
X873197D02*
X875863D01*
X874530D01*
Y387872D01*
X873197D01*
X879861Y382540D02*
Y387872D01*
X883860D01*
X885193Y386539D01*
Y382540D01*
X951622Y792189D02*
X949083Y789650D01*
Y784571D01*
X951622Y782032D01*
X954161D01*
X956700Y784571D01*
Y789650D01*
X959240Y792189D01*
X961779D01*
X964318Y789650D01*
Y784571D01*
X961779Y782032D01*
X949083Y797267D02*
Y807424D01*
Y802345D01*
X964318D01*
Y812502D02*
X954161D01*
X949083Y817580D01*
X954161Y822659D01*
X964318D01*
X956700D01*
Y812502D01*
X964318Y827737D02*
X949083D01*
Y835355D01*
X951622Y837894D01*
X956700D01*
X959240Y835355D01*
Y827737D01*
Y832815D02*
X964318Y837894D01*
X949083Y842972D02*
Y853129D01*
Y848051D01*
X964318D01*
X247460Y1017540D02*
Y1027697D01*
Y907540D02*
Y917697D01*
X247460Y792540D02*
Y802697D01*
X247460Y682540D02*
Y692697D01*
X247382Y1057540D02*
Y1067697D01*
X242303Y1062618D02*
X252460D01*
X247382Y942540D02*
Y952697D01*
X242303Y947618D02*
X252460D01*
X247382Y827540D02*
Y837697D01*
X242303Y832618D02*
X252460D01*
X247382Y717540D02*
Y727697D01*
X242303Y722618D02*
X252460D01*
X207540Y512618D02*
X217697D01*
X212618Y517697D02*
Y507540D01*
X212460Y587540D02*
Y597697D01*
X586232Y1159002D02*
Y1174237D01*
X593849D01*
X596389Y1171698D01*
Y1166619D01*
X593849Y1164080D01*
X586232D01*
X591310D02*
X596389Y1159002D01*
X601467Y1174237D02*
X611624D01*
Y1171698D01*
X601467Y1161541D01*
Y1159002D01*
X886203Y882138D02*
X883663Y884677D01*
X878585D01*
X876046Y882138D01*
Y879599D01*
X878585Y877059D01*
X883663D01*
X886203Y874520D01*
Y871981D01*
X883663Y869442D01*
X878585D01*
X876046Y871981D01*
X891281Y884677D02*
Y869442D01*
X896359Y874520D01*
X901438Y869442D01*
Y884677D01*
X906516Y869442D02*
X911594D01*
X909055D01*
Y884677D01*
X906516Y882138D01*
X462461Y670078D02*
X459922Y672617D01*
X454843D01*
X452304Y670078D01*
Y659922D01*
X454843Y657383D01*
X459922D01*
X462461Y659922D01*
X467539D02*
X470078Y657383D01*
X475157D01*
X477696Y659922D01*
Y670078D01*
X475157Y672617D01*
X470078D01*
X467539Y670078D01*
Y667539D01*
X470078Y665000D01*
X477696D01*
X632226Y547617D02*
Y537461D01*
X637304Y532383D01*
X642383Y537461D01*
Y547617D01*
X647461Y532383D02*
Y547617D01*
X655078D01*
X657618Y545078D01*
Y540000D01*
X655078Y537461D01*
X647461D01*
X652539D02*
X657618Y532383D01*
X662696D02*
X667774D01*
X665235D01*
Y547617D01*
X662696Y545078D01*
X714626Y917858D02*
Y905162D01*
X717165Y902623D01*
X722244D01*
X724783Y905162D01*
Y917858D01*
X740018Y902623D02*
X729861D01*
X740018Y912779D01*
Y915318D01*
X737479Y917858D01*
X732400D01*
X729861Y915318D01*
X569978Y666753D02*
X582674D01*
X585214Y669293D01*
Y674371D01*
X582674Y676910D01*
X569978D01*
X585214Y681988D02*
Y687067D01*
Y684528D01*
X569978D01*
X572518Y681988D01*
X794922Y1089843D02*
X792383Y1087304D01*
Y1082226D01*
X794922Y1079687D01*
X797461D01*
X800000Y1082226D01*
Y1087304D01*
X802539Y1089843D01*
X805078D01*
X807617Y1087304D01*
Y1082226D01*
X805078Y1079687D01*
X792383Y1094922D02*
X807617D01*
X802539Y1100000D01*
X807617Y1105078D01*
X792383D01*
X794922Y1110157D02*
X792383Y1112696D01*
Y1117774D01*
X794922Y1120313D01*
X797461D01*
X800000Y1117774D01*
Y1115235D01*
Y1117774D01*
X802539Y1120313D01*
X805078D01*
X807617Y1117774D01*
Y1112696D01*
X805078Y1110157D01*
X789843Y525078D02*
X787304Y527617D01*
X782226D01*
X779687Y525078D01*
Y522539D01*
X782226Y520000D01*
X787304D01*
X789843Y517461D01*
Y514922D01*
X787304Y512383D01*
X782226D01*
X779687Y514922D01*
X794922Y527617D02*
Y512383D01*
X800000Y517461D01*
X805078Y512383D01*
Y527617D01*
X820313Y512383D02*
X810157D01*
X820313Y522539D01*
Y525078D01*
X817774Y527617D01*
X812696D01*
X810157Y525078D01*
X536194Y1159002D02*
Y1174237D01*
X543811D01*
X546351Y1171698D01*
Y1166619D01*
X543811Y1164080D01*
X536194D01*
X541272D02*
X546351Y1159002D01*
X561586Y1174237D02*
X556507Y1171698D01*
X551429Y1166619D01*
Y1161541D01*
X553968Y1159002D01*
X559047D01*
X561586Y1161541D01*
Y1164080D01*
X559047Y1166619D01*
X551429D01*
X645672Y630430D02*
Y645666D01*
X653290D01*
X655829Y643126D01*
Y638048D01*
X653290Y635509D01*
X645672D01*
X650751D02*
X655829Y630430D01*
X671064Y645666D02*
X660907D01*
Y638048D01*
X665985Y640587D01*
X668525D01*
X671064Y638048D01*
Y632970D01*
X668525Y630430D01*
X663446D01*
X660907Y632970D01*
X757304Y692383D02*
Y707618D01*
X764922D01*
X767461Y705078D01*
Y700000D01*
X764922Y697461D01*
X757304D01*
X762383D02*
X767461Y692383D01*
X780157D02*
Y707618D01*
X772539Y700000D01*
X782696D01*
X807304Y692383D02*
Y707618D01*
X814922D01*
X817461Y705078D01*
Y700000D01*
X814922Y697461D01*
X807304D01*
X812383D02*
X817461Y692383D01*
X822539Y705078D02*
X825078Y707618D01*
X830157D01*
X832696Y705078D01*
Y702539D01*
X830157Y700000D01*
X827617D01*
X830157D01*
X832696Y697461D01*
Y694922D01*
X830157Y692383D01*
X825078D01*
X822539Y694922D01*
X857304Y692383D02*
Y707618D01*
X864922D01*
X867461Y705078D01*
Y700000D01*
X864922Y697461D01*
X857304D01*
X862383D02*
X867461Y692383D01*
X882696D02*
X872539D01*
X882696Y702539D01*
Y705078D01*
X880157Y707618D01*
X875078D01*
X872539Y705078D01*
X830855Y753931D02*
Y769165D01*
X838473D01*
X841012Y766626D01*
Y761548D01*
X838473Y759009D01*
X830855D01*
X835934D02*
X841012Y753931D01*
X846090D02*
X851169D01*
X848630D01*
Y769165D01*
X846090Y766626D01*
X339341Y1212087D02*
Y1222244D01*
X336801Y1224783D01*
X331723D01*
X329184Y1222244D01*
Y1212087D01*
X331723Y1209548D01*
X336801D01*
X334262Y1214626D02*
X339341Y1209548D01*
X336801D02*
X339341Y1212087D01*
X344419Y1209548D02*
X349497D01*
X346958D01*
Y1224783D01*
X344419Y1222244D01*
X202540Y548661D02*
Y543582D01*
Y546122D01*
X215236D01*
X217775Y543582D01*
Y541043D01*
X215236Y538504D01*
X202540Y563896D02*
Y553739D01*
X210158D01*
X207618Y558817D01*
Y561357D01*
X210158Y563896D01*
X215236D01*
X217775Y561357D01*
Y556278D01*
X215236Y553739D01*
X227618Y1042539D02*
Y1047617D01*
Y1045078D01*
X214922D01*
X212383Y1047617D01*
Y1050157D01*
X214922Y1052696D01*
X212383Y1029843D02*
X227618D01*
X220000Y1037461D01*
Y1027304D01*
X227618Y932539D02*
Y937617D01*
Y935078D01*
X214922D01*
X212383Y937617D01*
Y940157D01*
X214922Y942696D01*
X225078Y927461D02*
X227618Y924922D01*
Y919843D01*
X225078Y917304D01*
X222539D01*
X220000Y919843D01*
Y922382D01*
Y919843D01*
X217461Y917304D01*
X214922D01*
X212383Y919843D01*
Y924922D01*
X214922Y927461D01*
X227618Y822539D02*
Y827617D01*
Y825078D01*
X214922D01*
X212383Y827617D01*
Y830157D01*
X214922Y832696D01*
X212383Y807304D02*
Y817461D01*
X222539Y807304D01*
X225078D01*
X227618Y809843D01*
Y814922D01*
X225078Y817461D01*
X227618Y700000D02*
Y705078D01*
Y702539D01*
X214922D01*
X212383Y705078D01*
Y707617D01*
X214922Y710157D01*
X212383Y694922D02*
Y689843D01*
Y692382D01*
X227618D01*
X225078Y694922D01*
X512618Y395000D02*
Y405157D01*
X505000D01*
Y400078D01*
Y405157D01*
X497383D01*
Y389922D02*
Y384843D01*
Y387382D01*
X512618D01*
X510078Y389922D01*
X587304Y547617D02*
Y532383D01*
X594922D01*
X597461Y534922D01*
Y545078D01*
X594922Y547617D01*
X587304D01*
X612696D02*
X607617Y545078D01*
X602539Y540000D01*
Y534922D01*
X605078Y532383D01*
X610157D01*
X612696Y534922D01*
Y537461D01*
X610157Y540000D01*
X602539D01*
X503232Y1007304D02*
X518467D01*
Y1014922D01*
X515928Y1017461D01*
X505772D01*
X503232Y1014922D01*
Y1007304D01*
Y1032696D02*
Y1022539D01*
X510850D01*
X508311Y1027617D01*
Y1030157D01*
X510850Y1032696D01*
X515928D01*
X518467Y1030157D01*
Y1025078D01*
X515928Y1022539D01*
X504232Y903721D02*
X519468D01*
Y911338D01*
X516928Y913877D01*
X506772D01*
X504232Y911338D01*
Y903721D01*
X519468Y926573D02*
X504232D01*
X511850Y918956D01*
Y929112D01*
X503732Y802637D02*
X518968D01*
Y810255D01*
X516428Y812794D01*
X506272D01*
X503732Y810255D01*
Y802637D01*
X506272Y817872D02*
X503732Y820412D01*
Y825490D01*
X506272Y828029D01*
X508811D01*
X511350Y825490D01*
Y822951D01*
Y825490D01*
X513889Y828029D01*
X516428D01*
X518968Y825490D01*
Y820412D01*
X516428Y817872D01*
X504232Y700054D02*
X519468D01*
Y707672D01*
X516928Y710211D01*
X506772D01*
X504232Y707672D01*
Y700054D01*
X519468Y725446D02*
Y715289D01*
X509311Y725446D01*
X506772D01*
X504232Y722907D01*
Y717828D01*
X506772Y715289D01*
X699843Y547617D02*
Y532383D01*
X707461D01*
X710000Y534922D01*
Y545078D01*
X707461Y547617D01*
X699843D01*
X715078Y532383D02*
X720157D01*
X717618D01*
Y547617D01*
X715078Y545078D01*
X874922Y927461D02*
X872382Y924922D01*
Y919843D01*
X874922Y917304D01*
X885078D01*
X887617Y919843D01*
Y924922D01*
X885078Y927461D01*
X874922Y932539D02*
X872382Y935078D01*
Y940157D01*
X874922Y942696D01*
X877461D01*
X880000Y940157D01*
X882539Y942696D01*
X885078D01*
X887617Y940157D01*
Y935078D01*
X885078Y932539D01*
X882539D01*
X880000Y935078D01*
X877461Y932539D01*
X874922D01*
X880000Y935078D02*
Y940157D01*
X837693Y901190D02*
X835154Y903729D01*
X830075D01*
X827536Y901190D01*
Y891034D01*
X830075Y888494D01*
X835154D01*
X837693Y891034D01*
X842771Y903729D02*
X852928D01*
Y901190D01*
X842771Y891034D01*
Y888494D01*
X777495Y1057400D02*
X774956Y1059939D01*
X769877D01*
X767338Y1057400D01*
Y1047244D01*
X769877Y1044705D01*
X774956D01*
X777495Y1047244D01*
X792730Y1059939D02*
X787652Y1057400D01*
X782573Y1052322D01*
Y1047244D01*
X785112Y1044705D01*
X790191D01*
X792730Y1047244D01*
Y1049783D01*
X790191Y1052322D01*
X782573D01*
X764922Y927461D02*
X762383Y924922D01*
Y919843D01*
X764922Y917304D01*
X775078D01*
X777617Y919843D01*
Y924922D01*
X775078Y927461D01*
X762383Y942696D02*
Y932539D01*
X770000D01*
X767461Y937617D01*
Y940157D01*
X770000Y942696D01*
X775078D01*
X777617Y940157D01*
Y935078D01*
X775078Y932539D01*
X569651Y775415D02*
X567112Y777955D01*
X562033D01*
X559494Y775415D01*
Y765259D01*
X562033Y762720D01*
X567112D01*
X569651Y765259D01*
X582347Y762720D02*
Y777955D01*
X574729Y770337D01*
X584886D01*
X840741Y869440D02*
X838202Y871980D01*
X833123D01*
X830584Y869440D01*
Y859284D01*
X833123Y856745D01*
X838202D01*
X840741Y859284D01*
X845819Y869440D02*
X848358Y871980D01*
X853437D01*
X855976Y869440D01*
Y866901D01*
X853437Y864362D01*
X850898D01*
X853437D01*
X855976Y861823D01*
Y859284D01*
X853437Y856745D01*
X848358D01*
X845819Y859284D01*
X709420Y863345D02*
X711960Y865884D01*
Y870963D01*
X709420Y873502D01*
X699264D01*
X696724Y870963D01*
Y865884D01*
X699264Y863345D01*
X696724Y848110D02*
Y858267D01*
X706881Y848110D01*
X709420D01*
X711960Y850649D01*
Y855728D01*
X709420Y858267D01*
X712690Y775666D02*
X710151Y778205D01*
X705072D01*
X702533Y775666D01*
Y765509D01*
X705072Y762970D01*
X710151D01*
X712690Y765509D01*
X717768Y762970D02*
X722847D01*
X720308D01*
Y778205D01*
X717768Y775666D01*
D16*
X920002Y960500D02*
Y967165D01*
X916669Y963832D02*
X923334D01*
M02*
