G04*
G04 #@! TF.GenerationSoftware,Altium Limited,Altium Designer,26.2.0 (7)*
G04*
G04 Layer_Color=16711935*
%FSLAX44Y44*%
%MOMM*%
G71*
G04*
G04 #@! TF.SameCoordinates,677BCB97-638B-4C21-9A98-921B494F770D*
G04*
G04*
G04 #@! TF.FilePolarity,Positive*
G04*
G01*
G75*
%ADD10C,0.2000*%
%ADD12C,0.1000*%
%ADD14C,0.1500*%
D10*
X831288Y800166D02*
Y840166D01*
X856288D01*
Y800166D02*
Y840166D01*
X831288Y800166D02*
X856288D01*
X787600Y911164D02*
Y951164D01*
X812600D01*
Y911164D02*
Y951164D01*
X787600Y911164D02*
X812600D01*
X725940Y706337D02*
Y746337D01*
X700940Y706337D02*
X725940D01*
X700940D02*
Y746337D01*
X725940D01*
X584190Y706337D02*
Y746337D01*
X559190Y706337D02*
X584190D01*
X559190D02*
Y746337D01*
X584190D01*
X632800Y560450D02*
Y579550D01*
X587200D02*
X632800D01*
X587200Y560450D02*
Y579550D01*
Y560450D02*
X632800D01*
X767500Y1040000D02*
X792500D01*
X767500Y1000000D02*
Y1040000D01*
Y1000000D02*
X792500D01*
Y1040000D01*
X732800Y560450D02*
Y579550D01*
X687200D02*
X732800D01*
X687200Y560450D02*
Y579550D01*
Y560450D02*
X732800D01*
X827500Y950000D02*
X852500D01*
X827500Y910000D02*
Y950000D01*
Y910000D02*
X852500D01*
Y950000D01*
X875608Y788242D02*
X938108D01*
Y850742D01*
X875608D02*
X938108D01*
X875608Y788242D02*
Y850742D01*
D12*
X747572Y882490D02*
G03*
X747572Y882490I-5000J0D01*
G01*
X606190Y686337D02*
G03*
X606190Y686337I-5000J0D01*
G01*
X393100Y688200D02*
X496100D01*
X393100Y736700D02*
X496100D01*
X393100Y688200D02*
Y736700D01*
X496100Y688200D02*
Y736700D01*
X393100Y724200D02*
X496100D01*
X393100Y791533D02*
X496100D01*
X393100Y840033D02*
X496100D01*
X393100Y791533D02*
Y840033D01*
X496100Y791533D02*
Y840033D01*
X393100Y827533D02*
X496100D01*
X393100Y998200D02*
X496100D01*
X393100Y1046700D02*
X496100D01*
X393100Y998200D02*
Y1046700D01*
X496100Y998200D02*
Y1046700D01*
X393100Y1034200D02*
X496100D01*
X393100Y894867D02*
X496100D01*
X393100Y943367D02*
X496100D01*
X393100Y894867D02*
Y943367D01*
X496100Y894867D02*
Y943367D01*
X393100Y930867D02*
X496100D01*
X733572Y789990D02*
Y891490D01*
X799572Y789990D02*
Y891490D01*
X733572D02*
X799572D01*
X733572Y789990D02*
X799572D01*
X592190Y677337D02*
X693690D01*
X592190Y743337D02*
X693690D01*
X592190Y677337D02*
Y743337D01*
X693690Y677337D02*
Y743337D01*
D14*
X690576Y869442D02*
G03*
X690576Y869442I-82500J0D01*
G01*
X547500Y567500D02*
G03*
X547500Y567500I-82500J0D01*
G01*
M02*
