G04*
G04 #@! TF.GenerationSoftware,Altium Limited,Altium Designer,26.2.0 (7)*
G04*
G04 Layer_Color=255*
%FSLAX44Y44*%
%MOMM*%
G71*
G04*
G04 #@! TF.SameCoordinates,677BCB97-638B-4C21-9A98-921B494F770D*
G04*
G04*
G04 #@! TF.FilePolarity,Positive*
G04*
G01*
G75*
%ADD19R,1.2000X1.2000*%
%ADD20C,1.2000*%
%ADD33R,1.2000X1.2000*%
%ADD34C,1.5500*%
%ADD35R,1.5500X1.5500*%
%ADD41R,1.8150X1.8150*%
%ADD42C,1.8150*%
%ADD43C,1.3000*%
G04:AMPARAMS|DCode=44|XSize=1.3mm|YSize=1.3mm|CornerRadius=0.325mm|HoleSize=0mm|Usage=FLASHONLY|Rotation=90.000|XOffset=0mm|YOffset=0mm|HoleType=Round|Shape=RoundedRectangle|*
%AMROUNDEDRECTD44*
21,1,1.3000,0.6500,0,0,90.0*
21,1,0.6500,1.3000,0,0,90.0*
1,1,0.6500,0.3250,0.3250*
1,1,0.6500,0.3250,-0.3250*
1,1,0.6500,-0.3250,-0.3250*
1,1,0.6500,-0.3250,0.3250*
%
%ADD44ROUNDEDRECTD44*%
%ADD45C,1.6000*%
%ADD46O,2.1000X2.2000*%
%ADD47R,1.6000X1.6000*%
%ADD48C,1.9500*%
%ADD49C,2.4000*%
%ADD50R,1.5000X1.5000*%
%ADD51C,1.5000*%
%ADD52C,1.6500*%
%ADD53R,1.3000X1.3000*%
%ADD54R,2.4000X2.4000*%
%ADD55R,1.5000X1.5000*%
%ADD56R,1.3000X1.3000*%
%ADD57C,6.0000*%
D19*
X843788Y795166D02*
D03*
X800100Y906164D02*
D03*
X713440Y751337D02*
D03*
X571690D02*
D03*
X780000Y1032500D02*
D03*
X840000Y942500D02*
D03*
D20*
X843788Y845166D02*
D03*
X800100Y956164D02*
D03*
X713440Y701337D02*
D03*
X571690D02*
D03*
X571870Y570000D02*
D03*
X780000Y1007500D02*
D03*
X671870Y570000D02*
D03*
X840000Y917500D02*
D03*
D33*
X648130Y570000D02*
D03*
X748130D02*
D03*
D34*
X608076Y831942D02*
D03*
X465000Y530000D02*
D03*
X929358Y851992D02*
D03*
Y786992D02*
D03*
X884358Y851992D02*
D03*
D35*
X608076Y906942D02*
D03*
X465000Y605000D02*
D03*
X884358Y786992D02*
D03*
D41*
X354600Y1170000D02*
D03*
D42*
X380000D02*
D03*
X405400D02*
D03*
D43*
X920000Y920000D02*
D03*
X850000Y1100000D02*
D03*
X870000D02*
D03*
X890000D02*
D03*
X800000Y390000D02*
D03*
Y410000D02*
D03*
Y430000D02*
D03*
D44*
X920000Y940000D02*
D03*
D45*
X711600Y610000D02*
D03*
X610000D02*
D03*
X790000Y570000D02*
D03*
Y671600D02*
D03*
X470000Y710000D02*
D03*
Y813333D02*
D03*
Y1020000D02*
D03*
Y916667D02*
D03*
X840000Y568400D02*
D03*
Y670000D02*
D03*
X890000Y568400D02*
D03*
Y670000D02*
D03*
X788162Y733298D02*
D03*
X889762D02*
D03*
X550000Y1008400D02*
D03*
Y1110000D02*
D03*
X600000Y1111600D02*
D03*
Y1010000D02*
D03*
D46*
X700000Y440000D02*
D03*
X650000D02*
D03*
X600000D02*
D03*
D47*
X419200Y710000D02*
D03*
Y813333D02*
D03*
Y1020000D02*
D03*
Y916667D02*
D03*
D48*
X300000Y685000D02*
D03*
Y720000D02*
D03*
Y1025000D02*
D03*
Y1060000D02*
D03*
Y795000D02*
D03*
Y830000D02*
D03*
Y910000D02*
D03*
Y945000D02*
D03*
D49*
X450000Y410000D02*
D03*
Y376000D02*
D03*
X315300D02*
D03*
Y410000D02*
D03*
X315158Y515000D02*
D03*
D50*
X728472Y878840D02*
D03*
D51*
Y853440D02*
D03*
Y828040D02*
D03*
Y802640D02*
D03*
X804672Y878840D02*
D03*
Y853440D02*
D03*
Y828040D02*
D03*
Y802640D02*
D03*
X630240Y672237D02*
D03*
X655640D02*
D03*
X681040D02*
D03*
X604840Y748437D02*
D03*
X630240D02*
D03*
X655640D02*
D03*
X681040D02*
D03*
D52*
X831000Y1100000D02*
D03*
X949000D02*
D03*
X800000Y371000D02*
D03*
Y489000D02*
D03*
D53*
X930000Y1100000D02*
D03*
D54*
X315158Y591200D02*
D03*
D55*
X604840Y672237D02*
D03*
D56*
X800000Y470000D02*
D03*
D57*
X930000Y390000D02*
D03*
X240000Y390000D02*
D03*
X930000Y1180000D02*
D03*
X240000D02*
D03*
M02*
