G04*
G04 #@! TF.GenerationSoftware,Altium Limited,Altium Designer,26.2.0 (7)*
G04*
G04 Layer_Color=32768*
%FSLAX44Y44*%
%MOMM*%
G71*
G04*
G04 #@! TF.SameCoordinates,2D8FE527-5C95-4938-8EC8-E0E4FE257E54*
G04*
G04*
G04 #@! TF.FilePolarity,Positive*
G04*
G01*
G75*
%ADD11C,0.1500*%
%ADD14C,0.1000*%
D11*
X357502Y64998D02*
X355003Y67498D01*
X350005D01*
X347506Y64998D01*
Y62499D01*
X350005Y60000D01*
X355003D01*
X357502Y57501D01*
Y55002D01*
X355003Y52502D01*
X350005D01*
X347506Y55002D01*
X362501Y67498D02*
Y52502D01*
X367499Y57501D01*
X372498Y52502D01*
Y67498D01*
X377496Y52502D02*
X382494D01*
X379995D01*
Y67498D01*
X377496Y64998D01*
D14*
X911666Y146668D02*
X913332Y145002D01*
X916665D01*
X918331Y146668D01*
Y153332D01*
X916665Y154998D01*
X913332D01*
X911666Y153332D01*
X908334Y146668D02*
X906668Y145002D01*
X903335D01*
X901669Y146668D01*
Y148334D01*
X903335Y150000D01*
X901669Y151666D01*
Y153332D01*
X903335Y154998D01*
X906668D01*
X908334Y153332D01*
Y151666D01*
X906668Y150000D01*
X908334Y148334D01*
Y146668D01*
X906668Y150000D02*
X903335D01*
M02*
