M48
;Layer_Color=9474304
;FILE_FORMAT=4:4
METRIC,LZ
;TYPE=PLATED
T01F00S00C0.7000
T02F00S00C0.8000
T03F00S00C0.9000
T04F00S00C1.0000
T05F00S00C1.1000
T06F00S00C1.2100
T07F00S00C1.3000
T08F00S00C1.6000
T09F00S00C3.2000
%
T01
X0057187Y0057
X0064813
X0067187
X0074813
X0071344Y00701337
Y00751337
X0057169
Y00701337
X0078Y010075
Y010325
X008001Y00956164
Y00906164
X0084Y009175
Y009425
X00843788Y00845166
Y00795166
T02
X008Y0039
Y0041
Y0043
Y0047
X0084Y005684
X0089
Y0067
X0084
X00889762Y00733298
X00788162
X0079Y006716
Y0057
X007116Y0061
X0061
X006Y0101
X0055Y010084
Y0111
X006Y011116
X0085Y011
X0087
X0089
X0093
X0092Y0094
Y0092
T03
X0060484Y00672237
X0063024
X0065564
X0068104
Y00748437
X0065564
X0063024
X0060484
X00728472Y0080264
Y0082804
Y0085344
Y0087884
X00804672
Y0085344
Y0082804
Y0080264
T04
X00884358Y00786992
X00929358
X0047Y0071
X004192
X00465Y00605
Y0053
X0047Y00813333
X004192
Y00916667
X0047
Y0102
X004192
X00608076Y00906942
Y00831942
X00884358Y00851992
X00929358
T05
X008Y00371
Y00489
X00831Y011
X00949
T06
X003546Y0117
X0038
X004054
T07
X006Y0044
X0065
X007
X003Y00685
Y0072
Y00795
Y0083
Y0091
Y00945
Y01025
Y0106
T08
X003153Y00376
X0045
Y0041
X003153
X00315158Y00515
Y005912
T09
X0024Y0039
X0093Y0039
X0024Y0118
X0093
M30
