G04*
G04 #@! TF.GenerationSoftware,Altium Limited,Altium Designer,26.2.0 (7)*
G04*
G04 Layer_Physical_Order=2*
G04 Layer_Color=16711680*
%FSLAX44Y44*%
%MOMM*%
G71*
G04*
G04 #@! TF.SameCoordinates,2D8FE527-5C95-4938-8EC8-E0E4FE257E54*
G04*
G04*
G04 #@! TF.FilePolarity,Positive*
G04*
G01*
G75*
%ADD15C,0.2540*%
%ADD17R,1.2000X1.2000*%
%ADD18C,1.2000*%
%ADD21R,1.5500X1.5500*%
%ADD22C,1.5500*%
%ADD25R,1.2000X1.2000*%
%ADD36C,2.0500*%
%ADD37R,2.0500X2.0500*%
%ADD39C,1.0000*%
%ADD40C,4.0000*%
%ADD41C,1.6000*%
%ADD42R,1.6000X1.6000*%
%ADD43C,1.5000*%
%ADD44R,1.5000X1.5000*%
%ADD45R,1.3000X1.3000*%
%ADD46C,1.3000*%
%ADD47C,1.6500*%
%ADD48C,1.4000*%
%ADD49R,1.5000X1.5000*%
%ADD50C,1.9500*%
%ADD51C,2.4000*%
%ADD52R,2.4000X2.4000*%
G04:AMPARAMS|DCode=53|XSize=1.3mm|YSize=1.3mm|CornerRadius=0.325mm|HoleSize=0mm|Usage=FLASHONLY|Rotation=180.000|XOffset=0mm|YOffset=0mm|HoleType=Round|Shape=RoundedRectangle|*
%AMROUNDEDRECTD53*
21,1,1.3000,0.6500,0,0,180.0*
21,1,0.6500,1.3000,0,0,180.0*
1,1,0.6500,-0.3250,0.3250*
1,1,0.6500,0.3250,0.3250*
1,1,0.6500,0.3250,-0.3250*
1,1,0.6500,-0.3250,-0.3250*
%
%ADD53ROUNDEDRECTD53*%
%ADD54O,2.2000X2.1000*%
%ADD55C,6.0000*%
%ADD56C,2.0000*%
G36*
X950000D02*
X0D01*
Y950000D01*
X950000D01*
Y0D01*
D02*
G37*
%LPC*%
G36*
X842561Y942540D02*
X837439D01*
X832380Y941739D01*
X827509Y940156D01*
X822945Y937831D01*
X818802Y934820D01*
X815180Y931198D01*
X812169Y927055D01*
X809844Y922491D01*
X808261Y917620D01*
X807460Y912561D01*
Y907439D01*
X808261Y902380D01*
X809844Y897509D01*
X812169Y892945D01*
X815180Y888802D01*
X818802Y885180D01*
X822945Y882169D01*
X827509Y879844D01*
X832380Y878261D01*
X837439Y877460D01*
X842561D01*
X847620Y878261D01*
X852491Y879844D01*
X857055Y882169D01*
X861198Y885180D01*
X864820Y888802D01*
X867831Y892945D01*
X870156Y897509D01*
X871739Y902380D01*
X872540Y907439D01*
Y912561D01*
X871739Y917620D01*
X870156Y922491D01*
X867831Y927055D01*
X864820Y931198D01*
X861198Y934820D01*
X857055Y937831D01*
X852491Y940156D01*
X847620Y941739D01*
X842561Y942540D01*
D02*
G37*
G36*
X42561D02*
X37439D01*
X32380Y941739D01*
X27509Y940156D01*
X22945Y937831D01*
X18802Y934820D01*
X15180Y931198D01*
X12169Y927055D01*
X9844Y922491D01*
X8261Y917620D01*
X7460Y912561D01*
Y907439D01*
X8261Y902380D01*
X9844Y897509D01*
X12169Y892945D01*
X15180Y888802D01*
X18802Y885180D01*
X22945Y882169D01*
X27509Y879844D01*
X32380Y878261D01*
X37439Y877460D01*
X42561D01*
X47620Y878261D01*
X52491Y879844D01*
X57055Y882169D01*
X61198Y885180D01*
X64820Y888802D01*
X67831Y892945D01*
X70156Y897509D01*
X71739Y902380D01*
X72540Y907439D01*
Y912561D01*
X71739Y917620D01*
X70156Y922491D01*
X67831Y927055D01*
X64820Y931198D01*
X61198Y934820D01*
X57055Y937831D01*
X52491Y940156D01*
X47620Y941739D01*
X42561Y942540D01*
D02*
G37*
G36*
X625000Y915201D02*
X620083Y914717D01*
X615356Y913283D01*
X610999Y910954D01*
X607180Y907820D01*
X604046Y904001D01*
X601717Y899644D01*
X600283Y894917D01*
X599799Y890000D01*
Y847439D01*
X582180Y829820D01*
X579046Y826001D01*
X576717Y821644D01*
X575283Y816917D01*
X574799Y812000D01*
Y704801D01*
X505201D01*
Y798061D01*
X527820Y820680D01*
X530954Y824499D01*
X533283Y828856D01*
X534717Y833583D01*
X535201Y838500D01*
Y875657D01*
X537741Y877014D01*
X537975Y876858D01*
X540674Y875740D01*
X543539Y875170D01*
X546461D01*
X549326Y875740D01*
X552025Y876858D01*
X554454Y878481D01*
X556519Y880546D01*
X558142Y882975D01*
X559260Y885674D01*
X559830Y888539D01*
Y891461D01*
X559260Y894326D01*
X558142Y897025D01*
X556519Y899454D01*
X554454Y901519D01*
X552025Y903142D01*
X549326Y904260D01*
X546461Y904830D01*
X543539D01*
X540674Y904260D01*
X537975Y903142D01*
X535546Y901519D01*
X535295Y901268D01*
X532167Y901732D01*
X530954Y904001D01*
X527820Y907820D01*
X524001Y910954D01*
X519644Y913283D01*
X514916Y914717D01*
X510000Y915201D01*
X505083Y914717D01*
X500356Y913283D01*
X495999Y910954D01*
X492180Y907820D01*
X489046Y904001D01*
X486717Y899644D01*
X485283Y894917D01*
X484799Y890000D01*
Y848939D01*
X462180Y826320D01*
X459046Y822501D01*
X456717Y818144D01*
X455283Y813417D01*
X454799Y808500D01*
Y704801D01*
X382201D01*
Y770311D01*
X412820Y800930D01*
X415954Y804749D01*
X418283Y809106D01*
X419717Y813833D01*
X420201Y818750D01*
Y875657D01*
X422741Y877014D01*
X422975Y876858D01*
X425674Y875740D01*
X428539Y875170D01*
X431461D01*
X434326Y875740D01*
X437025Y876858D01*
X439454Y878481D01*
X441519Y880546D01*
X443142Y882975D01*
X444260Y885674D01*
X444830Y888539D01*
Y891461D01*
X444260Y894326D01*
X443142Y897025D01*
X441519Y899454D01*
X439454Y901519D01*
X437025Y903142D01*
X434326Y904260D01*
X431461Y904830D01*
X428539D01*
X425674Y904260D01*
X422975Y903142D01*
X420546Y901519D01*
X420295Y901268D01*
X417167Y901732D01*
X415954Y904001D01*
X412820Y907820D01*
X409001Y910954D01*
X404644Y913283D01*
X399916Y914717D01*
X395000Y915201D01*
X390083Y914717D01*
X385356Y913283D01*
X380999Y910954D01*
X377180Y907820D01*
X374046Y904001D01*
X371717Y899644D01*
X370283Y894917D01*
X369799Y890000D01*
Y829189D01*
X339180Y798570D01*
X336046Y794751D01*
X333717Y790394D01*
X332283Y785667D01*
X331799Y780750D01*
Y704801D01*
X258870D01*
X250201Y713470D01*
Y739561D01*
X302820Y792180D01*
X305954Y795999D01*
X308283Y800356D01*
X309717Y805083D01*
X310201Y810000D01*
Y875657D01*
X312741Y877014D01*
X312975Y876858D01*
X315674Y875740D01*
X318539Y875170D01*
X321461D01*
X324326Y875740D01*
X327025Y876858D01*
X329454Y878481D01*
X331519Y880546D01*
X333142Y882975D01*
X334260Y885674D01*
X334830Y888539D01*
Y891461D01*
X334260Y894326D01*
X333142Y897025D01*
X331519Y899454D01*
X329454Y901519D01*
X327025Y903142D01*
X324326Y904260D01*
X321461Y904830D01*
X318539D01*
X315674Y904260D01*
X312975Y903142D01*
X310546Y901519D01*
X310295Y901268D01*
X307167Y901732D01*
X305954Y904001D01*
X302820Y907820D01*
X299001Y910954D01*
X294644Y913283D01*
X289916Y914717D01*
X285000Y915201D01*
X280083Y914717D01*
X275356Y913283D01*
X270999Y910954D01*
X267180Y907820D01*
X264046Y904001D01*
X261717Y899644D01*
X260283Y894917D01*
X259799Y890000D01*
Y820439D01*
X207180Y767820D01*
X204046Y764001D01*
X201717Y759644D01*
X200283Y754917D01*
X199799Y750000D01*
Y703031D01*
X200283Y698115D01*
X201717Y693387D01*
X204046Y689030D01*
X207180Y685211D01*
X230611Y661780D01*
X234430Y658646D01*
X238787Y656317D01*
X243515Y654883D01*
X248431Y654399D01*
X699600D01*
X704517Y654883D01*
X709244Y656317D01*
X713601Y658646D01*
X717420Y661780D01*
X820439Y764799D01*
X860000D01*
X864917Y765283D01*
X869644Y766717D01*
X874001Y769046D01*
X877820Y772180D01*
X880954Y775999D01*
X882797Y779447D01*
X888567D01*
X889516Y777552D01*
X889681Y776907D01*
X888082Y774137D01*
X887210Y770884D01*
Y770470D01*
X912790D01*
Y770884D01*
X911918Y774137D01*
X910235Y777053D01*
X908433Y778855D01*
X908387Y781162D01*
X908622Y781924D01*
X909772Y782692D01*
X911908Y784828D01*
X913585Y787338D01*
X914741Y790128D01*
X915330Y793090D01*
Y796110D01*
X914741Y799072D01*
X913585Y801861D01*
X911908Y804372D01*
X911610Y804670D01*
X912662Y807210D01*
X912790D01*
Y832790D01*
X887210D01*
Y809753D01*
X875465D01*
X874001Y810954D01*
X869644Y813283D01*
X864917Y814717D01*
X860000Y815201D01*
X810000D01*
X805083Y814717D01*
X800356Y813283D01*
X795999Y810954D01*
X792180Y807820D01*
X689161Y704801D01*
X625201D01*
Y801561D01*
X642820Y819180D01*
X645954Y822999D01*
X648283Y827356D01*
X649717Y832084D01*
X650201Y837000D01*
Y875657D01*
X652741Y877014D01*
X652975Y876858D01*
X655674Y875740D01*
X658539Y875170D01*
X661461D01*
X664326Y875740D01*
X667025Y876858D01*
X669454Y878481D01*
X671519Y880546D01*
X673142Y882975D01*
X674260Y885674D01*
X674830Y888539D01*
Y891461D01*
X674260Y894326D01*
X673142Y897025D01*
X671519Y899454D01*
X669454Y901519D01*
X667025Y903142D01*
X664326Y904260D01*
X661461Y904830D01*
X658539D01*
X655674Y904260D01*
X652975Y903142D01*
X650546Y901519D01*
X650295Y901268D01*
X647167Y901732D01*
X645954Y904001D01*
X642820Y907820D01*
X639001Y910954D01*
X634644Y913283D01*
X629916Y914717D01*
X625000Y915201D01*
D02*
G37*
G36*
X912790Y767930D02*
X901270D01*
Y756410D01*
X901684D01*
X904937Y757282D01*
X907853Y758966D01*
X910235Y761347D01*
X911918Y764263D01*
X912790Y767516D01*
Y767930D01*
D02*
G37*
G36*
X898730D02*
X887210D01*
Y767516D01*
X888082Y764263D01*
X889765Y761347D01*
X892147Y758966D01*
X895063Y757282D01*
X898316Y756410D01*
X898730D01*
Y767930D01*
D02*
G37*
G36*
X673080Y743480D02*
X646920D01*
Y717320D01*
X673080D01*
Y743480D01*
D02*
G37*
G36*
X553080D02*
X526920D01*
Y717320D01*
X553080D01*
Y743480D01*
D02*
G37*
G36*
X433080D02*
X406920D01*
Y717320D01*
X433080D01*
Y743480D01*
D02*
G37*
G36*
X298080D02*
X271920D01*
Y717320D01*
X298080D01*
Y743480D01*
D02*
G37*
G36*
X841256Y707640D02*
X838744D01*
X836318Y706990D01*
X834142Y705734D01*
X832366Y703958D01*
X831110Y701782D01*
X830460Y699356D01*
Y696844D01*
X831110Y694418D01*
X832366Y692242D01*
X834142Y690466D01*
X836318Y689210D01*
X838744Y688560D01*
X841256D01*
X843682Y689210D01*
X845858Y690466D01*
X847634Y692242D01*
X848890Y694418D01*
X849540Y696844D01*
Y699356D01*
X848890Y701782D01*
X847634Y703958D01*
X845858Y705734D01*
X843682Y706990D01*
X841256Y707640D01*
D02*
G37*
G36*
X801256D02*
X798744D01*
X796318Y706990D01*
X794142Y705734D01*
X792366Y703958D01*
X791110Y701782D01*
X790460Y699356D01*
Y696844D01*
X791110Y694418D01*
X792366Y692242D01*
X794142Y690466D01*
X796318Y689210D01*
X798744Y688560D01*
X801256D01*
X803682Y689210D01*
X805858Y690466D01*
X807634Y692242D01*
X808890Y694418D01*
X809540Y696844D01*
Y699356D01*
X808890Y701782D01*
X807634Y703958D01*
X805858Y705734D01*
X803682Y706990D01*
X801256Y707640D01*
D02*
G37*
G36*
X841270Y631436D02*
Y623170D01*
X849536D01*
X848890Y625582D01*
X847634Y627758D01*
X845858Y629534D01*
X843682Y630790D01*
X841270Y631436D01*
D02*
G37*
G36*
X838730D02*
X836318Y630790D01*
X834142Y629534D01*
X832366Y627758D01*
X831110Y625582D01*
X830464Y623170D01*
X838730D01*
Y631436D01*
D02*
G37*
G36*
X849536Y620630D02*
X841270D01*
Y612364D01*
X843682Y613010D01*
X845858Y614266D01*
X847634Y616042D01*
X848890Y618218D01*
X849536Y620630D01*
D02*
G37*
G36*
X838730D02*
X830464D01*
X831110Y618218D01*
X832366Y616042D01*
X834142Y614266D01*
X836318Y613010D01*
X838730Y612364D01*
Y620630D01*
D02*
G37*
G36*
X801256Y631440D02*
X798744D01*
X796318Y630790D01*
X794142Y629534D01*
X792366Y627758D01*
X791110Y625582D01*
X790460Y623156D01*
Y620644D01*
X791110Y618218D01*
X792366Y616042D01*
X794142Y614266D01*
X796318Y613010D01*
X798744Y612360D01*
X801256D01*
X803682Y613010D01*
X805858Y614266D01*
X807634Y616042D01*
X808890Y618218D01*
X809540Y620644D01*
Y623156D01*
X808890Y625582D01*
X807634Y627758D01*
X805858Y629534D01*
X803682Y630790D01*
X801256Y631440D01*
D02*
G37*
G36*
X626670Y563540D02*
X609590D01*
Y546460D01*
X626670D01*
Y563540D01*
D02*
G37*
G36*
X542994D02*
X540746D01*
X538574Y562958D01*
X536626Y561834D01*
X535036Y560244D01*
X533912Y558296D01*
X533330Y556124D01*
Y553876D01*
X533912Y551704D01*
X535036Y549756D01*
X536626Y548166D01*
X538574Y547042D01*
X540746Y546460D01*
X542994D01*
X545166Y547042D01*
X547114Y548166D01*
X548704Y549756D01*
X549828Y551704D01*
X550410Y553876D01*
Y556124D01*
X549828Y558296D01*
X548704Y560244D01*
X547114Y561834D01*
X545166Y562958D01*
X542994Y563540D01*
D02*
G37*
G36*
X740500Y558153D02*
X739500D01*
X736096Y557704D01*
X732924Y556390D01*
X730200Y554300D01*
X728110Y551576D01*
X726796Y548404D01*
X726348Y545000D01*
X726796Y541596D01*
X728110Y538424D01*
X730200Y535700D01*
X732924Y533610D01*
X736096Y532296D01*
X739500Y531847D01*
X740500D01*
X743904Y532296D01*
X747076Y533610D01*
X749800Y535700D01*
X751890Y538424D01*
X753204Y541596D01*
X753652Y545000D01*
X753204Y548404D01*
X751890Y551576D01*
X749800Y554300D01*
X747076Y556390D01*
X743904Y557704D01*
X740500Y558153D01*
D02*
G37*
G36*
X506590Y555180D02*
X503410D01*
X500337Y554357D01*
X497583Y552766D01*
X495334Y550517D01*
X493743Y547763D01*
X492920Y544690D01*
Y541510D01*
X493743Y538437D01*
X495334Y535683D01*
X497583Y533434D01*
X500337Y531843D01*
X503410Y531020D01*
X506590D01*
X509663Y531843D01*
X512417Y533434D01*
X514666Y535683D01*
X516257Y538437D01*
X517080Y541510D01*
Y544690D01*
X516257Y547763D01*
X514666Y550517D01*
X512417Y552766D01*
X509663Y554357D01*
X506590Y555180D01*
D02*
G37*
G36*
X740500Y508153D02*
X739500D01*
X736096Y507704D01*
X732924Y506390D01*
X730200Y504300D01*
X728110Y501576D01*
X726796Y498404D01*
X726348Y495000D01*
X726796Y491596D01*
X728110Y488424D01*
X730200Y485700D01*
X732924Y483610D01*
X736096Y482296D01*
X739500Y481847D01*
X740500D01*
X743904Y482296D01*
X747076Y483610D01*
X749800Y485700D01*
X751890Y488424D01*
X753204Y491596D01*
X753652Y495000D01*
X753204Y498404D01*
X751890Y501576D01*
X749800Y504300D01*
X747076Y506390D01*
X743904Y507704D01*
X740500Y508153D01*
D02*
G37*
G36*
X506256Y476440D02*
X503744D01*
X501318Y475790D01*
X499142Y474534D01*
X497366Y472758D01*
X496110Y470582D01*
X495460Y468156D01*
Y465644D01*
X496110Y463218D01*
X497366Y461042D01*
X499142Y459266D01*
X501318Y458010D01*
X503744Y457360D01*
X506256D01*
X508682Y458010D01*
X510858Y459266D01*
X512634Y461042D01*
X513890Y463218D01*
X514540Y465644D01*
Y468156D01*
X513890Y470582D01*
X512634Y472758D01*
X510858Y474534D01*
X508682Y475790D01*
X506256Y476440D01*
D02*
G37*
G36*
X740500Y458153D02*
X739500D01*
X736096Y457704D01*
X732924Y456390D01*
X730200Y454300D01*
X728110Y451576D01*
X726796Y448404D01*
X726348Y445000D01*
X726796Y441596D01*
X728110Y438424D01*
X730200Y435700D01*
X732924Y433610D01*
X736096Y432296D01*
X739500Y431847D01*
X740500D01*
X743904Y432296D01*
X747076Y433610D01*
X749800Y435700D01*
X751890Y438424D01*
X753204Y441596D01*
X753652Y445000D01*
X753204Y448404D01*
X751890Y451576D01*
X749800Y454300D01*
X747076Y456390D01*
X743904Y457704D01*
X740500Y458153D01*
D02*
G37*
G36*
X619254Y448540D02*
X617006D01*
X614834Y447958D01*
X612886Y446834D01*
X611296Y445244D01*
X610172Y443296D01*
X609590Y441124D01*
Y438876D01*
X610172Y436704D01*
X611296Y434756D01*
X612886Y433166D01*
X614834Y432042D01*
X617006Y431460D01*
X619254D01*
X621426Y432042D01*
X623374Y433166D01*
X624964Y434756D01*
X626088Y436704D01*
X626670Y438876D01*
Y441124D01*
X626088Y443296D01*
X624964Y445244D01*
X623374Y446834D01*
X621426Y447958D01*
X619254Y448540D01*
D02*
G37*
G36*
X187790Y400290D02*
X178770D01*
Y391270D01*
X187790D01*
Y400290D01*
D02*
G37*
G36*
X176230D02*
X167210D01*
Y391270D01*
X176230D01*
Y400290D01*
D02*
G37*
G36*
X187790Y388730D02*
X178770D01*
Y379710D01*
X187790D01*
Y388730D01*
D02*
G37*
G36*
X176230D02*
X167210D01*
Y379710D01*
X176230D01*
Y388730D01*
D02*
G37*
G36*
X104189Y402830D02*
X100811D01*
X97548Y401956D01*
X94622Y400267D01*
X92233Y397878D01*
X90544Y394952D01*
X89670Y391689D01*
Y388311D01*
X90544Y385048D01*
X92233Y382122D01*
X94622Y379734D01*
X97548Y378044D01*
X100811Y377170D01*
X104189D01*
X107452Y378044D01*
X110378Y379734D01*
X112767Y382122D01*
X114456Y385048D01*
X115330Y388311D01*
Y391689D01*
X114456Y394952D01*
X112767Y397878D01*
X110378Y400267D01*
X107452Y401956D01*
X104189Y402830D01*
D02*
G37*
G36*
X841270Y368501D02*
Y361270D01*
X848501D01*
X847958Y363296D01*
X846834Y365244D01*
X845244Y366834D01*
X843296Y367958D01*
X841270Y368501D01*
D02*
G37*
G36*
X838730D02*
X836704Y367958D01*
X834756Y366834D01*
X833166Y365244D01*
X832042Y363296D01*
X831499Y361270D01*
X838730D01*
Y368501D01*
D02*
G37*
G36*
X848501Y358730D02*
X841270D01*
Y351499D01*
X843296Y352042D01*
X845244Y353166D01*
X846834Y354756D01*
X847958Y356704D01*
X848501Y358730D01*
D02*
G37*
G36*
X838730D02*
X831499D01*
X832042Y356704D01*
X833166Y354756D01*
X834756Y353166D01*
X836704Y352042D01*
X838730Y351499D01*
Y358730D01*
D02*
G37*
G36*
X336270Y338501D02*
Y331270D01*
X343501D01*
X342958Y333296D01*
X341834Y335244D01*
X340244Y336834D01*
X338296Y337958D01*
X336270Y338501D01*
D02*
G37*
G36*
X333730D02*
X331704Y337958D01*
X329756Y336834D01*
X328166Y335244D01*
X327042Y333296D01*
X326499Y331270D01*
X333730D01*
Y338501D01*
D02*
G37*
G36*
X343501Y328730D02*
X336270D01*
Y321499D01*
X338296Y322042D01*
X340244Y323166D01*
X341834Y324756D01*
X342958Y326704D01*
X343501Y328730D01*
D02*
G37*
G36*
X333730D02*
X326499D01*
X327042Y326704D01*
X328166Y324756D01*
X329756Y323166D01*
X331704Y322042D01*
X333730Y321499D01*
Y328730D01*
D02*
G37*
G36*
X741940Y318140D02*
X733170D01*
Y309370D01*
X741940D01*
Y318140D01*
D02*
G37*
G36*
X730630D02*
X721860D01*
Y309370D01*
X730630D01*
Y318140D01*
D02*
G37*
G36*
X851080Y321080D02*
X828920D01*
Y298920D01*
X851080D01*
Y321080D01*
D02*
G37*
G36*
X741940Y306830D02*
X733170D01*
Y298060D01*
X741940D01*
Y306830D01*
D02*
G37*
G36*
X730630D02*
X721860D01*
Y298060D01*
X730630D01*
Y306830D01*
D02*
G37*
G36*
X550410Y448540D02*
X533330D01*
Y431460D01*
X537985D01*
Y423130D01*
X538281Y421643D01*
X539123Y420383D01*
X557253Y402253D01*
X558513Y401411D01*
X560000Y401115D01*
X684191D01*
X798741Y286565D01*
X798060Y284022D01*
Y281378D01*
X798744Y278825D01*
X800066Y276535D01*
X801935Y274666D01*
X804225Y273344D01*
X806778Y272660D01*
X809422D01*
X811975Y273344D01*
X814265Y274666D01*
X816134Y276535D01*
X817456Y278825D01*
X818140Y281378D01*
Y284022D01*
X817456Y286575D01*
X816134Y288865D01*
X814265Y290734D01*
X811975Y292056D01*
X809422Y292740D01*
X806778D01*
X805192Y292315D01*
X803397Y293978D01*
X805946Y295653D01*
X806444Y295520D01*
X809756D01*
X812956Y296377D01*
X815824Y298034D01*
X818167Y300376D01*
X819823Y303244D01*
X820680Y306444D01*
Y309756D01*
X819823Y312956D01*
X818167Y315824D01*
X815824Y318167D01*
X812956Y319823D01*
X809756Y320680D01*
X806444D01*
X803244Y319823D01*
X800376Y318167D01*
X798034Y315824D01*
X796377Y312956D01*
X795520Y309756D01*
Y306444D01*
X795653Y305946D01*
X793785Y303103D01*
X793267Y303027D01*
X688547Y407747D01*
X687287Y408589D01*
X685800Y408885D01*
X561609D01*
X545755Y424739D01*
Y431460D01*
X550410D01*
Y448540D01*
D02*
G37*
G36*
X512790Y288730D02*
X503770D01*
Y279710D01*
X512790D01*
Y288730D01*
D02*
G37*
G36*
X501230D02*
X492210D01*
Y279710D01*
X501230D01*
Y288730D01*
D02*
G37*
G36*
X346080Y291080D02*
X323920D01*
Y268920D01*
X346080D01*
Y291080D01*
D02*
G37*
G36*
X733222Y292740D02*
X730578D01*
X728025Y292056D01*
X725735Y290734D01*
X723866Y288865D01*
X722544Y286575D01*
X721860Y284022D01*
Y281378D01*
X722544Y278825D01*
X723866Y276535D01*
X725735Y274666D01*
X728025Y273344D01*
X730578Y272660D01*
X733222D01*
X735765Y273341D01*
X754553Y254553D01*
X755813Y253711D01*
X757300Y253415D01*
X798750D01*
X800066Y251135D01*
X801935Y249266D01*
X804225Y247944D01*
X806778Y247260D01*
X809422D01*
X811975Y247944D01*
X814265Y249266D01*
X816134Y251135D01*
X817456Y253425D01*
X818140Y255978D01*
Y258622D01*
X817456Y261175D01*
X816134Y263465D01*
X814265Y265334D01*
X811975Y266656D01*
X809422Y267340D01*
X806778D01*
X804225Y266656D01*
X801935Y265334D01*
X800066Y263465D01*
X798750Y261185D01*
X758909D01*
X741259Y278835D01*
X741940Y281378D01*
Y284022D01*
X741256Y286575D01*
X739934Y288865D01*
X738065Y290734D01*
X735775Y292056D01*
X733222Y292740D01*
D02*
G37*
G36*
Y267340D02*
X730578D01*
X728025Y266656D01*
X725735Y265334D01*
X723866Y263465D01*
X722544Y261175D01*
X721860Y258622D01*
Y255978D01*
X722544Y253425D01*
X723866Y251135D01*
X725735Y249266D01*
X728025Y247944D01*
X730578Y247260D01*
X733222D01*
X735775Y247944D01*
X738065Y249266D01*
X739934Y251135D01*
X741256Y253425D01*
X741940Y255978D01*
Y258622D01*
X741256Y261175D01*
X739934Y263465D01*
X738065Y265334D01*
X735775Y266656D01*
X733222Y267340D01*
D02*
G37*
G36*
X423140Y243140D02*
X414370D01*
Y234370D01*
X423140D01*
Y243140D01*
D02*
G37*
G36*
X411830D02*
X403060D01*
Y234370D01*
X411830D01*
Y243140D01*
D02*
G37*
G36*
X891270Y238501D02*
Y231270D01*
X898501D01*
X897958Y233296D01*
X896834Y235244D01*
X895244Y236834D01*
X893296Y237958D01*
X891270Y238501D01*
D02*
G37*
G36*
X888730D02*
X886704Y237958D01*
X884756Y236834D01*
X883166Y235244D01*
X882042Y233296D01*
X881499Y231270D01*
X888730D01*
Y238501D01*
D02*
G37*
G36*
X423140Y231830D02*
X414370D01*
Y223060D01*
X423140D01*
Y231830D01*
D02*
G37*
G36*
X411830D02*
X403060D01*
Y223060D01*
X411830D01*
Y231830D01*
D02*
G37*
G36*
X389022Y243140D02*
X386378D01*
X383825Y242456D01*
X381535Y241134D01*
X379666Y239265D01*
X378344Y236975D01*
X377660Y234422D01*
Y231778D01*
X378344Y229225D01*
X379666Y226935D01*
X381535Y225066D01*
X383825Y223744D01*
X386378Y223060D01*
X389022D01*
X391575Y223744D01*
X393865Y225066D01*
X395734Y226935D01*
X397056Y229225D01*
X397740Y231778D01*
Y234422D01*
X397056Y236975D01*
X395734Y239265D01*
X393865Y241134D01*
X391575Y242456D01*
X389022Y243140D01*
D02*
G37*
G36*
X809422Y241940D02*
X806778D01*
X804225Y241256D01*
X801935Y239934D01*
X800066Y238065D01*
X798744Y235775D01*
X798060Y233222D01*
Y230578D01*
X798744Y228025D01*
X800066Y225735D01*
X801935Y223866D01*
X804225Y222544D01*
X806778Y221860D01*
X809422D01*
X811975Y222544D01*
X814265Y223866D01*
X816134Y225735D01*
X817456Y228025D01*
X818140Y230578D01*
Y233222D01*
X817456Y235775D01*
X816134Y238065D01*
X814265Y239934D01*
X811975Y241256D01*
X809422Y241940D01*
D02*
G37*
G36*
X635000Y308885D02*
X434200D01*
X432713Y308589D01*
X431453Y307747D01*
X366165Y242459D01*
X363622Y243140D01*
X360978D01*
X358425Y242456D01*
X356135Y241134D01*
X354266Y239265D01*
X352944Y236975D01*
X352260Y234422D01*
Y231778D01*
X352944Y229225D01*
X354266Y226935D01*
X356135Y225066D01*
X358425Y223744D01*
X360978Y223060D01*
X363622D01*
X366175Y223744D01*
X368465Y225066D01*
X370334Y226935D01*
X371656Y229225D01*
X372340Y231778D01*
Y234422D01*
X371659Y236965D01*
X435809Y301115D01*
X490012D01*
X492210Y300290D01*
X492210Y298575D01*
Y291270D01*
X512790D01*
Y298575D01*
X512790Y300290D01*
X514988Y301115D01*
X571092D01*
X571773Y298575D01*
X571182Y298234D01*
X569266Y296318D01*
X567911Y293972D01*
X567210Y291355D01*
Y288645D01*
X567911Y286028D01*
X567956Y285950D01*
X557253Y275247D01*
X556411Y273987D01*
X556115Y272500D01*
Y121609D01*
X541067Y106561D01*
X538790Y107875D01*
X539040Y108810D01*
Y111190D01*
X538424Y113489D01*
X537234Y115551D01*
X535551Y117234D01*
X533489Y118424D01*
X532514Y118685D01*
Y121315D01*
X533489Y121576D01*
X535551Y122766D01*
X537234Y124449D01*
X538424Y126511D01*
X539040Y128810D01*
Y131190D01*
X538424Y133489D01*
X537234Y135551D01*
X535818Y136967D01*
X535700Y138348D01*
X535915Y139956D01*
X536625Y140366D01*
X538634Y142375D01*
X540055Y144835D01*
X540790Y147579D01*
Y150421D01*
X540055Y153165D01*
X538634Y155625D01*
X536625Y157634D01*
X534165Y159055D01*
X531421Y159790D01*
X528579D01*
X525835Y159055D01*
X523375Y157634D01*
X521366Y155625D01*
X519945Y153165D01*
X519210Y150421D01*
Y147579D01*
X519945Y144835D01*
X521366Y142375D01*
X523375Y140366D01*
X524085Y139956D01*
X524300Y138348D01*
X524182Y136967D01*
X522766Y135551D01*
X521576Y133489D01*
X520960Y131190D01*
Y128810D01*
X521576Y126511D01*
X522766Y124449D01*
X524449Y122766D01*
X526511Y121576D01*
X527486Y121315D01*
Y118685D01*
X526511Y118424D01*
X524449Y117234D01*
X522766Y115551D01*
X521576Y113489D01*
X520960Y111190D01*
Y108810D01*
X521576Y106511D01*
X522766Y104449D01*
X524449Y102766D01*
X526511Y101576D01*
X527486Y101315D01*
Y98685D01*
X526511Y98424D01*
X524449Y97234D01*
X522766Y95551D01*
X521804Y93885D01*
X491609D01*
X452747Y132747D01*
X451487Y133589D01*
X450000Y133885D01*
X401609D01*
X391585Y143909D01*
Y147550D01*
X393865Y148866D01*
X395734Y150735D01*
X397056Y153025D01*
X397740Y155578D01*
Y158222D01*
X397056Y160775D01*
X395734Y163065D01*
X393865Y164934D01*
X391575Y166256D01*
X389022Y166940D01*
X386378D01*
X383825Y166256D01*
X381535Y164934D01*
X379666Y163065D01*
X378344Y160775D01*
X377660Y158222D01*
Y155578D01*
X378344Y153025D01*
X379666Y150735D01*
X381535Y148866D01*
X383815Y147550D01*
Y142300D01*
X384111Y140813D01*
X384953Y139553D01*
X397253Y127253D01*
X398513Y126411D01*
X400000Y126115D01*
X448391D01*
X487253Y87253D01*
X488513Y86411D01*
X490000Y86115D01*
X521804D01*
X522766Y84449D01*
X524449Y82766D01*
X526511Y81576D01*
X528810Y80960D01*
X531190D01*
X533489Y81576D01*
X535551Y82766D01*
X537234Y84449D01*
X538424Y86511D01*
X539040Y88810D01*
Y91190D01*
X538542Y93048D01*
X562747Y117253D01*
X563589Y118513D01*
X563885Y120000D01*
Y270891D01*
X573450Y280456D01*
X573528Y280411D01*
X576145Y279710D01*
X578855D01*
X581472Y280411D01*
X583818Y281766D01*
X585734Y283682D01*
X587089Y286028D01*
X587790Y288645D01*
Y291355D01*
X587089Y293972D01*
X585734Y296318D01*
X583818Y298234D01*
X583227Y298575D01*
X583908Y301115D01*
X633391D01*
X705353Y229153D01*
X706613Y228311D01*
X708100Y228015D01*
X722550D01*
X723866Y225735D01*
X725735Y223866D01*
X728025Y222544D01*
X730578Y221860D01*
X733222D01*
X735775Y222544D01*
X738065Y223866D01*
X739934Y225735D01*
X741256Y228025D01*
X741940Y230578D01*
Y233222D01*
X741256Y235775D01*
X739934Y238065D01*
X738065Y239934D01*
X735775Y241256D01*
X733222Y241940D01*
X730578D01*
X728025Y241256D01*
X725735Y239934D01*
X723866Y238065D01*
X722550Y235785D01*
X709709D01*
X637747Y307747D01*
X636487Y308589D01*
X635000Y308885D01*
D02*
G37*
G36*
X898501Y228730D02*
X891270D01*
Y221499D01*
X893296Y222042D01*
X895244Y223166D01*
X896834Y224756D01*
X897958Y226704D01*
X898501Y228730D01*
D02*
G37*
G36*
X888730D02*
X881499D01*
X882042Y226704D01*
X883166Y224756D01*
X884756Y223166D01*
X886704Y222042D01*
X888730Y221499D01*
Y228730D01*
D02*
G37*
G36*
X848540Y238540D02*
X831460D01*
Y221460D01*
X848540D01*
Y238540D01*
D02*
G37*
G36*
X338556Y245680D02*
X335244D01*
X332044Y244823D01*
X329176Y243167D01*
X326833Y240824D01*
X325177Y237956D01*
X324320Y234756D01*
Y231444D01*
X325177Y228244D01*
X326833Y225376D01*
X329176Y223034D01*
X332044Y221377D01*
X335244Y220520D01*
X338556D01*
X341756Y221377D01*
X344624Y223034D01*
X346967Y225376D01*
X348623Y228244D01*
X349480Y231444D01*
Y234756D01*
X348623Y237956D01*
X346967Y240824D01*
X344624Y243167D01*
X341756Y244823D01*
X338556Y245680D01*
D02*
G37*
G36*
X246682Y266080D02*
X243318D01*
X240018Y265424D01*
X236910Y264136D01*
X234112Y262267D01*
X231733Y259888D01*
X229864Y257090D01*
X228576Y253982D01*
X227920Y250682D01*
Y247318D01*
X228576Y244018D01*
X229864Y240910D01*
X231733Y238112D01*
X234112Y235733D01*
X236910Y233864D01*
X238091Y233375D01*
Y230625D01*
X236910Y230136D01*
X234112Y228267D01*
X231733Y225888D01*
X229864Y223090D01*
X228576Y219982D01*
X227920Y216682D01*
Y213318D01*
X228576Y210018D01*
X229864Y206910D01*
X231733Y204112D01*
X234112Y201733D01*
X236910Y199864D01*
X240018Y198576D01*
X243318Y197920D01*
X246682D01*
X249982Y198576D01*
X253090Y199864D01*
X255888Y201733D01*
X258267Y204112D01*
X260136Y206910D01*
X261424Y210018D01*
X262080Y213318D01*
Y216682D01*
X261424Y219982D01*
X260136Y223090D01*
X258267Y225888D01*
X255888Y228267D01*
X253090Y230136D01*
X251909Y230625D01*
Y233375D01*
X253090Y233864D01*
X255888Y235733D01*
X258267Y238112D01*
X260136Y240910D01*
X261424Y244018D01*
X262080Y247318D01*
Y250682D01*
X261424Y253982D01*
X260136Y257090D01*
X258267Y259888D01*
X255888Y262267D01*
X253090Y264136D01*
X249982Y265424D01*
X246682Y266080D01*
D02*
G37*
G36*
X111982D02*
X108618D01*
X105318Y265424D01*
X102210Y264136D01*
X99412Y262267D01*
X97033Y259888D01*
X95164Y257090D01*
X93876Y253982D01*
X93220Y250682D01*
Y247318D01*
X93876Y244018D01*
X95164Y240910D01*
X97033Y238112D01*
X99412Y235733D01*
X102210Y233864D01*
X103391Y233375D01*
Y230625D01*
X102210Y230136D01*
X99412Y228267D01*
X97033Y225888D01*
X95164Y223090D01*
X93876Y219982D01*
X93220Y216682D01*
Y213318D01*
X93876Y210018D01*
X95164Y206910D01*
X97033Y204112D01*
X99412Y201733D01*
X102210Y199864D01*
X105318Y198576D01*
X108618Y197920D01*
X111982D01*
X115282Y198576D01*
X118390Y199864D01*
X121188Y201733D01*
X123567Y204112D01*
X125436Y206910D01*
X126724Y210018D01*
X127380Y213318D01*
Y216682D01*
X126724Y219982D01*
X125436Y223090D01*
X123567Y225888D01*
X121188Y228267D01*
X118390Y230136D01*
X117209Y230625D01*
Y233375D01*
X118390Y233864D01*
X121188Y235733D01*
X123567Y238112D01*
X125436Y240910D01*
X126724Y244018D01*
X127380Y247318D01*
Y250682D01*
X126724Y253982D01*
X125436Y257090D01*
X123567Y259888D01*
X121188Y262267D01*
X118390Y264136D01*
X115282Y265424D01*
X111982Y266080D01*
D02*
G37*
G36*
X921270Y159019D02*
Y151270D01*
X929019D01*
X928424Y153489D01*
X927234Y155551D01*
X925551Y157234D01*
X923489Y158424D01*
X921270Y159019D01*
D02*
G37*
G36*
X836270Y156001D02*
Y148770D01*
X843501D01*
X842958Y150796D01*
X841834Y152744D01*
X840244Y154334D01*
X838296Y155458D01*
X836270Y156001D01*
D02*
G37*
G36*
X833730D02*
X831704Y155458D01*
X829756Y154334D01*
X828166Y152744D01*
X827042Y150796D01*
X826499Y148770D01*
X833730D01*
Y156001D01*
D02*
G37*
G36*
X363622Y166940D02*
X360978D01*
X358425Y166256D01*
X356135Y164934D01*
X354266Y163065D01*
X352944Y160775D01*
X352260Y158222D01*
Y155578D01*
X352944Y153025D01*
X354266Y150735D01*
X356135Y148866D01*
X358425Y147544D01*
X360978Y146860D01*
X363622D01*
X366175Y147544D01*
X368465Y148866D01*
X370334Y150735D01*
X371656Y153025D01*
X372340Y155578D01*
Y158222D01*
X371656Y160775D01*
X370334Y163065D01*
X368465Y164934D01*
X366175Y166256D01*
X363622Y166940D01*
D02*
G37*
G36*
X338222D02*
X335578D01*
X333025Y166256D01*
X330735Y164934D01*
X328866Y163065D01*
X327544Y160775D01*
X326860Y158222D01*
Y155578D01*
X327544Y153025D01*
X328866Y150735D01*
X330735Y148866D01*
X333025Y147544D01*
X335578Y146860D01*
X338222D01*
X340775Y147544D01*
X343065Y148866D01*
X344934Y150735D01*
X346256Y153025D01*
X346940Y155578D01*
Y158222D01*
X346256Y160775D01*
X344934Y163065D01*
X343065Y164934D01*
X340775Y166256D01*
X338222Y166940D01*
D02*
G37*
G36*
X298540Y163540D02*
X281460D01*
Y146460D01*
X298540D01*
Y163540D01*
D02*
G37*
G36*
X414756Y169480D02*
X411444D01*
X408244Y168623D01*
X405376Y166966D01*
X403033Y164624D01*
X401377Y161756D01*
X400520Y158556D01*
Y155244D01*
X401377Y152044D01*
X403033Y149176D01*
X405376Y146833D01*
X408244Y145177D01*
X411444Y144320D01*
X414756D01*
X417956Y145177D01*
X420824Y146833D01*
X423167Y149176D01*
X424823Y152044D01*
X425680Y155244D01*
Y158556D01*
X424823Y161756D01*
X423167Y164624D01*
X420824Y166966D01*
X417956Y168623D01*
X414756Y169480D01*
D02*
G37*
G36*
X929019Y148730D02*
X921270D01*
Y140981D01*
X923489Y141576D01*
X925551Y142766D01*
X927234Y144449D01*
X928424Y146511D01*
X929019Y148730D01*
D02*
G37*
G36*
X903250Y159153D02*
X896750D01*
X894491Y158704D01*
X892576Y157424D01*
X891296Y155509D01*
X890847Y153250D01*
Y146750D01*
X891296Y144491D01*
X892576Y142576D01*
X894491Y141296D01*
X896750Y140847D01*
X903250D01*
X905509Y141296D01*
X907424Y142576D01*
X908704Y144491D01*
X909038Y146169D01*
X911524Y146504D01*
X911587Y146492D01*
X912766Y144449D01*
X914449Y142766D01*
X916511Y141576D01*
X918730Y140981D01*
Y150000D01*
Y159019D01*
X916511Y158424D01*
X914449Y157234D01*
X912766Y155551D01*
X911587Y153508D01*
X911524Y153496D01*
X909038Y153831D01*
X908704Y155509D01*
X907424Y157424D01*
X905509Y158704D01*
X903250Y159153D01*
D02*
G37*
G36*
X843501Y146230D02*
X836270D01*
Y138999D01*
X838296Y139542D01*
X840244Y140666D01*
X841834Y142256D01*
X842958Y144204D01*
X843501Y146230D01*
D02*
G37*
G36*
X833730D02*
X826499D01*
X827042Y144204D01*
X828166Y142256D01*
X829756Y140666D01*
X831704Y139542D01*
X833730Y138999D01*
Y146230D01*
D02*
G37*
G36*
X588156Y154540D02*
X585644D01*
X583218Y153890D01*
X581042Y152634D01*
X579266Y150858D01*
X578010Y148682D01*
X577360Y146256D01*
Y143744D01*
X578010Y141318D01*
X579266Y139142D01*
X581042Y137366D01*
X583218Y136110D01*
X585644Y135460D01*
X588156D01*
X590582Y136110D01*
X592758Y137366D01*
X594534Y139142D01*
X595790Y141318D01*
X596440Y143744D01*
Y146256D01*
X595790Y148682D01*
X594534Y150858D01*
X592758Y152634D01*
X590582Y153890D01*
X588156Y154540D01*
D02*
G37*
G36*
X664690Y157080D02*
X661510D01*
X658437Y156257D01*
X655683Y154666D01*
X653434Y152417D01*
X651843Y149663D01*
X651020Y146590D01*
Y143410D01*
X651843Y140337D01*
X653434Y137583D01*
X655683Y135334D01*
X658437Y133743D01*
X661510Y132920D01*
X664690D01*
X667763Y133743D01*
X670517Y135334D01*
X672766Y137583D01*
X674357Y140337D01*
X675180Y143410D01*
Y146590D01*
X674357Y149663D01*
X672766Y152417D01*
X670517Y154666D01*
X667763Y156257D01*
X664690Y157080D01*
D02*
G37*
G36*
X843540Y131040D02*
X826460D01*
Y113960D01*
X843540D01*
Y131040D01*
D02*
G37*
G36*
X158340Y124540D02*
X145070D01*
Y111270D01*
X158340D01*
Y124540D01*
D02*
G37*
G36*
X142530D02*
X129260D01*
Y111270D01*
X142530D01*
Y124540D01*
D02*
G37*
G36*
X291270Y113501D02*
Y106270D01*
X298501D01*
X297958Y108296D01*
X296834Y110244D01*
X295244Y111834D01*
X293296Y112958D01*
X291270Y113501D01*
D02*
G37*
G36*
X288730D02*
X286704Y112958D01*
X284756Y111834D01*
X283166Y110244D01*
X282042Y108296D01*
X281499Y106270D01*
X288730D01*
Y113501D01*
D02*
G37*
G36*
X298501Y103730D02*
X291270D01*
Y96499D01*
X293296Y97042D01*
X295244Y98166D01*
X296834Y99756D01*
X297958Y101704D01*
X298501Y103730D01*
D02*
G37*
G36*
X288730D02*
X281499D01*
X282042Y101704D01*
X283166Y99756D01*
X284756Y98166D01*
X286704Y97042D01*
X288730Y96499D01*
Y103730D01*
D02*
G37*
G36*
X431590Y120180D02*
X428410D01*
X425337Y119357D01*
X422583Y117766D01*
X420334Y115517D01*
X418743Y112763D01*
X417920Y109690D01*
Y106510D01*
X418743Y103437D01*
X420334Y100683D01*
X422583Y98434D01*
X425337Y96843D01*
X428410Y96020D01*
X431590D01*
X434663Y96843D01*
X437417Y98434D01*
X439666Y100683D01*
X441257Y103437D01*
X442080Y106510D01*
Y109690D01*
X441257Y112763D01*
X439666Y115517D01*
X437417Y117766D01*
X434663Y119357D01*
X431590Y120180D01*
D02*
G37*
G36*
X158340Y108730D02*
X145070D01*
Y95460D01*
X158340D01*
Y108730D01*
D02*
G37*
G36*
X142530D02*
X129260D01*
Y95460D01*
X142530D01*
Y108730D01*
D02*
G37*
G36*
X221682Y127080D02*
X218318D01*
X215018Y126424D01*
X211910Y125136D01*
X209112Y123267D01*
X206733Y120888D01*
X204864Y118090D01*
X203576Y114982D01*
X202920Y111682D01*
Y108318D01*
X203576Y105018D01*
X204864Y101910D01*
X206733Y99112D01*
X209112Y96733D01*
X211910Y94864D01*
X215018Y93576D01*
X218318Y92920D01*
X221682D01*
X224982Y93576D01*
X228090Y94864D01*
X230888Y96733D01*
X233267Y99112D01*
X235136Y101910D01*
X236424Y105018D01*
X237080Y108318D01*
Y111682D01*
X236424Y114982D01*
X235136Y118090D01*
X233267Y120888D01*
X230888Y123267D01*
X228090Y125136D01*
X224982Y126424D01*
X221682Y127080D01*
D02*
G37*
G36*
X588156Y104540D02*
X585644D01*
X583218Y103890D01*
X581042Y102634D01*
X579266Y100858D01*
X578010Y98682D01*
X577360Y96256D01*
Y93744D01*
X578010Y91318D01*
X579266Y89142D01*
X581042Y87366D01*
X583218Y86110D01*
X585644Y85460D01*
X588156D01*
X590582Y86110D01*
X592758Y87366D01*
X594534Y89142D01*
X595790Y91318D01*
X596440Y93744D01*
Y96256D01*
X595790Y98682D01*
X594534Y100858D01*
X592758Y102634D01*
X590582Y103890D01*
X588156Y104540D01*
D02*
G37*
G36*
X398822Y92540D02*
X398770D01*
Y83770D01*
X407540D01*
Y83822D01*
X406856Y86375D01*
X405534Y88665D01*
X403665Y90534D01*
X401375Y91856D01*
X398822Y92540D01*
D02*
G37*
G36*
X396230D02*
X396178D01*
X393625Y91856D01*
X391335Y90534D01*
X389466Y88665D01*
X388144Y86375D01*
X387460Y83822D01*
Y83770D01*
X396230D01*
Y92540D01*
D02*
G37*
G36*
X333822D02*
X333770D01*
Y83770D01*
X342540D01*
Y83822D01*
X341856Y86375D01*
X340534Y88665D01*
X338665Y90534D01*
X336375Y91856D01*
X333822Y92540D01*
D02*
G37*
G36*
X331230D02*
X331178D01*
X328625Y91856D01*
X326335Y90534D01*
X324466Y88665D01*
X323144Y86375D01*
X322460Y83822D01*
Y83770D01*
X331230D01*
Y92540D01*
D02*
G37*
G36*
X664690Y107080D02*
X661510D01*
X658437Y106257D01*
X655683Y104666D01*
X653434Y102417D01*
X651843Y99663D01*
X651020Y96590D01*
Y93410D01*
X651843Y90337D01*
X653434Y87583D01*
X655683Y85334D01*
X658437Y83743D01*
X661510Y82920D01*
X664690D01*
X667763Y83743D01*
X670517Y85334D01*
X672766Y87583D01*
X674357Y90337D01*
X675180Y93410D01*
Y96590D01*
X674357Y99663D01*
X672766Y102417D01*
X670517Y104666D01*
X667763Y106257D01*
X664690Y107080D01*
D02*
G37*
G36*
X786421Y159790D02*
X783579D01*
X780835Y159055D01*
X778375Y157634D01*
X776366Y155625D01*
X774945Y153165D01*
X774210Y150421D01*
Y147579D01*
X774945Y144835D01*
X776366Y142375D01*
X778375Y140366D01*
X779084Y139956D01*
X779300Y138348D01*
X779182Y136967D01*
X777766Y135551D01*
X776576Y133489D01*
X775960Y131190D01*
Y128810D01*
X776576Y126511D01*
X777766Y124449D01*
X779449Y122766D01*
X781511Y121576D01*
X782486Y121315D01*
Y118685D01*
X781511Y118424D01*
X779449Y117234D01*
X777766Y115551D01*
X776576Y113489D01*
X775960Y111190D01*
Y108810D01*
X776576Y106511D01*
X777766Y104449D01*
X779449Y102766D01*
X781511Y101576D01*
X782486Y101315D01*
Y98685D01*
X781511Y98424D01*
X779449Y97234D01*
X777766Y95551D01*
X776576Y93489D01*
X775960Y91190D01*
Y88810D01*
X776576Y86511D01*
X777766Y84449D01*
X779449Y82766D01*
X781511Y81576D01*
X783810Y80960D01*
X786190D01*
X788489Y81576D01*
X790551Y82766D01*
X792234Y84449D01*
X793424Y86511D01*
X794040Y88810D01*
Y91190D01*
X793424Y93489D01*
X792234Y95551D01*
X790551Y97234D01*
X788489Y98424D01*
X787514Y98685D01*
Y101315D01*
X788489Y101576D01*
X790551Y102766D01*
X792234Y104449D01*
X793424Y106511D01*
X794040Y108810D01*
Y111190D01*
X793424Y113489D01*
X792234Y115551D01*
X790551Y117234D01*
X788489Y118424D01*
X787514Y118685D01*
Y121315D01*
X788489Y121576D01*
X790551Y122766D01*
X792234Y124449D01*
X793424Y126511D01*
X794040Y128810D01*
Y131190D01*
X793424Y133489D01*
X792234Y135551D01*
X790818Y136967D01*
X790700Y138348D01*
X790916Y139956D01*
X791625Y140366D01*
X793634Y142375D01*
X795055Y144835D01*
X795790Y147579D01*
Y150421D01*
X795055Y153165D01*
X793634Y155625D01*
X791625Y157634D01*
X789165Y159055D01*
X786421Y159790D01*
D02*
G37*
G36*
X407540Y81230D02*
X398770D01*
Y72460D01*
X398822D01*
X401375Y73144D01*
X403665Y74466D01*
X405534Y76335D01*
X406856Y78625D01*
X407540Y81178D01*
Y81230D01*
D02*
G37*
G36*
X396230D02*
X387460D01*
Y81178D01*
X388144Y78625D01*
X389466Y76335D01*
X391335Y74466D01*
X393625Y73144D01*
X396178Y72460D01*
X396230D01*
Y81230D01*
D02*
G37*
G36*
X342540D02*
X333770D01*
Y72460D01*
X333822D01*
X336375Y73144D01*
X338665Y74466D01*
X340534Y76335D01*
X341856Y78625D01*
X342540Y81178D01*
Y81230D01*
D02*
G37*
G36*
X331230D02*
X322460D01*
Y81178D01*
X323144Y78625D01*
X324466Y76335D01*
X326335Y74466D01*
X328625Y73144D01*
X331178Y72460D01*
X331230D01*
Y81230D01*
D02*
G37*
G36*
X843540Y81040D02*
X826460D01*
Y63960D01*
X843540D01*
Y81040D01*
D02*
G37*
G36*
X836270Y56001D02*
Y48770D01*
X843501D01*
X842958Y50796D01*
X841834Y52744D01*
X840244Y54334D01*
X838296Y55458D01*
X836270Y56001D01*
D02*
G37*
G36*
X833730D02*
X831704Y55458D01*
X829756Y54334D01*
X828166Y52744D01*
X827042Y50796D01*
X826499Y48770D01*
X833730D01*
Y56001D01*
D02*
G37*
G36*
X843501Y46230D02*
X836270D01*
Y38999D01*
X838296Y39542D01*
X840244Y40666D01*
X841834Y42256D01*
X842958Y44204D01*
X843501Y46230D01*
D02*
G37*
G36*
X833730D02*
X826499D01*
X827042Y44204D01*
X828166Y42256D01*
X829756Y40666D01*
X831704Y39542D01*
X833730Y38999D01*
Y46230D01*
D02*
G37*
G36*
X588156Y54540D02*
X585644D01*
X583218Y53890D01*
X581042Y52634D01*
X579266Y50858D01*
X578010Y48682D01*
X577360Y46256D01*
Y43744D01*
X578010Y41318D01*
X579266Y39142D01*
X581042Y37366D01*
X583218Y36110D01*
X585644Y35460D01*
X588156D01*
X590582Y36110D01*
X592758Y37366D01*
X594534Y39142D01*
X595790Y41318D01*
X596440Y43744D01*
Y46256D01*
X595790Y48682D01*
X594534Y50858D01*
X592758Y52634D01*
X590582Y53890D01*
X588156Y54540D01*
D02*
G37*
G36*
X664690Y57080D02*
X661510D01*
X658437Y56257D01*
X655683Y54666D01*
X653434Y52417D01*
X651843Y49663D01*
X651020Y46590D01*
Y43410D01*
X651843Y40337D01*
X653434Y37583D01*
X655683Y35334D01*
X658437Y33743D01*
X661510Y32920D01*
X664690D01*
X667763Y33743D01*
X670517Y35334D01*
X672766Y37583D01*
X674357Y40337D01*
X675180Y43410D01*
Y46590D01*
X674357Y49663D01*
X672766Y52417D01*
X670517Y54666D01*
X667763Y56257D01*
X664690Y57080D01*
D02*
G37*
G36*
X398822Y47540D02*
X396178D01*
X393625Y46856D01*
X391335Y45534D01*
X389466Y43665D01*
X388144Y41375D01*
X387460Y38822D01*
Y36178D01*
X388144Y33625D01*
X389466Y31335D01*
X391335Y29466D01*
X393625Y28144D01*
X396178Y27460D01*
X398822D01*
X401375Y28144D01*
X403665Y29466D01*
X405534Y31335D01*
X406856Y33625D01*
X407540Y36178D01*
Y38822D01*
X406856Y41375D01*
X405534Y43665D01*
X403665Y45534D01*
X401375Y46856D01*
X398822Y47540D01*
D02*
G37*
G36*
X333822D02*
X331178D01*
X328625Y46856D01*
X326335Y45534D01*
X324466Y43665D01*
X323144Y41375D01*
X322460Y38822D01*
Y36178D01*
X323144Y33625D01*
X324466Y31335D01*
X326335Y29466D01*
X328625Y28144D01*
X331178Y27460D01*
X333822D01*
X336375Y28144D01*
X338665Y29466D01*
X340534Y31335D01*
X341856Y33625D01*
X342540Y36178D01*
Y38822D01*
X341856Y41375D01*
X340534Y43665D01*
X338665Y45534D01*
X336375Y46856D01*
X333822Y47540D01*
D02*
G37*
G36*
X431256Y41440D02*
X428744D01*
X426318Y40790D01*
X424142Y39534D01*
X422366Y37758D01*
X421110Y35582D01*
X420460Y33156D01*
Y30644D01*
X421110Y28218D01*
X422366Y26042D01*
X424142Y24266D01*
X426318Y23010D01*
X428744Y22360D01*
X431256D01*
X433682Y23010D01*
X435858Y24266D01*
X437634Y26042D01*
X438890Y28218D01*
X439540Y30644D01*
Y33156D01*
X438890Y35582D01*
X437634Y37758D01*
X435858Y39534D01*
X433682Y40790D01*
X431256Y41440D01*
D02*
G37*
G36*
X794040Y59040D02*
X775960D01*
Y40960D01*
X776108D01*
X777161Y38420D01*
X776366Y37625D01*
X774945Y35165D01*
X774210Y32420D01*
Y29580D01*
X774945Y26835D01*
X776366Y24375D01*
X778375Y22366D01*
X780835Y20945D01*
X783579Y20210D01*
X786421D01*
X789165Y20945D01*
X791625Y22366D01*
X793634Y24375D01*
X795055Y26835D01*
X795790Y29580D01*
Y32420D01*
X795055Y35165D01*
X793634Y37625D01*
X792839Y38420D01*
X793892Y40960D01*
X794040D01*
Y59040D01*
D02*
G37*
G36*
X539040D02*
X520960D01*
Y40960D01*
X521109D01*
X522161Y38420D01*
X521366Y37625D01*
X519945Y35165D01*
X519210Y32420D01*
Y29580D01*
X519945Y26835D01*
X521366Y24375D01*
X523375Y22366D01*
X525835Y20945D01*
X528579Y20210D01*
X531421D01*
X534165Y20945D01*
X536625Y22366D01*
X538634Y24375D01*
X540055Y26835D01*
X540790Y29580D01*
Y32420D01*
X540055Y35165D01*
X538634Y37625D01*
X537839Y38420D01*
X538891Y40960D01*
X539040D01*
Y59040D01*
D02*
G37*
G36*
X912561Y72540D02*
X907439D01*
X902380Y71739D01*
X897509Y70156D01*
X892945Y67831D01*
X888802Y64820D01*
X885180Y61198D01*
X882169Y57055D01*
X879844Y52491D01*
X878261Y47620D01*
X877460Y42561D01*
Y37439D01*
X878261Y32380D01*
X879844Y27509D01*
X882169Y22945D01*
X885180Y18802D01*
X888802Y15180D01*
X892945Y12169D01*
X897509Y9844D01*
X902380Y8261D01*
X907439Y7460D01*
X912561D01*
X917620Y8261D01*
X922491Y9844D01*
X927055Y12169D01*
X931198Y15180D01*
X934820Y18802D01*
X937831Y22945D01*
X940156Y27509D01*
X941739Y32380D01*
X942540Y37439D01*
Y42561D01*
X941739Y47620D01*
X940156Y52491D01*
X937831Y57055D01*
X934820Y61198D01*
X931198Y64820D01*
X927055Y67831D01*
X922491Y70156D01*
X917620Y71739D01*
X912561Y72540D01*
D02*
G37*
G36*
X42561D02*
X37439D01*
X32380Y71739D01*
X27509Y70156D01*
X22945Y67831D01*
X18802Y64820D01*
X15180Y61198D01*
X12169Y57055D01*
X9844Y52491D01*
X8261Y47620D01*
X7460Y42561D01*
Y37439D01*
X8261Y32380D01*
X9844Y27509D01*
X12169Y22945D01*
X15180Y18802D01*
X18802Y15180D01*
X22945Y12169D01*
X27509Y9844D01*
X32380Y8261D01*
X37439Y7460D01*
X42561D01*
X47620Y8261D01*
X52491Y9844D01*
X57055Y12169D01*
X61198Y15180D01*
X64820Y18802D01*
X67831Y22945D01*
X70156Y27509D01*
X71739Y32380D01*
X72540Y37439D01*
Y42561D01*
X71739Y47620D01*
X70156Y52491D01*
X67831Y57055D01*
X64820Y61198D01*
X61198Y64820D01*
X57055Y67831D01*
X52491Y70156D01*
X47620Y71739D01*
X42561Y72540D01*
D02*
G37*
%LPD*%
D15*
X541870Y423130D02*
Y440000D01*
Y423130D02*
X560000Y405000D01*
X685800D01*
X808100Y282700D01*
X731900D02*
X757300Y257300D01*
X808100D01*
X708100Y231900D02*
X731900D01*
X635000Y305000D02*
X708100Y231900D01*
X434200Y305000D02*
X635000D01*
X362300Y233100D02*
X434200Y305000D01*
X560000Y272500D02*
X577500Y290000D01*
X560000Y120000D02*
Y272500D01*
X530000Y90000D02*
X560000Y120000D01*
X387700Y142300D02*
Y156900D01*
Y142300D02*
X400000Y130000D01*
X450000D01*
X490000Y90000D01*
X530000D01*
D17*
X835000Y122500D02*
D03*
Y72500D02*
D03*
X290000Y155000D02*
D03*
X335000Y280000D02*
D03*
X840000Y310000D02*
D03*
D18*
X835000Y147500D02*
D03*
Y47500D02*
D03*
X541870Y555000D02*
D03*
X618130Y440000D02*
D03*
X290000Y105000D02*
D03*
X890000Y230000D02*
D03*
X335000Y330000D02*
D03*
X840000Y360000D02*
D03*
D21*
X177500Y390000D02*
D03*
X502500Y290000D02*
D03*
D22*
X102500Y390000D02*
D03*
X577500Y290000D02*
D03*
D25*
X618130Y555000D02*
D03*
X541870Y440000D02*
D03*
X840000Y230000D02*
D03*
D36*
X900000Y769200D02*
D03*
Y794600D02*
D03*
D37*
Y820000D02*
D03*
D39*
X860000Y790000D02*
X864600Y794600D01*
D40*
X600000Y679600D02*
Y812000D01*
X625000Y837000D01*
Y890000D01*
X600000Y679600D02*
X660000D01*
X480000D02*
Y808500D01*
X510000Y838500D01*
Y890000D01*
X480000Y679600D02*
X540000D01*
X357000D02*
Y780750D01*
X395000Y818750D01*
Y890000D01*
X357000Y679600D02*
X420000D01*
X810000Y790000D02*
X860000D01*
X699600Y679600D02*
X810000Y790000D01*
X660000Y679600D02*
X699600D01*
X540000D02*
X600000D01*
X420000D02*
X480000D01*
X285000D02*
X357000D01*
X248431D02*
X285000D01*
X225000Y703031D02*
X248431Y679600D01*
X225000Y703031D02*
Y750000D01*
X285000Y810000D01*
Y890000D01*
D41*
X660000Y679600D02*
D03*
X540000D02*
D03*
X420000D02*
D03*
X285000D02*
D03*
D42*
X660000Y730400D02*
D03*
X540000D02*
D03*
X420000D02*
D03*
X285000D02*
D03*
D43*
X808100Y231900D02*
D03*
Y257300D02*
D03*
Y282700D02*
D03*
Y308100D02*
D03*
X731900Y231900D02*
D03*
Y257300D02*
D03*
Y282700D02*
D03*
X336900Y156900D02*
D03*
X362300D02*
D03*
X387700D02*
D03*
X413100D02*
D03*
X336900Y233100D02*
D03*
X362300D02*
D03*
X387700D02*
D03*
X332500Y82500D02*
D03*
Y37500D02*
D03*
X397500Y82500D02*
D03*
Y37500D02*
D03*
D44*
X731900Y308100D02*
D03*
D45*
X785000Y50000D02*
D03*
X530000D02*
D03*
D46*
X785000Y90000D02*
D03*
Y110000D02*
D03*
Y130000D02*
D03*
X530000Y90000D02*
D03*
Y110000D02*
D03*
Y130000D02*
D03*
X920000Y150000D02*
D03*
D47*
X785000Y31000D02*
D03*
Y149000D02*
D03*
X530000Y31000D02*
D03*
Y149000D02*
D03*
D48*
X586900Y45000D02*
D03*
X663100D02*
D03*
X586900Y95000D02*
D03*
X663100D02*
D03*
X586900Y145000D02*
D03*
X663100D02*
D03*
X430000Y108100D02*
D03*
Y31900D02*
D03*
X505000Y543100D02*
D03*
Y466900D02*
D03*
X800000Y621900D02*
D03*
Y698100D02*
D03*
X840000Y621900D02*
D03*
Y698100D02*
D03*
D49*
X413100Y233100D02*
D03*
D50*
X660000Y890000D02*
D03*
X625000D02*
D03*
X545000D02*
D03*
X510000D02*
D03*
X430000D02*
D03*
X395000D02*
D03*
X320000D02*
D03*
X285000D02*
D03*
D51*
X245000Y215000D02*
D03*
Y249000D02*
D03*
X110300D02*
D03*
Y215000D02*
D03*
X220000Y110000D02*
D03*
D52*
X143800D02*
D03*
D53*
X900000Y150000D02*
D03*
D54*
X740000Y445000D02*
D03*
Y495000D02*
D03*
Y545000D02*
D03*
D55*
X910000Y40000D02*
D03*
X40000D02*
D03*
X840000Y910000D02*
D03*
X40000D02*
D03*
D56*
X864600Y794600D02*
X900000D01*
M02*
