M48
;Layer_Color=9474304
;FILE_FORMAT=4:4
METRIC,LZ
;TYPE=PLATED
T01F00S00C0.7000
T02F00S00C0.8000
T03F00S00C0.8500
T04F00S00C0.9000
T05F00S00C1.0000
T06F00S00C1.1000
T07F00S00C1.3000
T08F00S00C1.3500
T09F00S00C1.6000
T10F00S00C3.2000
%
T01
X0029Y00105
Y00155
X00335Y0028
Y0033
X0084Y0031
Y0036
Y0023
X0089
X00835Y001475
Y001225
Y000725
Y000475
X0061813Y0044
X0054187
Y00555
X0061813
T02
X0053Y0005
Y0009
Y0011
Y0013
X00785
Y0011
Y0009
Y0005
X009Y0015
X0092
T03
X0043Y000319
Y001081
X005869Y00095
Y00045
X006631
Y00095
Y00145
X005869
X008Y006219
X0084
Y006981
X008
X00505Y005431
Y004669
T04
X003369Y001569
X003623
X003877
Y002331
X003623
X003369
X004131
Y001569
X007319Y002319
Y002573
Y002827
Y003081
X008081
Y002827
Y002573
Y002319
T05
X003325Y000375
Y000825
X001775Y0039
X001025
X005025Y0029
X005775
X003975Y000825
Y000375
X0042Y006796
Y007304
X0054
Y006796
X0066
Y007304
X00285
Y006796
T06
X0053Y00031
Y00149
X00785
Y00031
T07
X0074Y00445
Y00495
Y00545
X00395Y0089
X0032
X00285
X0043
X0051
X00545
X00625
X0066
T08
X009Y007692
Y007946
Y0082
T09
X001438Y0011
X0022
X00245Y00215
Y00249
X001103
Y00215
T10
X0004Y0004
X0091
X0004Y0091
X0084
M30
