G04*
G04 #@! TF.GenerationSoftware,Altium Limited,Altium Designer,26.2.0 (7)*
G04*
G04 Layer_Color=16711935*
%FSLAX44Y44*%
%MOMM*%
G71*
G04*
G04 #@! TF.SameCoordinates,2D8FE527-5C95-4938-8EC8-E0E4FE257E54*
G04*
G04*
G04 #@! TF.FilePolarity,Positive*
G04*
G01*
G75*
%ADD13C,0.2000*%
G36*
X832975Y145568D02*
X833031D01*
X833179Y145540D01*
X833354Y145512D01*
X833539Y145466D01*
X833743Y145401D01*
X833937Y145309D01*
X833946D01*
X833955Y145300D01*
X833983Y145281D01*
X834020Y145262D01*
X834112Y145207D01*
X834233Y145124D01*
X834362Y145022D01*
X834492Y144902D01*
X834621Y144754D01*
X834732Y144597D01*
Y144587D01*
X834741Y144578D01*
X834760Y144551D01*
X834769Y144514D01*
X834815Y144421D01*
X834861Y144301D01*
X834917Y144144D01*
X834954Y143968D01*
X834991Y143774D01*
X835000Y143561D01*
Y143515D01*
X834991Y143469D01*
Y143395D01*
X834982Y143312D01*
X834963Y143219D01*
X834935Y143108D01*
X834908Y142997D01*
X834871Y142868D01*
X834824Y142738D01*
X834769Y142609D01*
X834695Y142470D01*
X834612Y142341D01*
X834519Y142211D01*
X834408Y142082D01*
X834279Y141962D01*
X834270Y141952D01*
X834242Y141934D01*
X834205Y141906D01*
X834140Y141869D01*
X834057Y141814D01*
X833965Y141768D01*
X833844Y141712D01*
X833715Y141657D01*
X833558Y141592D01*
X833382Y141537D01*
X833188Y141490D01*
X832975Y141444D01*
X832735Y141398D01*
X832476Y141370D01*
X832199Y141352D01*
X831903Y141342D01*
X831894D01*
X831884D01*
X831857D01*
X831820D01*
X831727Y141352D01*
X831598D01*
X831450Y141361D01*
X831274Y141379D01*
X831080Y141398D01*
X830867Y141426D01*
X830655Y141462D01*
X830424Y141509D01*
X830202Y141564D01*
X829980Y141629D01*
X829767Y141712D01*
X829564Y141805D01*
X829370Y141906D01*
X829203Y142027D01*
X829194Y142036D01*
X829175Y142054D01*
X829138Y142091D01*
X829083Y142137D01*
X829027Y142193D01*
X828972Y142267D01*
X828898Y142359D01*
X828833Y142452D01*
X828769Y142563D01*
X828695Y142683D01*
X828639Y142822D01*
X828574Y142960D01*
X828528Y143118D01*
X828491Y143284D01*
X828473Y143460D01*
X828464Y143645D01*
Y143719D01*
X828473Y143774D01*
Y143839D01*
X828482Y143913D01*
X828519Y144088D01*
X828565Y144282D01*
X828639Y144486D01*
X828750Y144689D01*
X828815Y144791D01*
X828889Y144883D01*
X828898Y144893D01*
X828907Y144902D01*
X828935Y144930D01*
X828963Y144957D01*
X829009Y145004D01*
X829064Y145041D01*
X829194Y145142D01*
X829360Y145244D01*
X829564Y145336D01*
X829795Y145420D01*
X830054Y145475D01*
X830118Y144689D01*
X830109D01*
X830100Y144680D01*
X830044Y144671D01*
X829961Y144643D01*
X829860Y144606D01*
X829749Y144569D01*
X829638Y144514D01*
X829536Y144449D01*
X829453Y144384D01*
X829434Y144366D01*
X829397Y144329D01*
X829342Y144264D01*
X829277Y144171D01*
X829222Y144051D01*
X829166Y143922D01*
X829129Y143765D01*
X829111Y143598D01*
Y143533D01*
X829120Y143460D01*
X829138Y143376D01*
X829166Y143265D01*
X829203Y143154D01*
X829249Y143043D01*
X829323Y142933D01*
X829333Y142914D01*
X829370Y142868D01*
X829434Y142803D01*
X829527Y142720D01*
X829638Y142627D01*
X829767Y142526D01*
X829933Y142433D01*
X830118Y142341D01*
X830128D01*
X830146Y142332D01*
X830174Y142322D01*
X830211Y142304D01*
X830266Y142295D01*
X830331Y142276D01*
X830405Y142258D01*
X830498Y142239D01*
X830599Y142211D01*
X830710Y142193D01*
X830830Y142174D01*
X830960Y142165D01*
X831108Y142147D01*
X831256Y142137D01*
X831422Y142128D01*
X831589D01*
X831579Y142137D01*
X831524Y142174D01*
X831450Y142239D01*
X831357Y142322D01*
X831246Y142415D01*
X831145Y142535D01*
X831043Y142664D01*
X830950Y142812D01*
Y142822D01*
X830941Y142831D01*
X830914Y142886D01*
X830886Y142970D01*
X830840Y143081D01*
X830803Y143210D01*
X830775Y143358D01*
X830747Y143515D01*
X830738Y143681D01*
Y143755D01*
X830747Y143811D01*
X830756Y143885D01*
X830766Y143959D01*
X830784Y144051D01*
X830812Y144144D01*
X830877Y144356D01*
X830923Y144467D01*
X830987Y144578D01*
X831052Y144689D01*
X831126Y144809D01*
X831219Y144920D01*
X831320Y145022D01*
X831330Y145031D01*
X831348Y145050D01*
X831376Y145078D01*
X831422Y145105D01*
X831487Y145152D01*
X831552Y145198D01*
X831635Y145244D01*
X831727Y145300D01*
X831829Y145355D01*
X831940Y145401D01*
X832069Y145447D01*
X832199Y145494D01*
X832337Y145521D01*
X832495Y145549D01*
X832652Y145568D01*
X832818Y145577D01*
X832827D01*
X832846D01*
X832874D01*
X832920D01*
X832975Y145568D01*
D02*
G37*
G36*
X832911Y140649D02*
X832966Y140630D01*
X833040Y140603D01*
X833123Y140575D01*
X833225Y140538D01*
X833336Y140492D01*
X833456Y140436D01*
X833715Y140307D01*
X833974Y140140D01*
X834103Y140039D01*
X834233Y139937D01*
X834344Y139826D01*
X834455Y139697D01*
X834464Y139687D01*
X834482Y139669D01*
X834501Y139623D01*
X834538Y139576D01*
X834584Y139502D01*
X834630Y139429D01*
X834677Y139327D01*
X834723Y139225D01*
X834778Y139105D01*
X834824Y138975D01*
X834871Y138837D01*
X834917Y138689D01*
X834954Y138532D01*
X834972Y138365D01*
X834991Y138190D01*
X835000Y138005D01*
Y137903D01*
X834991Y137829D01*
Y137746D01*
X834982Y137644D01*
X834963Y137533D01*
X834945Y137404D01*
X834898Y137136D01*
X834824Y136858D01*
X834723Y136581D01*
X834658Y136451D01*
X834584Y136322D01*
X834575Y136313D01*
X834566Y136294D01*
X834538Y136257D01*
X834501Y136220D01*
X834464Y136165D01*
X834408Y136100D01*
X834344Y136026D01*
X834270Y135952D01*
X834186Y135878D01*
X834103Y135795D01*
X833891Y135629D01*
X833641Y135471D01*
X833364Y135333D01*
X833354D01*
X833327Y135314D01*
X833280Y135305D01*
X833225Y135277D01*
X833151Y135259D01*
X833058Y135231D01*
X832957Y135194D01*
X832846Y135166D01*
X832726Y135139D01*
X832587Y135102D01*
X832300Y135055D01*
X831977Y135018D01*
X831644Y135000D01*
X831635D01*
X831598D01*
X831542D01*
X831478Y135009D01*
X831385D01*
X831293Y135018D01*
X831172Y135028D01*
X831052Y135046D01*
X830784Y135092D01*
X830488Y135157D01*
X830192Y135250D01*
X829906Y135379D01*
X829896Y135388D01*
X829869Y135397D01*
X829832Y135416D01*
X829786Y135453D01*
X829721Y135490D01*
X829647Y135536D01*
X829481Y135656D01*
X829296Y135814D01*
X829111Y135998D01*
X828926Y136211D01*
X828769Y136461D01*
X828759Y136470D01*
X828750Y136498D01*
X828732Y136535D01*
X828704Y136581D01*
X828676Y136655D01*
X828648Y136729D01*
X828611Y136821D01*
X828574Y136923D01*
X828537Y137034D01*
X828501Y137154D01*
X828445Y137413D01*
X828399Y137709D01*
X828380Y138014D01*
Y138106D01*
X828390Y138171D01*
X828399Y138254D01*
X828408Y138356D01*
X828417Y138458D01*
X828445Y138578D01*
X828501Y138827D01*
X828584Y139105D01*
X828639Y139244D01*
X828704Y139373D01*
X828787Y139502D01*
X828870Y139632D01*
X828879Y139641D01*
X828889Y139660D01*
X828916Y139697D01*
X828963Y139743D01*
X829009Y139789D01*
X829074Y139854D01*
X829148Y139918D01*
X829222Y139993D01*
X829314Y140066D01*
X829425Y140140D01*
X829536Y140224D01*
X829656Y140298D01*
X829795Y140362D01*
X829933Y140436D01*
X830081Y140492D01*
X830248Y140547D01*
X830442Y139715D01*
X830433D01*
X830414Y139706D01*
X830377Y139687D01*
X830331Y139669D01*
X830276Y139650D01*
X830202Y139623D01*
X830054Y139549D01*
X829887Y139456D01*
X829721Y139345D01*
X829564Y139207D01*
X829425Y139059D01*
X829407Y139040D01*
X829370Y138985D01*
X829323Y138892D01*
X829259Y138772D01*
X829203Y138615D01*
X829148Y138439D01*
X829111Y138227D01*
X829101Y137995D01*
Y137921D01*
X829111Y137875D01*
Y137810D01*
X829120Y137737D01*
X829148Y137561D01*
X829185Y137367D01*
X829249Y137163D01*
X829342Y136951D01*
X829462Y136756D01*
Y136747D01*
X829481Y136738D01*
X829527Y136673D01*
X829601Y136590D01*
X829712Y136488D01*
X829850Y136368D01*
X830007Y136257D01*
X830202Y136156D01*
X830414Y136063D01*
X830424D01*
X830442Y136054D01*
X830470Y136045D01*
X830516Y136035D01*
X830572Y136017D01*
X830636Y135998D01*
X830793Y135971D01*
X830978Y135934D01*
X831182Y135897D01*
X831404Y135878D01*
X831644Y135869D01*
X831653D01*
X831681D01*
X831727D01*
X831783D01*
X831847Y135878D01*
X831931D01*
X832023Y135887D01*
X832125Y135897D01*
X832347Y135924D01*
X832587Y135971D01*
X832827Y136026D01*
X833068Y136100D01*
X833077D01*
X833095Y136109D01*
X833123Y136128D01*
X833169Y136146D01*
X833280Y136202D01*
X833410Y136285D01*
X833558Y136387D01*
X833715Y136516D01*
X833854Y136664D01*
X833983Y136840D01*
Y136849D01*
X833992Y136868D01*
X834011Y136895D01*
X834029Y136932D01*
X834048Y136978D01*
X834075Y137034D01*
X834131Y137163D01*
X834186Y137330D01*
X834233Y137515D01*
X834270Y137718D01*
X834279Y137931D01*
Y137995D01*
X834270Y138051D01*
Y138116D01*
X834260Y138180D01*
X834223Y138347D01*
X834177Y138541D01*
X834103Y138735D01*
X834002Y138939D01*
X833946Y139040D01*
X833872Y139133D01*
X833863Y139142D01*
X833854Y139151D01*
X833826Y139179D01*
X833798Y139216D01*
X833752Y139253D01*
X833697Y139299D01*
X833641Y139354D01*
X833567Y139401D01*
X833484Y139456D01*
X833391Y139521D01*
X833299Y139576D01*
X833188Y139632D01*
X833068Y139678D01*
X832938Y139724D01*
X832800Y139771D01*
X832652Y139808D01*
X832864Y140658D01*
X832874D01*
X832911Y140649D01*
D02*
G37*
G36*
X838522Y59991D02*
X838615D01*
X838707Y59982D01*
X838828Y59972D01*
X838948Y59954D01*
X839216Y59908D01*
X839512Y59843D01*
X839808Y59750D01*
X840094Y59621D01*
X840104Y59612D01*
X840131Y59602D01*
X840168Y59584D01*
X840214Y59547D01*
X840279Y59510D01*
X840353Y59464D01*
X840519Y59344D01*
X840704Y59187D01*
X840889Y59002D01*
X841074Y58789D01*
X841231Y58539D01*
X841241Y58530D01*
X841250Y58502D01*
X841268Y58465D01*
X841296Y58419D01*
X841324Y58345D01*
X841352Y58271D01*
X841389Y58179D01*
X841426Y58077D01*
X841463Y57966D01*
X841500Y57846D01*
X841555Y57587D01*
X841601Y57291D01*
X841620Y56986D01*
Y56894D01*
X841610Y56829D01*
X841601Y56746D01*
X841592Y56644D01*
X841583Y56542D01*
X841555Y56422D01*
X841500Y56172D01*
X841416Y55895D01*
X841361Y55756D01*
X841296Y55627D01*
X841213Y55497D01*
X841130Y55368D01*
X841121Y55359D01*
X841111Y55340D01*
X841084Y55303D01*
X841037Y55257D01*
X840991Y55211D01*
X840926Y55146D01*
X840852Y55081D01*
X840778Y55008D01*
X840686Y54934D01*
X840575Y54860D01*
X840464Y54776D01*
X840344Y54702D01*
X840205Y54638D01*
X840067Y54564D01*
X839919Y54508D01*
X839752Y54453D01*
X839558Y55285D01*
X839567D01*
X839586Y55294D01*
X839623Y55313D01*
X839669Y55331D01*
X839724Y55350D01*
X839798Y55377D01*
X839946Y55451D01*
X840113Y55544D01*
X840279Y55655D01*
X840436Y55793D01*
X840575Y55941D01*
X840593Y55960D01*
X840630Y56015D01*
X840677Y56108D01*
X840741Y56228D01*
X840797Y56385D01*
X840852Y56561D01*
X840889Y56773D01*
X840899Y57004D01*
Y57078D01*
X840889Y57125D01*
Y57189D01*
X840880Y57263D01*
X840852Y57439D01*
X840815Y57633D01*
X840751Y57837D01*
X840658Y58049D01*
X840538Y58243D01*
Y58253D01*
X840519Y58262D01*
X840473Y58327D01*
X840399Y58410D01*
X840288Y58512D01*
X840150Y58632D01*
X839993Y58743D01*
X839798Y58844D01*
X839586Y58937D01*
X839576D01*
X839558Y58946D01*
X839530Y58955D01*
X839484Y58965D01*
X839428Y58983D01*
X839364Y59002D01*
X839207Y59029D01*
X839022Y59066D01*
X838818Y59103D01*
X838596Y59122D01*
X838356Y59131D01*
X838347D01*
X838319D01*
X838273D01*
X838217D01*
X838153Y59122D01*
X838069D01*
X837977Y59113D01*
X837875Y59103D01*
X837653Y59075D01*
X837413Y59029D01*
X837173Y58974D01*
X836932Y58900D01*
X836923D01*
X836905Y58891D01*
X836877Y58872D01*
X836831Y58854D01*
X836720Y58798D01*
X836590Y58715D01*
X836442Y58613D01*
X836285Y58484D01*
X836146Y58336D01*
X836017Y58160D01*
Y58151D01*
X836008Y58133D01*
X835989Y58105D01*
X835971Y58068D01*
X835952Y58022D01*
X835925Y57966D01*
X835869Y57837D01*
X835814Y57670D01*
X835767Y57485D01*
X835730Y57282D01*
X835721Y57069D01*
Y57004D01*
X835730Y56949D01*
Y56884D01*
X835740Y56820D01*
X835777Y56653D01*
X835823Y56459D01*
X835897Y56265D01*
X835998Y56062D01*
X836054Y55960D01*
X836128Y55867D01*
X836137Y55858D01*
X836146Y55849D01*
X836174Y55821D01*
X836202Y55784D01*
X836248Y55747D01*
X836303Y55701D01*
X836359Y55645D01*
X836433Y55599D01*
X836516Y55544D01*
X836609Y55479D01*
X836701Y55423D01*
X836812Y55368D01*
X836932Y55322D01*
X837062Y55276D01*
X837200Y55229D01*
X837348Y55192D01*
X837136Y54342D01*
X837126D01*
X837089Y54351D01*
X837034Y54370D01*
X836960Y54397D01*
X836877Y54425D01*
X836775Y54462D01*
X836664Y54508D01*
X836544Y54564D01*
X836285Y54693D01*
X836026Y54860D01*
X835897Y54961D01*
X835767Y55063D01*
X835656Y55174D01*
X835545Y55303D01*
X835536Y55313D01*
X835518Y55331D01*
X835499Y55377D01*
X835462Y55423D01*
X835416Y55497D01*
X835370Y55571D01*
X835323Y55673D01*
X835277Y55775D01*
X835222Y55895D01*
X835176Y56024D01*
X835129Y56163D01*
X835083Y56311D01*
X835046Y56468D01*
X835028Y56635D01*
X835009Y56810D01*
X835000Y56995D01*
Y57097D01*
X835009Y57171D01*
Y57254D01*
X835018Y57356D01*
X835037Y57467D01*
X835055Y57596D01*
X835102Y57864D01*
X835176Y58142D01*
X835277Y58419D01*
X835342Y58548D01*
X835416Y58678D01*
X835425Y58687D01*
X835434Y58706D01*
X835462Y58743D01*
X835499Y58780D01*
X835536Y58835D01*
X835592Y58900D01*
X835656Y58974D01*
X835730Y59048D01*
X835814Y59122D01*
X835897Y59205D01*
X836109Y59371D01*
X836359Y59529D01*
X836636Y59667D01*
X836646D01*
X836673Y59686D01*
X836720Y59695D01*
X836775Y59723D01*
X836849Y59741D01*
X836942Y59769D01*
X837043Y59806D01*
X837154Y59834D01*
X837274Y59861D01*
X837413Y59898D01*
X837700Y59945D01*
X838023Y59982D01*
X838356Y60000D01*
X838365D01*
X838402D01*
X838458D01*
X838522Y59991D01*
D02*
G37*
G36*
X841426Y49423D02*
X840806D01*
X840797Y49432D01*
X840778Y49451D01*
X840741Y49488D01*
X840686Y49525D01*
X840621Y49580D01*
X840547Y49654D01*
X840455Y49728D01*
X840344Y49812D01*
X840233Y49895D01*
X840104Y49996D01*
X839956Y50098D01*
X839808Y50200D01*
X839641Y50311D01*
X839465Y50422D01*
X839271Y50533D01*
X839077Y50644D01*
X839068Y50653D01*
X839031Y50671D01*
X838976Y50699D01*
X838892Y50745D01*
X838791Y50792D01*
X838680Y50847D01*
X838550Y50912D01*
X838402Y50976D01*
X838236Y51050D01*
X838069Y51134D01*
X837885Y51207D01*
X837690Y51281D01*
X837293Y51429D01*
X836868Y51568D01*
X836858D01*
X836831Y51577D01*
X836784Y51587D01*
X836729Y51605D01*
X836655Y51624D01*
X836562Y51642D01*
X836461Y51670D01*
X836350Y51688D01*
X836220Y51716D01*
X836082Y51744D01*
X835786Y51790D01*
X835462Y51836D01*
X835111Y51864D01*
Y52668D01*
X835120D01*
X835148D01*
X835185D01*
X835240Y52659D01*
X835314D01*
X835407Y52650D01*
X835508Y52641D01*
X835619Y52631D01*
X835749Y52613D01*
X835878Y52594D01*
X836035Y52567D01*
X836193Y52539D01*
X836359Y52511D01*
X836544Y52474D01*
X836923Y52382D01*
X836932D01*
X836969Y52372D01*
X837025Y52354D01*
X837108Y52326D01*
X837200Y52298D01*
X837311Y52262D01*
X837441Y52225D01*
X837579Y52169D01*
X837737Y52114D01*
X837894Y52058D01*
X838245Y51919D01*
X838615Y51753D01*
X838985Y51568D01*
X838994Y51559D01*
X839031Y51540D01*
X839077Y51513D01*
X839151Y51476D01*
X839234Y51429D01*
X839336Y51365D01*
X839447Y51300D01*
X839567Y51226D01*
X839835Y51050D01*
X840113Y50866D01*
X840399Y50653D01*
X840667Y50431D01*
Y53565D01*
X841426D01*
Y49423D01*
D02*
G37*
G36*
X131827Y389991D02*
X131892D01*
X131966Y389982D01*
X132141Y389945D01*
X132336Y389898D01*
X132539Y389824D01*
X132742Y389723D01*
X132844Y389658D01*
X132936Y389584D01*
X132946Y389575D01*
X132955Y389566D01*
X132983Y389538D01*
X133011Y389510D01*
X133047Y389464D01*
X133094Y389408D01*
X133186Y389279D01*
X133279Y389113D01*
X133371Y388909D01*
X133445Y388678D01*
X133500Y388410D01*
X132742Y388345D01*
Y388354D01*
X132733Y388373D01*
Y388391D01*
X132724Y388428D01*
X132696Y388530D01*
X132659Y388641D01*
X132613Y388770D01*
X132548Y388900D01*
X132474Y389020D01*
X132382Y389122D01*
X132373Y389131D01*
X132336Y389159D01*
X132271Y389196D01*
X132197Y389233D01*
X132095Y389279D01*
X131975Y389316D01*
X131836Y389344D01*
X131688Y389353D01*
X131624D01*
X131559Y389344D01*
X131476Y389334D01*
X131374Y389316D01*
X131272Y389288D01*
X131161Y389251D01*
X131060Y389196D01*
X131050Y389187D01*
X131013Y389168D01*
X130958Y389131D01*
X130903Y389076D01*
X130829Y389011D01*
X130754Y388937D01*
X130681Y388854D01*
X130607Y388752D01*
X130597Y388743D01*
X130579Y388697D01*
X130542Y388632D01*
X130505Y388549D01*
X130459Y388438D01*
X130412Y388308D01*
X130366Y388160D01*
X130320Y387994D01*
Y387985D01*
X130311Y387975D01*
Y387948D01*
X130302Y387911D01*
X130283Y387818D01*
X130255Y387698D01*
X130237Y387550D01*
X130218Y387393D01*
X130209Y387217D01*
X130200Y387032D01*
Y387023D01*
Y386995D01*
Y386949D01*
Y386875D01*
X130209Y386894D01*
X130246Y386940D01*
X130302Y387005D01*
X130366Y387097D01*
X130459Y387189D01*
X130570Y387291D01*
X130699Y387393D01*
X130847Y387485D01*
X130865Y387495D01*
X130921Y387522D01*
X131004Y387559D01*
X131106Y387596D01*
X131244Y387643D01*
X131392Y387679D01*
X131559Y387707D01*
X131735Y387716D01*
X131809D01*
X131864Y387707D01*
X131938Y387698D01*
X132012Y387689D01*
X132104Y387670D01*
X132197Y387643D01*
X132409Y387578D01*
X132520Y387532D01*
X132631Y387476D01*
X132752Y387411D01*
X132863Y387328D01*
X132973Y387245D01*
X133075Y387143D01*
X133084Y387134D01*
X133103Y387116D01*
X133121Y387088D01*
X133158Y387042D01*
X133205Y386977D01*
X133251Y386912D01*
X133297Y386829D01*
X133343Y386736D01*
X133399Y386635D01*
X133445Y386524D01*
X133491Y386394D01*
X133538Y386265D01*
X133574Y386117D01*
X133593Y385960D01*
X133611Y385803D01*
X133621Y385627D01*
Y385618D01*
Y385581D01*
Y385535D01*
X133611Y385470D01*
X133602Y385387D01*
X133593Y385285D01*
X133574Y385183D01*
X133547Y385063D01*
X133482Y384823D01*
X133436Y384693D01*
X133380Y384554D01*
X133316Y384425D01*
X133232Y384305D01*
X133149Y384175D01*
X133047Y384064D01*
X133038Y384055D01*
X133020Y384037D01*
X132992Y384009D01*
X132946Y383972D01*
X132890Y383926D01*
X132816Y383870D01*
X132742Y383824D01*
X132650Y383759D01*
X132557Y383704D01*
X132446Y383658D01*
X132197Y383556D01*
X132067Y383519D01*
X131919Y383491D01*
X131771Y383473D01*
X131614Y383464D01*
X131550D01*
X131503Y383473D01*
X131457D01*
X131392Y383482D01*
X131235Y383510D01*
X131060Y383547D01*
X130865Y383611D01*
X130671Y383695D01*
X130477Y383806D01*
X130468D01*
X130459Y383824D01*
X130431Y383843D01*
X130394Y383870D01*
X130302Y383944D01*
X130181Y384046D01*
X130061Y384185D01*
X129922Y384351D01*
X129802Y384545D01*
X129691Y384767D01*
Y384776D01*
X129682Y384795D01*
X129663Y384832D01*
X129645Y384878D01*
X129627Y384943D01*
X129599Y385026D01*
X129580Y385118D01*
X129553Y385220D01*
X129525Y385340D01*
X129497Y385479D01*
X129479Y385627D01*
X129460Y385784D01*
X129442Y385960D01*
X129423Y386145D01*
X129414Y386348D01*
Y386561D01*
Y386570D01*
Y386616D01*
Y386681D01*
Y386764D01*
X129423Y386866D01*
Y386986D01*
X129432Y387125D01*
X129451Y387263D01*
X129479Y387578D01*
X129525Y387911D01*
X129590Y388225D01*
X129636Y388382D01*
X129682Y388521D01*
Y388530D01*
X129691Y388549D01*
X129710Y388586D01*
X129728Y388641D01*
X129756Y388697D01*
X129793Y388770D01*
X129885Y388928D01*
X129996Y389103D01*
X130126Y389288D01*
X130292Y389464D01*
X130477Y389621D01*
X130486D01*
X130505Y389640D01*
X130533Y389658D01*
X130570Y389677D01*
X130625Y389704D01*
X130681Y389741D01*
X130754Y389778D01*
X130829Y389806D01*
X131004Y389880D01*
X131217Y389945D01*
X131448Y389982D01*
X131707Y390000D01*
X131781D01*
X131827Y389991D01*
D02*
G37*
G36*
X137171D02*
X137254D01*
X137356Y389982D01*
X137467Y389963D01*
X137596Y389945D01*
X137864Y389898D01*
X138142Y389824D01*
X138419Y389723D01*
X138549Y389658D01*
X138678Y389584D01*
X138687Y389575D01*
X138706Y389566D01*
X138743Y389538D01*
X138780Y389501D01*
X138835Y389464D01*
X138900Y389408D01*
X138974Y389344D01*
X139048Y389270D01*
X139122Y389187D01*
X139205Y389103D01*
X139371Y388891D01*
X139529Y388641D01*
X139667Y388364D01*
Y388354D01*
X139686Y388327D01*
X139695Y388280D01*
X139723Y388225D01*
X139741Y388151D01*
X139769Y388059D01*
X139806Y387957D01*
X139834Y387846D01*
X139861Y387726D01*
X139898Y387587D01*
X139945Y387300D01*
X139982Y386977D01*
X140000Y386644D01*
Y386635D01*
Y386598D01*
Y386542D01*
X139991Y386478D01*
Y386385D01*
X139982Y386293D01*
X139972Y386172D01*
X139954Y386052D01*
X139908Y385784D01*
X139843Y385488D01*
X139750Y385192D01*
X139621Y384906D01*
X139612Y384897D01*
X139603Y384869D01*
X139584Y384832D01*
X139547Y384786D01*
X139510Y384721D01*
X139464Y384647D01*
X139344Y384481D01*
X139186Y384296D01*
X139002Y384111D01*
X138789Y383926D01*
X138539Y383769D01*
X138530Y383759D01*
X138502Y383750D01*
X138465Y383732D01*
X138419Y383704D01*
X138345Y383676D01*
X138271Y383648D01*
X138179Y383611D01*
X138077Y383574D01*
X137966Y383537D01*
X137846Y383501D01*
X137587Y383445D01*
X137291Y383399D01*
X136986Y383380D01*
X136894D01*
X136829Y383390D01*
X136746Y383399D01*
X136644Y383408D01*
X136542Y383417D01*
X136422Y383445D01*
X136172Y383501D01*
X135895Y383584D01*
X135756Y383639D01*
X135627Y383704D01*
X135498Y383787D01*
X135368Y383870D01*
X135359Y383880D01*
X135340Y383889D01*
X135303Y383917D01*
X135257Y383963D01*
X135211Y384009D01*
X135146Y384074D01*
X135082Y384148D01*
X135007Y384222D01*
X134934Y384314D01*
X134860Y384425D01*
X134776Y384536D01*
X134702Y384656D01*
X134638Y384795D01*
X134564Y384934D01*
X134508Y385081D01*
X134453Y385248D01*
X135285Y385442D01*
Y385433D01*
X135294Y385414D01*
X135313Y385377D01*
X135331Y385331D01*
X135350Y385276D01*
X135377Y385202D01*
X135451Y385054D01*
X135544Y384887D01*
X135655Y384721D01*
X135793Y384564D01*
X135941Y384425D01*
X135960Y384407D01*
X136015Y384370D01*
X136108Y384323D01*
X136228Y384259D01*
X136385Y384203D01*
X136561Y384148D01*
X136773Y384111D01*
X137005Y384101D01*
X137079D01*
X137125Y384111D01*
X137190D01*
X137263Y384120D01*
X137439Y384148D01*
X137633Y384185D01*
X137837Y384249D01*
X138049Y384342D01*
X138244Y384462D01*
X138253D01*
X138262Y384481D01*
X138327Y384527D01*
X138410Y384601D01*
X138512Y384712D01*
X138632Y384850D01*
X138743Y385008D01*
X138844Y385202D01*
X138937Y385414D01*
Y385424D01*
X138946Y385442D01*
X138955Y385470D01*
X138965Y385516D01*
X138983Y385572D01*
X139002Y385636D01*
X139029Y385793D01*
X139066Y385978D01*
X139103Y386182D01*
X139122Y386404D01*
X139131Y386644D01*
Y386653D01*
Y386681D01*
Y386727D01*
Y386783D01*
X139122Y386847D01*
Y386931D01*
X139113Y387023D01*
X139103Y387125D01*
X139076Y387347D01*
X139029Y387587D01*
X138974Y387827D01*
X138900Y388068D01*
Y388077D01*
X138891Y388096D01*
X138872Y388123D01*
X138854Y388170D01*
X138798Y388280D01*
X138715Y388410D01*
X138613Y388558D01*
X138484Y388715D01*
X138336Y388854D01*
X138160Y388983D01*
X138151D01*
X138132Y388992D01*
X138105Y389011D01*
X138068Y389029D01*
X138022Y389048D01*
X137966Y389076D01*
X137837Y389131D01*
X137670Y389187D01*
X137485Y389233D01*
X137282Y389270D01*
X137069Y389279D01*
X137005D01*
X136949Y389270D01*
X136884D01*
X136820Y389260D01*
X136653Y389224D01*
X136459Y389177D01*
X136265Y389103D01*
X136061Y389002D01*
X135960Y388946D01*
X135867Y388872D01*
X135858Y388863D01*
X135849Y388854D01*
X135821Y388826D01*
X135784Y388798D01*
X135747Y388752D01*
X135701Y388697D01*
X135645Y388641D01*
X135599Y388567D01*
X135544Y388484D01*
X135479Y388391D01*
X135424Y388299D01*
X135368Y388188D01*
X135322Y388068D01*
X135276Y387938D01*
X135229Y387800D01*
X135192Y387652D01*
X134342Y387864D01*
Y387874D01*
X134351Y387911D01*
X134370Y387966D01*
X134397Y388040D01*
X134425Y388123D01*
X134462Y388225D01*
X134508Y388336D01*
X134564Y388456D01*
X134693Y388715D01*
X134860Y388974D01*
X134961Y389103D01*
X135063Y389233D01*
X135174Y389344D01*
X135303Y389455D01*
X135313Y389464D01*
X135331Y389482D01*
X135377Y389501D01*
X135424Y389538D01*
X135498Y389584D01*
X135571Y389630D01*
X135673Y389677D01*
X135775Y389723D01*
X135895Y389778D01*
X136025Y389824D01*
X136163Y389871D01*
X136311Y389917D01*
X136468Y389954D01*
X136635Y389972D01*
X136810Y389991D01*
X136995Y390000D01*
X137097D01*
X137171Y389991D01*
D02*
G37*
G36*
X580000Y548602D02*
X577541D01*
X577374Y548611D01*
X577189Y548621D01*
X577005Y548639D01*
X576820Y548667D01*
X576662Y548695D01*
X576653D01*
X576635Y548704D01*
X576607D01*
X576570Y548722D01*
X576468Y548750D01*
X576339Y548796D01*
X576191Y548861D01*
X576034Y548944D01*
X575877Y549037D01*
X575729Y549157D01*
X575719Y549166D01*
X575710Y549175D01*
X575682Y549203D01*
X575645Y549231D01*
X575553Y549323D01*
X575442Y549453D01*
X575322Y549610D01*
X575192Y549795D01*
X575072Y550008D01*
X574971Y550248D01*
Y550257D01*
X574961Y550276D01*
X574943Y550313D01*
X574934Y550368D01*
X574906Y550433D01*
X574887Y550507D01*
X574869Y550590D01*
X574841Y550692D01*
X574813Y550793D01*
X574795Y550914D01*
X574749Y551172D01*
X574721Y551459D01*
X574712Y551773D01*
Y551783D01*
Y551801D01*
Y551847D01*
Y551894D01*
X574721Y551958D01*
Y552032D01*
X574730Y552208D01*
X574758Y552411D01*
X574786Y552624D01*
X574832Y552846D01*
X574887Y553068D01*
Y553077D01*
X574897Y553096D01*
X574906Y553123D01*
X574915Y553160D01*
X574952Y553262D01*
X575008Y553391D01*
X575063Y553539D01*
X575137Y553687D01*
X575229Y553844D01*
X575322Y553992D01*
X575331Y554011D01*
X575368Y554057D01*
X575424Y554122D01*
X575498Y554205D01*
X575581Y554297D01*
X575682Y554390D01*
X575784Y554492D01*
X575904Y554575D01*
X575923Y554584D01*
X575960Y554612D01*
X576025Y554649D01*
X576117Y554695D01*
X576228Y554751D01*
X576357Y554797D01*
X576505Y554852D01*
X576672Y554898D01*
X576690D01*
X576718Y554908D01*
X576746Y554917D01*
X576838Y554926D01*
X576968Y554945D01*
X577116Y554963D01*
X577291Y554982D01*
X577485Y554991D01*
X577698Y555000D01*
X580000D01*
Y548602D01*
D02*
G37*
G36*
X571698Y549998D02*
X571707Y550008D01*
X571753Y550044D01*
X571809Y550100D01*
X571901Y550165D01*
X572003Y550248D01*
X572132Y550340D01*
X572280Y550442D01*
X572446Y550544D01*
X572456D01*
X572465Y550553D01*
X572520Y550590D01*
X572613Y550636D01*
X572724Y550692D01*
X572853Y550756D01*
X572992Y550821D01*
X573131Y550886D01*
X573269Y550941D01*
Y550183D01*
X573260D01*
X573242Y550165D01*
X573205Y550155D01*
X573158Y550128D01*
X573103Y550100D01*
X573038Y550063D01*
X572881Y549971D01*
X572696Y549869D01*
X572511Y549739D01*
X572317Y549591D01*
X572123Y549434D01*
X572114Y549425D01*
X572104Y549416D01*
X572077Y549388D01*
X572040Y549360D01*
X571956Y549268D01*
X571846Y549157D01*
X571735Y549027D01*
X571614Y548880D01*
X571513Y548732D01*
X571420Y548574D01*
X570912D01*
Y555000D01*
X571698D01*
Y549998D01*
D02*
G37*
G36*
X588524Y446527D02*
X588589D01*
X588663Y446518D01*
X588839Y446481D01*
X589033Y446435D01*
X589236Y446361D01*
X589440Y446250D01*
X589541Y446185D01*
X589634Y446111D01*
X589643Y446102D01*
X589652Y446093D01*
X589680Y446065D01*
X589708Y446037D01*
X589754Y445991D01*
X589791Y445936D01*
X589893Y445806D01*
X589994Y445640D01*
X590087Y445436D01*
X590170Y445205D01*
X590225Y444946D01*
X589440Y444882D01*
Y444891D01*
X589430Y444900D01*
X589421Y444955D01*
X589393Y445039D01*
X589356Y445140D01*
X589319Y445251D01*
X589264Y445362D01*
X589199Y445464D01*
X589134Y445547D01*
X589116Y445566D01*
X589079Y445603D01*
X589014Y445658D01*
X588922Y445723D01*
X588802Y445778D01*
X588672Y445834D01*
X588515Y445871D01*
X588349Y445889D01*
X588284D01*
X588210Y445880D01*
X588127Y445862D01*
X588016Y445834D01*
X587905Y445797D01*
X587794Y445751D01*
X587683Y445677D01*
X587664Y445667D01*
X587618Y445630D01*
X587553Y445566D01*
X587470Y445473D01*
X587378Y445362D01*
X587276Y445233D01*
X587184Y445066D01*
X587091Y444882D01*
Y444872D01*
X587082Y444854D01*
X587073Y444826D01*
X587054Y444789D01*
X587045Y444734D01*
X587026Y444669D01*
X587008Y444595D01*
X586990Y444502D01*
X586962Y444401D01*
X586943Y444290D01*
X586925Y444170D01*
X586916Y444040D01*
X586897Y443892D01*
X586888Y443744D01*
X586879Y443578D01*
Y443411D01*
X586888Y443421D01*
X586925Y443476D01*
X586990Y443550D01*
X587073Y443643D01*
X587165Y443754D01*
X587285Y443855D01*
X587415Y443957D01*
X587563Y444049D01*
X587572D01*
X587581Y444059D01*
X587637Y444086D01*
X587720Y444114D01*
X587831Y444160D01*
X587960Y444197D01*
X588108Y444225D01*
X588265Y444253D01*
X588432Y444262D01*
X588506D01*
X588561Y444253D01*
X588635Y444244D01*
X588709Y444234D01*
X588802Y444216D01*
X588894Y444188D01*
X589107Y444123D01*
X589218Y444077D01*
X589329Y444012D01*
X589440Y443948D01*
X589560Y443874D01*
X589671Y443781D01*
X589772Y443680D01*
X589782Y443670D01*
X589800Y443652D01*
X589828Y443624D01*
X589856Y443578D01*
X589902Y443513D01*
X589948Y443448D01*
X589994Y443365D01*
X590050Y443273D01*
X590105Y443171D01*
X590152Y443060D01*
X590198Y442931D01*
X590244Y442801D01*
X590272Y442663D01*
X590299Y442505D01*
X590318Y442348D01*
X590327Y442182D01*
Y442173D01*
Y442154D01*
Y442126D01*
Y442080D01*
X590318Y442025D01*
Y441969D01*
X590290Y441821D01*
X590262Y441646D01*
X590216Y441461D01*
X590152Y441257D01*
X590059Y441063D01*
Y441054D01*
X590050Y441045D01*
X590031Y441017D01*
X590013Y440980D01*
X589957Y440887D01*
X589874Y440767D01*
X589772Y440638D01*
X589652Y440508D01*
X589504Y440379D01*
X589347Y440268D01*
X589338D01*
X589329Y440259D01*
X589301Y440240D01*
X589264Y440231D01*
X589171Y440185D01*
X589051Y440139D01*
X588894Y440083D01*
X588718Y440046D01*
X588524Y440009D01*
X588312Y440000D01*
X588265D01*
X588219Y440009D01*
X588145D01*
X588062Y440018D01*
X587970Y440037D01*
X587859Y440065D01*
X587748Y440092D01*
X587618Y440129D01*
X587489Y440176D01*
X587359Y440231D01*
X587221Y440305D01*
X587091Y440388D01*
X586962Y440481D01*
X586832Y440592D01*
X586712Y440721D01*
X586703Y440730D01*
X586684Y440758D01*
X586657Y440795D01*
X586620Y440860D01*
X586564Y440943D01*
X586518Y441035D01*
X586463Y441156D01*
X586407Y441285D01*
X586342Y441442D01*
X586287Y441618D01*
X586241Y441812D01*
X586194Y442025D01*
X586148Y442265D01*
X586120Y442524D01*
X586102Y442801D01*
X586093Y443097D01*
Y443106D01*
Y443116D01*
Y443143D01*
Y443180D01*
X586102Y443273D01*
Y443402D01*
X586111Y443550D01*
X586130Y443726D01*
X586148Y443920D01*
X586176Y444133D01*
X586213Y444345D01*
X586259Y444576D01*
X586315Y444798D01*
X586379Y445020D01*
X586463Y445233D01*
X586555Y445436D01*
X586657Y445630D01*
X586777Y445797D01*
X586786Y445806D01*
X586805Y445825D01*
X586842Y445862D01*
X586888Y445917D01*
X586943Y445973D01*
X587017Y446028D01*
X587110Y446102D01*
X587202Y446167D01*
X587313Y446231D01*
X587433Y446305D01*
X587572Y446361D01*
X587711Y446426D01*
X587868Y446472D01*
X588034Y446509D01*
X588210Y446527D01*
X588395Y446536D01*
X588469D01*
X588524Y446527D01*
D02*
G37*
G36*
X582626Y446499D02*
X582811Y446490D01*
X582995Y446472D01*
X583180Y446444D01*
X583338Y446416D01*
X583347D01*
X583365Y446407D01*
X583393D01*
X583430Y446389D01*
X583532Y446361D01*
X583661Y446315D01*
X583809Y446250D01*
X583966Y446167D01*
X584123Y446074D01*
X584271Y445954D01*
X584281Y445945D01*
X584290Y445936D01*
X584318Y445908D01*
X584355Y445880D01*
X584447Y445788D01*
X584558Y445658D01*
X584678Y445501D01*
X584808Y445316D01*
X584928Y445103D01*
X585029Y444863D01*
Y444854D01*
X585039Y444835D01*
X585057Y444798D01*
X585066Y444743D01*
X585094Y444678D01*
X585113Y444604D01*
X585131Y444521D01*
X585159Y444419D01*
X585187Y444318D01*
X585205Y444197D01*
X585251Y443938D01*
X585279Y443652D01*
X585288Y443338D01*
Y443328D01*
Y443310D01*
Y443264D01*
Y443217D01*
X585279Y443153D01*
Y443079D01*
X585270Y442903D01*
X585242Y442700D01*
X585214Y442487D01*
X585168Y442265D01*
X585113Y442043D01*
Y442034D01*
X585103Y442015D01*
X585094Y441988D01*
X585085Y441951D01*
X585048Y441849D01*
X584992Y441720D01*
X584937Y441572D01*
X584863Y441424D01*
X584771Y441267D01*
X584678Y441119D01*
X584669Y441100D01*
X584632Y441054D01*
X584576Y440989D01*
X584502Y440906D01*
X584419Y440813D01*
X584318Y440721D01*
X584216Y440619D01*
X584096Y440536D01*
X584077Y440527D01*
X584040Y440499D01*
X583975Y440462D01*
X583883Y440416D01*
X583772Y440360D01*
X583643Y440314D01*
X583495Y440259D01*
X583328Y440213D01*
X583310D01*
X583282Y440203D01*
X583254Y440194D01*
X583162Y440185D01*
X583032Y440166D01*
X582884Y440148D01*
X582709Y440129D01*
X582515Y440120D01*
X582302Y440111D01*
X580000D01*
Y446509D01*
X582459D01*
X582626Y446499D01*
D02*
G37*
G36*
X543171Y296611D02*
X543254Y296601D01*
X543356Y296592D01*
X543458Y296583D01*
X543578Y296555D01*
X543828Y296500D01*
X544105Y296416D01*
X544244Y296361D01*
X544373Y296296D01*
X544502Y296213D01*
X544632Y296130D01*
X544641Y296120D01*
X544660Y296111D01*
X544697Y296084D01*
X544743Y296037D01*
X544789Y295991D01*
X544854Y295926D01*
X544919Y295852D01*
X544992Y295778D01*
X545066Y295686D01*
X545140Y295575D01*
X545224Y295464D01*
X545298Y295344D01*
X545362Y295205D01*
X545436Y295067D01*
X545492Y294918D01*
X545547Y294752D01*
X544715Y294558D01*
Y294567D01*
X544706Y294586D01*
X544687Y294623D01*
X544669Y294669D01*
X544650Y294724D01*
X544623Y294798D01*
X544549Y294946D01*
X544456Y295113D01*
X544345Y295279D01*
X544207Y295436D01*
X544059Y295575D01*
X544040Y295593D01*
X543985Y295630D01*
X543892Y295677D01*
X543772Y295741D01*
X543615Y295797D01*
X543439Y295852D01*
X543227Y295889D01*
X542995Y295899D01*
X542921D01*
X542875Y295889D01*
X542811D01*
X542737Y295880D01*
X542561Y295852D01*
X542367Y295815D01*
X542163Y295751D01*
X541951Y295658D01*
X541757Y295538D01*
X541747D01*
X541738Y295520D01*
X541673Y295473D01*
X541590Y295399D01*
X541488Y295288D01*
X541368Y295150D01*
X541257Y294993D01*
X541156Y294798D01*
X541063Y294586D01*
Y294576D01*
X541054Y294558D01*
X541045Y294530D01*
X541035Y294484D01*
X541017Y294429D01*
X540998Y294364D01*
X540971Y294207D01*
X540934Y294022D01*
X540897Y293818D01*
X540878Y293596D01*
X540869Y293356D01*
Y293347D01*
Y293319D01*
Y293273D01*
Y293217D01*
X540878Y293153D01*
Y293069D01*
X540887Y292977D01*
X540897Y292875D01*
X540924Y292653D01*
X540971Y292413D01*
X541026Y292173D01*
X541100Y291932D01*
Y291923D01*
X541109Y291905D01*
X541128Y291877D01*
X541146Y291831D01*
X541202Y291720D01*
X541285Y291590D01*
X541387Y291442D01*
X541516Y291285D01*
X541664Y291146D01*
X541840Y291017D01*
X541849D01*
X541867Y291008D01*
X541895Y290989D01*
X541932Y290971D01*
X541978Y290952D01*
X542034Y290924D01*
X542163Y290869D01*
X542330Y290814D01*
X542515Y290767D01*
X542718Y290730D01*
X542931Y290721D01*
X542995D01*
X543051Y290730D01*
X543116D01*
X543180Y290739D01*
X543347Y290777D01*
X543541Y290823D01*
X543735Y290897D01*
X543938Y290998D01*
X544040Y291054D01*
X544133Y291128D01*
X544142Y291137D01*
X544151Y291146D01*
X544179Y291174D01*
X544216Y291202D01*
X544253Y291248D01*
X544299Y291304D01*
X544355Y291359D01*
X544401Y291433D01*
X544456Y291516D01*
X544521Y291609D01*
X544576Y291701D01*
X544632Y291812D01*
X544678Y291932D01*
X544724Y292062D01*
X544771Y292200D01*
X544808Y292348D01*
X545658Y292136D01*
Y292126D01*
X545649Y292089D01*
X545630Y292034D01*
X545603Y291960D01*
X545575Y291877D01*
X545538Y291775D01*
X545492Y291664D01*
X545436Y291544D01*
X545307Y291285D01*
X545140Y291026D01*
X545039Y290897D01*
X544937Y290767D01*
X544826Y290656D01*
X544697Y290545D01*
X544687Y290536D01*
X544669Y290518D01*
X544623Y290499D01*
X544576Y290462D01*
X544502Y290416D01*
X544428Y290370D01*
X544327Y290324D01*
X544225Y290277D01*
X544105Y290222D01*
X543975Y290175D01*
X543837Y290129D01*
X543689Y290083D01*
X543532Y290046D01*
X543365Y290028D01*
X543190Y290009D01*
X543005Y290000D01*
X542903D01*
X542829Y290009D01*
X542746D01*
X542644Y290018D01*
X542533Y290037D01*
X542404Y290055D01*
X542136Y290102D01*
X541858Y290175D01*
X541581Y290277D01*
X541451Y290342D01*
X541322Y290416D01*
X541313Y290425D01*
X541294Y290434D01*
X541257Y290462D01*
X541220Y290499D01*
X541165Y290536D01*
X541100Y290592D01*
X541026Y290656D01*
X540952Y290730D01*
X540878Y290814D01*
X540795Y290897D01*
X540629Y291109D01*
X540471Y291359D01*
X540333Y291636D01*
Y291646D01*
X540314Y291673D01*
X540305Y291720D01*
X540277Y291775D01*
X540259Y291849D01*
X540231Y291942D01*
X540194Y292043D01*
X540166Y292154D01*
X540139Y292274D01*
X540102Y292413D01*
X540055Y292700D01*
X540018Y293023D01*
X540000Y293356D01*
Y293365D01*
Y293402D01*
Y293458D01*
X540009Y293522D01*
Y293615D01*
X540018Y293707D01*
X540028Y293828D01*
X540046Y293948D01*
X540092Y294216D01*
X540157Y294512D01*
X540249Y294808D01*
X540379Y295094D01*
X540388Y295103D01*
X540397Y295131D01*
X540416Y295168D01*
X540453Y295214D01*
X540490Y295279D01*
X540536Y295353D01*
X540656Y295520D01*
X540813Y295704D01*
X540998Y295889D01*
X541211Y296074D01*
X541461Y296231D01*
X541470Y296241D01*
X541498Y296250D01*
X541535Y296268D01*
X541581Y296296D01*
X541655Y296324D01*
X541729Y296352D01*
X541821Y296389D01*
X541923Y296426D01*
X542034Y296463D01*
X542154Y296500D01*
X542413Y296555D01*
X542709Y296601D01*
X543014Y296620D01*
X543106D01*
X543171Y296611D01*
D02*
G37*
G36*
X548654Y296527D02*
X548728Y296518D01*
X548820Y296509D01*
X548922Y296490D01*
X549024Y296472D01*
X549264Y296407D01*
X549504Y296315D01*
X549625Y296259D01*
X549745Y296194D01*
X549856Y296111D01*
X549957Y296019D01*
X549967Y296010D01*
X549985Y296000D01*
X550004Y295963D01*
X550041Y295926D01*
X550087Y295880D01*
X550133Y295815D01*
X550179Y295751D01*
X550235Y295667D01*
X550327Y295492D01*
X550420Y295270D01*
X550457Y295159D01*
X550475Y295030D01*
X550494Y294900D01*
X550503Y294761D01*
Y294743D01*
Y294697D01*
X550494Y294623D01*
X550484Y294521D01*
X550466Y294410D01*
X550429Y294281D01*
X550392Y294142D01*
X550336Y294003D01*
X550327Y293985D01*
X550309Y293939D01*
X550272Y293864D01*
X550216Y293763D01*
X550142Y293652D01*
X550050Y293513D01*
X549939Y293375D01*
X549809Y293217D01*
X549791Y293199D01*
X549745Y293143D01*
X549698Y293097D01*
X549652Y293051D01*
X549597Y292995D01*
X549523Y292922D01*
X549449Y292847D01*
X549356Y292764D01*
X549264Y292672D01*
X549153Y292570D01*
X549033Y292468D01*
X548903Y292348D01*
X548755Y292228D01*
X548607Y292099D01*
X548598Y292089D01*
X548580Y292071D01*
X548543Y292043D01*
X548497Y292006D01*
X548441Y291951D01*
X548376Y291895D01*
X548228Y291775D01*
X548071Y291636D01*
X547923Y291498D01*
X547794Y291378D01*
X547738Y291331D01*
X547692Y291285D01*
X547683Y291276D01*
X547655Y291248D01*
X547618Y291211D01*
X547572Y291156D01*
X547526Y291091D01*
X547470Y291026D01*
X547359Y290869D01*
X550512D01*
Y290111D01*
X546268D01*
Y290120D01*
Y290157D01*
Y290212D01*
X546278Y290287D01*
X546287Y290370D01*
X546305Y290462D01*
X546324Y290555D01*
X546361Y290656D01*
Y290666D01*
X546370Y290675D01*
X546389Y290730D01*
X546426Y290814D01*
X546481Y290924D01*
X546555Y291054D01*
X546647Y291202D01*
X546749Y291350D01*
X546879Y291507D01*
Y291516D01*
X546897Y291525D01*
X546943Y291581D01*
X547026Y291664D01*
X547147Y291784D01*
X547285Y291923D01*
X547461Y292089D01*
X547674Y292274D01*
X547905Y292468D01*
X547914Y292478D01*
X547951Y292505D01*
X548007Y292552D01*
X548071Y292607D01*
X548154Y292681D01*
X548256Y292764D01*
X548358Y292857D01*
X548478Y292959D01*
X548709Y293180D01*
X548940Y293402D01*
X549051Y293513D01*
X549153Y293624D01*
X549245Y293726D01*
X549319Y293828D01*
Y293837D01*
X549338Y293846D01*
X549356Y293874D01*
X549375Y293911D01*
X549440Y294013D01*
X549514Y294133D01*
X549578Y294281D01*
X549643Y294438D01*
X549680Y294613D01*
X549698Y294780D01*
Y294789D01*
Y294798D01*
X549689Y294854D01*
X549680Y294946D01*
X549652Y295048D01*
X549615Y295177D01*
X549551Y295307D01*
X549467Y295436D01*
X549356Y295566D01*
X549338Y295584D01*
X549292Y295621D01*
X549227Y295667D01*
X549125Y295732D01*
X548996Y295788D01*
X548848Y295843D01*
X548672Y295880D01*
X548478Y295889D01*
X548423D01*
X548386Y295880D01*
X548275Y295871D01*
X548145Y295843D01*
X548007Y295806D01*
X547849Y295741D01*
X547701Y295658D01*
X547563Y295547D01*
X547544Y295529D01*
X547507Y295483D01*
X547452Y295409D01*
X547396Y295298D01*
X547332Y295168D01*
X547276Y295002D01*
X547239Y294817D01*
X547221Y294604D01*
X546416Y294687D01*
Y294697D01*
X546426Y294724D01*
Y294771D01*
X546435Y294835D01*
X546453Y294909D01*
X546472Y294993D01*
X546499Y295094D01*
X546527Y295196D01*
X546601Y295418D01*
X546712Y295640D01*
X546777Y295751D01*
X546860Y295862D01*
X546943Y295963D01*
X547036Y296056D01*
X547045Y296065D01*
X547063Y296074D01*
X547091Y296102D01*
X547137Y296130D01*
X547193Y296167D01*
X547258Y296204D01*
X547332Y296250D01*
X547424Y296296D01*
X547526Y296342D01*
X547637Y296389D01*
X547757Y296426D01*
X547886Y296463D01*
X548025Y296490D01*
X548173Y296518D01*
X548330Y296527D01*
X548497Y296537D01*
X548589D01*
X548654Y296527D01*
D02*
G37*
G36*
X293522Y129991D02*
X293615D01*
X293707Y129982D01*
X293827Y129972D01*
X293948Y129954D01*
X294216Y129908D01*
X294512Y129843D01*
X294808Y129750D01*
X295094Y129621D01*
X295103Y129612D01*
X295131Y129602D01*
X295168Y129584D01*
X295214Y129547D01*
X295279Y129510D01*
X295353Y129464D01*
X295520Y129344D01*
X295704Y129186D01*
X295889Y129002D01*
X296074Y128789D01*
X296231Y128539D01*
X296241Y128530D01*
X296250Y128502D01*
X296268Y128465D01*
X296296Y128419D01*
X296324Y128345D01*
X296352Y128271D01*
X296389Y128179D01*
X296425Y128077D01*
X296462Y127966D01*
X296500Y127846D01*
X296555Y127587D01*
X296601Y127291D01*
X296620Y126986D01*
Y126894D01*
X296611Y126829D01*
X296601Y126746D01*
X296592Y126644D01*
X296583Y126542D01*
X296555Y126422D01*
X296500Y126172D01*
X296416Y125895D01*
X296361Y125756D01*
X296296Y125627D01*
X296213Y125498D01*
X296130Y125368D01*
X296120Y125359D01*
X296111Y125340D01*
X296084Y125303D01*
X296037Y125257D01*
X295991Y125211D01*
X295926Y125146D01*
X295852Y125081D01*
X295778Y125007D01*
X295686Y124934D01*
X295575Y124860D01*
X295464Y124776D01*
X295344Y124702D01*
X295205Y124638D01*
X295066Y124564D01*
X294918Y124508D01*
X294752Y124453D01*
X294558Y125285D01*
X294567D01*
X294586Y125294D01*
X294623Y125313D01*
X294669Y125331D01*
X294724Y125350D01*
X294798Y125377D01*
X294946Y125451D01*
X295113Y125544D01*
X295279Y125655D01*
X295436Y125793D01*
X295575Y125941D01*
X295593Y125960D01*
X295630Y126015D01*
X295677Y126108D01*
X295741Y126228D01*
X295797Y126385D01*
X295852Y126561D01*
X295889Y126773D01*
X295898Y127004D01*
Y127079D01*
X295889Y127125D01*
Y127189D01*
X295880Y127263D01*
X295852Y127439D01*
X295815Y127633D01*
X295751Y127837D01*
X295658Y128049D01*
X295538Y128243D01*
Y128253D01*
X295520Y128262D01*
X295473Y128327D01*
X295399Y128410D01*
X295288Y128512D01*
X295150Y128632D01*
X294993Y128743D01*
X294798Y128844D01*
X294586Y128937D01*
X294576D01*
X294558Y128946D01*
X294530Y128955D01*
X294484Y128965D01*
X294429Y128983D01*
X294364Y129002D01*
X294207Y129029D01*
X294022Y129066D01*
X293818Y129103D01*
X293596Y129122D01*
X293356Y129131D01*
X293347D01*
X293319D01*
X293273D01*
X293217D01*
X293153Y129122D01*
X293069D01*
X292977Y129113D01*
X292875Y129103D01*
X292653Y129075D01*
X292413Y129029D01*
X292173Y128974D01*
X291932Y128900D01*
X291923D01*
X291904Y128891D01*
X291877Y128872D01*
X291831Y128854D01*
X291719Y128798D01*
X291590Y128715D01*
X291442Y128613D01*
X291285Y128484D01*
X291146Y128336D01*
X291017Y128160D01*
Y128151D01*
X291008Y128132D01*
X290989Y128105D01*
X290971Y128068D01*
X290952Y128021D01*
X290924Y127966D01*
X290869Y127837D01*
X290814Y127670D01*
X290767Y127485D01*
X290730Y127282D01*
X290721Y127069D01*
Y127004D01*
X290730Y126949D01*
Y126884D01*
X290739Y126820D01*
X290777Y126653D01*
X290823Y126459D01*
X290897Y126265D01*
X290998Y126061D01*
X291054Y125960D01*
X291128Y125867D01*
X291137Y125858D01*
X291146Y125849D01*
X291174Y125821D01*
X291202Y125784D01*
X291248Y125747D01*
X291304Y125701D01*
X291359Y125645D01*
X291433Y125599D01*
X291516Y125544D01*
X291609Y125479D01*
X291701Y125423D01*
X291812Y125368D01*
X291932Y125322D01*
X292062Y125276D01*
X292200Y125229D01*
X292348Y125192D01*
X292136Y124342D01*
X292126D01*
X292089Y124351D01*
X292034Y124369D01*
X291960Y124397D01*
X291877Y124425D01*
X291775Y124462D01*
X291664Y124508D01*
X291544Y124564D01*
X291285Y124693D01*
X291026Y124860D01*
X290897Y124961D01*
X290767Y125063D01*
X290656Y125174D01*
X290545Y125303D01*
X290536Y125313D01*
X290518Y125331D01*
X290499Y125377D01*
X290462Y125423D01*
X290416Y125498D01*
X290370Y125571D01*
X290323Y125673D01*
X290277Y125775D01*
X290222Y125895D01*
X290175Y126025D01*
X290129Y126163D01*
X290083Y126311D01*
X290046Y126468D01*
X290028Y126635D01*
X290009Y126810D01*
X290000Y126995D01*
Y127097D01*
X290009Y127171D01*
Y127254D01*
X290018Y127356D01*
X290037Y127467D01*
X290055Y127596D01*
X290102Y127864D01*
X290175Y128142D01*
X290277Y128419D01*
X290342Y128548D01*
X290416Y128678D01*
X290425Y128687D01*
X290434Y128706D01*
X290462Y128743D01*
X290499Y128780D01*
X290536Y128835D01*
X290592Y128900D01*
X290656Y128974D01*
X290730Y129048D01*
X290814Y129122D01*
X290897Y129205D01*
X291109Y129371D01*
X291359Y129529D01*
X291636Y129667D01*
X291646D01*
X291673Y129686D01*
X291719Y129695D01*
X291775Y129723D01*
X291849Y129741D01*
X291941Y129769D01*
X292043Y129806D01*
X292154Y129834D01*
X292274Y129861D01*
X292413Y129898D01*
X292700Y129945D01*
X293023Y129982D01*
X293356Y130000D01*
X293365D01*
X293402D01*
X293458D01*
X293522Y129991D01*
D02*
G37*
G36*
X294928Y123010D02*
X294946Y122992D01*
X294956Y122955D01*
X294983Y122909D01*
X295011Y122853D01*
X295048Y122788D01*
X295140Y122631D01*
X295242Y122446D01*
X295371Y122261D01*
X295520Y122067D01*
X295677Y121873D01*
X295686Y121864D01*
X295695Y121855D01*
X295723Y121827D01*
X295751Y121790D01*
X295843Y121707D01*
X295954Y121596D01*
X296084Y121485D01*
X296231Y121365D01*
X296379Y121263D01*
X296537Y121171D01*
Y120662D01*
X290111D01*
Y121448D01*
X295113D01*
X295103Y121457D01*
X295066Y121503D01*
X295011Y121559D01*
X294946Y121651D01*
X294863Y121753D01*
X294771Y121882D01*
X294669Y122030D01*
X294567Y122197D01*
Y122206D01*
X294558Y122215D01*
X294521Y122271D01*
X294475Y122363D01*
X294419Y122474D01*
X294354Y122604D01*
X294290Y122742D01*
X294225Y122881D01*
X294170Y123020D01*
X294928D01*
Y123010D01*
D02*
G37*
G36*
X868171Y236611D02*
X868254Y236601D01*
X868356Y236592D01*
X868458Y236583D01*
X868578Y236555D01*
X868828Y236500D01*
X869105Y236416D01*
X869244Y236361D01*
X869373Y236296D01*
X869502Y236213D01*
X869632Y236130D01*
X869641Y236120D01*
X869660Y236111D01*
X869697Y236084D01*
X869743Y236037D01*
X869789Y235991D01*
X869854Y235926D01*
X869919Y235852D01*
X869993Y235778D01*
X870067Y235686D01*
X870140Y235575D01*
X870224Y235464D01*
X870298Y235344D01*
X870362Y235205D01*
X870436Y235067D01*
X870492Y234918D01*
X870547Y234752D01*
X869715Y234558D01*
Y234567D01*
X869706Y234586D01*
X869687Y234623D01*
X869669Y234669D01*
X869650Y234724D01*
X869623Y234798D01*
X869549Y234946D01*
X869456Y235113D01*
X869345Y235279D01*
X869207Y235436D01*
X869059Y235575D01*
X869040Y235593D01*
X868985Y235630D01*
X868892Y235677D01*
X868772Y235741D01*
X868615Y235797D01*
X868439Y235852D01*
X868227Y235889D01*
X867995Y235899D01*
X867922D01*
X867875Y235889D01*
X867811D01*
X867737Y235880D01*
X867561Y235852D01*
X867367Y235815D01*
X867163Y235751D01*
X866951Y235658D01*
X866757Y235538D01*
X866747D01*
X866738Y235520D01*
X866673Y235473D01*
X866590Y235399D01*
X866488Y235288D01*
X866368Y235150D01*
X866257Y234993D01*
X866156Y234798D01*
X866063Y234586D01*
Y234576D01*
X866054Y234558D01*
X866045Y234530D01*
X866035Y234484D01*
X866017Y234429D01*
X865998Y234364D01*
X865971Y234207D01*
X865934Y234022D01*
X865897Y233818D01*
X865878Y233596D01*
X865869Y233356D01*
Y233347D01*
Y233319D01*
Y233273D01*
Y233217D01*
X865878Y233153D01*
Y233069D01*
X865887Y232977D01*
X865897Y232875D01*
X865924Y232653D01*
X865971Y232413D01*
X866026Y232173D01*
X866100Y231932D01*
Y231923D01*
X866109Y231905D01*
X866128Y231877D01*
X866146Y231831D01*
X866202Y231720D01*
X866285Y231590D01*
X866387Y231442D01*
X866516Y231285D01*
X866664Y231146D01*
X866840Y231017D01*
X866849D01*
X866868Y231008D01*
X866895Y230989D01*
X866932Y230971D01*
X866978Y230952D01*
X867034Y230924D01*
X867163Y230869D01*
X867330Y230814D01*
X867515Y230767D01*
X867718Y230730D01*
X867931Y230721D01*
X867995D01*
X868051Y230730D01*
X868116D01*
X868180Y230739D01*
X868347Y230777D01*
X868541Y230823D01*
X868735Y230897D01*
X868939Y230998D01*
X869040Y231054D01*
X869133Y231128D01*
X869142Y231137D01*
X869151Y231146D01*
X869179Y231174D01*
X869216Y231202D01*
X869253Y231248D01*
X869299Y231304D01*
X869354Y231359D01*
X869401Y231433D01*
X869456Y231516D01*
X869521Y231609D01*
X869576Y231701D01*
X869632Y231812D01*
X869678Y231932D01*
X869724Y232062D01*
X869771Y232200D01*
X869808Y232348D01*
X870658Y232136D01*
Y232126D01*
X870649Y232089D01*
X870630Y232034D01*
X870603Y231960D01*
X870575Y231877D01*
X870538Y231775D01*
X870492Y231664D01*
X870436Y231544D01*
X870307Y231285D01*
X870140Y231026D01*
X870039Y230897D01*
X869937Y230767D01*
X869826Y230656D01*
X869697Y230545D01*
X869687Y230536D01*
X869669Y230518D01*
X869623Y230499D01*
X869576Y230462D01*
X869502Y230416D01*
X869428Y230370D01*
X869327Y230324D01*
X869225Y230277D01*
X869105Y230222D01*
X868976Y230175D01*
X868837Y230129D01*
X868689Y230083D01*
X868532Y230046D01*
X868365Y230028D01*
X868190Y230009D01*
X868005Y230000D01*
X867903D01*
X867829Y230009D01*
X867746D01*
X867644Y230018D01*
X867533Y230037D01*
X867404Y230055D01*
X867136Y230102D01*
X866858Y230175D01*
X866581Y230277D01*
X866451Y230342D01*
X866322Y230416D01*
X866313Y230425D01*
X866294Y230434D01*
X866257Y230462D01*
X866220Y230499D01*
X866165Y230536D01*
X866100Y230592D01*
X866026Y230656D01*
X865952Y230730D01*
X865878Y230814D01*
X865795Y230897D01*
X865629Y231109D01*
X865471Y231359D01*
X865333Y231636D01*
Y231646D01*
X865314Y231673D01*
X865305Y231720D01*
X865277Y231775D01*
X865259Y231849D01*
X865231Y231941D01*
X865194Y232043D01*
X865166Y232154D01*
X865139Y232274D01*
X865102Y232413D01*
X865055Y232700D01*
X865018Y233023D01*
X865000Y233356D01*
Y233365D01*
Y233402D01*
Y233458D01*
X865009Y233522D01*
Y233615D01*
X865018Y233707D01*
X865028Y233827D01*
X865046Y233948D01*
X865092Y234216D01*
X865157Y234512D01*
X865249Y234808D01*
X865379Y235094D01*
X865388Y235103D01*
X865397Y235131D01*
X865416Y235168D01*
X865453Y235214D01*
X865490Y235279D01*
X865536Y235353D01*
X865656Y235520D01*
X865814Y235704D01*
X865998Y235889D01*
X866211Y236074D01*
X866461Y236231D01*
X866470Y236241D01*
X866498Y236250D01*
X866535Y236268D01*
X866581Y236296D01*
X866655Y236324D01*
X866729Y236352D01*
X866821Y236389D01*
X866923Y236426D01*
X867034Y236462D01*
X867154Y236500D01*
X867413Y236555D01*
X867709Y236601D01*
X868014Y236620D01*
X868106D01*
X868171Y236611D01*
D02*
G37*
G36*
X873580Y236527D02*
X873700Y236509D01*
X873848Y236481D01*
X874014Y236435D01*
X874181Y236379D01*
X874347Y236305D01*
X874356D01*
X874366Y236296D01*
X874421Y236268D01*
X874504Y236213D01*
X874597Y236148D01*
X874708Y236056D01*
X874819Y235954D01*
X874930Y235834D01*
X875022Y235695D01*
X875031Y235677D01*
X875059Y235630D01*
X875096Y235547D01*
X875142Y235445D01*
X875189Y235325D01*
X875226Y235187D01*
X875253Y235030D01*
X875263Y234872D01*
Y234854D01*
Y234798D01*
X875253Y234724D01*
X875235Y234623D01*
X875207Y234503D01*
X875161Y234373D01*
X875105Y234244D01*
X875031Y234114D01*
X875022Y234096D01*
X874994Y234059D01*
X874939Y233994D01*
X874865Y233920D01*
X874772Y233837D01*
X874661Y233744D01*
X874532Y233661D01*
X874375Y233578D01*
X874384D01*
X874403Y233569D01*
X874430Y233559D01*
X874467Y233550D01*
X874569Y233513D01*
X874698Y233458D01*
X874846Y233384D01*
X874994Y233291D01*
X875133Y233171D01*
X875263Y233032D01*
X875272Y233014D01*
X875309Y232959D01*
X875364Y232866D01*
X875420Y232746D01*
X875475Y232598D01*
X875531Y232422D01*
X875568Y232219D01*
X875577Y231997D01*
Y231988D01*
Y231960D01*
Y231914D01*
X875568Y231858D01*
X875558Y231784D01*
X875540Y231701D01*
X875521Y231609D01*
X875503Y231507D01*
X875429Y231285D01*
X875373Y231165D01*
X875318Y231054D01*
X875244Y230934D01*
X875161Y230814D01*
X875068Y230693D01*
X874957Y230582D01*
X874948Y230573D01*
X874930Y230555D01*
X874893Y230527D01*
X874846Y230490D01*
X874791Y230444D01*
X874717Y230397D01*
X874634Y230342D01*
X874532Y230296D01*
X874430Y230240D01*
X874310Y230185D01*
X874190Y230139D01*
X874051Y230092D01*
X873903Y230055D01*
X873746Y230028D01*
X873589Y230009D01*
X873413Y230000D01*
X873330D01*
X873275Y230009D01*
X873201Y230018D01*
X873118Y230028D01*
X873025Y230046D01*
X872923Y230065D01*
X872701Y230120D01*
X872470Y230212D01*
X872350Y230268D01*
X872239Y230333D01*
X872128Y230416D01*
X872017Y230499D01*
X872008Y230508D01*
X871990Y230527D01*
X871962Y230555D01*
X871934Y230592D01*
X871888Y230638D01*
X871842Y230702D01*
X871786Y230767D01*
X871731Y230851D01*
X871675Y230943D01*
X871620Y231035D01*
X871518Y231257D01*
X871435Y231516D01*
X871407Y231655D01*
X871389Y231803D01*
X872175Y231905D01*
Y231895D01*
X872184Y231877D01*
X872193Y231840D01*
X872202Y231793D01*
X872211Y231738D01*
X872230Y231673D01*
X872276Y231535D01*
X872341Y231368D01*
X872424Y231211D01*
X872516Y231063D01*
X872627Y230934D01*
X872646Y230924D01*
X872683Y230887D01*
X872757Y230841D01*
X872849Y230795D01*
X872960Y230739D01*
X873099Y230693D01*
X873256Y230656D01*
X873423Y230647D01*
X873478D01*
X873515Y230656D01*
X873617Y230666D01*
X873746Y230693D01*
X873894Y230739D01*
X874051Y230804D01*
X874209Y230897D01*
X874356Y231026D01*
X874375Y231045D01*
X874421Y231100D01*
X874477Y231183D01*
X874551Y231294D01*
X874624Y231433D01*
X874680Y231590D01*
X874726Y231775D01*
X874745Y231978D01*
Y231988D01*
Y232006D01*
Y232034D01*
X874735Y232071D01*
X874726Y232173D01*
X874698Y232293D01*
X874661Y232441D01*
X874597Y232589D01*
X874504Y232737D01*
X874384Y232875D01*
X874366Y232894D01*
X874319Y232931D01*
X874246Y232986D01*
X874144Y233051D01*
X874014Y233116D01*
X873857Y233171D01*
X873681Y233208D01*
X873487Y233227D01*
X873404D01*
X873339Y233217D01*
X873256Y233208D01*
X873164Y233190D01*
X873053Y233171D01*
X872933Y233143D01*
X873025Y233837D01*
X873071D01*
X873108Y233827D01*
X873229D01*
X873330Y233846D01*
X873450Y233864D01*
X873589Y233892D01*
X873746Y233939D01*
X873894Y234003D01*
X874051Y234086D01*
X874061D01*
X874070Y234096D01*
X874116Y234133D01*
X874181Y234197D01*
X874255Y234281D01*
X874329Y234401D01*
X874393Y234540D01*
X874440Y234697D01*
X874458Y234789D01*
Y234891D01*
Y234900D01*
Y234909D01*
Y234965D01*
X874440Y235039D01*
X874421Y235140D01*
X874384Y235251D01*
X874338Y235372D01*
X874264Y235492D01*
X874162Y235603D01*
X874153Y235612D01*
X874107Y235649D01*
X874042Y235695D01*
X873959Y235751D01*
X873848Y235797D01*
X873718Y235843D01*
X873570Y235880D01*
X873404Y235889D01*
X873330D01*
X873247Y235871D01*
X873136Y235852D01*
X873016Y235815D01*
X872896Y235769D01*
X872766Y235695D01*
X872646Y235603D01*
X872637Y235593D01*
X872600Y235547D01*
X872544Y235483D01*
X872480Y235390D01*
X872415Y235270D01*
X872350Y235122D01*
X872295Y234946D01*
X872258Y234743D01*
X871472Y234881D01*
Y234891D01*
X871481Y234918D01*
X871490Y234956D01*
X871499Y235011D01*
X871518Y235076D01*
X871546Y235150D01*
X871601Y235325D01*
X871694Y235529D01*
X871805Y235732D01*
X871943Y235926D01*
X872119Y236102D01*
X872128Y236111D01*
X872147Y236120D01*
X872175Y236139D01*
X872211Y236167D01*
X872258Y236204D01*
X872322Y236241D01*
X872387Y236278D01*
X872470Y236324D01*
X872655Y236398D01*
X872868Y236472D01*
X873118Y236518D01*
X873247Y236537D01*
X873478D01*
X873580Y236527D01*
D02*
G37*
G36*
X333354Y314680D02*
X334889D01*
Y313894D01*
X333354D01*
Y311111D01*
X332633D01*
X328491Y314042D01*
Y314680D01*
X332633D01*
Y315549D01*
X333354D01*
Y314680D01*
D02*
G37*
G36*
X332911Y310649D02*
X332966Y310630D01*
X333040Y310603D01*
X333123Y310575D01*
X333225Y310538D01*
X333336Y310492D01*
X333456Y310436D01*
X333715Y310307D01*
X333974Y310140D01*
X334103Y310039D01*
X334233Y309937D01*
X334344Y309826D01*
X334455Y309697D01*
X334464Y309687D01*
X334482Y309669D01*
X334501Y309623D01*
X334538Y309576D01*
X334584Y309503D01*
X334630Y309429D01*
X334677Y309327D01*
X334723Y309225D01*
X334778Y309105D01*
X334824Y308976D01*
X334871Y308837D01*
X334917Y308689D01*
X334954Y308532D01*
X334972Y308365D01*
X334991Y308190D01*
X335000Y308005D01*
Y307903D01*
X334991Y307829D01*
Y307746D01*
X334982Y307644D01*
X334963Y307533D01*
X334945Y307404D01*
X334898Y307136D01*
X334824Y306858D01*
X334723Y306581D01*
X334658Y306451D01*
X334584Y306322D01*
X334575Y306313D01*
X334566Y306294D01*
X334538Y306257D01*
X334501Y306220D01*
X334464Y306165D01*
X334408Y306100D01*
X334344Y306026D01*
X334270Y305952D01*
X334187Y305878D01*
X334103Y305795D01*
X333891Y305629D01*
X333641Y305471D01*
X333364Y305333D01*
X333354D01*
X333327Y305314D01*
X333280Y305305D01*
X333225Y305277D01*
X333151Y305259D01*
X333059Y305231D01*
X332957Y305194D01*
X332846Y305166D01*
X332726Y305139D01*
X332587Y305102D01*
X332300Y305055D01*
X331977Y305018D01*
X331644Y305000D01*
X331635D01*
X331598D01*
X331542D01*
X331478Y305009D01*
X331385D01*
X331293Y305018D01*
X331172Y305028D01*
X331052Y305046D01*
X330784Y305092D01*
X330488Y305157D01*
X330192Y305250D01*
X329906Y305379D01*
X329897Y305388D01*
X329869Y305397D01*
X329832Y305416D01*
X329785Y305453D01*
X329721Y305490D01*
X329647Y305536D01*
X329480Y305656D01*
X329296Y305814D01*
X329111Y305998D01*
X328926Y306211D01*
X328769Y306461D01*
X328759Y306470D01*
X328750Y306498D01*
X328731Y306535D01*
X328704Y306581D01*
X328676Y306655D01*
X328648Y306729D01*
X328611Y306821D01*
X328574Y306923D01*
X328537Y307034D01*
X328500Y307154D01*
X328445Y307413D01*
X328399Y307709D01*
X328380Y308014D01*
Y308106D01*
X328390Y308171D01*
X328399Y308254D01*
X328408Y308356D01*
X328417Y308458D01*
X328445Y308578D01*
X328500Y308828D01*
X328584Y309105D01*
X328639Y309244D01*
X328704Y309373D01*
X328787Y309503D01*
X328870Y309632D01*
X328880Y309641D01*
X328889Y309660D01*
X328917Y309697D01*
X328963Y309743D01*
X329009Y309789D01*
X329074Y309854D01*
X329148Y309918D01*
X329222Y309993D01*
X329314Y310067D01*
X329425Y310140D01*
X329536Y310224D01*
X329656Y310298D01*
X329795Y310362D01*
X329934Y310436D01*
X330081Y310492D01*
X330248Y310547D01*
X330442Y309715D01*
X330433D01*
X330414Y309706D01*
X330377Y309687D01*
X330331Y309669D01*
X330276Y309650D01*
X330202Y309623D01*
X330054Y309549D01*
X329887Y309456D01*
X329721Y309345D01*
X329564Y309207D01*
X329425Y309059D01*
X329407Y309040D01*
X329370Y308985D01*
X329323Y308892D01*
X329258Y308772D01*
X329203Y308615D01*
X329148Y308439D01*
X329111Y308227D01*
X329101Y307995D01*
Y307922D01*
X329111Y307875D01*
Y307810D01*
X329120Y307737D01*
X329148Y307561D01*
X329185Y307367D01*
X329249Y307163D01*
X329342Y306951D01*
X329462Y306756D01*
Y306747D01*
X329480Y306738D01*
X329527Y306673D01*
X329601Y306590D01*
X329712Y306488D01*
X329850Y306368D01*
X330007Y306257D01*
X330202Y306156D01*
X330414Y306063D01*
X330424D01*
X330442Y306054D01*
X330470Y306045D01*
X330516Y306035D01*
X330571Y306017D01*
X330636Y305998D01*
X330793Y305971D01*
X330978Y305934D01*
X331182Y305897D01*
X331404Y305878D01*
X331644Y305869D01*
X331653D01*
X331681D01*
X331727D01*
X331783D01*
X331847Y305878D01*
X331931D01*
X332023Y305888D01*
X332125Y305897D01*
X332347Y305924D01*
X332587Y305971D01*
X332827Y306026D01*
X333068Y306100D01*
X333077D01*
X333096Y306109D01*
X333123Y306128D01*
X333169Y306146D01*
X333280Y306202D01*
X333410Y306285D01*
X333558Y306387D01*
X333715Y306516D01*
X333854Y306664D01*
X333983Y306840D01*
Y306849D01*
X333992Y306868D01*
X334011Y306895D01*
X334029Y306932D01*
X334048Y306978D01*
X334076Y307034D01*
X334131Y307163D01*
X334187Y307330D01*
X334233Y307515D01*
X334270Y307718D01*
X334279Y307931D01*
Y307995D01*
X334270Y308051D01*
Y308116D01*
X334260Y308180D01*
X334223Y308347D01*
X334177Y308541D01*
X334103Y308735D01*
X334002Y308939D01*
X333946Y309040D01*
X333872Y309133D01*
X333863Y309142D01*
X333854Y309151D01*
X333826Y309179D01*
X333798Y309216D01*
X333752Y309253D01*
X333696Y309299D01*
X333641Y309355D01*
X333567Y309401D01*
X333484Y309456D01*
X333391Y309521D01*
X333299Y309576D01*
X333188Y309632D01*
X333068Y309678D01*
X332938Y309724D01*
X332800Y309771D01*
X332652Y309808D01*
X332864Y310658D01*
X332874D01*
X332911Y310649D01*
D02*
G37*
G36*
X837874Y345614D02*
X837947Y345605D01*
X838031Y345595D01*
X838132Y345577D01*
X838234Y345558D01*
X838475Y345503D01*
X838724Y345410D01*
X838854Y345355D01*
X838974Y345281D01*
X839103Y345207D01*
X839223Y345115D01*
X839233Y345105D01*
X839260Y345087D01*
X839297Y345050D01*
X839344Y345004D01*
X839399Y344939D01*
X839473Y344865D01*
X839538Y344772D01*
X839612Y344671D01*
X839686Y344560D01*
X839750Y344430D01*
X839815Y344292D01*
X839880Y344144D01*
X839926Y343987D01*
X839963Y343811D01*
X839991Y343626D01*
X840000Y343432D01*
Y343349D01*
X839991Y343284D01*
X839982Y343210D01*
X839972Y343127D01*
X839963Y343025D01*
X839935Y342923D01*
X839880Y342692D01*
X839797Y342461D01*
X839741Y342341D01*
X839677Y342221D01*
X839603Y342110D01*
X839519Y341999D01*
X839510Y341990D01*
X839501Y341971D01*
X839464Y341953D01*
X839427Y341916D01*
X839381Y341869D01*
X839325Y341823D01*
X839251Y341768D01*
X839168Y341721D01*
X839085Y341666D01*
X838983Y341610D01*
X838761Y341509D01*
X838502Y341426D01*
X838364Y341398D01*
X838216Y341379D01*
X838151Y342202D01*
X838160D01*
X838179D01*
X838206Y342211D01*
X838253Y342221D01*
X838354Y342248D01*
X838493Y342285D01*
X838632Y342341D01*
X838789Y342415D01*
X838928Y342507D01*
X839057Y342618D01*
X839066Y342637D01*
X839103Y342674D01*
X839149Y342748D01*
X839205Y342849D01*
X839260Y342960D01*
X839307Y343099D01*
X839344Y343256D01*
X839353Y343432D01*
Y343487D01*
X839344Y343524D01*
X839334Y343635D01*
X839297Y343765D01*
X839251Y343922D01*
X839177Y344079D01*
X839066Y344245D01*
X839001Y344319D01*
X838928Y344393D01*
X838918Y344403D01*
X838909Y344412D01*
X838881Y344430D01*
X838854Y344458D01*
X838752Y344523D01*
X838623Y344597D01*
X838465Y344661D01*
X838271Y344726D01*
X838040Y344772D01*
X837920Y344791D01*
X837790D01*
X837781D01*
X837763D01*
X837726D01*
X837679Y344782D01*
X837624D01*
X837559Y344772D01*
X837411Y344745D01*
X837236Y344698D01*
X837060Y344634D01*
X836894Y344541D01*
X836736Y344412D01*
X836727D01*
X836718Y344393D01*
X836672Y344347D01*
X836607Y344264D01*
X836533Y344153D01*
X836468Y344005D01*
X836404Y343839D01*
X836357Y343644D01*
X836339Y343534D01*
Y343358D01*
X836348Y343284D01*
X836357Y343191D01*
X836385Y343080D01*
X836413Y342970D01*
X836459Y342849D01*
X836515Y342729D01*
X836524Y342720D01*
X836542Y342683D01*
X836588Y342627D01*
X836635Y342553D01*
X836699Y342480D01*
X836783Y342406D01*
X836866Y342322D01*
X836967Y342258D01*
X836866Y341518D01*
X833574Y342137D01*
Y345318D01*
X834323D01*
Y342757D01*
X836052Y342415D01*
X836043Y342424D01*
X836034Y342443D01*
X836015Y342470D01*
X835987Y342517D01*
X835960Y342572D01*
X835923Y342637D01*
X835849Y342785D01*
X835775Y342970D01*
X835710Y343173D01*
X835664Y343395D01*
X835645Y343506D01*
Y343709D01*
X835655Y343765D01*
X835664Y343839D01*
X835673Y343922D01*
X835692Y344014D01*
X835719Y344116D01*
X835784Y344338D01*
X835830Y344458D01*
X835895Y344578D01*
X835960Y344698D01*
X836034Y344819D01*
X836126Y344930D01*
X836228Y345041D01*
X836237Y345050D01*
X836256Y345068D01*
X836283Y345096D01*
X836330Y345133D01*
X836394Y345179D01*
X836459Y345225D01*
X836542Y345281D01*
X836635Y345336D01*
X836736Y345383D01*
X836847Y345438D01*
X836977Y345484D01*
X837106Y345531D01*
X837245Y345568D01*
X837402Y345595D01*
X837559Y345614D01*
X837726Y345623D01*
X837735D01*
X837763D01*
X837809D01*
X837874Y345614D01*
D02*
G37*
G36*
X837911Y340649D02*
X837966Y340630D01*
X838040Y340603D01*
X838123Y340575D01*
X838225Y340538D01*
X838336Y340492D01*
X838456Y340436D01*
X838715Y340307D01*
X838974Y340140D01*
X839103Y340039D01*
X839233Y339937D01*
X839344Y339826D01*
X839455Y339697D01*
X839464Y339687D01*
X839482Y339669D01*
X839501Y339623D01*
X839538Y339576D01*
X839584Y339502D01*
X839630Y339428D01*
X839677Y339327D01*
X839723Y339225D01*
X839778Y339105D01*
X839824Y338975D01*
X839871Y338837D01*
X839917Y338689D01*
X839954Y338532D01*
X839972Y338365D01*
X839991Y338190D01*
X840000Y338005D01*
Y337903D01*
X839991Y337829D01*
Y337746D01*
X839982Y337644D01*
X839963Y337533D01*
X839945Y337404D01*
X839898Y337136D01*
X839824Y336858D01*
X839723Y336581D01*
X839658Y336451D01*
X839584Y336322D01*
X839575Y336313D01*
X839566Y336294D01*
X839538Y336257D01*
X839501Y336220D01*
X839464Y336165D01*
X839408Y336100D01*
X839344Y336026D01*
X839270Y335952D01*
X839186Y335878D01*
X839103Y335795D01*
X838891Y335629D01*
X838641Y335471D01*
X838364Y335333D01*
X838354D01*
X838327Y335314D01*
X838280Y335305D01*
X838225Y335277D01*
X838151Y335259D01*
X838058Y335231D01*
X837957Y335194D01*
X837846Y335166D01*
X837726Y335139D01*
X837587Y335102D01*
X837300Y335055D01*
X836977Y335018D01*
X836644Y335000D01*
X836635D01*
X836598D01*
X836542D01*
X836478Y335009D01*
X836385D01*
X836293Y335018D01*
X836172Y335028D01*
X836052Y335046D01*
X835784Y335092D01*
X835488Y335157D01*
X835192Y335249D01*
X834906Y335379D01*
X834896Y335388D01*
X834869Y335397D01*
X834832Y335416D01*
X834786Y335453D01*
X834721Y335490D01*
X834647Y335536D01*
X834480Y335656D01*
X834296Y335813D01*
X834111Y335998D01*
X833926Y336211D01*
X833768Y336461D01*
X833759Y336470D01*
X833750Y336498D01*
X833732Y336535D01*
X833704Y336581D01*
X833676Y336655D01*
X833648Y336729D01*
X833611Y336821D01*
X833574Y336923D01*
X833537Y337034D01*
X833500Y337154D01*
X833445Y337413D01*
X833399Y337709D01*
X833380Y338014D01*
Y338106D01*
X833390Y338171D01*
X833399Y338254D01*
X833408Y338356D01*
X833417Y338458D01*
X833445Y338578D01*
X833500Y338828D01*
X833584Y339105D01*
X833639Y339244D01*
X833704Y339373D01*
X833787Y339502D01*
X833870Y339632D01*
X833879Y339641D01*
X833889Y339660D01*
X833916Y339697D01*
X833963Y339743D01*
X834009Y339789D01*
X834074Y339854D01*
X834148Y339919D01*
X834222Y339992D01*
X834314Y340066D01*
X834425Y340140D01*
X834536Y340224D01*
X834656Y340298D01*
X834795Y340362D01*
X834933Y340436D01*
X835081Y340492D01*
X835248Y340547D01*
X835442Y339715D01*
X835433D01*
X835414Y339706D01*
X835377Y339687D01*
X835331Y339669D01*
X835276Y339650D01*
X835202Y339623D01*
X835054Y339549D01*
X834887Y339456D01*
X834721Y339345D01*
X834564Y339207D01*
X834425Y339059D01*
X834407Y339040D01*
X834370Y338985D01*
X834323Y338892D01*
X834259Y338772D01*
X834203Y338615D01*
X834148Y338439D01*
X834111Y338227D01*
X834101Y337995D01*
Y337921D01*
X834111Y337875D01*
Y337811D01*
X834120Y337737D01*
X834148Y337561D01*
X834185Y337367D01*
X834249Y337163D01*
X834342Y336951D01*
X834462Y336757D01*
Y336747D01*
X834480Y336738D01*
X834527Y336673D01*
X834601Y336590D01*
X834712Y336488D01*
X834850Y336368D01*
X835007Y336257D01*
X835202Y336156D01*
X835414Y336063D01*
X835424D01*
X835442Y336054D01*
X835470Y336045D01*
X835516Y336035D01*
X835571Y336017D01*
X835636Y335998D01*
X835793Y335971D01*
X835978Y335934D01*
X836182Y335897D01*
X836404Y335878D01*
X836644Y335869D01*
X836653D01*
X836681D01*
X836727D01*
X836783D01*
X836847Y335878D01*
X836930D01*
X837023Y335887D01*
X837125Y335897D01*
X837347Y335924D01*
X837587Y335971D01*
X837827Y336026D01*
X838068Y336100D01*
X838077D01*
X838095Y336109D01*
X838123Y336128D01*
X838169Y336146D01*
X838280Y336202D01*
X838410Y336285D01*
X838558Y336387D01*
X838715Y336516D01*
X838854Y336664D01*
X838983Y336840D01*
Y336849D01*
X838992Y336867D01*
X839011Y336895D01*
X839029Y336932D01*
X839048Y336978D01*
X839075Y337034D01*
X839131Y337163D01*
X839186Y337330D01*
X839233Y337515D01*
X839270Y337718D01*
X839279Y337931D01*
Y337995D01*
X839270Y338051D01*
Y338116D01*
X839260Y338180D01*
X839223Y338347D01*
X839177Y338541D01*
X839103Y338735D01*
X839001Y338938D01*
X838946Y339040D01*
X838872Y339133D01*
X838863Y339142D01*
X838854Y339151D01*
X838826Y339179D01*
X838798Y339216D01*
X838752Y339253D01*
X838696Y339299D01*
X838641Y339355D01*
X838567Y339401D01*
X838484Y339456D01*
X838391Y339521D01*
X838299Y339576D01*
X838188Y339632D01*
X838068Y339678D01*
X837938Y339724D01*
X837800Y339771D01*
X837652Y339808D01*
X837864Y340658D01*
X837874D01*
X837911Y340649D01*
D02*
G37*
G36*
X916093Y795099D02*
X915307D01*
Y800101D01*
X915297Y800092D01*
X915251Y800055D01*
X915196Y799999D01*
X915103Y799935D01*
X915002Y799851D01*
X914872Y799759D01*
X914724Y799657D01*
X914558Y799556D01*
X914549D01*
X914539Y799546D01*
X914484Y799509D01*
X914391Y799463D01*
X914280Y799408D01*
X914151Y799343D01*
X914012Y799278D01*
X913874Y799213D01*
X913735Y799158D01*
Y799916D01*
X913744D01*
X913763Y799935D01*
X913800Y799944D01*
X913846Y799972D01*
X913901Y799999D01*
X913966Y800036D01*
X914123Y800129D01*
X914308Y800230D01*
X914493Y800360D01*
X914687Y800508D01*
X914882Y800665D01*
X914891Y800674D01*
X914900Y800684D01*
X914928Y800711D01*
X914965Y800739D01*
X915048Y800831D01*
X915159Y800942D01*
X915270Y801072D01*
X915390Y801220D01*
X915492Y801368D01*
X915584Y801525D01*
X916093D01*
Y795099D01*
D02*
G37*
G36*
X909408Y801599D02*
X909491D01*
X909575Y801590D01*
X909686Y801571D01*
X909796Y801553D01*
X910037Y801506D01*
X910314Y801432D01*
X910582Y801321D01*
X910721Y801257D01*
X910860Y801183D01*
X910869Y801173D01*
X910887Y801164D01*
X910924Y801136D01*
X910980Y801109D01*
X911035Y801063D01*
X911109Y801007D01*
X911266Y800878D01*
X911433Y800711D01*
X911618Y800508D01*
X911794Y800267D01*
X911941Y799999D01*
Y799990D01*
X911960Y799962D01*
X911978Y799925D01*
X911997Y799870D01*
X912034Y799796D01*
X912062Y799713D01*
X912099Y799611D01*
X912135Y799500D01*
X912163Y799380D01*
X912200Y799250D01*
X912237Y799112D01*
X912265Y798964D01*
X912302Y798640D01*
X912320Y798298D01*
Y798289D01*
Y798261D01*
Y798224D01*
Y798169D01*
X912311Y798095D01*
Y798011D01*
X912302Y797919D01*
X912293Y797827D01*
X912265Y797605D01*
X912219Y797364D01*
X912163Y797115D01*
X912080Y796874D01*
Y796865D01*
X912071Y796847D01*
X912052Y796810D01*
X912034Y796773D01*
X912006Y796717D01*
X911978Y796652D01*
X911904Y796505D01*
X911803Y796329D01*
X911673Y796144D01*
X911525Y795959D01*
X911359Y795774D01*
X911368D01*
X911387Y795756D01*
X911414Y795737D01*
X911461Y795709D01*
X911507Y795672D01*
X911572Y795635D01*
X911710Y795552D01*
X911877Y795451D01*
X912062Y795349D01*
X912256Y795266D01*
X912441Y795182D01*
X912191Y794600D01*
X912182D01*
X912163Y794609D01*
X912126Y794628D01*
X912071Y794646D01*
X912006Y794674D01*
X911932Y794711D01*
X911849Y794748D01*
X911757Y794794D01*
X911553Y794905D01*
X911322Y795034D01*
X911072Y795201D01*
X910813Y795386D01*
X910804D01*
X910786Y795367D01*
X910740Y795349D01*
X910693Y795321D01*
X910619Y795293D01*
X910545Y795256D01*
X910453Y795229D01*
X910351Y795192D01*
X910240Y795155D01*
X910120Y795118D01*
X909852Y795053D01*
X909556Y795007D01*
X909399Y794997D01*
X909242Y794988D01*
X909158D01*
X909094Y794997D01*
X909020D01*
X908927Y795007D01*
X908826Y795025D01*
X908715Y795044D01*
X908474Y795090D01*
X908206Y795164D01*
X907929Y795266D01*
X907799Y795330D01*
X907661Y795404D01*
X907651Y795414D01*
X907633Y795423D01*
X907596Y795451D01*
X907550Y795478D01*
X907485Y795524D01*
X907420Y795580D01*
X907263Y795709D01*
X907087Y795876D01*
X906912Y796079D01*
X906736Y796310D01*
X906579Y796578D01*
Y796588D01*
X906560Y796615D01*
X906542Y796652D01*
X906524Y796708D01*
X906496Y796782D01*
X906459Y796865D01*
X906422Y796967D01*
X906394Y797078D01*
X906357Y797198D01*
X906320Y797327D01*
X906292Y797466D01*
X906255Y797623D01*
X906218Y797947D01*
X906200Y798289D01*
Y798298D01*
Y798335D01*
Y798381D01*
X906209Y798446D01*
Y798529D01*
X906218Y798631D01*
X906228Y798742D01*
X906246Y798862D01*
X906292Y799130D01*
X906357Y799417D01*
X906450Y799722D01*
X906579Y800018D01*
X906588Y800027D01*
X906597Y800055D01*
X906616Y800092D01*
X906653Y800147D01*
X906690Y800212D01*
X906736Y800286D01*
X906865Y800462D01*
X907013Y800647D01*
X907208Y800841D01*
X907420Y801035D01*
X907670Y801201D01*
X907679Y801210D01*
X907707Y801220D01*
X907744Y801238D01*
X907799Y801266D01*
X907864Y801294D01*
X907938Y801331D01*
X908030Y801368D01*
X908132Y801405D01*
X908252Y801442D01*
X908373Y801479D01*
X908641Y801543D01*
X908937Y801590D01*
X909094Y801608D01*
X909343D01*
X909408Y801599D01*
D02*
G37*
%LPC*%
G36*
X832864Y144773D02*
X832855D01*
X832837D01*
X832800D01*
X832753Y144763D01*
X832698D01*
X832633Y144754D01*
X832485Y144726D01*
X832319Y144689D01*
X832143Y144625D01*
X831977Y144532D01*
X831820Y144412D01*
X831801Y144393D01*
X831755Y144347D01*
X831699Y144273D01*
X831626Y144171D01*
X831552Y144042D01*
X831496Y143894D01*
X831450Y143719D01*
X831431Y143524D01*
Y143469D01*
X831441Y143432D01*
X831450Y143339D01*
X831478Y143210D01*
X831524Y143071D01*
X831598Y142914D01*
X831690Y142766D01*
X831820Y142618D01*
X831838Y142600D01*
X831884Y142563D01*
X831968Y142498D01*
X832088Y142433D01*
X832226Y142369D01*
X832402Y142304D01*
X832596Y142267D01*
X832818Y142248D01*
X832837D01*
X832883D01*
X832966Y142258D01*
X833068Y142267D01*
X833188Y142285D01*
X833317Y142322D01*
X833456Y142359D01*
X833595Y142415D01*
X833613Y142424D01*
X833660Y142452D01*
X833724Y142489D01*
X833807Y142544D01*
X833891Y142609D01*
X833992Y142692D01*
X834075Y142785D01*
X834159Y142896D01*
X834168Y142914D01*
X834186Y142951D01*
X834223Y143016D01*
X834251Y143099D01*
X834288Y143191D01*
X834325Y143302D01*
X834344Y143423D01*
X834353Y143552D01*
Y143598D01*
X834344Y143635D01*
X834334Y143728D01*
X834307Y143848D01*
X834251Y143977D01*
X834186Y144125D01*
X834085Y144273D01*
X834029Y144347D01*
X833955Y144412D01*
X833946D01*
X833937Y144430D01*
X833881Y144467D01*
X833789Y144523D01*
X833669Y144597D01*
X833512Y144662D01*
X833327Y144717D01*
X833114Y144754D01*
X832864Y144773D01*
D02*
G37*
G36*
X131540Y387023D02*
X131485D01*
X131448Y387014D01*
X131346Y387005D01*
X131226Y386977D01*
X131078Y386931D01*
X130930Y386866D01*
X130782Y386773D01*
X130644Y386644D01*
X130625Y386626D01*
X130588Y386570D01*
X130533Y386487D01*
X130459Y386367D01*
X130394Y386219D01*
X130338Y386043D01*
X130302Y385830D01*
X130283Y385590D01*
Y385581D01*
Y385562D01*
Y385525D01*
X130292Y385479D01*
Y385414D01*
X130302Y385350D01*
X130329Y385202D01*
X130366Y385026D01*
X130431Y384841D01*
X130523Y384665D01*
X130644Y384508D01*
Y384499D01*
X130662Y384490D01*
X130708Y384444D01*
X130782Y384379D01*
X130884Y384305D01*
X131013Y384240D01*
X131161Y384175D01*
X131328Y384129D01*
X131420Y384111D01*
X131568D01*
X131605Y384120D01*
X131707Y384129D01*
X131827Y384166D01*
X131975Y384212D01*
X132132Y384296D01*
X132289Y384397D01*
X132363Y384471D01*
X132437Y384545D01*
Y384554D01*
X132456Y384564D01*
X132474Y384591D01*
X132493Y384619D01*
X132557Y384712D01*
X132622Y384841D01*
X132696Y384998D01*
X132761Y385192D01*
X132798Y385414D01*
X132816Y385655D01*
Y385664D01*
Y385682D01*
Y385710D01*
X132807Y385756D01*
Y385812D01*
X132798Y385867D01*
X132770Y386006D01*
X132724Y386163D01*
X132668Y386330D01*
X132576Y386496D01*
X132456Y386644D01*
X132437Y386662D01*
X132391Y386699D01*
X132308Y386764D01*
X132206Y386829D01*
X132067Y386903D01*
X131910Y386968D01*
X131735Y387005D01*
X131540Y387023D01*
D02*
G37*
G36*
X579150Y554242D02*
X577633D01*
X577569Y554233D01*
X577430Y554224D01*
X577273Y554214D01*
X577106Y554196D01*
X576940Y554168D01*
X576801Y554131D01*
X576783Y554122D01*
X576736Y554113D01*
X576672Y554085D01*
X576589Y554048D01*
X576496Y553992D01*
X576404Y553937D01*
X576311Y553872D01*
X576219Y553798D01*
X576209Y553780D01*
X576172Y553743D01*
X576117Y553678D01*
X576052Y553586D01*
X575978Y553465D01*
X575895Y553327D01*
X575821Y553170D01*
X575756Y552994D01*
Y552985D01*
X575747Y552966D01*
X575738Y552938D01*
X575729Y552901D01*
X575719Y552855D01*
X575701Y552790D01*
X575682Y552726D01*
X575664Y552652D01*
X575636Y552467D01*
X575608Y552254D01*
X575590Y552014D01*
X575581Y551755D01*
Y551746D01*
Y551709D01*
Y551662D01*
X575590Y551589D01*
Y551505D01*
X575599Y551413D01*
X575608Y551302D01*
X575618Y551191D01*
X575664Y550941D01*
X575719Y550682D01*
X575803Y550442D01*
X575858Y550322D01*
X575914Y550220D01*
Y550211D01*
X575932Y550192D01*
X575951Y550165D01*
X575969Y550128D01*
X576043Y550035D01*
X576135Y549924D01*
X576256Y549804D01*
X576394Y549684D01*
X576552Y549582D01*
X576718Y549499D01*
X576736Y549490D01*
X576783Y549481D01*
X576866Y549453D01*
X576986Y549425D01*
X577134Y549407D01*
X577319Y549379D01*
X577430Y549370D01*
X577550D01*
X577670Y549360D01*
X579150D01*
Y554242D01*
D02*
G37*
G36*
X588275Y443569D02*
X588219D01*
X588182Y443559D01*
X588090Y443550D01*
X587960Y443522D01*
X587822Y443476D01*
X587664Y443402D01*
X587517Y443310D01*
X587369Y443180D01*
X587350Y443162D01*
X587313Y443116D01*
X587248Y443032D01*
X587184Y442912D01*
X587119Y442774D01*
X587054Y442598D01*
X587017Y442404D01*
X586999Y442182D01*
Y442163D01*
Y442117D01*
X587008Y442034D01*
X587017Y441932D01*
X587036Y441812D01*
X587073Y441683D01*
X587110Y441544D01*
X587165Y441405D01*
X587174Y441387D01*
X587202Y441340D01*
X587239Y441276D01*
X587295Y441193D01*
X587359Y441109D01*
X587443Y441008D01*
X587535Y440924D01*
X587646Y440841D01*
X587664Y440832D01*
X587701Y440813D01*
X587766Y440776D01*
X587849Y440749D01*
X587942Y440712D01*
X588053Y440675D01*
X588173Y440656D01*
X588302Y440647D01*
X588349D01*
X588386Y440656D01*
X588478Y440666D01*
X588598Y440693D01*
X588728Y440749D01*
X588876Y440813D01*
X589024Y440915D01*
X589098Y440971D01*
X589162Y441045D01*
Y441054D01*
X589181Y441063D01*
X589218Y441119D01*
X589273Y441211D01*
X589347Y441331D01*
X589412Y441488D01*
X589467Y441673D01*
X589504Y441886D01*
X589523Y442136D01*
Y442145D01*
Y442163D01*
Y442200D01*
X589514Y442247D01*
Y442302D01*
X589504Y442367D01*
X589477Y442515D01*
X589440Y442681D01*
X589375Y442857D01*
X589282Y443023D01*
X589162Y443180D01*
X589144Y443199D01*
X589098Y443245D01*
X589024Y443301D01*
X588922Y443374D01*
X588792Y443448D01*
X588644Y443504D01*
X588469Y443550D01*
X588275Y443569D01*
D02*
G37*
G36*
X582330Y445751D02*
X580850D01*
Y440869D01*
X582367D01*
X582431Y440878D01*
X582570Y440887D01*
X582727Y440897D01*
X582894Y440915D01*
X583060Y440943D01*
X583199Y440980D01*
X583217Y440989D01*
X583264Y440998D01*
X583328Y441026D01*
X583411Y441063D01*
X583504Y441119D01*
X583596Y441174D01*
X583689Y441239D01*
X583781Y441313D01*
X583791Y441331D01*
X583828Y441368D01*
X583883Y441433D01*
X583948Y441525D01*
X584022Y441646D01*
X584105Y441784D01*
X584179Y441941D01*
X584244Y442117D01*
Y442126D01*
X584253Y442145D01*
X584262Y442173D01*
X584271Y442210D01*
X584281Y442256D01*
X584299Y442321D01*
X584318Y442385D01*
X584336Y442459D01*
X584364Y442644D01*
X584392Y442857D01*
X584410Y443097D01*
X584419Y443356D01*
Y443365D01*
Y443402D01*
Y443448D01*
X584410Y443522D01*
Y443606D01*
X584401Y443698D01*
X584392Y443809D01*
X584382Y443920D01*
X584336Y444170D01*
X584281Y444428D01*
X584197Y444669D01*
X584142Y444789D01*
X584086Y444891D01*
Y444900D01*
X584068Y444919D01*
X584049Y444946D01*
X584031Y444983D01*
X583957Y445076D01*
X583865Y445187D01*
X583744Y445307D01*
X583606Y445427D01*
X583448Y445529D01*
X583282Y445612D01*
X583264Y445621D01*
X583217Y445630D01*
X583134Y445658D01*
X583014Y445686D01*
X582866Y445704D01*
X582681Y445732D01*
X582570Y445741D01*
X582450D01*
X582330Y445751D01*
D02*
G37*
G36*
X332633Y313894D02*
X329767D01*
X332633Y311879D01*
Y313894D01*
D02*
G37*
G36*
X909260Y800878D02*
X909168D01*
X909103Y800868D01*
X909020Y800859D01*
X908927Y800841D01*
X908826Y800822D01*
X908715Y800794D01*
X908585Y800758D01*
X908465Y800721D01*
X908336Y800665D01*
X908197Y800600D01*
X908067Y800526D01*
X907938Y800434D01*
X907809Y800341D01*
X907688Y800221D01*
X907679Y800212D01*
X907661Y800193D01*
X907633Y800156D01*
X907596Y800101D01*
X907541Y800036D01*
X907494Y799953D01*
X907439Y799851D01*
X907383Y799740D01*
X907319Y799611D01*
X907263Y799463D01*
X907217Y799306D01*
X907171Y799130D01*
X907124Y798945D01*
X907097Y798742D01*
X907078Y798520D01*
X907069Y798289D01*
Y798270D01*
Y798233D01*
Y798169D01*
X907078Y798085D01*
X907087Y797984D01*
X907106Y797864D01*
X907124Y797725D01*
X907143Y797586D01*
X907217Y797272D01*
X907263Y797115D01*
X907328Y796957D01*
X907393Y796800D01*
X907476Y796652D01*
X907568Y796505D01*
X907679Y796375D01*
X907688Y796366D01*
X907707Y796347D01*
X907744Y796310D01*
X907790Y796273D01*
X907855Y796218D01*
X907929Y796162D01*
X908012Y796107D01*
X908114Y796042D01*
X908215Y795977D01*
X908336Y795922D01*
X908465Y795866D01*
X908604Y795811D01*
X908761Y795774D01*
X908918Y795737D01*
X909084Y795719D01*
X909260Y795709D01*
X909343D01*
X909427Y795719D01*
X909538Y795728D01*
X909676Y795746D01*
X909815Y795783D01*
X909972Y795820D01*
X910120Y795876D01*
X910101Y795885D01*
X910055Y795922D01*
X909972Y795968D01*
X909870Y796024D01*
X909741Y796079D01*
X909602Y796144D01*
X909445Y796199D01*
X909279Y796246D01*
X909491Y796856D01*
X909501D01*
X909528Y796847D01*
X909565Y796837D01*
X909612Y796819D01*
X909676Y796800D01*
X909750Y796773D01*
X909917Y796708D01*
X910111Y796615D01*
X910314Y796514D01*
X910508Y796394D01*
X910703Y796246D01*
X910712Y796255D01*
X910740Y796273D01*
X910776Y796320D01*
X910823Y796375D01*
X910878Y796449D01*
X910943Y796532D01*
X911008Y796634D01*
X911081Y796754D01*
X911146Y796893D01*
X911211Y797050D01*
X911276Y797216D01*
X911331Y797392D01*
X911387Y797596D01*
X911424Y797808D01*
X911442Y798039D01*
X911451Y798289D01*
Y798298D01*
Y798326D01*
Y798363D01*
Y798418D01*
X911442Y798492D01*
Y798566D01*
X911433Y798659D01*
X911414Y798751D01*
X911387Y798964D01*
X911340Y799195D01*
X911276Y799426D01*
X911183Y799648D01*
Y799657D01*
X911174Y799676D01*
X911155Y799704D01*
X911137Y799740D01*
X911072Y799851D01*
X910989Y799981D01*
X910878Y800129D01*
X910740Y800277D01*
X910582Y800425D01*
X910407Y800554D01*
X910397D01*
X910388Y800573D01*
X910360Y800582D01*
X910314Y800610D01*
X910268Y800628D01*
X910212Y800656D01*
X910074Y800721D01*
X909907Y800776D01*
X909713Y800831D01*
X909491Y800868D01*
X909260Y800878D01*
D02*
G37*
%LPD*%
D13*
X821500Y114000D02*
Y156000D01*
X848500D01*
Y114000D02*
Y156000D01*
X821500Y114000D02*
X848500D01*
Y39000D02*
Y81000D01*
X821500Y39000D02*
X848500D01*
X821500D02*
Y81000D01*
X848500D01*
X534870Y544450D02*
X625130D01*
X534870D02*
Y565550D01*
X625130D01*
Y544450D02*
Y565550D01*
X534870Y450550D02*
X625130D01*
Y429450D02*
Y450550D01*
X534870Y429450D02*
X625130D01*
X534870D02*
Y450550D01*
X276500Y162000D02*
X303500D01*
X276500Y98000D02*
Y162000D01*
Y98000D02*
X303500D01*
Y162000D01*
X833000Y216500D02*
Y243500D01*
Y216500D02*
X897000D01*
Y243500D01*
X833000D02*
X897000D01*
X321500Y273000D02*
X348500D01*
Y337000D01*
X321500D02*
X348500D01*
X321500Y273000D02*
Y337000D01*
X826500Y303000D02*
X853500D01*
Y367000D01*
X826500D02*
X853500D01*
X826500Y303000D02*
Y367000D01*
X881050Y738980D02*
Y850220D01*
Y738980D02*
X931350D01*
Y850220D01*
X881050D02*
X931350D01*
M02*
