G04*
G04 #@! TF.GenerationSoftware,Altium Limited,Altium Designer,26.2.0 (7)*
G04*
G04 Layer_Color=16711935*
%FSLAX44Y44*%
%MOMM*%
G71*
G04*
G04 #@! TF.SameCoordinates,2D8FE527-5C95-4938-8EC8-E0E4FE257E54*
G04*
G04*
G04 #@! TF.FilePolarity,Positive*
G04*
G01*
G75*
%ADD11C,0.1500*%
%ADD13C,0.2000*%
%ADD14C,0.1000*%
D11*
X222500Y390000D02*
G03*
X222500Y390000I-82500J0D01*
G01*
X622500Y290000D02*
G03*
X622500Y290000I-82500J0D01*
G01*
D13*
X822500Y115000D02*
Y155000D01*
X847500D01*
Y115000D02*
Y155000D01*
X822500Y115000D02*
X847500D01*
Y40000D02*
Y80000D01*
X822500Y40000D02*
X847500D01*
X822500D02*
Y80000D01*
X847500D01*
X557200Y545450D02*
X602800D01*
X557200D02*
Y564550D01*
X602800D01*
Y545450D02*
Y564550D01*
X557200Y449550D02*
X602800D01*
Y430450D02*
Y449550D01*
X557200Y430450D02*
X602800D01*
X557200D02*
Y449550D01*
X277500Y150000D02*
X302500D01*
X277500Y110000D02*
Y150000D01*
Y110000D02*
X302500D01*
Y150000D01*
X845000Y217500D02*
Y242500D01*
Y217500D02*
X885000D01*
Y242500D01*
X845000D02*
X885000D01*
X322500Y285000D02*
X347500D01*
Y325000D01*
X322500D02*
X347500D01*
X322500Y285000D02*
Y325000D01*
X827500Y315000D02*
X852500D01*
Y355000D01*
X827500D02*
X852500D01*
X827500Y315000D02*
Y355000D01*
X882050Y741250D02*
Y847950D01*
Y741250D02*
X930350D01*
Y847950D01*
X882050D02*
X930350D01*
D14*
X751000Y311750D02*
G03*
X751000Y311750I-5000J0D01*
G01*
X421750Y219000D02*
G03*
X421750Y219000I-5000J0D01*
G01*
X674200Y653500D02*
Y756500D01*
X638200Y653500D02*
X686700D01*
X638200Y756500D02*
X686700D01*
Y653500D02*
Y756500D01*
X638200Y653500D02*
Y756500D01*
X554200Y653500D02*
Y756500D01*
X518200Y653500D02*
X566700D01*
X518200Y756500D02*
X566700D01*
Y653500D02*
Y756500D01*
X518200Y653500D02*
Y756500D01*
X434200Y653500D02*
Y756500D01*
X398200Y653500D02*
X446700D01*
X398200Y756500D02*
X446700D01*
Y653500D02*
Y756500D01*
X398200Y653500D02*
Y756500D01*
X299200Y653500D02*
Y756500D01*
X263200Y653500D02*
X311700D01*
X263200Y756500D02*
X311700D01*
Y653500D02*
Y756500D01*
X263200Y653500D02*
Y756500D01*
X737000Y219250D02*
X803000D01*
X737000Y320750D02*
X803000D01*
Y219250D02*
Y320750D01*
X737000Y219250D02*
Y320750D01*
X324250Y162000D02*
Y228000D01*
X425750Y162000D02*
Y228000D01*
X324250Y162000D02*
X425750D01*
X324250Y228000D02*
X425750D01*
M02*
