G04*
G04 #@! TF.GenerationSoftware,Altium Limited,Altium Designer,26.2.0 (7)*
G04*
G04 Layer_Color=255*
%FSLAX44Y44*%
%MOMM*%
G71*
G04*
G04 #@! TF.SameCoordinates,EF66C442-CE4D-47CB-B162-2981B1276574*
G04*
G04*
G04 #@! TF.FilePolarity,Positive*
G04*
G01*
G75*
%ADD19R,1.2000X1.2000*%
%ADD20C,1.2000*%
%ADD23R,1.5500X1.5500*%
%ADD24C,1.5500*%
%ADD27R,1.2000X1.2000*%
%ADD41R,1.8150X1.8150*%
%ADD42C,1.8150*%
%ADD43C,1.6000*%
%ADD44R,1.6000X1.6000*%
%ADD45C,1.5000*%
%ADD46R,1.5000X1.5000*%
%ADD47R,1.3000X1.3000*%
%ADD48C,1.3000*%
%ADD49C,1.6500*%
%ADD50C,1.4000*%
%ADD51R,1.5000X1.5000*%
%ADD52C,1.9500*%
%ADD53C,2.4000*%
%ADD54R,2.4000X2.4000*%
G04:AMPARAMS|DCode=55|XSize=1.3mm|YSize=1.3mm|CornerRadius=0.325mm|HoleSize=0mm|Usage=FLASHONLY|Rotation=180.000|XOffset=0mm|YOffset=0mm|HoleType=Round|Shape=RoundedRectangle|*
%AMROUNDEDRECTD55*
21,1,1.3000,0.6500,0,0,180.0*
21,1,0.6500,1.3000,0,0,180.0*
1,1,0.6500,-0.3250,0.3250*
1,1,0.6500,0.3250,0.3250*
1,1,0.6500,0.3250,-0.3250*
1,1,0.6500,-0.3250,-0.3250*
%
%ADD55ROUNDEDRECTD55*%
%ADD56O,2.2000X2.1000*%
%ADD57C,6.0000*%
D19*
X835000Y122500D02*
D03*
Y72500D02*
D03*
X290000Y155000D02*
D03*
X335000Y280000D02*
D03*
X840000Y310000D02*
D03*
D20*
X835000Y147500D02*
D03*
Y47500D02*
D03*
X541870Y555000D02*
D03*
X618130Y440000D02*
D03*
X290000Y105000D02*
D03*
X890000Y230000D02*
D03*
X335000Y330000D02*
D03*
X840000Y360000D02*
D03*
D23*
X177500Y390000D02*
D03*
X502500Y290000D02*
D03*
D24*
X102500Y390000D02*
D03*
X577500Y290000D02*
D03*
D27*
X618130Y555000D02*
D03*
X541870Y440000D02*
D03*
X840000Y230000D02*
D03*
D41*
X899500Y820050D02*
D03*
D42*
Y794650D02*
D03*
Y769250D02*
D03*
D43*
X660000Y679600D02*
D03*
X540000D02*
D03*
X420000D02*
D03*
X285000D02*
D03*
D44*
X660000Y730400D02*
D03*
X540000D02*
D03*
X420000D02*
D03*
X285000D02*
D03*
D45*
X808100Y231900D02*
D03*
Y257300D02*
D03*
Y282700D02*
D03*
Y308100D02*
D03*
X731900Y231900D02*
D03*
Y257300D02*
D03*
Y282700D02*
D03*
X336900Y156900D02*
D03*
X362300D02*
D03*
X387700D02*
D03*
X413100D02*
D03*
X336900Y233100D02*
D03*
X362300D02*
D03*
X387700D02*
D03*
X332500Y82500D02*
D03*
Y37500D02*
D03*
X397500Y82500D02*
D03*
Y37500D02*
D03*
D46*
X731900Y308100D02*
D03*
D47*
X785000Y50000D02*
D03*
X530000D02*
D03*
D48*
X785000Y90000D02*
D03*
Y110000D02*
D03*
Y130000D02*
D03*
X530000Y90000D02*
D03*
Y110000D02*
D03*
Y130000D02*
D03*
X920000Y150000D02*
D03*
D49*
X785000Y31000D02*
D03*
Y149000D02*
D03*
X530000Y31000D02*
D03*
Y149000D02*
D03*
D50*
X586900Y45000D02*
D03*
X663100D02*
D03*
X586900Y95000D02*
D03*
X663100D02*
D03*
X586900Y145000D02*
D03*
X663100D02*
D03*
X430000Y108100D02*
D03*
Y31900D02*
D03*
X505000Y543100D02*
D03*
Y466900D02*
D03*
X800000Y621900D02*
D03*
Y698100D02*
D03*
X840000Y621900D02*
D03*
Y698100D02*
D03*
D51*
X413100Y233100D02*
D03*
D52*
X660000Y890000D02*
D03*
X625000D02*
D03*
X545000D02*
D03*
X510000D02*
D03*
X430000D02*
D03*
X395000D02*
D03*
X320000D02*
D03*
X285000D02*
D03*
D53*
X245000Y215000D02*
D03*
Y249000D02*
D03*
X110300D02*
D03*
Y215000D02*
D03*
X220000Y110000D02*
D03*
D54*
X143800D02*
D03*
D55*
X900000Y150000D02*
D03*
D56*
X740000Y445000D02*
D03*
Y495000D02*
D03*
Y545000D02*
D03*
D57*
X910000Y40000D02*
D03*
X40000D02*
D03*
X840000Y910000D02*
D03*
X40000D02*
D03*
M02*
