G04*
G04 #@! TF.GenerationSoftware,Altium Limited,Altium Designer,26.2.0 (7)*
G04*
G04 Layer_Physical_Order=2*
G04 Layer_Color=16711680*
%FSLAX44Y44*%
%MOMM*%
G71*
G04*
G04 #@! TF.SameCoordinates,562C6166-C518-446A-8980-B7ECEE3FE5AD*
G04*
G04*
G04 #@! TF.FilePolarity,Positive*
G04*
G01*
G75*
%ADD15C,0.2540*%
%ADD17R,1.2000X1.2000*%
%ADD18C,1.2000*%
%ADD33R,1.2000X1.2000*%
%ADD34C,1.5500*%
%ADD35R,1.5500X1.5500*%
%ADD40C,4.0000*%
%ADD41C,1.3000*%
G04:AMPARAMS|DCode=42|XSize=1.3mm|YSize=1.3mm|CornerRadius=0.325mm|HoleSize=0mm|Usage=FLASHONLY|Rotation=90.000|XOffset=0mm|YOffset=0mm|HoleType=Round|Shape=RoundedRectangle|*
%AMROUNDEDRECTD42*
21,1,1.3000,0.6500,0,0,90.0*
21,1,0.6500,1.3000,0,0,90.0*
1,1,0.6500,0.3250,0.3250*
1,1,0.6500,0.3250,-0.3250*
1,1,0.6500,-0.3250,-0.3250*
1,1,0.6500,-0.3250,0.3250*
%
%ADD42ROUNDEDRECTD42*%
%ADD43C,1.6000*%
%ADD44O,2.1000X2.2000*%
%ADD45R,1.6000X1.6000*%
%ADD46C,1.9500*%
%ADD47C,2.4000*%
%ADD48R,1.5000X1.5000*%
%ADD49C,1.5000*%
%ADD50C,1.6500*%
%ADD51R,1.3000X1.3000*%
%ADD52C,1.8150*%
%ADD53R,1.8150X1.8150*%
%ADD54R,2.4000X2.4000*%
%ADD55R,1.5000X1.5000*%
%ADD56R,1.3000X1.3000*%
%ADD57C,6.0000*%
%ADD58C,2.0000*%
G36*
X970000Y350000D02*
X200000D01*
Y1220000D01*
X970000D01*
Y350000D01*
D02*
G37*
%LPC*%
G36*
X380000Y1185153D02*
X377044Y1184862D01*
X374201Y1183999D01*
X371581Y1182599D01*
X369285Y1180715D01*
X368755Y1180069D01*
X366215Y1180977D01*
Y1181615D01*
X342985D01*
Y1158385D01*
X360315D01*
X361401Y1156089D01*
X360171Y1154590D01*
X357842Y1150233D01*
X356408Y1145505D01*
X355924Y1140589D01*
X356408Y1135672D01*
X357842Y1130945D01*
X360171Y1126588D01*
X363305Y1122769D01*
X444799Y1041275D01*
Y993535D01*
X369509D01*
X320224Y1042820D01*
X316405Y1045954D01*
X312569Y1048004D01*
X311948Y1049509D01*
X311826Y1051005D01*
X313142Y1052975D01*
X314260Y1055674D01*
X314830Y1058539D01*
Y1061461D01*
X314260Y1064326D01*
X313142Y1067025D01*
X311519Y1069454D01*
X309454Y1071519D01*
X307025Y1073142D01*
X304326Y1074260D01*
X301461Y1074830D01*
X298539D01*
X295674Y1074260D01*
X292975Y1073142D01*
X290546Y1071519D01*
X288481Y1069454D01*
X286858Y1067025D01*
X285740Y1064326D01*
X285170Y1061461D01*
Y1058539D01*
X285740Y1055674D01*
X286858Y1052975D01*
X288481Y1050546D01*
X288732Y1050295D01*
X288268Y1047167D01*
X285999Y1045954D01*
X282180Y1042820D01*
X279046Y1039001D01*
X276717Y1034644D01*
X275283Y1029917D01*
X274799Y1025000D01*
X275283Y1020083D01*
X276717Y1015356D01*
X279046Y1010999D01*
X282180Y1007180D01*
X285999Y1004046D01*
X289692Y1002072D01*
X341251Y950513D01*
X345070Y947379D01*
X349427Y945050D01*
X354154Y943616D01*
X359071Y943132D01*
X444799D01*
Y916667D01*
Y896929D01*
X348711D01*
X317820Y927820D01*
X314001Y930954D01*
X311732Y932167D01*
X311268Y935295D01*
X311519Y935546D01*
X313142Y937975D01*
X314260Y940674D01*
X314830Y943539D01*
Y946461D01*
X314260Y949326D01*
X313142Y952025D01*
X311519Y954454D01*
X309454Y956519D01*
X307025Y958142D01*
X304326Y959260D01*
X301461Y959830D01*
X298539D01*
X295674Y959260D01*
X292975Y958142D01*
X290546Y956519D01*
X288481Y954454D01*
X286858Y952025D01*
X285740Y949326D01*
X285170Y946461D01*
Y943539D01*
X285740Y940674D01*
X286858Y937975D01*
X288481Y935546D01*
X288732Y935295D01*
X288268Y932167D01*
X285999Y930954D01*
X282180Y927820D01*
X279046Y924001D01*
X276717Y919644D01*
X275283Y914917D01*
X274799Y910000D01*
X275283Y905083D01*
X276717Y900356D01*
X279046Y895999D01*
X282180Y892180D01*
X320452Y853908D01*
X324271Y850774D01*
X328628Y848445D01*
X333355Y847011D01*
X338272Y846527D01*
X444799D01*
Y813333D01*
Y795075D01*
X335565D01*
X317820Y812820D01*
X314001Y815954D01*
X311732Y817167D01*
X311268Y820295D01*
X311519Y820546D01*
X313142Y822975D01*
X314260Y825674D01*
X314830Y828539D01*
Y831461D01*
X314260Y834326D01*
X313142Y837025D01*
X311519Y839454D01*
X309454Y841519D01*
X307025Y843142D01*
X304326Y844260D01*
X301461Y844830D01*
X298539D01*
X295674Y844260D01*
X292975Y843142D01*
X290546Y841519D01*
X288481Y839454D01*
X286858Y837025D01*
X285740Y834326D01*
X285170Y831461D01*
Y828539D01*
X285740Y825674D01*
X286858Y822975D01*
X288481Y820546D01*
X288732Y820295D01*
X288268Y817167D01*
X285999Y815954D01*
X282180Y812820D01*
X279046Y809001D01*
X276717Y804644D01*
X275283Y799917D01*
X274799Y795000D01*
X275283Y790083D01*
X276717Y785356D01*
X279046Y780999D01*
X282180Y777180D01*
X307306Y752054D01*
X311125Y748920D01*
X315482Y746591D01*
X320209Y745157D01*
X325126Y744673D01*
X444799D01*
Y710000D01*
Y690751D01*
X431521Y677473D01*
X357911D01*
X332564Y702820D01*
X328745Y705954D01*
X324388Y708283D01*
X319661Y709717D01*
X314744Y710201D01*
X314343D01*
X312986Y712741D01*
X313142Y712975D01*
X314260Y715674D01*
X314830Y718539D01*
Y721461D01*
X314260Y724326D01*
X313142Y727025D01*
X311519Y729454D01*
X309454Y731519D01*
X307025Y733142D01*
X304326Y734260D01*
X301461Y734830D01*
X298539D01*
X295674Y734260D01*
X292975Y733142D01*
X290546Y731519D01*
X288481Y729454D01*
X286858Y727025D01*
X285740Y724326D01*
X285170Y721461D01*
Y718539D01*
X285740Y715674D01*
X286858Y712975D01*
X288481Y710546D01*
X288732Y710295D01*
X288268Y707167D01*
X285999Y705954D01*
X282180Y702820D01*
X279046Y699001D01*
X276717Y694644D01*
X275283Y689917D01*
X274799Y685000D01*
X275283Y680083D01*
X276717Y675356D01*
X279046Y670999D01*
X282180Y667180D01*
X285999Y664046D01*
X290356Y661717D01*
X295084Y660283D01*
X300000Y659799D01*
X304305D01*
X329652Y634452D01*
X333471Y631318D01*
X337828Y628989D01*
X342555Y627555D01*
X347472Y627071D01*
X441960D01*
X446877Y627555D01*
X451604Y628989D01*
X455961Y631318D01*
X459780Y634452D01*
X487820Y662492D01*
X490954Y666311D01*
X493283Y670668D01*
X494717Y675395D01*
X495201Y680312D01*
Y710000D01*
Y772922D01*
Y813333D01*
Y874522D01*
Y916667D01*
Y968333D01*
Y1051714D01*
X494717Y1056631D01*
X493283Y1061358D01*
X490954Y1065715D01*
X487820Y1069534D01*
X400767Y1156587D01*
X402082Y1158864D01*
X403871Y1158385D01*
X404130D01*
Y1170000D01*
Y1181615D01*
X403871D01*
X400917Y1180823D01*
X398268Y1179294D01*
X396106Y1177132D01*
X393232Y1177235D01*
X392599Y1178419D01*
X390715Y1180715D01*
X388419Y1182599D01*
X385799Y1183999D01*
X382956Y1184862D01*
X380000Y1185153D01*
D02*
G37*
G36*
X406929Y1181615D02*
X406670D01*
Y1171270D01*
X417015D01*
Y1171529D01*
X416223Y1174483D01*
X414694Y1177132D01*
X412532Y1179294D01*
X409883Y1180823D01*
X406929Y1181615D01*
D02*
G37*
G36*
X417015Y1168730D02*
X406670D01*
Y1158385D01*
X406929D01*
X409883Y1159176D01*
X412532Y1160706D01*
X414694Y1162868D01*
X416223Y1165517D01*
X417015Y1168471D01*
Y1168730D01*
D02*
G37*
G36*
X932561Y1212540D02*
X927439D01*
X922380Y1211739D01*
X917509Y1210156D01*
X912945Y1207831D01*
X908802Y1204820D01*
X905180Y1201198D01*
X902169Y1197055D01*
X899844Y1192491D01*
X898261Y1187620D01*
X897460Y1182561D01*
Y1177439D01*
X898261Y1172380D01*
X899844Y1167509D01*
X902169Y1162945D01*
X905180Y1158802D01*
X908802Y1155180D01*
X912945Y1152169D01*
X917509Y1149844D01*
X922380Y1148261D01*
X927439Y1147460D01*
X932561D01*
X937620Y1148261D01*
X942491Y1149844D01*
X947055Y1152169D01*
X951198Y1155180D01*
X954820Y1158802D01*
X957831Y1162945D01*
X960156Y1167509D01*
X961739Y1172380D01*
X962540Y1177439D01*
Y1182561D01*
X961739Y1187620D01*
X960156Y1192491D01*
X957831Y1197055D01*
X954820Y1201198D01*
X951198Y1204820D01*
X947055Y1207831D01*
X942491Y1210156D01*
X937620Y1211739D01*
X932561Y1212540D01*
D02*
G37*
G36*
X242561D02*
X237439D01*
X232380Y1211739D01*
X227509Y1210156D01*
X222945Y1207831D01*
X218802Y1204820D01*
X215180Y1201198D01*
X212169Y1197055D01*
X209844Y1192491D01*
X208261Y1187620D01*
X207460Y1182561D01*
Y1177439D01*
X208261Y1172380D01*
X209844Y1167509D01*
X212169Y1162945D01*
X215180Y1158802D01*
X218802Y1155180D01*
X222945Y1152169D01*
X227509Y1149844D01*
X232380Y1148261D01*
X237439Y1147460D01*
X242561D01*
X247620Y1148261D01*
X252491Y1149844D01*
X257055Y1152169D01*
X261198Y1155180D01*
X264820Y1158802D01*
X267831Y1162945D01*
X270156Y1167509D01*
X271739Y1172380D01*
X272540Y1177439D01*
Y1182561D01*
X271739Y1187620D01*
X270156Y1192491D01*
X267831Y1197055D01*
X264820Y1201198D01*
X261198Y1204820D01*
X257055Y1207831D01*
X252491Y1210156D01*
X247620Y1211739D01*
X242561Y1212540D01*
D02*
G37*
G36*
X950421Y1110790D02*
X947579D01*
X944835Y1110055D01*
X942375Y1108634D01*
X941580Y1107839D01*
X939040Y1108892D01*
Y1109040D01*
X920960D01*
Y1090960D01*
X926115D01*
Y1079183D01*
X917253Y1070321D01*
X916411Y1069061D01*
X916115Y1067574D01*
Y949027D01*
X914491Y948704D01*
X912576Y947424D01*
X911296Y945509D01*
X910847Y943250D01*
Y936750D01*
X911296Y934491D01*
X912576Y932576D01*
X914491Y931296D01*
X916169Y930962D01*
X916504Y928476D01*
X916492Y928413D01*
X914449Y927234D01*
X912766Y925551D01*
X911576Y923489D01*
X910981Y921270D01*
X920000D01*
X929019D01*
X928424Y923489D01*
X927234Y925551D01*
X925551Y927234D01*
X923508Y928413D01*
X923496Y928476D01*
X923831Y930962D01*
X925509Y931296D01*
X927424Y932576D01*
X928704Y934491D01*
X929153Y936750D01*
Y943250D01*
X928704Y945509D01*
X927424Y947424D01*
X925509Y948704D01*
X923885Y949027D01*
Y1065965D01*
X932747Y1074827D01*
X933589Y1076087D01*
X933885Y1077574D01*
Y1090960D01*
X939040D01*
Y1091108D01*
X941580Y1092161D01*
X942375Y1091366D01*
X944835Y1089945D01*
X947579Y1089210D01*
X950421D01*
X953165Y1089945D01*
X955625Y1091366D01*
X957634Y1093375D01*
X959055Y1095835D01*
X959790Y1098579D01*
Y1101421D01*
X959055Y1104165D01*
X957634Y1106625D01*
X955625Y1108634D01*
X953165Y1110055D01*
X950421Y1110790D01*
D02*
G37*
G36*
X601388Y1122140D02*
X598612D01*
X595932Y1121422D01*
X593528Y1120034D01*
X591566Y1118072D01*
X590178Y1115668D01*
X589460Y1112988D01*
Y1110212D01*
X590178Y1107532D01*
X591566Y1105128D01*
X593528Y1103166D01*
X595932Y1101778D01*
X598612Y1101060D01*
X601388D01*
X604068Y1101778D01*
X606472Y1103166D01*
X608434Y1105128D01*
X609822Y1107532D01*
X610540Y1110212D01*
Y1112988D01*
X609822Y1115668D01*
X608434Y1118072D01*
X606472Y1120034D01*
X604068Y1121422D01*
X601388Y1122140D01*
D02*
G37*
G36*
X551388Y1120540D02*
X548612D01*
X545932Y1119822D01*
X543528Y1118434D01*
X541566Y1116472D01*
X540178Y1114068D01*
X539460Y1111388D01*
Y1108612D01*
X540178Y1105932D01*
X541566Y1103528D01*
X543528Y1101566D01*
X545932Y1100178D01*
X548612Y1099460D01*
X551388D01*
X554068Y1100178D01*
X556472Y1101566D01*
X558434Y1103528D01*
X559822Y1105932D01*
X560540Y1108612D01*
Y1111388D01*
X559822Y1114068D01*
X558434Y1116472D01*
X556472Y1118434D01*
X554068Y1119822D01*
X551388Y1120540D01*
D02*
G37*
G36*
X601388Y1020540D02*
X601270D01*
Y1011270D01*
X610540D01*
Y1011388D01*
X609822Y1014068D01*
X608434Y1016472D01*
X606472Y1018434D01*
X604068Y1019822D01*
X601388Y1020540D01*
D02*
G37*
G36*
X598730D02*
X598612D01*
X595932Y1019822D01*
X593528Y1018434D01*
X591566Y1016472D01*
X590178Y1014068D01*
X589460Y1011388D01*
Y1011270D01*
X598730D01*
Y1020540D01*
D02*
G37*
G36*
X781270Y1016001D02*
Y1008770D01*
X788501D01*
X787958Y1010796D01*
X786834Y1012744D01*
X785244Y1014334D01*
X783296Y1015458D01*
X781270Y1016001D01*
D02*
G37*
G36*
X778730D02*
X776704Y1015458D01*
X774756Y1014334D01*
X773166Y1012744D01*
X772042Y1010796D01*
X771499Y1008770D01*
X778730D01*
Y1016001D01*
D02*
G37*
G36*
X432280Y1033080D02*
X406120D01*
Y1006920D01*
X432280D01*
Y1033080D01*
D02*
G37*
G36*
X610540Y1008730D02*
X601270D01*
Y999460D01*
X601388D01*
X604068Y1000178D01*
X606472Y1001566D01*
X608434Y1003528D01*
X609822Y1005932D01*
X610540Y1008612D01*
Y1008730D01*
D02*
G37*
G36*
X598730D02*
X589460D01*
Y1008612D01*
X590178Y1005932D01*
X591566Y1003528D01*
X593528Y1001566D01*
X595932Y1000178D01*
X598612Y999460D01*
X598730D01*
Y1008730D01*
D02*
G37*
G36*
X788501Y1006230D02*
X781270D01*
Y998999D01*
X783296Y999542D01*
X785244Y1000666D01*
X786834Y1002256D01*
X787958Y1004204D01*
X788501Y1006230D01*
D02*
G37*
G36*
X778730D02*
X771499D01*
X772042Y1004204D01*
X773166Y1002256D01*
X774756Y1000666D01*
X776704Y999542D01*
X778730Y998999D01*
Y1006230D01*
D02*
G37*
G36*
X551388Y1018940D02*
X548612D01*
X545932Y1018222D01*
X543528Y1016834D01*
X541566Y1014872D01*
X540178Y1012468D01*
X539460Y1009788D01*
Y1007012D01*
X540178Y1004332D01*
X541566Y1001928D01*
X543528Y999966D01*
X545932Y998578D01*
X548612Y997860D01*
X551388D01*
X554068Y998578D01*
X556472Y999966D01*
X558434Y1001928D01*
X559822Y1004332D01*
X560540Y1007012D01*
Y1009788D01*
X559822Y1012468D01*
X558434Y1014872D01*
X556472Y1016834D01*
X554068Y1018222D01*
X551388Y1018940D01*
D02*
G37*
G36*
X801370Y964665D02*
Y957434D01*
X808601D01*
X808058Y959460D01*
X806934Y961408D01*
X805344Y962998D01*
X803396Y964122D01*
X801370Y964665D01*
D02*
G37*
G36*
X798830D02*
X796804Y964122D01*
X794856Y962998D01*
X793266Y961408D01*
X792142Y959460D01*
X791599Y957434D01*
X798830D01*
Y964665D01*
D02*
G37*
G36*
X808601Y954894D02*
X801370D01*
Y947663D01*
X803396Y948206D01*
X805344Y949330D01*
X806934Y950920D01*
X808058Y952868D01*
X808601Y954894D01*
D02*
G37*
G36*
X798830D02*
X791599D01*
X792142Y952868D01*
X793266Y950920D01*
X794856Y949330D01*
X796804Y948206D01*
X798830Y947663D01*
Y954894D01*
D02*
G37*
G36*
X841270Y926001D02*
Y918770D01*
X848501D01*
X847958Y920796D01*
X846834Y922744D01*
X845244Y924334D01*
X843296Y925458D01*
X841270Y926001D01*
D02*
G37*
G36*
X838730D02*
X836704Y925458D01*
X834756Y924334D01*
X833166Y922744D01*
X832042Y920796D01*
X831499Y918770D01*
X838730D01*
Y926001D01*
D02*
G37*
G36*
X929019Y918730D02*
X921270D01*
Y910981D01*
X923489Y911576D01*
X925551Y912766D01*
X927234Y914449D01*
X928424Y916511D01*
X929019Y918730D01*
D02*
G37*
G36*
X918730D02*
X910981D01*
X911576Y916511D01*
X912766Y914449D01*
X914449Y912766D01*
X916511Y911576D01*
X918730Y910981D01*
Y918730D01*
D02*
G37*
G36*
X838730Y916230D02*
X831499D01*
X832042Y914204D01*
X833166Y912256D01*
X834756Y910666D01*
X836704Y909542D01*
X838730Y908999D01*
Y916230D01*
D02*
G37*
G36*
X848501D02*
X841270D01*
Y908999D01*
X843296Y909542D01*
X845244Y910666D01*
X846834Y912256D01*
X847958Y914204D01*
X848501Y916230D01*
D02*
G37*
G36*
X618366Y917232D02*
X609346D01*
Y908212D01*
X618366D01*
Y917232D01*
D02*
G37*
G36*
X606806D02*
X597786D01*
Y908212D01*
X606806D01*
Y917232D01*
D02*
G37*
G36*
X432280Y929747D02*
X406120D01*
Y903587D01*
X432280D01*
Y929747D01*
D02*
G37*
G36*
X618366Y905672D02*
X609346D01*
Y896652D01*
X618366D01*
Y905672D01*
D02*
G37*
G36*
X606806D02*
X597786D01*
Y896652D01*
X606806D01*
Y905672D01*
D02*
G37*
G36*
X811180Y917244D02*
X789020D01*
Y895084D01*
X811180D01*
Y917244D01*
D02*
G37*
G36*
X738512Y888880D02*
X729742D01*
Y880110D01*
X738512D01*
Y888880D01*
D02*
G37*
G36*
X727202D02*
X718432D01*
Y880110D01*
X727202D01*
Y888880D01*
D02*
G37*
G36*
X832421Y1110790D02*
X829579D01*
X826835Y1110055D01*
X824375Y1108634D01*
X822366Y1106625D01*
X820945Y1104165D01*
X820210Y1101421D01*
Y1098579D01*
X820945Y1095835D01*
X822366Y1093375D01*
X824375Y1091366D01*
X826835Y1089945D01*
X829579Y1089210D01*
X830262Y1089210D01*
X830302Y1086687D01*
X829935Y1086614D01*
X828815Y1086391D01*
X827555Y1085549D01*
X783046Y1041040D01*
X771460D01*
Y1023960D01*
X788540D01*
Y1035546D01*
X831911Y1078917D01*
X846582D01*
X848069Y1079213D01*
X849329Y1080055D01*
X852747Y1083473D01*
X853589Y1084733D01*
X853885Y1086220D01*
Y1091804D01*
X855551Y1092766D01*
X857234Y1094449D01*
X858424Y1096511D01*
X858685Y1097486D01*
X861315D01*
X861576Y1096511D01*
X862766Y1094449D01*
X864449Y1092766D01*
X866115Y1091804D01*
Y1078111D01*
X837253Y1049249D01*
X836411Y1047989D01*
X836115Y1046502D01*
Y951040D01*
X831460D01*
Y933960D01*
X848540D01*
Y951040D01*
X843885D01*
Y1044893D01*
X872747Y1073755D01*
X873589Y1075015D01*
X873885Y1076502D01*
Y1091804D01*
X875551Y1092766D01*
X877234Y1094449D01*
X878424Y1096511D01*
X878685Y1097486D01*
X881315D01*
X881576Y1096511D01*
X882766Y1094449D01*
X884449Y1092766D01*
X886115Y1091804D01*
Y1072203D01*
X870759Y1056847D01*
X869917Y1055587D01*
X869621Y1054100D01*
Y906103D01*
X832393Y868875D01*
X815673D01*
X814911Y871415D01*
X816395Y873984D01*
X817252Y877184D01*
Y880496D01*
X816395Y883696D01*
X814738Y886564D01*
X812396Y888906D01*
X809528Y890563D01*
X806328Y891420D01*
X803016D01*
X799816Y890563D01*
X796948Y888906D01*
X794605Y886564D01*
X792949Y883696D01*
X792092Y880496D01*
Y877184D01*
X792949Y873984D01*
X794605Y871116D01*
X795990Y869731D01*
X796870Y868554D01*
X796083Y866340D01*
X787068Y857325D01*
X737822D01*
X736506Y859605D01*
X734637Y861474D01*
X732347Y862796D01*
X729794Y863480D01*
X727150D01*
X724607Y862799D01*
X721146Y866260D01*
X721406Y867634D01*
X722085Y868800D01*
X727202D01*
Y877570D01*
X718432D01*
Y870206D01*
X718201Y868683D01*
X716332Y867739D01*
X583438D01*
X581951Y867443D01*
X580691Y866601D01*
X547417Y833327D01*
X546575Y832067D01*
X546279Y830580D01*
Y629158D01*
X546575Y627671D01*
X547417Y626411D01*
X616383Y557445D01*
Y469732D01*
X616679Y468245D01*
X617521Y466985D01*
X638264Y446242D01*
X637296Y443904D01*
X636847Y440500D01*
Y439500D01*
X637296Y436096D01*
X638610Y432924D01*
X640700Y430200D01*
X643424Y428110D01*
X646596Y426796D01*
X650000Y426348D01*
X653404Y426796D01*
X656576Y428110D01*
X659300Y430200D01*
X661390Y432924D01*
X662704Y436096D01*
X663152Y439500D01*
Y440500D01*
X662704Y443904D01*
X661390Y447076D01*
X659300Y449800D01*
X656576Y451890D01*
X653404Y453204D01*
X650000Y453652D01*
X646596Y453204D01*
X643551Y451943D01*
X624153Y471341D01*
Y559054D01*
X623857Y560541D01*
X623015Y561801D01*
X554049Y630767D01*
Y828971D01*
X585047Y859969D01*
X716449D01*
X719113Y857305D01*
X718432Y854762D01*
Y852118D01*
X719116Y849565D01*
X720438Y847275D01*
X722307Y845406D01*
X724597Y844084D01*
X727150Y843400D01*
X729794D01*
X732337Y844081D01*
X739165Y837253D01*
X740425Y836411D01*
X741912Y836115D01*
X791103D01*
X795313Y831905D01*
X794632Y829362D01*
Y826718D01*
X795316Y824165D01*
X796638Y821875D01*
X798507Y820006D01*
X800797Y818684D01*
X803350Y818000D01*
X805994D01*
X808547Y818684D01*
X810837Y820006D01*
X812706Y821875D01*
X814028Y824165D01*
X814712Y826718D01*
Y829362D01*
X814028Y831915D01*
X812706Y834205D01*
X810837Y836074D01*
X808547Y837396D01*
X805994Y838080D01*
X803350D01*
X800807Y837399D01*
X795459Y842747D01*
X794199Y843589D01*
X792712Y843885D01*
X743521D01*
X740197Y847209D01*
X741169Y849555D01*
X788677D01*
X790164Y849851D01*
X791424Y850693D01*
X792181Y851450D01*
X795014Y850691D01*
X795316Y849565D01*
X796638Y847275D01*
X798507Y845406D01*
X800797Y844084D01*
X803350Y843400D01*
X805994D01*
X808537Y844081D01*
X817551Y835067D01*
Y788475D01*
X766873Y737797D01*
X766031Y736537D01*
X765735Y735050D01*
Y718143D01*
X669123Y621531D01*
X666452Y622106D01*
X665945Y622525D01*
Y648259D01*
X669697Y652011D01*
X670539Y653271D01*
X670835Y654758D01*
Y661060D01*
X673316Y662171D01*
X676184Y660515D01*
X679384Y659657D01*
X682696D01*
X685896Y660515D01*
X688764Y662171D01*
X691106Y664513D01*
X692763Y667382D01*
X693620Y670581D01*
Y673893D01*
X692763Y677093D01*
X691106Y679961D01*
X688764Y682304D01*
X685896Y683960D01*
X682696Y684817D01*
X679384D01*
X676184Y683960D01*
X673316Y682304D01*
X670835Y683415D01*
Y722756D01*
X670539Y724243D01*
X669697Y725503D01*
X659525Y735675D01*
Y739087D01*
X661805Y740403D01*
X663674Y742272D01*
X664996Y744562D01*
X665680Y747115D01*
Y749759D01*
X664996Y752312D01*
X663674Y754602D01*
X661805Y756471D01*
X659515Y757793D01*
X656962Y758477D01*
X654318D01*
X651765Y757793D01*
X649475Y756471D01*
X649045Y756041D01*
X646505Y757093D01*
Y766741D01*
X678519Y798755D01*
X719122D01*
X720438Y796475D01*
X722307Y794606D01*
X724597Y793284D01*
X727150Y792600D01*
X729794D01*
X732347Y793284D01*
X734637Y794606D01*
X736506Y796475D01*
X737828Y798765D01*
X738512Y801318D01*
Y803962D01*
X737828Y806515D01*
X736506Y808805D01*
X734637Y810674D01*
X732347Y811996D01*
X729794Y812680D01*
X727150D01*
X724597Y811996D01*
X722307Y810674D01*
X720438Y808805D01*
X719122Y806525D01*
X676910D01*
X675423Y806229D01*
X674163Y805387D01*
X639873Y771097D01*
X639031Y769837D01*
X638735Y768350D01*
Y757733D01*
X637072Y756833D01*
X636195Y756592D01*
X634115Y757793D01*
X631562Y758477D01*
X628918D01*
X626375Y757796D01*
X611961Y772210D01*
Y822330D01*
X612048Y822353D01*
X614394Y823708D01*
X616310Y825624D01*
X617665Y827970D01*
X618366Y830587D01*
Y833297D01*
X617665Y835914D01*
X616310Y838260D01*
X614394Y840176D01*
X612048Y841531D01*
X609431Y842232D01*
X606721D01*
X604104Y841531D01*
X601758Y840176D01*
X599842Y838260D01*
X598487Y835914D01*
X597786Y833297D01*
Y830587D01*
X598487Y827970D01*
X599842Y825624D01*
X601758Y823708D01*
X604104Y822353D01*
X604191Y822330D01*
Y770601D01*
X604487Y769115D01*
X605329Y767854D01*
X609913Y763270D01*
X609837Y762752D01*
X606994Y760884D01*
X606496Y761017D01*
X603184D01*
X599984Y760160D01*
X597116Y758504D01*
X594773Y756161D01*
X593117Y753293D01*
X592260Y750093D01*
Y746781D01*
X593117Y743581D01*
X594773Y740713D01*
X597116Y738371D01*
X599984Y736714D01*
X603184Y735857D01*
X606496D01*
X609696Y736714D01*
X612564Y738371D01*
X614907Y740713D01*
X616563Y743581D01*
X617420Y746781D01*
Y750093D01*
X617287Y750591D01*
X618962Y753141D01*
X620625Y751345D01*
X620200Y749759D01*
Y747115D01*
X620884Y744562D01*
X622206Y742272D01*
X624075Y740403D01*
X626365Y739081D01*
X628918Y738397D01*
X631562D01*
X634115Y739081D01*
X636195Y740282D01*
X637057Y740153D01*
X638862Y739268D01*
X639031Y738415D01*
X639873Y737155D01*
X651755Y725273D01*
Y681588D01*
X649475Y680271D01*
X647606Y678402D01*
X646284Y676113D01*
X645600Y673559D01*
Y670915D01*
X646284Y668362D01*
X647606Y666072D01*
X649475Y664203D01*
X651765Y662881D01*
X654318Y662197D01*
X656962D01*
X659515Y662881D01*
X660525Y663465D01*
X663065Y661998D01*
Y656367D01*
X659313Y652615D01*
X658471Y651355D01*
X658175Y649868D01*
Y580457D01*
X656670Y578540D01*
X655635Y578540D01*
X639590D01*
Y561460D01*
X655635D01*
X656670Y561460D01*
X658175Y559543D01*
Y551552D01*
X658471Y550065D01*
X659313Y548805D01*
X671369Y536749D01*
X672629Y535907D01*
X674116Y535611D01*
X688895D01*
X791458Y433048D01*
X790960Y431190D01*
Y428810D01*
X791576Y426511D01*
X792766Y424449D01*
X794449Y422766D01*
X796511Y421576D01*
X797486Y421315D01*
Y418685D01*
X796511Y418424D01*
X794449Y417234D01*
X792766Y415551D01*
X791576Y413489D01*
X790960Y411190D01*
Y408810D01*
X791576Y406511D01*
X792766Y404449D01*
X794449Y402766D01*
X796511Y401576D01*
X797486Y401315D01*
Y398685D01*
X796511Y398424D01*
X794449Y397234D01*
X792766Y395551D01*
X791576Y393489D01*
X790960Y391190D01*
Y388810D01*
X791576Y386511D01*
X792766Y384449D01*
X794182Y383033D01*
X794300Y381652D01*
X794084Y380044D01*
X793375Y379634D01*
X791366Y377625D01*
X789945Y375165D01*
X789210Y372421D01*
Y369580D01*
X789945Y366835D01*
X791366Y364375D01*
X793375Y362366D01*
X795835Y360945D01*
X798579Y360210D01*
X801421D01*
X804165Y360945D01*
X806625Y362366D01*
X808634Y364375D01*
X810055Y366835D01*
X810790Y369580D01*
Y372421D01*
X810055Y375165D01*
X808634Y377625D01*
X806625Y379634D01*
X805916Y380044D01*
X805700Y381652D01*
X805818Y383033D01*
X807234Y384449D01*
X808424Y386511D01*
X809040Y388810D01*
Y391190D01*
X808542Y393048D01*
X892747Y477253D01*
X893589Y478513D01*
X893885Y480000D01*
Y558529D01*
X894068Y558578D01*
X896472Y559966D01*
X898434Y561928D01*
X899822Y564332D01*
X900540Y567012D01*
Y569788D01*
X899822Y572468D01*
X898434Y574872D01*
X896472Y576834D01*
X894068Y578222D01*
X891388Y578940D01*
X888612D01*
X885932Y578222D01*
X883528Y576834D01*
X881566Y574872D01*
X880178Y572468D01*
X879460Y569788D01*
Y567012D01*
X880178Y564332D01*
X881566Y561928D01*
X883528Y559966D01*
X885932Y558578D01*
X886115Y558529D01*
Y481609D01*
X811067Y406561D01*
X808790Y407876D01*
X809040Y408810D01*
Y411190D01*
X808542Y413048D01*
X842747Y447253D01*
X843589Y448513D01*
X843885Y450000D01*
Y558529D01*
X844068Y558578D01*
X846472Y559966D01*
X848434Y561928D01*
X849822Y564332D01*
X850540Y567012D01*
Y569788D01*
X849822Y572468D01*
X848434Y574872D01*
X846472Y576834D01*
X844068Y578222D01*
X841388Y578940D01*
X838612D01*
X835932Y578222D01*
X833528Y576834D01*
X831566Y574872D01*
X830178Y572468D01*
X829460Y569788D01*
Y567012D01*
X830178Y564332D01*
X831566Y561928D01*
X833528Y559966D01*
X835932Y558578D01*
X836115Y558529D01*
Y451609D01*
X811067Y426561D01*
X808790Y427875D01*
X809040Y428810D01*
Y431190D01*
X808424Y433489D01*
X807234Y435551D01*
X805551Y437234D01*
X803489Y438424D01*
X801190Y439040D01*
X798810D01*
X796952Y438542D01*
X693251Y542243D01*
X691991Y543085D01*
X690504Y543381D01*
X675725D01*
X665945Y553161D01*
Y560627D01*
X668485Y562093D01*
X668574Y562042D01*
X670746Y561460D01*
X672994D01*
X675166Y562042D01*
X677114Y563166D01*
X678704Y564756D01*
X679828Y566704D01*
X680410Y568876D01*
Y571124D01*
X679828Y573296D01*
X678704Y575244D01*
X677114Y576834D01*
X675755Y577618D01*
Y617175D01*
X772367Y713787D01*
X773209Y715047D01*
X773505Y716534D01*
Y727649D01*
X775973Y728249D01*
X777695Y725267D01*
X780131Y722831D01*
X783113Y721109D01*
X786440Y720218D01*
X789884D01*
X793211Y721109D01*
X796193Y722831D01*
X798629Y725267D01*
X800351Y728249D01*
X801242Y731576D01*
Y735020D01*
X800351Y738347D01*
X798629Y741329D01*
X796193Y743765D01*
X793211Y745487D01*
X790002Y746346D01*
X789282Y747533D01*
X788788Y748725D01*
X824183Y784119D01*
X825025Y785379D01*
X825321Y786866D01*
Y836676D01*
X825025Y838163D01*
X824183Y839423D01*
X814031Y849575D01*
X814712Y852118D01*
Y854762D01*
X814028Y857315D01*
X813306Y858565D01*
X814605Y861105D01*
X834002D01*
X835489Y861401D01*
X836749Y862243D01*
X876253Y901747D01*
X877095Y903007D01*
X877391Y904494D01*
Y1052491D01*
X892747Y1067847D01*
X893589Y1069107D01*
X893885Y1070594D01*
Y1091804D01*
X895551Y1092766D01*
X897234Y1094449D01*
X898424Y1096511D01*
X899040Y1098810D01*
Y1101190D01*
X898424Y1103489D01*
X897234Y1105551D01*
X895551Y1107234D01*
X893489Y1108424D01*
X891190Y1109040D01*
X888810D01*
X886511Y1108424D01*
X884449Y1107234D01*
X882766Y1105551D01*
X881576Y1103489D01*
X881315Y1102514D01*
X878685D01*
X878424Y1103489D01*
X877234Y1105551D01*
X875551Y1107234D01*
X873489Y1108424D01*
X871190Y1109040D01*
X868810D01*
X866511Y1108424D01*
X864449Y1107234D01*
X862766Y1105551D01*
X861576Y1103489D01*
X861315Y1102514D01*
X858685D01*
X858424Y1103489D01*
X857234Y1105551D01*
X855551Y1107234D01*
X853489Y1108424D01*
X851190Y1109040D01*
X848810D01*
X846511Y1108424D01*
X844449Y1107234D01*
X843033Y1105818D01*
X841653Y1105700D01*
X840044Y1105916D01*
X839634Y1106625D01*
X837625Y1108634D01*
X835165Y1110055D01*
X832421Y1110790D01*
D02*
G37*
G36*
X738512Y877570D02*
X729742D01*
Y868800D01*
X738512D01*
Y877570D01*
D02*
G37*
G36*
X885713Y862282D02*
X885628D01*
Y853262D01*
X894648D01*
Y853347D01*
X893947Y855964D01*
X892592Y858310D01*
X890676Y860226D01*
X888330Y861581D01*
X885713Y862282D01*
D02*
G37*
G36*
X883088D02*
X883003D01*
X880386Y861581D01*
X878040Y860226D01*
X876124Y858310D01*
X874769Y855964D01*
X874068Y853347D01*
Y853262D01*
X883088D01*
Y862282D01*
D02*
G37*
G36*
X845058Y853667D02*
Y846436D01*
X852289D01*
X851746Y848462D01*
X850622Y850410D01*
X849032Y852000D01*
X847084Y853124D01*
X845058Y853667D01*
D02*
G37*
G36*
X842518D02*
X840492Y853124D01*
X838544Y852000D01*
X836954Y850410D01*
X835830Y848462D01*
X835287Y846436D01*
X842518D01*
Y853667D01*
D02*
G37*
G36*
X930713Y862282D02*
X928003D01*
X925386Y861581D01*
X923040Y860226D01*
X921124Y858310D01*
X919769Y855964D01*
X919068Y853347D01*
Y850637D01*
X919769Y848020D01*
X921124Y845674D01*
X923040Y843758D01*
X925386Y842403D01*
X928003Y841702D01*
X930713D01*
X933330Y842403D01*
X935676Y843758D01*
X937592Y845674D01*
X938947Y848020D01*
X939648Y850637D01*
Y853347D01*
X938947Y855964D01*
X937592Y858310D01*
X935676Y860226D01*
X933330Y861581D01*
X930713Y862282D01*
D02*
G37*
G36*
X894648Y850722D02*
X885628D01*
Y841702D01*
X885713D01*
X888330Y842403D01*
X890676Y843758D01*
X892592Y845674D01*
X893947Y848020D01*
X894648Y850637D01*
Y850722D01*
D02*
G37*
G36*
X883088D02*
X874068D01*
Y850637D01*
X874769Y848020D01*
X876124Y845674D01*
X878040Y843758D01*
X880386Y842403D01*
X883003Y841702D01*
X883088D01*
Y850722D01*
D02*
G37*
G36*
X852289Y843896D02*
X845058D01*
Y836665D01*
X847084Y837208D01*
X849032Y838332D01*
X850622Y839922D01*
X851746Y841870D01*
X852289Y843896D01*
D02*
G37*
G36*
X842518D02*
X835287D01*
X835830Y841870D01*
X836954Y839922D01*
X838544Y838332D01*
X840492Y837208D01*
X842518Y836665D01*
Y843896D01*
D02*
G37*
G36*
X729794Y838080D02*
X727150D01*
X724597Y837396D01*
X722307Y836074D01*
X720438Y834205D01*
X719116Y831915D01*
X718432Y829362D01*
Y826718D01*
X719116Y824165D01*
X720438Y821875D01*
X722307Y820006D01*
X724597Y818684D01*
X727150Y818000D01*
X729794D01*
X732347Y818684D01*
X734637Y820006D01*
X736506Y821875D01*
X737828Y824165D01*
X738512Y826718D01*
Y829362D01*
X737828Y831915D01*
X736506Y834205D01*
X734637Y836074D01*
X732347Y837396D01*
X729794Y838080D01*
D02*
G37*
G36*
X432280Y826413D02*
X406120D01*
Y800253D01*
X432280D01*
Y826413D01*
D02*
G37*
G36*
X805994Y812680D02*
X803350D01*
X800797Y811996D01*
X798507Y810674D01*
X796638Y808805D01*
X795316Y806515D01*
X794632Y803962D01*
Y801318D01*
X795316Y798765D01*
X796638Y796475D01*
X798507Y794606D01*
X800797Y793284D01*
X803350Y792600D01*
X805994D01*
X808547Y793284D01*
X810837Y794606D01*
X812706Y796475D01*
X814028Y798765D01*
X814712Y801318D01*
Y803962D01*
X814028Y806515D01*
X812706Y808805D01*
X810837Y810674D01*
X808547Y811996D01*
X805994Y812680D01*
D02*
G37*
G36*
X894648Y797282D02*
X885628D01*
Y788262D01*
X894648D01*
Y797282D01*
D02*
G37*
G36*
X883088D02*
X874068D01*
Y788262D01*
X883088D01*
Y797282D01*
D02*
G37*
G36*
X852328Y803706D02*
X835248D01*
Y786626D01*
X852328D01*
Y803706D01*
D02*
G37*
G36*
X930713Y797282D02*
X928003D01*
X925386Y796581D01*
X923040Y795226D01*
X921124Y793310D01*
X919769Y790964D01*
X919068Y788347D01*
Y785637D01*
X919769Y783020D01*
X921124Y780674D01*
X923040Y778758D01*
X925386Y777403D01*
X928003Y776702D01*
X930713D01*
X933330Y777403D01*
X935676Y778758D01*
X937592Y780674D01*
X938947Y783020D01*
X939648Y785637D01*
Y788347D01*
X938947Y790964D01*
X937592Y793310D01*
X935676Y795226D01*
X933330Y796581D01*
X930713Y797282D01*
D02*
G37*
G36*
X894648Y785722D02*
X885628D01*
Y776702D01*
X894648D01*
Y785722D01*
D02*
G37*
G36*
X883088D02*
X874068D01*
Y776702D01*
X883088D01*
Y785722D01*
D02*
G37*
G36*
X721980Y759877D02*
X704900D01*
Y742797D01*
X721980D01*
Y759877D01*
D02*
G37*
G36*
X582770Y762417D02*
X560610D01*
Y740257D01*
X582770D01*
Y762417D01*
D02*
G37*
G36*
X682362Y758477D02*
X679718D01*
X677165Y757793D01*
X674875Y756471D01*
X673006Y754602D01*
X671684Y752312D01*
X671000Y749759D01*
Y747115D01*
X671684Y744562D01*
X673006Y742272D01*
X674875Y740403D01*
X677165Y739081D01*
X679718Y738397D01*
X682362D01*
X684915Y739081D01*
X687205Y740403D01*
X689074Y742272D01*
X690396Y744562D01*
X691080Y747115D01*
Y749759D01*
X690396Y752312D01*
X689074Y754602D01*
X687205Y756471D01*
X684915Y757793D01*
X682362Y758477D01*
D02*
G37*
G36*
X891150Y743838D02*
X888374D01*
X885694Y743120D01*
X883290Y741732D01*
X881328Y739770D01*
X879940Y737366D01*
X879222Y734686D01*
Y731910D01*
X879940Y729230D01*
X881328Y726826D01*
X883290Y724864D01*
X885694Y723476D01*
X888374Y722758D01*
X891150D01*
X893830Y723476D01*
X896234Y724864D01*
X898196Y726826D01*
X899584Y729230D01*
X900302Y731910D01*
Y734686D01*
X899584Y737366D01*
X898196Y739770D01*
X896234Y741732D01*
X893830Y743120D01*
X891150Y743838D01*
D02*
G37*
G36*
X572960Y709838D02*
Y702607D01*
X580191D01*
X579648Y704633D01*
X578524Y706581D01*
X576934Y708171D01*
X574986Y709295D01*
X572960Y709838D01*
D02*
G37*
G36*
X570420D02*
X568394Y709295D01*
X566446Y708171D01*
X564856Y706581D01*
X563732Y704633D01*
X563189Y702607D01*
X570420D01*
Y709838D01*
D02*
G37*
G36*
X714710D02*
Y702607D01*
X721941D01*
X721398Y704633D01*
X720274Y706581D01*
X718684Y708171D01*
X716736Y709295D01*
X714710Y709838D01*
D02*
G37*
G36*
X712170D02*
X710144Y709295D01*
X708196Y708171D01*
X706606Y706581D01*
X705482Y704633D01*
X704939Y702607D01*
X712170D01*
Y709838D01*
D02*
G37*
G36*
X432280Y723080D02*
X406120D01*
Y696920D01*
X432280D01*
Y723080D01*
D02*
G37*
G36*
X712170Y700067D02*
X704939D01*
X705482Y698041D01*
X706606Y696094D01*
X708196Y694503D01*
X710144Y693379D01*
X712170Y692836D01*
Y700067D01*
D02*
G37*
G36*
X580191Y700067D02*
X572960D01*
Y692836D01*
X574986Y693379D01*
X576934Y694503D01*
X578524Y696094D01*
X579648Y698041D01*
X580191Y700067D01*
D02*
G37*
G36*
X570420D02*
X563189D01*
X563732Y698041D01*
X564856Y696094D01*
X566446Y694503D01*
X568394Y693379D01*
X570420Y692836D01*
Y700067D01*
D02*
G37*
G36*
X721941Y700067D02*
X714710D01*
Y692836D01*
X716736Y693379D01*
X718684Y694503D01*
X720274Y696094D01*
X721398Y698041D01*
X721941Y700067D01*
D02*
G37*
G36*
X614880Y682277D02*
X606110D01*
Y673507D01*
X614880D01*
Y682277D01*
D02*
G37*
G36*
X603570D02*
X594800D01*
Y673507D01*
X603570D01*
Y682277D01*
D02*
G37*
G36*
X631562D02*
X628918D01*
X626365Y681593D01*
X624075Y680271D01*
X622206Y678402D01*
X620884Y676113D01*
X620200Y673559D01*
Y670915D01*
X620884Y668362D01*
X622206Y666072D01*
X624075Y664203D01*
X626365Y662881D01*
X628918Y662197D01*
X631562D01*
X634115Y662881D01*
X636405Y664203D01*
X638274Y666072D01*
X639596Y668362D01*
X640280Y670915D01*
Y673559D01*
X639596Y676113D01*
X638274Y678402D01*
X636405Y680271D01*
X634115Y681593D01*
X631562Y682277D01*
D02*
G37*
G36*
X614880Y670967D02*
X606110D01*
Y662197D01*
X614880D01*
Y670967D01*
D02*
G37*
G36*
X603570D02*
X594800D01*
Y662197D01*
X603570D01*
Y670967D01*
D02*
G37*
G36*
X791722Y684680D02*
X788278D01*
X784951Y683789D01*
X781969Y682067D01*
X779533Y679631D01*
X777811Y676649D01*
X776920Y673322D01*
Y669878D01*
X777811Y666551D01*
X779533Y663569D01*
X781969Y661133D01*
X784951Y659411D01*
X788278Y658520D01*
X791722D01*
X795049Y659411D01*
X798031Y661133D01*
X800467Y663569D01*
X802189Y666551D01*
X803080Y669878D01*
Y673322D01*
X802189Y676649D01*
X800467Y679631D01*
X798031Y682067D01*
X795049Y683789D01*
X791722Y684680D01*
D02*
G37*
G36*
X891722Y683080D02*
X888278D01*
X884951Y682189D01*
X881969Y680467D01*
X879533Y678031D01*
X877811Y675049D01*
X876920Y671722D01*
Y668278D01*
X877811Y664951D01*
X879533Y661969D01*
X881969Y659533D01*
X884951Y657811D01*
X888278Y656920D01*
X891722D01*
X895049Y657811D01*
X898031Y659533D01*
X900467Y661969D01*
X902189Y664951D01*
X903080Y668278D01*
Y671722D01*
X902189Y675049D01*
X900467Y678031D01*
X898031Y680467D01*
X895049Y682189D01*
X891722Y683080D01*
D02*
G37*
G36*
X841722D02*
X838278D01*
X834951Y682189D01*
X831969Y680467D01*
X829533Y678031D01*
X827811Y675049D01*
X826920Y671722D01*
Y668278D01*
X827811Y664951D01*
X829533Y661969D01*
X831969Y659533D01*
X834951Y657811D01*
X838278Y656920D01*
X841722D01*
X845049Y657811D01*
X848031Y659533D01*
X850467Y661969D01*
X852189Y664951D01*
X853080Y668278D01*
Y671722D01*
X852189Y675049D01*
X850467Y678031D01*
X848031Y680467D01*
X845049Y682189D01*
X841722Y683080D01*
D02*
G37*
G36*
X475290Y615290D02*
X466270D01*
Y606270D01*
X475290D01*
Y615290D01*
D02*
G37*
G36*
X463730D02*
X454710D01*
Y606270D01*
X463730D01*
Y615290D01*
D02*
G37*
G36*
X611388Y620540D02*
X608612D01*
X605932Y619822D01*
X603528Y618434D01*
X601566Y616472D01*
X600178Y614068D01*
X599460Y611388D01*
Y608612D01*
X600178Y605932D01*
X601566Y603528D01*
X603528Y601566D01*
X605932Y600178D01*
X608612Y599460D01*
X611388D01*
X614068Y600178D01*
X616472Y601566D01*
X618434Y603528D01*
X619822Y605932D01*
X620540Y608612D01*
Y611388D01*
X619822Y614068D01*
X618434Y616472D01*
X616472Y618434D01*
X614068Y619822D01*
X611388Y620540D01*
D02*
G37*
G36*
X713322Y623080D02*
X709878D01*
X706551Y622189D01*
X703569Y620467D01*
X701133Y618031D01*
X699411Y615049D01*
X698520Y611722D01*
Y608278D01*
X699411Y604951D01*
X701133Y601969D01*
X703569Y599533D01*
X706551Y597811D01*
X709878Y596920D01*
X713322D01*
X716649Y597811D01*
X719631Y599533D01*
X722067Y601969D01*
X723789Y604951D01*
X724680Y608278D01*
Y611722D01*
X723789Y615049D01*
X722067Y618031D01*
X719631Y620467D01*
X716649Y622189D01*
X713322Y623080D01*
D02*
G37*
G36*
X475290Y603730D02*
X466270D01*
Y594710D01*
X475290D01*
Y603730D01*
D02*
G37*
G36*
X463730D02*
X454710D01*
Y594710D01*
X463730D01*
Y603730D01*
D02*
G37*
G36*
X329698Y605740D02*
X316428D01*
Y592470D01*
X329698D01*
Y605740D01*
D02*
G37*
G36*
X313888D02*
X300618D01*
Y592470D01*
X313888D01*
Y605740D01*
D02*
G37*
G36*
X329698Y589930D02*
X316428D01*
Y576660D01*
X329698D01*
Y589930D01*
D02*
G37*
G36*
X313888D02*
X300618D01*
Y576660D01*
X313888D01*
Y589930D01*
D02*
G37*
G36*
X756670Y578540D02*
X739590D01*
Y561460D01*
X756670D01*
Y578540D01*
D02*
G37*
G36*
X572994D02*
X570746D01*
X568574Y577958D01*
X566626Y576834D01*
X565036Y575244D01*
X563912Y573296D01*
X563330Y571124D01*
Y568876D01*
X563912Y566704D01*
X565036Y564756D01*
X566626Y563166D01*
X568574Y562042D01*
X570746Y561460D01*
X572994D01*
X575166Y562042D01*
X577114Y563166D01*
X578704Y564756D01*
X579828Y566704D01*
X580410Y568876D01*
Y571124D01*
X579828Y573296D01*
X578704Y575244D01*
X577114Y576834D01*
X575166Y577958D01*
X572994Y578540D01*
D02*
G37*
G36*
X466689Y542830D02*
X463311D01*
X460048Y541956D01*
X457122Y540267D01*
X454734Y537878D01*
X453044Y534952D01*
X452170Y531689D01*
Y528311D01*
X453044Y525048D01*
X454734Y522122D01*
X457122Y519734D01*
X460048Y518044D01*
X463311Y517170D01*
X466689D01*
X469952Y518044D01*
X472878Y519734D01*
X475267Y522122D01*
X476956Y525048D01*
X477830Y528311D01*
Y531689D01*
X476956Y534952D01*
X475267Y537878D01*
X472878Y540267D01*
X469952Y541956D01*
X466689Y542830D01*
D02*
G37*
G36*
X316840Y532080D02*
X313475D01*
X310175Y531424D01*
X307067Y530136D01*
X304270Y528267D01*
X301891Y525888D01*
X300021Y523090D01*
X298734Y519982D01*
X298078Y516682D01*
Y513318D01*
X298734Y510018D01*
X300021Y506910D01*
X301891Y504112D01*
X304270Y501733D01*
X307067Y499864D01*
X310175Y498576D01*
X313475Y497920D01*
X316840D01*
X320140Y498576D01*
X323248Y499864D01*
X326045Y501733D01*
X328424Y504112D01*
X330294Y506910D01*
X331581Y510018D01*
X332238Y513318D01*
Y516682D01*
X331581Y519982D01*
X330294Y523090D01*
X328424Y525888D01*
X326045Y528267D01*
X323248Y530136D01*
X320140Y531424D01*
X316840Y532080D01*
D02*
G37*
G36*
X791388Y580540D02*
X788612D01*
X785932Y579822D01*
X783528Y578434D01*
X781566Y576472D01*
X780178Y574068D01*
X779460Y571388D01*
Y568612D01*
X780178Y565932D01*
X781566Y563528D01*
X783528Y561566D01*
X785932Y560178D01*
X788612Y559460D01*
X791388D01*
X794068Y560178D01*
X794233Y560273D01*
X816115Y538391D01*
Y491609D01*
X813330Y488824D01*
X810790Y489876D01*
Y490420D01*
X810055Y493165D01*
X808634Y495625D01*
X806625Y497634D01*
X804165Y499055D01*
X801421Y499790D01*
X798579D01*
X795835Y499055D01*
X793375Y497634D01*
X791366Y495625D01*
X789945Y493165D01*
X789210Y490420D01*
Y487579D01*
X789945Y484835D01*
X791366Y482375D01*
X792161Y481580D01*
X791108Y479040D01*
X790960D01*
Y460960D01*
X809040D01*
Y473546D01*
X822747Y487253D01*
X823589Y488513D01*
X823885Y490000D01*
Y540000D01*
X823589Y541487D01*
X822747Y542747D01*
X799727Y565767D01*
X799822Y565932D01*
X800540Y568612D01*
Y571388D01*
X799822Y574068D01*
X798434Y576472D01*
X796472Y578434D01*
X794068Y579822D01*
X791388Y580540D01*
D02*
G37*
G36*
X700000Y453652D02*
X696596Y453204D01*
X693424Y451890D01*
X690700Y449800D01*
X688610Y447076D01*
X687296Y443904D01*
X686848Y440500D01*
Y439500D01*
X687296Y436096D01*
X688610Y432924D01*
X690700Y430200D01*
X693424Y428110D01*
X696596Y426796D01*
X700000Y426348D01*
X703404Y426796D01*
X706576Y428110D01*
X709300Y430200D01*
X711390Y432924D01*
X712704Y436096D01*
X713152Y439500D01*
Y440500D01*
X712704Y443904D01*
X711390Y447076D01*
X709300Y449800D01*
X706576Y451890D01*
X703404Y453204D01*
X700000Y453652D01*
D02*
G37*
G36*
X600000D02*
X596596Y453204D01*
X593424Y451890D01*
X590700Y449800D01*
X588610Y447076D01*
X587296Y443904D01*
X586847Y440500D01*
Y439500D01*
X587296Y436096D01*
X588610Y432924D01*
X590700Y430200D01*
X593424Y428110D01*
X596596Y426796D01*
X600000Y426348D01*
X603404Y426796D01*
X606576Y428110D01*
X609300Y430200D01*
X611390Y432924D01*
X612704Y436096D01*
X613153Y439500D01*
Y440500D01*
X612704Y443904D01*
X611390Y447076D01*
X609300Y449800D01*
X606576Y451890D01*
X603404Y453204D01*
X600000Y453652D01*
D02*
G37*
G36*
X451682Y427080D02*
X448318D01*
X445018Y426424D01*
X441910Y425136D01*
X439112Y423267D01*
X436733Y420888D01*
X434864Y418090D01*
X433576Y414982D01*
X432920Y411682D01*
Y408318D01*
X433576Y405018D01*
X434864Y401910D01*
X436733Y399112D01*
X439112Y396733D01*
X441910Y394864D01*
X443091Y394375D01*
Y391625D01*
X441910Y391136D01*
X439112Y389267D01*
X436733Y386888D01*
X434864Y384090D01*
X433576Y380982D01*
X432920Y377682D01*
Y374318D01*
X433576Y371018D01*
X434864Y367910D01*
X436733Y365112D01*
X439112Y362733D01*
X441910Y360864D01*
X445018Y359576D01*
X448318Y358920D01*
X451682D01*
X454982Y359576D01*
X458090Y360864D01*
X460888Y362733D01*
X463267Y365112D01*
X465136Y367910D01*
X466424Y371018D01*
X467080Y374318D01*
Y377682D01*
X466424Y380982D01*
X465136Y384090D01*
X463267Y386888D01*
X460888Y389267D01*
X458090Y391136D01*
X456909Y391625D01*
Y394375D01*
X458090Y394864D01*
X460888Y396733D01*
X463267Y399112D01*
X465136Y401910D01*
X466424Y405018D01*
X467080Y408318D01*
Y411682D01*
X466424Y414982D01*
X465136Y418090D01*
X463267Y420888D01*
X460888Y423267D01*
X458090Y425136D01*
X454982Y426424D01*
X451682Y427080D01*
D02*
G37*
G36*
X316982D02*
X313618D01*
X310318Y426424D01*
X307210Y425136D01*
X304412Y423267D01*
X302033Y420888D01*
X300164Y418090D01*
X298876Y414982D01*
X298220Y411682D01*
Y408318D01*
X298876Y405018D01*
X300164Y401910D01*
X302033Y399112D01*
X304412Y396733D01*
X307210Y394864D01*
X308391Y394375D01*
Y391625D01*
X307210Y391136D01*
X304412Y389267D01*
X302033Y386888D01*
X300164Y384090D01*
X298876Y380982D01*
X298220Y377682D01*
Y374318D01*
X298876Y371018D01*
X300164Y367910D01*
X302033Y365112D01*
X304412Y362733D01*
X307210Y360864D01*
X310318Y359576D01*
X313618Y358920D01*
X316982D01*
X320282Y359576D01*
X323390Y360864D01*
X326188Y362733D01*
X328567Y365112D01*
X330436Y367910D01*
X331724Y371018D01*
X332380Y374318D01*
Y377682D01*
X331724Y380982D01*
X330436Y384090D01*
X328567Y386888D01*
X326188Y389267D01*
X323390Y391136D01*
X322209Y391625D01*
Y394375D01*
X323390Y394864D01*
X326188Y396733D01*
X328567Y399112D01*
X330436Y401910D01*
X331724Y405018D01*
X332380Y408318D01*
Y411682D01*
X331724Y414982D01*
X330436Y418090D01*
X328567Y420888D01*
X326188Y423267D01*
X323390Y425136D01*
X320282Y426424D01*
X316982Y427080D01*
D02*
G37*
G36*
X932561Y422540D02*
X927439D01*
X922380Y421739D01*
X917509Y420156D01*
X912945Y417831D01*
X908802Y414820D01*
X905180Y411198D01*
X902169Y407055D01*
X899844Y402491D01*
X898261Y397620D01*
X897460Y392561D01*
Y387439D01*
X898261Y382380D01*
X899844Y377509D01*
X902169Y372945D01*
X905180Y368802D01*
X908802Y365180D01*
X912945Y362169D01*
X917509Y359844D01*
X922380Y358261D01*
X927439Y357460D01*
X932561D01*
X937620Y358261D01*
X942491Y359844D01*
X947055Y362169D01*
X951198Y365180D01*
X954820Y368802D01*
X957831Y372945D01*
X960156Y377509D01*
X961739Y382380D01*
X962540Y387439D01*
Y392561D01*
X961739Y397620D01*
X960156Y402491D01*
X957831Y407055D01*
X954820Y411198D01*
X951198Y414820D01*
X947055Y417831D01*
X942491Y420156D01*
X937620Y421739D01*
X932561Y422540D01*
D02*
G37*
G36*
X242561Y422540D02*
X237439D01*
X232380Y421739D01*
X227509Y420156D01*
X222945Y417831D01*
X218802Y414820D01*
X215180Y411198D01*
X212169Y407055D01*
X209844Y402491D01*
X208261Y397620D01*
X207460Y392561D01*
Y387439D01*
X208261Y382380D01*
X209844Y377509D01*
X212169Y372945D01*
X215180Y368802D01*
X218802Y365180D01*
X222945Y362169D01*
X227509Y359844D01*
X232380Y358261D01*
X237439Y357460D01*
X242561D01*
X247620Y358261D01*
X252491Y359844D01*
X257055Y362169D01*
X261198Y365180D01*
X264820Y368802D01*
X267831Y372945D01*
X270156Y377509D01*
X271739Y382380D01*
X272540Y387439D01*
Y392561D01*
X271739Y397620D01*
X270156Y402491D01*
X267831Y407055D01*
X264820Y411198D01*
X261198Y414820D01*
X257055Y417831D01*
X252491Y420156D01*
X247620Y421739D01*
X242561Y422540D01*
D02*
G37*
%LPD*%
D15*
X850000Y1086220D02*
Y1100000D01*
X846582Y1082802D02*
X850000Y1086220D01*
X830302Y1082802D02*
X846582D01*
X780000Y1032500D02*
X830302Y1082802D01*
X870000Y1076502D02*
Y1100000D01*
X840000Y1046502D02*
X870000Y1076502D01*
X840000Y942500D02*
Y1046502D01*
X930000Y1077574D02*
Y1100000D01*
X920000Y1067574D02*
X930000Y1077574D01*
X920000Y940000D02*
Y1067574D01*
X890000Y1070594D02*
Y1100000D01*
X873506Y1054100D02*
X890000Y1070594D01*
X873506Y904494D02*
Y1054100D01*
X834002Y864990D02*
X873506Y904494D01*
X800227Y864990D02*
X834002D01*
X788677Y853440D02*
X800227Y864990D01*
X728472Y853440D02*
X788677D01*
X821436Y786866D02*
Y836676D01*
X804672Y853440D02*
X821436Y836676D01*
X769620Y735050D02*
X821436Y786866D01*
X769620Y716534D02*
Y735050D01*
X671870Y618784D02*
X769620Y716534D01*
X671870Y570000D02*
Y618784D01*
X662060Y551552D02*
Y649868D01*
X666950Y654758D02*
Y722756D01*
X662060Y649868D02*
X666950Y654758D01*
X655640Y734066D02*
X666950Y722756D01*
X662060Y551552D02*
X674116Y539496D01*
X642620Y739902D02*
Y768350D01*
X676910Y802640D01*
X608076Y770601D02*
X630240Y748437D01*
X676910Y802640D02*
X728472D01*
X608076Y770601D02*
Y831942D01*
X620268Y469732D02*
X650000Y440000D01*
X550164Y629158D02*
X620268Y559054D01*
Y469732D02*
Y559054D01*
X674116Y539496D02*
X690504D01*
X800000Y430000D01*
X655640Y734066D02*
Y748437D01*
X583438Y863854D02*
X718058D01*
X550164Y830580D02*
X583438Y863854D01*
X550164Y629158D02*
Y830580D01*
X718058Y863854D02*
X728472Y853440D01*
X741912Y840000D01*
X650000Y440000D02*
Y440000D01*
X642620Y739902D02*
X655640Y726882D01*
Y672237D02*
Y726882D01*
X792712Y840000D02*
X804672Y828040D01*
X741912Y840000D02*
X792712D01*
X890000Y480000D02*
Y568400D01*
X800000Y390000D02*
X890000Y480000D01*
X840000Y450000D02*
Y568400D01*
X800000Y410000D02*
X840000Y450000D01*
X790000Y570000D02*
X820000Y540000D01*
Y490000D02*
Y540000D01*
X800000Y470000D02*
X820000Y490000D01*
D17*
X843788Y795166D02*
D03*
X800100Y906164D02*
D03*
X713440Y751337D02*
D03*
X571690D02*
D03*
X780000Y1032500D02*
D03*
X840000Y942500D02*
D03*
D18*
X843788Y845166D02*
D03*
X800100Y956164D02*
D03*
X713440Y701337D02*
D03*
X571690D02*
D03*
X571870Y570000D02*
D03*
X780000Y1007500D02*
D03*
X671870Y570000D02*
D03*
X840000Y917500D02*
D03*
D33*
X648130Y570000D02*
D03*
X748130D02*
D03*
D34*
X608076Y831942D02*
D03*
X465000Y530000D02*
D03*
X929358Y851992D02*
D03*
Y786992D02*
D03*
X884358Y851992D02*
D03*
D35*
X608076Y906942D02*
D03*
X465000Y605000D02*
D03*
X884358Y786992D02*
D03*
D40*
X470000Y968333D02*
Y1051714D01*
X381125Y1140589D02*
X470000Y1051714D01*
X359071Y968333D02*
X470000D01*
X302404Y1025000D02*
X359071Y968333D01*
X300000Y1025000D02*
X302404D01*
X467206Y871728D02*
X470000Y874522D01*
X338272Y871728D02*
X467206D01*
X300000Y910000D02*
X338272Y871728D01*
X470000Y874522D02*
Y916667D01*
X466952Y769874D02*
X470000Y772922D01*
X325126Y769874D02*
X466952D01*
X300000Y795000D02*
X325126Y769874D01*
X470000Y772922D02*
Y813333D01*
Y680312D02*
Y710000D01*
X441960Y652272D02*
X470000Y680312D01*
X347472Y652272D02*
X441960D01*
X314744Y685000D02*
X347472Y652272D01*
X300000Y685000D02*
X314744D01*
X470000Y916667D02*
Y968333D01*
Y813333D02*
Y874522D01*
Y710000D02*
Y772922D01*
D41*
X920000Y920000D02*
D03*
X850000Y1100000D02*
D03*
X870000D02*
D03*
X890000D02*
D03*
X800000Y390000D02*
D03*
Y410000D02*
D03*
Y430000D02*
D03*
D42*
X920000Y940000D02*
D03*
D43*
X711600Y610000D02*
D03*
X610000D02*
D03*
X790000Y570000D02*
D03*
Y671600D02*
D03*
X470000Y710000D02*
D03*
Y813333D02*
D03*
Y1020000D02*
D03*
Y916667D02*
D03*
X840000Y568400D02*
D03*
Y670000D02*
D03*
X890000Y568400D02*
D03*
Y670000D02*
D03*
X788162Y733298D02*
D03*
X889762D02*
D03*
X550000Y1008400D02*
D03*
Y1110000D02*
D03*
X600000Y1111600D02*
D03*
Y1010000D02*
D03*
D44*
X700000Y440000D02*
D03*
X650000D02*
D03*
X600000D02*
D03*
D45*
X419200Y710000D02*
D03*
Y813333D02*
D03*
Y1020000D02*
D03*
Y916667D02*
D03*
D46*
X300000Y685000D02*
D03*
Y720000D02*
D03*
Y1025000D02*
D03*
Y1060000D02*
D03*
Y795000D02*
D03*
Y830000D02*
D03*
Y910000D02*
D03*
Y945000D02*
D03*
D47*
X450000Y410000D02*
D03*
Y376000D02*
D03*
X315300D02*
D03*
Y410000D02*
D03*
X315158Y515000D02*
D03*
D48*
X728472Y878840D02*
D03*
D49*
Y853440D02*
D03*
Y828040D02*
D03*
Y802640D02*
D03*
X804672Y878840D02*
D03*
Y853440D02*
D03*
Y828040D02*
D03*
Y802640D02*
D03*
X630240Y672237D02*
D03*
X655640D02*
D03*
X681040D02*
D03*
X604840Y748437D02*
D03*
X630240D02*
D03*
X655640D02*
D03*
X681040D02*
D03*
D50*
X831000Y1100000D02*
D03*
X949000D02*
D03*
X800000Y371000D02*
D03*
Y489000D02*
D03*
D51*
X930000Y1100000D02*
D03*
D52*
X405400Y1170000D02*
D03*
X380000D02*
D03*
D53*
X354600D02*
D03*
D54*
X315158Y591200D02*
D03*
D55*
X604840Y672237D02*
D03*
D56*
X800000Y470000D02*
D03*
D57*
X930000Y390000D02*
D03*
X240000Y390000D02*
D03*
X930000Y1180000D02*
D03*
X240000D02*
D03*
D58*
X380000Y1144032D02*
Y1170000D01*
Y1144032D02*
X381125Y1142907D01*
M02*
