G04*
G04 #@! TF.GenerationSoftware,Altium Limited,Altium Designer,26.2.0 (7)*
G04*
G04 Layer_Physical_Order=1*
G04 Layer_Color=255*
%FSLAX44Y44*%
%MOMM*%
G71*
G04*
G04 #@! TF.SameCoordinates,2D8FE527-5C95-4938-8EC8-E0E4FE257E54*
G04*
G04*
G04 #@! TF.FilePolarity,Positive*
G04*
G01*
G75*
%ADD15C,0.2540*%
%ADD17R,1.2000X1.2000*%
%ADD18C,1.2000*%
%ADD21R,1.5500X1.5500*%
%ADD22C,1.5500*%
%ADD25R,1.2000X1.2000*%
%ADD36C,2.0500*%
%ADD37R,2.0500X2.0500*%
%ADD39C,1.0000*%
%ADD40C,4.0000*%
%ADD41C,1.6000*%
%ADD42R,1.6000X1.6000*%
%ADD43C,1.5000*%
%ADD44R,1.5000X1.5000*%
%ADD45R,1.3000X1.3000*%
%ADD46C,1.3000*%
%ADD47C,1.6500*%
%ADD48C,1.4000*%
%ADD49R,1.5000X1.5000*%
%ADD50C,1.9500*%
%ADD51C,2.4000*%
%ADD52R,2.4000X2.4000*%
G04:AMPARAMS|DCode=53|XSize=1.3mm|YSize=1.3mm|CornerRadius=0.325mm|HoleSize=0mm|Usage=FLASHONLY|Rotation=180.000|XOffset=0mm|YOffset=0mm|HoleType=Round|Shape=RoundedRectangle|*
%AMROUNDEDRECTD53*
21,1,1.3000,0.6500,0,0,180.0*
21,1,0.6500,1.3000,0,0,180.0*
1,1,0.6500,-0.3250,0.3250*
1,1,0.6500,0.3250,0.3250*
1,1,0.6500,0.3250,-0.3250*
1,1,0.6500,-0.3250,-0.3250*
%
%ADD53ROUNDEDRECTD53*%
%ADD54O,2.2000X2.1000*%
%ADD55C,6.0000*%
G36*
X950000D02*
X0D01*
Y950000D01*
X950000D01*
Y0D01*
D02*
G37*
%LPC*%
G36*
X660000Y915201D02*
X655083Y914717D01*
X650356Y913283D01*
X645999Y910954D01*
X642180Y907820D01*
X639046Y904001D01*
X637833Y901732D01*
X634705Y901268D01*
X634454Y901519D01*
X632025Y903142D01*
X629326Y904260D01*
X626461Y904830D01*
X623539D01*
X620674Y904260D01*
X617975Y903142D01*
X615546Y901519D01*
X613481Y899454D01*
X611858Y897025D01*
X610740Y894326D01*
X610170Y891461D01*
Y888539D01*
X610740Y885674D01*
X611858Y882975D01*
X613481Y880546D01*
X615546Y878481D01*
X617975Y876858D01*
X620674Y875740D01*
X623539Y875170D01*
X626461D01*
X629326Y875740D01*
X632025Y876858D01*
X632259Y877014D01*
X634799Y875657D01*
Y755601D01*
X570201D01*
Y890000D01*
X569717Y894917D01*
X568283Y899644D01*
X565954Y904001D01*
X562820Y907820D01*
X559001Y910954D01*
X554644Y913283D01*
X549917Y914717D01*
X545000Y915201D01*
X540084Y914717D01*
X535356Y913283D01*
X530999Y910954D01*
X527180Y907820D01*
X524046Y904001D01*
X522833Y901732D01*
X519705Y901268D01*
X519454Y901519D01*
X517025Y903142D01*
X514326Y904260D01*
X511461Y904830D01*
X508539D01*
X505674Y904260D01*
X502975Y903142D01*
X500546Y901519D01*
X498481Y899454D01*
X496858Y897025D01*
X495740Y894326D01*
X495170Y891461D01*
Y888539D01*
X495740Y885674D01*
X496858Y882975D01*
X498481Y880546D01*
X500546Y878481D01*
X502975Y876858D01*
X505674Y875740D01*
X508539Y875170D01*
X511461D01*
X514326Y875740D01*
X517025Y876858D01*
X517259Y877014D01*
X519799Y875657D01*
Y755601D01*
X455201D01*
Y890000D01*
X454717Y894917D01*
X453283Y899644D01*
X450954Y904001D01*
X447820Y907820D01*
X444001Y910954D01*
X439644Y913283D01*
X434917Y914717D01*
X430000Y915201D01*
X425084Y914717D01*
X420356Y913283D01*
X415999Y910954D01*
X412180Y907820D01*
X409046Y904001D01*
X407833Y901732D01*
X404705Y901268D01*
X404454Y901519D01*
X402025Y903142D01*
X399326Y904260D01*
X396461Y904830D01*
X393539D01*
X390674Y904260D01*
X387975Y903142D01*
X385546Y901519D01*
X383481Y899454D01*
X381858Y897025D01*
X380740Y894326D01*
X380170Y891461D01*
Y888539D01*
X380740Y885674D01*
X381858Y882975D01*
X383481Y880546D01*
X385546Y878481D01*
X387975Y876858D01*
X390674Y875740D01*
X393539Y875170D01*
X396461D01*
X399326Y875740D01*
X402025Y876858D01*
X402259Y877014D01*
X404799Y875657D01*
Y755601D01*
X345201D01*
Y890000D01*
X344717Y894917D01*
X343283Y899644D01*
X340954Y904001D01*
X337820Y907820D01*
X334001Y910954D01*
X329644Y913283D01*
X324916Y914717D01*
X320000Y915201D01*
X315083Y914717D01*
X310356Y913283D01*
X305999Y910954D01*
X302180Y907820D01*
X299046Y904001D01*
X297833Y901732D01*
X294705Y901268D01*
X294454Y901519D01*
X292025Y903142D01*
X289326Y904260D01*
X286461Y904830D01*
X283539D01*
X280674Y904260D01*
X277975Y903142D01*
X275546Y901519D01*
X273481Y899454D01*
X271858Y897025D01*
X270740Y894326D01*
X270170Y891461D01*
Y888539D01*
X270740Y885674D01*
X271858Y882975D01*
X273481Y880546D01*
X275546Y878481D01*
X277975Y876858D01*
X280674Y875740D01*
X283539Y875170D01*
X286461D01*
X289326Y875740D01*
X292025Y876858D01*
X292259Y877014D01*
X294799Y875657D01*
Y755601D01*
X175400D01*
X170483Y755117D01*
X165756Y753683D01*
X161399Y751354D01*
X157580Y748220D01*
X84680Y675320D01*
X81546Y671501D01*
X79217Y667144D01*
X77783Y662417D01*
X77299Y657500D01*
Y390000D01*
X77783Y385084D01*
X79217Y380356D01*
X81546Y375999D01*
X84680Y372180D01*
X85099Y371761D01*
Y249000D01*
Y215000D01*
X85583Y210084D01*
X87017Y205356D01*
X89346Y200999D01*
X92480Y197180D01*
X96299Y194046D01*
X100656Y191717D01*
X105383Y190283D01*
X110300Y189799D01*
X115217Y190283D01*
X119944Y191717D01*
X124301Y194046D01*
X128120Y197180D01*
X131254Y200999D01*
X133583Y205356D01*
X135017Y210084D01*
X135501Y215000D01*
Y249000D01*
Y339302D01*
X137848Y340274D01*
X185561Y292561D01*
X187666Y290945D01*
X190119Y289930D01*
X192750Y289583D01*
X296039D01*
X311811Y273811D01*
X313916Y272195D01*
X316369Y271180D01*
X319000Y270833D01*
X323920D01*
Y268920D01*
X324833D01*
Y236671D01*
X324320Y234756D01*
Y231444D01*
X325177Y228244D01*
X326733Y225550D01*
Y208100D01*
X327080Y205469D01*
X328095Y203016D01*
X329711Y200911D01*
X347811Y182811D01*
X349916Y181195D01*
X352369Y180180D01*
X355000Y179833D01*
X395789D01*
X401976Y173645D01*
Y162793D01*
X401377Y161756D01*
X400520Y158556D01*
Y155244D01*
X401377Y152044D01*
X402933Y149350D01*
Y113958D01*
X403279Y111327D01*
X404295Y108874D01*
X405911Y106769D01*
X411003Y101676D01*
X413109Y100061D01*
X415561Y99045D01*
X418192Y98698D01*
X422318D01*
X422583Y98434D01*
X425337Y96843D01*
X428410Y96020D01*
X431590D01*
X434663Y96843D01*
X437417Y98434D01*
X439666Y100683D01*
X441257Y103437D01*
X442080Y106510D01*
Y109690D01*
X441257Y112763D01*
X439666Y115517D01*
X437417Y117766D01*
X434663Y119357D01*
X431590Y120180D01*
X428410D01*
X425807Y119483D01*
X424001Y120367D01*
X423267Y120921D01*
Y149350D01*
X424823Y152044D01*
X425680Y155244D01*
Y158556D01*
X424823Y161756D01*
X423167Y164624D01*
X422310Y165480D01*
Y177857D01*
X421964Y180488D01*
X420948Y182940D01*
X419333Y185046D01*
X407189Y197189D01*
X405084Y198805D01*
X402631Y199820D01*
X400000Y200167D01*
X359211D01*
X347067Y212311D01*
Y225550D01*
X348623Y228244D01*
X349480Y231444D01*
Y234756D01*
X348623Y237956D01*
X346967Y240824D01*
X345167Y242624D01*
Y268920D01*
X346080D01*
Y269833D01*
X395789D01*
X420135Y245487D01*
X419163Y243140D01*
X414370D01*
Y234370D01*
X423140D01*
Y239163D01*
X425487Y240135D01*
X492811Y172811D01*
X494917Y171195D01*
X497369Y170180D01*
X500000Y169833D01*
X652933D01*
Y151550D01*
X651843Y149663D01*
X651020Y146590D01*
Y143410D01*
X651843Y140337D01*
X652933Y138450D01*
Y101550D01*
X651843Y99663D01*
X651020Y96590D01*
Y93410D01*
X651843Y90337D01*
X652933Y88450D01*
Y51550D01*
X651843Y49663D01*
X651020Y46590D01*
Y43410D01*
X651843Y40337D01*
X653434Y37583D01*
X655683Y35334D01*
X658437Y33743D01*
X661510Y32920D01*
X664690D01*
X667763Y33743D01*
X670517Y35334D01*
X672766Y37583D01*
X674357Y40337D01*
X675180Y43410D01*
Y46590D01*
X674357Y49663D01*
X673267Y51550D01*
Y88450D01*
X674357Y90337D01*
X675180Y93410D01*
Y96590D01*
X674357Y99663D01*
X673267Y101550D01*
Y138450D01*
X674357Y140337D01*
X675180Y143410D01*
Y146590D01*
X674357Y149663D01*
X673267Y151550D01*
Y166733D01*
X726900D01*
X729531Y167080D01*
X731983Y168095D01*
X734089Y169711D01*
X777189Y212811D01*
X778805Y214916D01*
X779226Y215932D01*
X779820Y217369D01*
X780167Y220000D01*
Y285789D01*
X791355Y296976D01*
X802207D01*
X803244Y296377D01*
X806444Y295520D01*
X809756D01*
X812956Y296377D01*
X815650Y297933D01*
X838100D01*
X840731Y298279D01*
X842278Y298920D01*
X851080D01*
Y321080D01*
X828920D01*
Y318267D01*
X815650D01*
X812956Y319823D01*
X809756Y320680D01*
X806444D01*
X803244Y319823D01*
X800376Y318167D01*
X799520Y317310D01*
X787143D01*
X784512Y316964D01*
X783075Y316369D01*
X782060Y315948D01*
X779954Y314332D01*
X762811Y297189D01*
X761195Y295084D01*
X760180Y292631D01*
X759833Y290000D01*
Y224211D01*
X722689Y187067D01*
X667311D01*
X667189Y187189D01*
X665083Y188805D01*
X662631Y189820D01*
X660000Y190167D01*
X504211D01*
X407189Y287189D01*
X405084Y288805D01*
X402631Y289820D01*
X400000Y290167D01*
X392864D01*
X391892Y292514D01*
X452189Y352811D01*
X453805Y354916D01*
X454821Y357369D01*
X455167Y360000D01*
Y510789D01*
X477311Y532933D01*
X498450D01*
X500337Y531843D01*
X503410Y531020D01*
X506590D01*
X509663Y531843D01*
X512417Y533434D01*
X514666Y535683D01*
X516257Y538437D01*
X517080Y541510D01*
Y544690D01*
X516257Y547763D01*
X514666Y550517D01*
X512417Y552766D01*
X509663Y554357D01*
X506590Y555180D01*
X503410D01*
X500337Y554357D01*
X498450Y553267D01*
X473100D01*
X470469Y552920D01*
X468017Y551905D01*
X465911Y550289D01*
X437811Y522189D01*
X436195Y520084D01*
X435179Y517631D01*
X434833Y515000D01*
Y364211D01*
X360789Y290167D01*
X346080D01*
Y291080D01*
X334661D01*
X334000Y291167D01*
X323211D01*
X307439Y306939D01*
X305333Y308555D01*
X302881Y309571D01*
X300250Y309917D01*
X196961D01*
X135501Y371377D01*
Y382200D01*
X135017Y387117D01*
X133583Y391844D01*
X131254Y396201D01*
X128120Y400020D01*
X127701Y400439D01*
Y647061D01*
X185839Y705199D01*
X660000D01*
X664917Y705683D01*
X669644Y707117D01*
X674001Y709446D01*
X677820Y712580D01*
X680954Y716399D01*
X683283Y720756D01*
X684717Y725483D01*
X685201Y730400D01*
Y890000D01*
X684717Y894917D01*
X683283Y899644D01*
X680954Y904001D01*
X677820Y907820D01*
X674001Y910954D01*
X669644Y913283D01*
X664917Y914717D01*
X660000Y915201D01*
D02*
G37*
G36*
X842561Y942540D02*
X837439D01*
X832380Y941739D01*
X827509Y940156D01*
X822945Y937831D01*
X818802Y934820D01*
X815180Y931198D01*
X812169Y927055D01*
X809844Y922491D01*
X808261Y917620D01*
X807460Y912561D01*
Y907439D01*
X808261Y902380D01*
X809844Y897509D01*
X812169Y892945D01*
X815180Y888802D01*
X818802Y885180D01*
X822945Y882169D01*
X827509Y879844D01*
X832380Y878261D01*
X837439Y877460D01*
X842561D01*
X847620Y878261D01*
X852491Y879844D01*
X857055Y882169D01*
X861198Y885180D01*
X864820Y888802D01*
X867831Y892945D01*
X870156Y897509D01*
X871739Y902380D01*
X872540Y907439D01*
Y912561D01*
X871739Y917620D01*
X870156Y922491D01*
X867831Y927055D01*
X864820Y931198D01*
X861198Y934820D01*
X857055Y937831D01*
X852491Y940156D01*
X847620Y941739D01*
X842561Y942540D01*
D02*
G37*
G36*
X42561D02*
X37439D01*
X32380Y941739D01*
X27509Y940156D01*
X22945Y937831D01*
X18802Y934820D01*
X15180Y931198D01*
X12169Y927055D01*
X9844Y922491D01*
X8261Y917620D01*
X7460Y912561D01*
Y907439D01*
X8261Y902380D01*
X9844Y897509D01*
X12169Y892945D01*
X15180Y888802D01*
X18802Y885180D01*
X22945Y882169D01*
X27509Y879844D01*
X32380Y878261D01*
X37439Y877460D01*
X42561D01*
X47620Y878261D01*
X52491Y879844D01*
X57055Y882169D01*
X61198Y885180D01*
X64820Y888802D01*
X67831Y892945D01*
X70156Y897509D01*
X71739Y902380D01*
X72540Y907439D01*
Y912561D01*
X71739Y917620D01*
X70156Y922491D01*
X67831Y927055D01*
X64820Y931198D01*
X61198Y934820D01*
X57055Y937831D01*
X52491Y940156D01*
X47620Y941739D01*
X42561Y942540D01*
D02*
G37*
G36*
X912790Y767930D02*
X901270D01*
Y756410D01*
X901684D01*
X904937Y757282D01*
X907853Y758966D01*
X910235Y761347D01*
X911918Y764263D01*
X912790Y767516D01*
Y767930D01*
D02*
G37*
G36*
X898730D02*
X887210D01*
Y767516D01*
X888082Y764263D01*
X889765Y761347D01*
X892147Y758966D01*
X895063Y757282D01*
X898316Y756410D01*
X898730D01*
Y767930D01*
D02*
G37*
G36*
X912790Y832790D02*
X887210D01*
Y807210D01*
X887338D01*
X888390Y804670D01*
X888092Y804372D01*
X886415Y801861D01*
X885259Y799072D01*
X884670Y796110D01*
Y793090D01*
X885259Y790128D01*
X886415Y787338D01*
X888092Y784828D01*
X890228Y782692D01*
X891378Y781924D01*
X891613Y781162D01*
X891567Y778855D01*
X889765Y777053D01*
X888082Y774137D01*
X887210Y770884D01*
Y770470D01*
X912790D01*
Y770884D01*
X911918Y774137D01*
X910235Y777053D01*
X908433Y778855D01*
X908387Y781162D01*
X908622Y781924D01*
X909772Y782692D01*
X911908Y784828D01*
X913585Y787338D01*
X914741Y790128D01*
X915330Y793090D01*
Y796110D01*
X914741Y799072D01*
X913585Y801861D01*
X911908Y804372D01*
X911610Y804670D01*
X912662Y807210D01*
X912790D01*
Y816115D01*
X928391D01*
X936115Y808391D01*
Y706609D01*
X931491Y701985D01*
X848773D01*
X847634Y703958D01*
X845858Y705734D01*
X843682Y706990D01*
X841256Y707640D01*
X838744D01*
X836318Y706990D01*
X834142Y705734D01*
X832366Y703958D01*
X831227Y701985D01*
X808773D01*
X807634Y703958D01*
X805858Y705734D01*
X803682Y706990D01*
X801256Y707640D01*
X798744D01*
X796318Y706990D01*
X794142Y705734D01*
X792366Y703958D01*
X791110Y701782D01*
X790460Y699356D01*
Y696844D01*
X791110Y694418D01*
X792366Y692242D01*
X794142Y690466D01*
X796318Y689210D01*
X798744Y688560D01*
X801256D01*
X803682Y689210D01*
X805858Y690466D01*
X807634Y692242D01*
X808773Y694215D01*
X831227D01*
X832366Y692242D01*
X834142Y690466D01*
X836318Y689210D01*
X838744Y688560D01*
X841256D01*
X843682Y689210D01*
X845858Y690466D01*
X847634Y692242D01*
X848773Y694215D01*
X933100D01*
X934587Y694511D01*
X935847Y695353D01*
X942747Y702253D01*
X943589Y703513D01*
X943885Y705000D01*
Y810000D01*
X943589Y811487D01*
X942747Y812747D01*
X932747Y822747D01*
X931487Y823589D01*
X930000Y823885D01*
X912790D01*
Y832790D01*
D02*
G37*
G36*
X661722Y692680D02*
X658278D01*
X654951Y691789D01*
X651969Y690067D01*
X649533Y687631D01*
X647811Y684649D01*
X646920Y681322D01*
Y677878D01*
X647811Y674551D01*
X649533Y671569D01*
X651969Y669133D01*
X654951Y667411D01*
X658278Y666520D01*
X661722D01*
X665049Y667411D01*
X668031Y669133D01*
X670467Y671569D01*
X672189Y674551D01*
X673080Y677878D01*
Y681322D01*
X672189Y684649D01*
X670467Y687631D01*
X668031Y690067D01*
X665049Y691789D01*
X661722Y692680D01*
D02*
G37*
G36*
X541722D02*
X538278D01*
X534951Y691789D01*
X531969Y690067D01*
X529533Y687631D01*
X527811Y684649D01*
X526920Y681322D01*
Y677878D01*
X527811Y674551D01*
X529533Y671569D01*
X531969Y669133D01*
X534951Y667411D01*
X538278Y666520D01*
X541722D01*
X545049Y667411D01*
X548031Y669133D01*
X550467Y671569D01*
X552189Y674551D01*
X553080Y677878D01*
Y681322D01*
X552189Y684649D01*
X550467Y687631D01*
X548031Y690067D01*
X545049Y691789D01*
X541722Y692680D01*
D02*
G37*
G36*
X421722D02*
X418278D01*
X414951Y691789D01*
X411969Y690067D01*
X409533Y687631D01*
X407811Y684649D01*
X406920Y681322D01*
Y677878D01*
X407811Y674551D01*
X409533Y671569D01*
X411969Y669133D01*
X414951Y667411D01*
X418278Y666520D01*
X421722D01*
X425049Y667411D01*
X428031Y669133D01*
X430467Y671569D01*
X432189Y674551D01*
X433080Y677878D01*
Y681322D01*
X432189Y684649D01*
X430467Y687631D01*
X428031Y690067D01*
X425049Y691789D01*
X421722Y692680D01*
D02*
G37*
G36*
X286722D02*
X283278D01*
X279951Y691789D01*
X276969Y690067D01*
X274533Y687631D01*
X272811Y684649D01*
X271920Y681322D01*
Y677878D01*
X272811Y674551D01*
X274533Y671569D01*
X276969Y669133D01*
X279951Y667411D01*
X283278Y666520D01*
X286722D01*
X290049Y667411D01*
X293031Y669133D01*
X295467Y671569D01*
X297189Y674551D01*
X298080Y677878D01*
Y681322D01*
X297189Y684649D01*
X295467Y687631D01*
X293031Y690067D01*
X290049Y691789D01*
X286722Y692680D01*
D02*
G37*
G36*
X841270Y631436D02*
Y623170D01*
X849536D01*
X848890Y625582D01*
X847634Y627758D01*
X845858Y629534D01*
X843682Y630790D01*
X841270Y631436D01*
D02*
G37*
G36*
X838730D02*
X836318Y630790D01*
X834142Y629534D01*
X832366Y627758D01*
X831110Y625582D01*
X830464Y623170D01*
X838730D01*
Y631436D01*
D02*
G37*
G36*
X849536Y620630D02*
X841270D01*
Y612364D01*
X843682Y613010D01*
X845858Y614266D01*
X847634Y616042D01*
X848890Y618218D01*
X849536Y620630D01*
D02*
G37*
G36*
X838730D02*
X830464D01*
X831110Y618218D01*
X832366Y616042D01*
X834142Y614266D01*
X836318Y613010D01*
X838730Y612364D01*
Y620630D01*
D02*
G37*
G36*
X801256Y631440D02*
X798744D01*
X796318Y630790D01*
X794142Y629534D01*
X792366Y627758D01*
X791110Y625582D01*
X790460Y623156D01*
Y620644D01*
X791050Y618443D01*
X787253Y614647D01*
X786411Y613387D01*
X786115Y611900D01*
Y401609D01*
X748503Y363997D01*
X747661Y362737D01*
X747365Y361250D01*
Y278259D01*
X735765Y266659D01*
X733222Y267340D01*
X730578D01*
X728025Y266656D01*
X725735Y265334D01*
X723866Y263465D01*
X722544Y261175D01*
X721860Y258622D01*
Y255978D01*
X722544Y253425D01*
X723866Y251135D01*
X725735Y249266D01*
X728025Y247944D01*
X730578Y247260D01*
X733222D01*
X735775Y247944D01*
X738065Y249266D01*
X739934Y251135D01*
X741256Y253425D01*
X741940Y255978D01*
Y258622D01*
X741259Y261165D01*
X753997Y273903D01*
X754839Y275163D01*
X755135Y276650D01*
Y359641D01*
X792747Y397253D01*
X793589Y398513D01*
X793885Y400000D01*
Y610291D01*
X796543Y612950D01*
X798744Y612360D01*
X801256D01*
X803682Y613010D01*
X805858Y614266D01*
X807634Y616042D01*
X808890Y618218D01*
X809540Y620644D01*
Y623156D01*
X808890Y625582D01*
X807634Y627758D01*
X805858Y629534D01*
X803682Y630790D01*
X801256Y631440D01*
D02*
G37*
G36*
X626670Y563540D02*
X609590D01*
Y546460D01*
X626670D01*
Y551115D01*
X703391D01*
X712253Y542253D01*
X713513Y541411D01*
X715000Y541115D01*
X726995D01*
X728110Y538424D01*
X730200Y535700D01*
X732924Y533610D01*
X736096Y532296D01*
X739500Y531847D01*
X740500D01*
X743904Y532296D01*
X747076Y533610D01*
X749800Y535700D01*
X751890Y538424D01*
X753204Y541596D01*
X753652Y545000D01*
X753204Y548404D01*
X751890Y551576D01*
X749800Y554300D01*
X747076Y556390D01*
X743904Y557704D01*
X740500Y558153D01*
X739500D01*
X736096Y557704D01*
X732924Y556390D01*
X730200Y554300D01*
X728110Y551576D01*
X726995Y548885D01*
X716609D01*
X707747Y557747D01*
X706487Y558589D01*
X705000Y558885D01*
X626670D01*
Y563540D01*
D02*
G37*
G36*
X542994D02*
X540746D01*
X538574Y562958D01*
X536626Y561834D01*
X535036Y560244D01*
X533912Y558296D01*
X533330Y556124D01*
Y553876D01*
X533912Y551704D01*
X535036Y549756D01*
X536626Y548166D01*
X537985Y547382D01*
Y448540D01*
X533330D01*
Y447382D01*
X530983Y446410D01*
X513950Y463443D01*
X514540Y465644D01*
Y468156D01*
X513890Y470582D01*
X512634Y472758D01*
X510858Y474534D01*
X508682Y475790D01*
X506256Y476440D01*
X503744D01*
X501318Y475790D01*
X499142Y474534D01*
X497366Y472758D01*
X496110Y470582D01*
X495460Y468156D01*
Y465644D01*
X496110Y463218D01*
X497366Y461042D01*
X499142Y459266D01*
X501318Y458010D01*
X503744Y457360D01*
X506256D01*
X508457Y457950D01*
X529153Y437253D01*
X530413Y436411D01*
X531900Y436115D01*
X533330D01*
Y431460D01*
X550410D01*
Y448540D01*
X545755D01*
Y547382D01*
X547114Y548166D01*
X548704Y549756D01*
X549828Y551704D01*
X550410Y553876D01*
Y556124D01*
X549828Y558296D01*
X548704Y560244D01*
X547114Y561834D01*
X545166Y562958D01*
X542994Y563540D01*
D02*
G37*
G36*
X740500Y458153D02*
X739500D01*
X736096Y457704D01*
X732924Y456390D01*
X730200Y454300D01*
X728110Y451576D01*
X726796Y448404D01*
X726439Y445695D01*
X624513D01*
X623374Y446834D01*
X621426Y447958D01*
X619254Y448540D01*
X617006D01*
X614834Y447958D01*
X612886Y446834D01*
X611296Y445244D01*
X610172Y443296D01*
X609590Y441124D01*
Y438876D01*
X610172Y436704D01*
X611296Y434756D01*
X612886Y433166D01*
X614834Y432042D01*
X617006Y431460D01*
X619254D01*
X621426Y432042D01*
X623374Y433166D01*
X624964Y434756D01*
X626088Y436704D01*
X626415Y437925D01*
X728492D01*
X730200Y435700D01*
X732924Y433610D01*
X736096Y432296D01*
X739500Y431847D01*
X740500D01*
X743904Y432296D01*
X747076Y433610D01*
X749800Y435700D01*
X751890Y438424D01*
X753204Y441596D01*
X753652Y445000D01*
X753204Y448404D01*
X751890Y451576D01*
X749800Y454300D01*
X747076Y456390D01*
X743904Y457704D01*
X740500Y458153D01*
D02*
G37*
G36*
X187790Y400290D02*
X178770D01*
Y391270D01*
X187790D01*
Y400290D01*
D02*
G37*
G36*
X176230D02*
X167210D01*
Y391270D01*
X176230D01*
Y400290D01*
D02*
G37*
G36*
X187790Y388730D02*
X178770D01*
Y379710D01*
X187790D01*
Y388730D01*
D02*
G37*
G36*
X176230D02*
X167210D01*
Y379710D01*
X176230D01*
Y388730D01*
D02*
G37*
G36*
X841270Y368501D02*
Y361270D01*
X848501D01*
X847958Y363296D01*
X846834Y365244D01*
X845244Y366834D01*
X843296Y367958D01*
X841270Y368501D01*
D02*
G37*
G36*
X838730D02*
X836704Y367958D01*
X834756Y366834D01*
X833166Y365244D01*
X832042Y363296D01*
X831499Y361270D01*
X838730D01*
Y368501D01*
D02*
G37*
G36*
X848501Y358730D02*
X841270D01*
Y351499D01*
X843296Y352042D01*
X845244Y353166D01*
X846834Y354756D01*
X847958Y356704D01*
X848501Y358730D01*
D02*
G37*
G36*
X838730D02*
X831499D01*
X832042Y356704D01*
X833166Y354756D01*
X834756Y353166D01*
X836704Y352042D01*
X838730Y351499D01*
Y358730D01*
D02*
G37*
G36*
X336270Y338501D02*
Y331270D01*
X343501D01*
X342958Y333296D01*
X341834Y335244D01*
X340244Y336834D01*
X338296Y337958D01*
X336270Y338501D01*
D02*
G37*
G36*
X333730D02*
X331704Y337958D01*
X329756Y336834D01*
X328166Y335244D01*
X327042Y333296D01*
X326499Y331270D01*
X333730D01*
Y338501D01*
D02*
G37*
G36*
X343501Y328730D02*
X336270D01*
Y321499D01*
X338296Y322042D01*
X340244Y323166D01*
X341834Y324756D01*
X342958Y326704D01*
X343501Y328730D01*
D02*
G37*
G36*
X333730D02*
X326499D01*
X327042Y326704D01*
X328166Y324756D01*
X329756Y323166D01*
X331704Y322042D01*
X333730Y321499D01*
Y328730D01*
D02*
G37*
G36*
X741940Y318140D02*
X733170D01*
Y309370D01*
X741940D01*
Y318140D01*
D02*
G37*
G36*
X730630D02*
X721860D01*
Y309370D01*
X730630D01*
Y318140D01*
D02*
G37*
G36*
X741940Y306830D02*
X733170D01*
Y298060D01*
X741940D01*
Y306830D01*
D02*
G37*
G36*
X730630D02*
X721860D01*
Y298060D01*
X730630D01*
Y306830D01*
D02*
G37*
G36*
X512790Y300290D02*
X503770D01*
Y291270D01*
X512790D01*
Y300290D01*
D02*
G37*
G36*
X501230D02*
X492210D01*
Y291270D01*
X501230D01*
Y300290D01*
D02*
G37*
G36*
X578855D02*
X576145D01*
X573528Y299589D01*
X571182Y298234D01*
X569266Y296318D01*
X567911Y293972D01*
X567210Y291355D01*
Y288645D01*
X567911Y286028D01*
X569266Y283682D01*
X571182Y281766D01*
X573528Y280411D01*
X576145Y279710D01*
X578855D01*
X581472Y280411D01*
X583818Y281766D01*
X585734Y283682D01*
X587089Y286028D01*
X587790Y288645D01*
Y291355D01*
X587089Y293972D01*
X585734Y296318D01*
X583818Y298234D01*
X581472Y299589D01*
X578855Y300290D01*
D02*
G37*
G36*
X512790Y288730D02*
X503770D01*
Y279710D01*
X512790D01*
Y288730D01*
D02*
G37*
G36*
X501230D02*
X492210D01*
Y279710D01*
X501230D01*
Y288730D01*
D02*
G37*
G36*
X809422Y292740D02*
X806778D01*
X804225Y292056D01*
X801935Y290734D01*
X800066Y288865D01*
X798744Y286575D01*
X798060Y284022D01*
Y281378D01*
X798744Y278825D01*
X800066Y276535D01*
X801935Y274666D01*
X804225Y273344D01*
X806778Y272660D01*
X809422D01*
X811975Y273344D01*
X814265Y274666D01*
X816134Y276535D01*
X817456Y278825D01*
X818140Y281378D01*
Y284022D01*
X817456Y286575D01*
X816134Y288865D01*
X814265Y290734D01*
X811975Y292056D01*
X809422Y292740D01*
D02*
G37*
G36*
X740500Y508153D02*
X739500D01*
X736096Y507704D01*
X732924Y506390D01*
X730200Y504300D01*
X728110Y501576D01*
X726796Y498404D01*
X726348Y495000D01*
X726796Y491596D01*
X728110Y488424D01*
X730200Y485700D01*
X732924Y483610D01*
X736096Y482296D01*
X739500Y481847D01*
X740500D01*
X743904Y482296D01*
X746242Y483264D01*
X761115Y468391D01*
Y416609D01*
X702253Y357747D01*
X701411Y356487D01*
X701115Y355000D01*
Y290000D01*
X701411Y288513D01*
X702253Y287253D01*
X709553Y279953D01*
X710813Y279111D01*
X712300Y278815D01*
X722550D01*
X723866Y276535D01*
X725735Y274666D01*
X728025Y273344D01*
X730578Y272660D01*
X733222D01*
X735775Y273344D01*
X738065Y274666D01*
X739934Y276535D01*
X741256Y278825D01*
X741940Y281378D01*
Y284022D01*
X741256Y286575D01*
X739934Y288865D01*
X738065Y290734D01*
X735775Y292056D01*
X733222Y292740D01*
X730578D01*
X728025Y292056D01*
X725735Y290734D01*
X723866Y288865D01*
X722550Y286585D01*
X713909D01*
X708885Y291609D01*
Y353391D01*
X767747Y412253D01*
X768589Y413513D01*
X768885Y415000D01*
Y470000D01*
X768589Y471487D01*
X767747Y472747D01*
X751943Y488551D01*
X753204Y491596D01*
X753652Y495000D01*
X753204Y498404D01*
X751890Y501576D01*
X749800Y504300D01*
X747076Y506390D01*
X743904Y507704D01*
X740500Y508153D01*
D02*
G37*
G36*
X809422Y267340D02*
X806778D01*
X804225Y266656D01*
X801935Y265334D01*
X800066Y263465D01*
X798744Y261175D01*
X798060Y258622D01*
Y255978D01*
X798741Y253435D01*
X787253Y241947D01*
X786411Y240687D01*
X786115Y239200D01*
Y206609D01*
X752253Y172747D01*
X751411Y171487D01*
X751115Y170000D01*
Y105000D01*
X751411Y103513D01*
X752253Y102253D01*
X767253Y87253D01*
X768513Y86411D01*
X770000Y86115D01*
X776804D01*
X777766Y84449D01*
X779449Y82766D01*
X781511Y81576D01*
X783810Y80960D01*
X786190D01*
X788489Y81576D01*
X790551Y82766D01*
X792234Y84449D01*
X793424Y86511D01*
X794040Y88810D01*
Y91190D01*
X793424Y93489D01*
X792234Y95551D01*
X790551Y97234D01*
X788489Y98424D01*
X787514Y98685D01*
Y101315D01*
X788489Y101576D01*
X790551Y102766D01*
X792234Y104449D01*
X793196Y106115D01*
X795891D01*
X826460Y75546D01*
X826460Y63960D01*
X824013Y63735D01*
X820350D01*
X818863Y63439D01*
X817603Y62597D01*
X808891Y53885D01*
X794040D01*
Y59040D01*
X775960D01*
Y40960D01*
X776108D01*
X777161Y38420D01*
X776366Y37625D01*
X774945Y35165D01*
X774210Y32420D01*
Y29580D01*
X774945Y26835D01*
X776366Y24375D01*
X778375Y22366D01*
X780835Y20945D01*
X783579Y20210D01*
X786421D01*
X789165Y20945D01*
X791625Y22366D01*
X793634Y24375D01*
X795055Y26835D01*
X795790Y29580D01*
Y32420D01*
X795055Y35165D01*
X793634Y37625D01*
X792839Y38420D01*
X793892Y40960D01*
X794040D01*
Y46115D01*
X810500D01*
X811987Y46411D01*
X813247Y47253D01*
X821959Y55965D01*
X827796D01*
X828848Y53425D01*
X828166Y52744D01*
X827042Y50796D01*
X826499Y48770D01*
X835000D01*
X843501D01*
X842958Y50796D01*
X841834Y52744D01*
X841152Y53425D01*
X842204Y55965D01*
X864350D01*
X865837Y56261D01*
X867097Y57103D01*
X902747Y92753D01*
X903589Y94013D01*
X903885Y95500D01*
Y140973D01*
X905509Y141296D01*
X907424Y142576D01*
X908704Y144491D01*
X909038Y146169D01*
X911524Y146504D01*
X911587Y146492D01*
X912766Y144449D01*
X914449Y142766D01*
X916511Y141576D01*
X918730Y140981D01*
Y150000D01*
X920000D01*
D01*
X918730D01*
Y159019D01*
X916511Y158424D01*
X914449Y157234D01*
X912766Y155551D01*
X911587Y153508D01*
X911524Y153496D01*
X909038Y153831D01*
X908704Y155509D01*
X907424Y157424D01*
X905509Y158704D01*
X903250Y159153D01*
X896750D01*
X894491Y158704D01*
X892576Y157424D01*
X891296Y155509D01*
X890847Y153250D01*
Y146750D01*
X891296Y144491D01*
X892576Y142576D01*
X894491Y141296D01*
X896115Y140973D01*
Y97109D01*
X862741Y63735D01*
X845987D01*
X843540Y63960D01*
X843540Y66275D01*
Y81040D01*
X831954D01*
X800247Y112747D01*
X798987Y113589D01*
X797500Y113885D01*
X793196D01*
X792234Y115551D01*
X791575Y116210D01*
X792266Y118006D01*
X792761Y118615D01*
X826460D01*
Y113960D01*
X843540D01*
Y131040D01*
X826460D01*
Y126385D01*
X796020D01*
X794040Y128810D01*
Y131190D01*
X793424Y133489D01*
X792234Y135551D01*
X790818Y136967D01*
X790700Y138348D01*
X790916Y139956D01*
X791625Y140366D01*
X793634Y142375D01*
X795055Y144835D01*
X795790Y147579D01*
Y150421D01*
X795055Y153165D01*
X793634Y155625D01*
X791625Y157634D01*
X789165Y159055D01*
X786421Y159790D01*
X783579D01*
X780835Y159055D01*
X778375Y157634D01*
X776366Y155625D01*
X774945Y153165D01*
X774210Y150421D01*
Y147579D01*
X774945Y144835D01*
X776366Y142375D01*
X778375Y140366D01*
X779084Y139956D01*
X779300Y138348D01*
X779182Y136967D01*
X777766Y135551D01*
X776576Y133489D01*
X775960Y131190D01*
Y128810D01*
X776576Y126511D01*
X777766Y124449D01*
X779449Y122766D01*
X781511Y121576D01*
X782486Y121315D01*
Y118685D01*
X781511Y118424D01*
X779449Y117234D01*
X777766Y115551D01*
X776576Y113489D01*
X775960Y111190D01*
Y108810D01*
X776576Y106511D01*
X777766Y104449D01*
X779449Y102766D01*
X781511Y101576D01*
X782486Y101315D01*
Y98685D01*
X781511Y98424D01*
X779449Y97234D01*
X777766Y95551D01*
X776804Y93885D01*
X771609D01*
X758885Y106609D01*
Y168391D01*
X792747Y202253D01*
X793589Y203513D01*
X793885Y205000D01*
Y237591D01*
X804235Y247941D01*
X806778Y247260D01*
X809422D01*
X811975Y247944D01*
X814265Y249266D01*
X816134Y251135D01*
X817456Y253425D01*
X818140Y255978D01*
Y258622D01*
X817456Y261175D01*
X816134Y263465D01*
X814265Y265334D01*
X811975Y266656D01*
X809422Y267340D01*
D02*
G37*
G36*
X411830Y243140D02*
X403060D01*
Y234370D01*
X411830D01*
Y243140D01*
D02*
G37*
G36*
X891270Y238501D02*
Y231270D01*
X898501D01*
X897958Y233296D01*
X896834Y235244D01*
X895244Y236834D01*
X893296Y237958D01*
X891270Y238501D01*
D02*
G37*
G36*
X888730D02*
X886704Y237958D01*
X884756Y236834D01*
X883166Y235244D01*
X882042Y233296D01*
X881499Y231270D01*
X888730D01*
Y238501D01*
D02*
G37*
G36*
X423140Y231830D02*
X414370D01*
Y223060D01*
X423140D01*
Y231830D01*
D02*
G37*
G36*
X363622Y243140D02*
X360978D01*
X358425Y242456D01*
X356135Y241134D01*
X354266Y239265D01*
X352944Y236975D01*
X352260Y234422D01*
Y231778D01*
X352944Y229225D01*
X354266Y226935D01*
X356135Y225066D01*
X358425Y223744D01*
X360978Y223060D01*
X363622D01*
X366175Y223744D01*
X368465Y225066D01*
X370334Y226935D01*
X371656Y229225D01*
X372340Y231778D01*
Y234422D01*
X371656Y236975D01*
X370334Y239265D01*
X368465Y241134D01*
X366175Y242456D01*
X363622Y243140D01*
D02*
G37*
G36*
X733222Y241940D02*
X730578D01*
X728025Y241256D01*
X725735Y239934D01*
X723866Y238065D01*
X722544Y235775D01*
X721860Y233222D01*
Y230578D01*
X722544Y228025D01*
X723866Y225735D01*
X725735Y223866D01*
X728025Y222544D01*
X730578Y221860D01*
X733222D01*
X735775Y222544D01*
X738065Y223866D01*
X739934Y225735D01*
X741256Y228025D01*
X741940Y230578D01*
Y233222D01*
X741256Y235775D01*
X739934Y238065D01*
X738065Y239934D01*
X735775Y241256D01*
X733222Y241940D01*
D02*
G37*
G36*
X898501Y228730D02*
X891270D01*
Y221499D01*
X893296Y222042D01*
X895244Y223166D01*
X896834Y224756D01*
X897958Y226704D01*
X898501Y228730D01*
D02*
G37*
G36*
X888730D02*
X881499D01*
X882042Y226704D01*
X883166Y224756D01*
X884756Y223166D01*
X886704Y222042D01*
X888730Y221499D01*
Y228730D01*
D02*
G37*
G36*
X809422Y241940D02*
X806778D01*
X804225Y241256D01*
X801935Y239934D01*
X800066Y238065D01*
X798744Y235775D01*
X798060Y233222D01*
Y230578D01*
X798744Y228025D01*
X800066Y225735D01*
X801935Y223866D01*
X804225Y222544D01*
X806778Y221860D01*
X809422D01*
X811975Y222544D01*
X814265Y223866D01*
X816134Y225735D01*
X817450Y228015D01*
X831460D01*
Y221460D01*
X848540D01*
Y238540D01*
X831460D01*
Y235785D01*
X817450D01*
X816134Y238065D01*
X814265Y239934D01*
X811975Y241256D01*
X809422Y241940D01*
D02*
G37*
G36*
X389022Y166940D02*
X386378D01*
X383825Y166256D01*
X381535Y164934D01*
X379666Y163065D01*
X378350Y160785D01*
X371650D01*
X370334Y163065D01*
X368465Y164934D01*
X366175Y166256D01*
X363622Y166940D01*
X360978D01*
X358425Y166256D01*
X356135Y164934D01*
X354266Y163065D01*
X352944Y160775D01*
X352260Y158222D01*
Y155578D01*
X352944Y153025D01*
X354266Y150735D01*
X356135Y148866D01*
X358425Y147544D01*
X360978Y146860D01*
X363622D01*
X366175Y147544D01*
X368465Y148866D01*
X370334Y150735D01*
X371650Y153015D01*
X378350D01*
X379666Y150735D01*
X381535Y148866D01*
X383825Y147544D01*
X386378Y146860D01*
X389022D01*
X391575Y147544D01*
X393865Y148866D01*
X395734Y150735D01*
X397056Y153025D01*
X397740Y155578D01*
Y158222D01*
X397056Y160775D01*
X395734Y163065D01*
X393865Y164934D01*
X391575Y166256D01*
X389022Y166940D01*
D02*
G37*
G36*
X338222D02*
X335578D01*
X333025Y166256D01*
X330735Y164934D01*
X328866Y163065D01*
X327550Y160785D01*
X298540D01*
Y163540D01*
X281460D01*
Y146460D01*
X298540D01*
Y153015D01*
X327550D01*
X328866Y150735D01*
X330735Y148866D01*
X333025Y147544D01*
X335578Y146860D01*
X338222D01*
X340775Y147544D01*
X343065Y148866D01*
X344934Y150735D01*
X346256Y153025D01*
X346940Y155578D01*
Y158222D01*
X346256Y160775D01*
X344934Y163065D01*
X343065Y164934D01*
X340775Y166256D01*
X338222Y166940D01*
D02*
G37*
G36*
X921270Y159019D02*
Y151270D01*
X929019D01*
X928424Y153489D01*
X927234Y155551D01*
X925551Y157234D01*
X923489Y158424D01*
X921270Y159019D01*
D02*
G37*
G36*
X836270Y156001D02*
Y148770D01*
X843501D01*
X842958Y150796D01*
X841834Y152744D01*
X840244Y154334D01*
X838296Y155458D01*
X836270Y156001D01*
D02*
G37*
G36*
X833730D02*
X831704Y155458D01*
X829756Y154334D01*
X828166Y152744D01*
X827042Y150796D01*
X826499Y148770D01*
X833730D01*
Y156001D01*
D02*
G37*
G36*
X929019Y148730D02*
X921270D01*
Y140981D01*
X923489Y141576D01*
X925551Y142766D01*
X927234Y144449D01*
X928424Y146511D01*
X929019Y148730D01*
D02*
G37*
G36*
X843501Y146230D02*
X836270D01*
Y138999D01*
X838296Y139542D01*
X840244Y140666D01*
X841834Y142256D01*
X842958Y144204D01*
X843501Y146230D01*
D02*
G37*
G36*
X833730D02*
X826499D01*
X827042Y144204D01*
X828166Y142256D01*
X829756Y140666D01*
X831704Y139542D01*
X833730Y138999D01*
Y146230D01*
D02*
G37*
G36*
X531421Y159790D02*
X528579D01*
X525835Y159055D01*
X523375Y157634D01*
X521366Y155625D01*
X519945Y153165D01*
X519210Y150421D01*
Y147579D01*
X519945Y144835D01*
X521366Y142375D01*
X523375Y140366D01*
X524085Y139956D01*
X524300Y138348D01*
X524182Y136967D01*
X522766Y135551D01*
X521576Y133489D01*
X520960Y131190D01*
Y128810D01*
X521576Y126511D01*
X522766Y124449D01*
X524449Y122766D01*
X526511Y121576D01*
X527486Y121315D01*
Y118685D01*
X526511Y118424D01*
X524449Y117234D01*
X522766Y115551D01*
X521576Y113489D01*
X520960Y111190D01*
Y108810D01*
X521576Y106511D01*
X522766Y104449D01*
X524449Y102766D01*
X526511Y101576D01*
X527486Y101315D01*
Y98685D01*
X526511Y98424D01*
X524449Y97234D01*
X522766Y95551D01*
X521576Y93489D01*
X520960Y91190D01*
Y88810D01*
X521576Y86511D01*
X522766Y84449D01*
X524449Y82766D01*
X526511Y81576D01*
X528810Y80960D01*
X531190D01*
X533489Y81576D01*
X535551Y82766D01*
X537234Y84449D01*
X538424Y86511D01*
X539040Y88810D01*
Y91190D01*
X538424Y93489D01*
X537234Y95551D01*
X535551Y97234D01*
X533489Y98424D01*
X532514Y98685D01*
Y101315D01*
X533489Y101576D01*
X535551Y102766D01*
X537234Y104449D01*
X540127Y104380D01*
X552253Y92253D01*
X553513Y91411D01*
X555000Y91115D01*
X578127D01*
X579266Y89142D01*
X581042Y87366D01*
X583218Y86110D01*
X585644Y85460D01*
X588156D01*
X590582Y86110D01*
X592758Y87366D01*
X594534Y89142D01*
X595790Y91318D01*
X596440Y93744D01*
Y96256D01*
X595790Y98682D01*
X594534Y100858D01*
X592758Y102634D01*
X590582Y103890D01*
X588156Y104540D01*
X585644D01*
X583218Y103890D01*
X581042Y102634D01*
X579266Y100858D01*
X578127Y98885D01*
X556609D01*
X543057Y112437D01*
X541797Y113279D01*
X540310Y113575D01*
X538375D01*
X537234Y115551D01*
X535551Y117234D01*
X533489Y118424D01*
X532514Y118685D01*
Y121315D01*
X533489Y121576D01*
X535551Y122766D01*
X537234Y124449D01*
X538196Y126115D01*
X571900D01*
X573387Y126411D01*
X574647Y127253D01*
X583443Y136050D01*
X585644Y135460D01*
X588156D01*
X590582Y136110D01*
X592758Y137366D01*
X594534Y139142D01*
X595790Y141318D01*
X596440Y143744D01*
Y146256D01*
X595790Y148682D01*
X594534Y150858D01*
X592758Y152634D01*
X590582Y153890D01*
X588156Y154540D01*
X585644D01*
X583218Y153890D01*
X581042Y152634D01*
X579266Y150858D01*
X578010Y148682D01*
X577360Y146256D01*
Y143744D01*
X577950Y141543D01*
X570291Y133885D01*
X538196D01*
X537234Y135551D01*
X535818Y136967D01*
X535700Y138348D01*
X535915Y139956D01*
X536625Y140366D01*
X538634Y142375D01*
X540055Y144835D01*
X540790Y147579D01*
Y150421D01*
X540055Y153165D01*
X538634Y155625D01*
X536625Y157634D01*
X534165Y159055D01*
X531421Y159790D01*
D02*
G37*
G36*
X158340Y124540D02*
X145070D01*
Y111270D01*
X158340D01*
Y124540D01*
D02*
G37*
G36*
X142530D02*
X129260D01*
Y111270D01*
X142530D01*
Y124540D01*
D02*
G37*
G36*
X291270Y113501D02*
Y106270D01*
X298501D01*
X297958Y108296D01*
X296834Y110244D01*
X295244Y111834D01*
X293296Y112958D01*
X291270Y113501D01*
D02*
G37*
G36*
X288730D02*
X286704Y112958D01*
X284756Y111834D01*
X283166Y110244D01*
X282042Y108296D01*
X281499Y106270D01*
X288730D01*
Y113501D01*
D02*
G37*
G36*
X298501Y103730D02*
X291270D01*
Y96499D01*
X293296Y97042D01*
X295244Y98166D01*
X296834Y99756D01*
X297958Y101704D01*
X298501Y103730D01*
D02*
G37*
G36*
X288730D02*
X281499D01*
X282042Y101704D01*
X283166Y99756D01*
X284756Y98166D01*
X286704Y97042D01*
X288730Y96499D01*
Y103730D01*
D02*
G37*
G36*
X158340Y108730D02*
X145070D01*
Y95460D01*
X158340D01*
Y108730D01*
D02*
G37*
G36*
X142530D02*
X129260D01*
Y95460D01*
X142530D01*
Y108730D01*
D02*
G37*
G36*
X245000Y274201D02*
X240083Y273717D01*
X235356Y272283D01*
X230999Y269954D01*
X227180Y266820D01*
X224046Y263001D01*
X221717Y258644D01*
X220283Y253917D01*
X219799Y249000D01*
Y225439D01*
X202180Y207820D01*
X199046Y204001D01*
X196717Y199644D01*
X195283Y194917D01*
X194799Y190000D01*
Y110000D01*
X195283Y105084D01*
X196717Y100356D01*
X199046Y95999D01*
X202180Y92180D01*
X205999Y89046D01*
X210356Y86717D01*
X215083Y85283D01*
X220000Y84799D01*
X224916Y85283D01*
X229644Y86717D01*
X234001Y89046D01*
X237820Y92180D01*
X240954Y95999D01*
X243283Y100356D01*
X244717Y105084D01*
X245201Y110000D01*
Y179561D01*
X262820Y197180D01*
X265954Y200999D01*
X268283Y205356D01*
X269717Y210084D01*
X270201Y215000D01*
Y249000D01*
X269717Y253917D01*
X268283Y258644D01*
X265954Y263001D01*
X262820Y266820D01*
X259001Y269954D01*
X254644Y272283D01*
X249916Y273717D01*
X245000Y274201D01*
D02*
G37*
G36*
X398822Y92540D02*
X398770D01*
Y83770D01*
X407540D01*
Y83822D01*
X406856Y86375D01*
X405534Y88665D01*
X403665Y90534D01*
X401375Y91856D01*
X398822Y92540D01*
D02*
G37*
G36*
X396230D02*
X396178D01*
X393625Y91856D01*
X391335Y90534D01*
X389466Y88665D01*
X388144Y86375D01*
X387460Y83822D01*
Y83770D01*
X396230D01*
Y92540D01*
D02*
G37*
G36*
X333822D02*
X333770D01*
Y83770D01*
X342540D01*
Y83822D01*
X341856Y86375D01*
X340534Y88665D01*
X338665Y90534D01*
X336375Y91856D01*
X333822Y92540D01*
D02*
G37*
G36*
X331230D02*
X331178D01*
X328625Y91856D01*
X326335Y90534D01*
X324466Y88665D01*
X323144Y86375D01*
X322460Y83822D01*
Y83770D01*
X331230D01*
Y92540D01*
D02*
G37*
G36*
X407540Y81230D02*
X398770D01*
Y72460D01*
X398822D01*
X401375Y73144D01*
X403665Y74466D01*
X405534Y76335D01*
X406856Y78625D01*
X407540Y81178D01*
Y81230D01*
D02*
G37*
G36*
X396230D02*
X387460D01*
Y81178D01*
X388144Y78625D01*
X389466Y76335D01*
X391335Y74466D01*
X393625Y73144D01*
X396178Y72460D01*
X396230D01*
Y81230D01*
D02*
G37*
G36*
X342540D02*
X333770D01*
Y72460D01*
X333822D01*
X336375Y73144D01*
X338665Y74466D01*
X340534Y76335D01*
X341856Y78625D01*
X342540Y81178D01*
Y81230D01*
D02*
G37*
G36*
X331230D02*
X322460D01*
Y81178D01*
X323144Y78625D01*
X324466Y76335D01*
X326335Y74466D01*
X328625Y73144D01*
X331178Y72460D01*
X331230D01*
Y81230D01*
D02*
G37*
G36*
X389022Y243140D02*
X386378D01*
X383825Y242456D01*
X381535Y241134D01*
X379666Y239265D01*
X378344Y236975D01*
X377660Y234422D01*
Y231778D01*
X378344Y229225D01*
X379666Y226935D01*
X381535Y225066D01*
X383825Y223744D01*
X386378Y223060D01*
X389022D01*
X391565Y223741D01*
X449615Y165691D01*
Y57009D01*
X433457Y40850D01*
X431256Y41440D01*
X428744D01*
X426318Y40790D01*
X424533Y39760D01*
X424046Y40247D01*
X422785Y41089D01*
X421299Y41385D01*
X406850D01*
X405534Y43665D01*
X403665Y45534D01*
X401375Y46856D01*
X398822Y47540D01*
X396178D01*
X393625Y46856D01*
X391335Y45534D01*
X389466Y43665D01*
X388150Y41385D01*
X341850D01*
X340534Y43665D01*
X338665Y45534D01*
X336375Y46856D01*
X333822Y47540D01*
X331178D01*
X328625Y46856D01*
X326335Y45534D01*
X324466Y43665D01*
X323144Y41375D01*
X322460Y38822D01*
Y36178D01*
X323144Y33625D01*
X324466Y31335D01*
X326335Y29466D01*
X328625Y28144D01*
X331178Y27460D01*
X333822D01*
X336375Y28144D01*
X338665Y29466D01*
X340534Y31335D01*
X341850Y33615D01*
X388150D01*
X389466Y31335D01*
X391335Y29466D01*
X393625Y28144D01*
X396178Y27460D01*
X398822D01*
X401375Y28144D01*
X403665Y29466D01*
X405534Y31335D01*
X406850Y33615D01*
X419690D01*
X420460Y32845D01*
Y30644D01*
X421110Y28218D01*
X422366Y26042D01*
X424142Y24266D01*
X426318Y23010D01*
X428744Y22360D01*
X431256D01*
X433682Y23010D01*
X435858Y24266D01*
X437634Y26042D01*
X438890Y28218D01*
X439540Y30644D01*
Y33156D01*
X438950Y35357D01*
X456247Y52653D01*
X457089Y53913D01*
X457385Y55400D01*
Y167300D01*
X457089Y168787D01*
X456247Y170047D01*
X405580Y220713D01*
X406552Y223060D01*
X411830D01*
Y231830D01*
X403060D01*
Y226552D01*
X400713Y225580D01*
X397059Y229235D01*
X397740Y231778D01*
Y234422D01*
X397056Y236975D01*
X395734Y239265D01*
X393865Y241134D01*
X391575Y242456D01*
X389022Y243140D01*
D02*
G37*
G36*
X843501Y46230D02*
X836270D01*
Y38999D01*
X838296Y39542D01*
X840244Y40666D01*
X841834Y42256D01*
X842958Y44204D01*
X843501Y46230D01*
D02*
G37*
G36*
X833730D02*
X826499D01*
X827042Y44204D01*
X828166Y42256D01*
X829756Y40666D01*
X831704Y39542D01*
X833730Y38999D01*
Y46230D01*
D02*
G37*
G36*
X539040Y59040D02*
X520960D01*
Y40960D01*
X521109D01*
X522161Y38420D01*
X521366Y37625D01*
X519945Y35165D01*
X519210Y32420D01*
Y29580D01*
X519945Y26835D01*
X521366Y24375D01*
X523375Y22366D01*
X525835Y20945D01*
X528579Y20210D01*
X531421D01*
X534165Y20945D01*
X536625Y22366D01*
X538634Y24375D01*
X540055Y26835D01*
X540790Y29580D01*
Y32420D01*
X540055Y35165D01*
X538634Y37625D01*
X537839Y38420D01*
X538891Y40960D01*
X539040D01*
Y41115D01*
X578127D01*
X579266Y39142D01*
X581042Y37366D01*
X583218Y36110D01*
X585644Y35460D01*
X588156D01*
X590582Y36110D01*
X592758Y37366D01*
X594534Y39142D01*
X595790Y41318D01*
X596440Y43744D01*
Y46256D01*
X595790Y48682D01*
X594534Y50858D01*
X592758Y52634D01*
X590582Y53890D01*
X588156Y54540D01*
X585644D01*
X583218Y53890D01*
X581042Y52634D01*
X579266Y50858D01*
X578127Y48885D01*
X539040D01*
Y59040D01*
D02*
G37*
G36*
X912561Y72540D02*
X907439D01*
X902380Y71739D01*
X897509Y70156D01*
X892945Y67831D01*
X888802Y64820D01*
X885180Y61198D01*
X882169Y57055D01*
X879844Y52491D01*
X878261Y47620D01*
X877460Y42561D01*
Y37439D01*
X878261Y32380D01*
X879844Y27509D01*
X882169Y22945D01*
X885180Y18802D01*
X888802Y15180D01*
X892945Y12169D01*
X897509Y9844D01*
X902380Y8261D01*
X907439Y7460D01*
X912561D01*
X917620Y8261D01*
X922491Y9844D01*
X927055Y12169D01*
X931198Y15180D01*
X934820Y18802D01*
X937831Y22945D01*
X940156Y27509D01*
X941739Y32380D01*
X942540Y37439D01*
Y42561D01*
X941739Y47620D01*
X940156Y52491D01*
X937831Y57055D01*
X934820Y61198D01*
X931198Y64820D01*
X927055Y67831D01*
X922491Y70156D01*
X917620Y71739D01*
X912561Y72540D01*
D02*
G37*
G36*
X42561D02*
X37439D01*
X32380Y71739D01*
X27509Y70156D01*
X22945Y67831D01*
X18802Y64820D01*
X15180Y61198D01*
X12169Y57055D01*
X9844Y52491D01*
X8261Y47620D01*
X7460Y42561D01*
Y37439D01*
X8261Y32380D01*
X9844Y27509D01*
X12169Y22945D01*
X15180Y18802D01*
X18802Y15180D01*
X22945Y12169D01*
X27509Y9844D01*
X32380Y8261D01*
X37439Y7460D01*
X42561D01*
X47620Y8261D01*
X52491Y9844D01*
X57055Y12169D01*
X61198Y15180D01*
X64820Y18802D01*
X67831Y22945D01*
X70156Y27509D01*
X71739Y32380D01*
X72540Y37439D01*
Y42561D01*
X71739Y47620D01*
X70156Y52491D01*
X67831Y57055D01*
X64820Y61198D01*
X61198Y64820D01*
X57055Y67831D01*
X52491Y70156D01*
X47620Y71739D01*
X42561Y72540D01*
D02*
G37*
%LPD*%
D15*
X751250Y361250D02*
X790000Y400000D01*
X731900Y257300D02*
X751250Y276650D01*
Y361250D01*
X430000Y31900D02*
X453500Y55400D01*
Y167300D01*
X387700Y233100D02*
X453500Y167300D01*
X900000Y95500D02*
Y150000D01*
X864350Y59850D02*
X900000Y95500D01*
X820350Y59850D02*
X864350D01*
X810500Y50000D02*
X820350Y59850D01*
X785000Y50000D02*
X810500D01*
X800000Y698100D02*
X840000D01*
X933100D01*
X790000Y611900D02*
X800000Y621900D01*
X790000Y400000D02*
Y611900D01*
X900000Y820000D02*
X930000D01*
X940000Y810000D01*
Y705000D02*
Y810000D01*
X933100Y698100D02*
X940000Y705000D01*
X785000Y110000D02*
X797500D01*
X835000Y72500D01*
X785000Y130000D02*
X792500Y122500D01*
X835000D01*
X770000Y90000D02*
X785000D01*
X755000Y105000D02*
X770000Y90000D01*
X740000Y495000D02*
X740000D01*
X765000Y470000D01*
Y415000D02*
Y470000D01*
X705000Y355000D02*
X765000Y415000D01*
X705000Y290000D02*
Y355000D01*
Y290000D02*
X712300Y282700D01*
X731900D01*
X838100Y231900D02*
X840000Y230000D01*
X808100Y231900D02*
X838100D01*
X790000Y239200D02*
X808100Y257300D01*
X790000Y205000D02*
Y239200D01*
X755000Y170000D02*
X790000Y205000D01*
X755000Y105000D02*
Y170000D01*
X530000Y50000D02*
X535000Y45000D01*
X586900D01*
X530000Y110000D02*
X530310Y109690D01*
X540310D01*
X555000Y95000D01*
X586900D01*
X530000Y130000D02*
X571900D01*
X586900Y145000D01*
X736810Y441810D02*
X740000Y445000D01*
X619940Y441810D02*
X736810D01*
X618130Y440000D02*
X619940Y441810D01*
X715000Y545000D02*
X740000D01*
X705000Y555000D02*
X715000Y545000D01*
X618130Y555000D02*
X705000D01*
X541870Y440000D02*
Y555000D01*
X531900Y440000D02*
X541870D01*
X505000Y466900D02*
X531900Y440000D01*
X362300Y156900D02*
X387700D01*
X426899Y31900D02*
X430000D01*
X421299Y37500D02*
X426899Y31900D01*
X397500Y37500D02*
X421299D01*
X332500D02*
X397500D01*
X291900Y156900D02*
X336900D01*
X290000Y155000D02*
X291900Y156900D01*
D17*
X835000Y122500D02*
D03*
Y72500D02*
D03*
X290000Y155000D02*
D03*
X335000Y280000D02*
D03*
X840000Y310000D02*
D03*
D18*
X835000Y147500D02*
D03*
Y47500D02*
D03*
X541870Y555000D02*
D03*
X618130Y440000D02*
D03*
X290000Y105000D02*
D03*
X890000Y230000D02*
D03*
X335000Y330000D02*
D03*
X840000Y360000D02*
D03*
D21*
X177500Y390000D02*
D03*
X502500Y290000D02*
D03*
D22*
X102500Y390000D02*
D03*
X577500Y290000D02*
D03*
D25*
X618130Y555000D02*
D03*
X541870Y440000D02*
D03*
X840000Y230000D02*
D03*
D36*
X900000Y769200D02*
D03*
Y794600D02*
D03*
D37*
Y820000D02*
D03*
D39*
X192750Y299750D02*
X300250D01*
X319000Y281000D01*
X102500Y390000D02*
X192750Y299750D01*
X500000Y180000D02*
X660000D01*
X400000Y280000D02*
X500000Y180000D01*
X365000Y280000D02*
X400000D01*
X660000Y180000D02*
X663100Y176900D01*
X787143Y307143D02*
X807143D01*
X770000Y290000D02*
X787143Y307143D01*
X400000Y190000D02*
X412143Y177857D01*
X336900Y208100D02*
X355000Y190000D01*
X400000D01*
X412143Y157857D02*
Y177857D01*
Y157857D02*
X413100Y156900D01*
X838100Y308100D02*
X840000Y310000D01*
X808100Y308100D02*
X838100D01*
X807143Y307143D02*
X808100Y308100D01*
X770000Y220000D02*
Y290000D01*
X726900Y176900D02*
X770000Y220000D01*
X663100Y176900D02*
X726900D01*
X663100Y45000D02*
Y95000D01*
Y145000D01*
Y176900D01*
X473100Y543100D02*
X505000D01*
X445000Y515000D02*
X473100Y543100D01*
X445000Y360000D02*
Y515000D01*
X365000Y280000D02*
X445000Y360000D01*
X335000Y280000D02*
X365000D01*
X413100Y113958D02*
Y156900D01*
X429235Y108865D02*
X430000Y108100D01*
X418192Y108865D02*
X429235D01*
X413100Y113958D02*
X418192Y108865D01*
X336900Y208100D02*
Y233100D01*
Y234453D01*
X335000Y236353D02*
X336900Y234453D01*
X335000Y236353D02*
Y280000D01*
X334000Y281000D02*
X335000Y280000D01*
X319000Y281000D02*
X334000D01*
D40*
X660000Y730400D02*
Y890000D01*
X540000Y730400D02*
X545000Y735400D01*
Y890000D01*
X420000Y730400D02*
X430000Y740400D01*
Y890000D01*
X320000Y730400D02*
Y890000D01*
Y730400D02*
X420000D01*
X540000D02*
X660000D01*
X420000D02*
X540000D01*
X285000D02*
X320000D01*
X175400D02*
X285000D01*
X102500Y657500D02*
X175400Y730400D01*
X102500Y390000D02*
Y657500D01*
Y390000D02*
X110300Y382200D01*
Y249000D02*
Y382200D01*
Y215000D02*
Y249000D01*
X245000Y215000D02*
Y249000D01*
X220000Y190000D02*
X245000Y215000D01*
X220000Y110000D02*
Y190000D01*
D41*
X660000Y679600D02*
D03*
X540000D02*
D03*
X420000D02*
D03*
X285000D02*
D03*
D42*
X660000Y730400D02*
D03*
X540000D02*
D03*
X420000D02*
D03*
X285000D02*
D03*
D43*
X808100Y231900D02*
D03*
Y257300D02*
D03*
Y282700D02*
D03*
Y308100D02*
D03*
X731900Y231900D02*
D03*
Y257300D02*
D03*
Y282700D02*
D03*
X336900Y156900D02*
D03*
X362300D02*
D03*
X387700D02*
D03*
X413100D02*
D03*
X336900Y233100D02*
D03*
X362300D02*
D03*
X387700D02*
D03*
X332500Y82500D02*
D03*
Y37500D02*
D03*
X397500Y82500D02*
D03*
Y37500D02*
D03*
D44*
X731900Y308100D02*
D03*
D45*
X785000Y50000D02*
D03*
X530000D02*
D03*
D46*
X785000Y90000D02*
D03*
Y110000D02*
D03*
Y130000D02*
D03*
X530000Y90000D02*
D03*
Y110000D02*
D03*
Y130000D02*
D03*
X920000Y150000D02*
D03*
D47*
X785000Y31000D02*
D03*
Y149000D02*
D03*
X530000Y31000D02*
D03*
Y149000D02*
D03*
D48*
X586900Y45000D02*
D03*
X663100D02*
D03*
X586900Y95000D02*
D03*
X663100D02*
D03*
X586900Y145000D02*
D03*
X663100D02*
D03*
X430000Y108100D02*
D03*
Y31900D02*
D03*
X505000Y543100D02*
D03*
Y466900D02*
D03*
X800000Y621900D02*
D03*
Y698100D02*
D03*
X840000Y621900D02*
D03*
Y698100D02*
D03*
D49*
X413100Y233100D02*
D03*
D50*
X660000Y890000D02*
D03*
X625000D02*
D03*
X545000D02*
D03*
X510000D02*
D03*
X430000D02*
D03*
X395000D02*
D03*
X320000D02*
D03*
X285000D02*
D03*
D51*
X245000Y215000D02*
D03*
Y249000D02*
D03*
X110300D02*
D03*
Y215000D02*
D03*
X220000Y110000D02*
D03*
D52*
X143800D02*
D03*
D53*
X900000Y150000D02*
D03*
D54*
X740000Y445000D02*
D03*
Y495000D02*
D03*
Y545000D02*
D03*
D55*
X910000Y40000D02*
D03*
X40000D02*
D03*
X840000Y910000D02*
D03*
X40000D02*
D03*
M02*
