G04*
G04 #@! TF.GenerationSoftware,Altium Limited,Altium Designer,26.2.0 (7)*
G04*
G04 Layer_Color=8388736*
%FSLAX44Y44*%
%MOMM*%
G71*
G04*
G04 #@! TF.SameCoordinates,EF66C442-CE4D-47CB-B162-2981B1276574*
G04*
G04*
G04 #@! TF.FilePolarity,Negative*
G04*
G01*
G75*
%ADD17R,2.0182X2.0182*%
%ADD18C,2.0182*%
%ADD19R,1.2000X1.2000*%
%ADD20C,1.2000*%
%ADD21C,1.8032*%
%ADD22R,1.8032X1.8032*%
%ADD23R,1.5500X1.5500*%
%ADD24C,1.5500*%
%ADD25C,1.7032*%
%ADD26R,1.7032X1.7032*%
%ADD27R,1.2000X1.2000*%
%ADD28R,1.5032X1.5032*%
%ADD29C,1.5032*%
%ADD30C,1.8532*%
%ADD31C,1.6032*%
%ADD32R,1.7032X1.7032*%
%ADD33C,2.1532*%
%ADD34C,2.6032*%
%ADD35R,2.6032X2.6032*%
G04:AMPARAMS|DCode=36|XSize=1.5032mm|YSize=1.5032mm|CornerRadius=0.4266mm|HoleSize=0mm|Usage=FLASHONLY|Rotation=180.000|XOffset=0mm|YOffset=0mm|HoleType=Round|Shape=RoundedRectangle|*
%AMROUNDEDRECTD36*
21,1,1.5032,0.6500,0,0,180.0*
21,1,0.6500,1.5032,0,0,180.0*
1,1,0.8532,-0.3250,0.3250*
1,1,0.8532,0.3250,0.3250*
1,1,0.8532,0.3250,-0.3250*
1,1,0.8532,-0.3250,-0.3250*
%
%ADD36ROUNDEDRECTD36*%
%ADD37O,2.4032X2.3032*%
%ADD38C,6.2032*%
D17*
X899500Y820050D02*
D03*
D18*
Y794650D02*
D03*
Y769250D02*
D03*
D19*
X835000Y122500D02*
D03*
Y72500D02*
D03*
X290000Y155000D02*
D03*
X335000Y280000D02*
D03*
X840000Y310000D02*
D03*
D20*
X835000Y147500D02*
D03*
Y47500D02*
D03*
X541870Y555000D02*
D03*
X618130Y440000D02*
D03*
X290000Y105000D02*
D03*
X890000Y230000D02*
D03*
X335000Y330000D02*
D03*
X840000Y360000D02*
D03*
D21*
X660000Y679600D02*
D03*
X540000D02*
D03*
X420000D02*
D03*
X285000D02*
D03*
D22*
X660000Y730400D02*
D03*
X540000D02*
D03*
X420000D02*
D03*
X285000D02*
D03*
D23*
X177500Y390000D02*
D03*
X502500Y290000D02*
D03*
D24*
X102500Y390000D02*
D03*
X577500Y290000D02*
D03*
D25*
X808100Y231900D02*
D03*
Y257300D02*
D03*
Y282700D02*
D03*
Y308100D02*
D03*
X731900Y231900D02*
D03*
Y257300D02*
D03*
Y282700D02*
D03*
X336900Y156900D02*
D03*
X362300D02*
D03*
X387700D02*
D03*
X413100D02*
D03*
X336900Y233100D02*
D03*
X362300D02*
D03*
X387700D02*
D03*
X332500Y82500D02*
D03*
Y37500D02*
D03*
X397500Y82500D02*
D03*
Y37500D02*
D03*
D26*
X731900Y308100D02*
D03*
D27*
X618130Y555000D02*
D03*
X541870Y440000D02*
D03*
X840000Y230000D02*
D03*
D28*
X785000Y50000D02*
D03*
X530000D02*
D03*
D29*
X785000Y90000D02*
D03*
Y110000D02*
D03*
Y130000D02*
D03*
X530000Y90000D02*
D03*
Y110000D02*
D03*
Y130000D02*
D03*
X920000Y150000D02*
D03*
D30*
X785000Y31000D02*
D03*
Y149000D02*
D03*
X530000Y31000D02*
D03*
Y149000D02*
D03*
D31*
X586900Y45000D02*
D03*
X663100D02*
D03*
X586900Y95000D02*
D03*
X663100D02*
D03*
X586900Y145000D02*
D03*
X663100D02*
D03*
X430000Y108100D02*
D03*
Y31900D02*
D03*
X505000Y543100D02*
D03*
Y466900D02*
D03*
X800000Y621900D02*
D03*
Y698100D02*
D03*
X840000Y621900D02*
D03*
Y698100D02*
D03*
D32*
X413100Y233100D02*
D03*
D33*
X660000Y890000D02*
D03*
X625000D02*
D03*
X545000D02*
D03*
X510000D02*
D03*
X430000D02*
D03*
X395000D02*
D03*
X320000D02*
D03*
X285000D02*
D03*
D34*
X245000Y215000D02*
D03*
Y249000D02*
D03*
X110300D02*
D03*
Y215000D02*
D03*
X220000Y110000D02*
D03*
D35*
X143800D02*
D03*
D36*
X900000Y150000D02*
D03*
D37*
X740000Y445000D02*
D03*
Y495000D02*
D03*
Y545000D02*
D03*
D38*
X910000Y40000D02*
D03*
X40000D02*
D03*
X840000Y910000D02*
D03*
X40000D02*
D03*
M02*
