G04*
G04 #@! TF.GenerationSoftware,Altium Limited,Altium Designer,26.2.0 (7)*
G04*
G04 Layer_Color=65535*
%FSLAX44Y44*%
%MOMM*%
G71*
G04*
G04 #@! TF.SameCoordinates,2D8FE527-5C95-4938-8EC8-E0E4FE257E54*
G04*
G04*
G04 #@! TF.FilePolarity,Positive*
G04*
G01*
G75*
%ADD10C,0.2500*%
%ADD11C,0.1500*%
%ADD12C,0.6000*%
%ADD13C,0.2000*%
%ADD14C,0.1000*%
%ADD15C,0.2540*%
%ADD16C,0.1270*%
D10*
X661250Y763000D02*
G03*
X661250Y763000I-1250J0D01*
G01*
X541250D02*
G03*
X541250Y763000I-1250J0D01*
G01*
X421250D02*
G03*
X421250Y763000I-1250J0D01*
G01*
X286250D02*
G03*
X286250Y763000I-1250J0D01*
G01*
X733150Y321100D02*
G03*
X733150Y321100I-1250J0D01*
G01*
X427350Y233100D02*
G03*
X427350Y233100I-1250J0D01*
G01*
X901250Y852950D02*
G03*
X901250Y852950I-1250J0D01*
G01*
D11*
X222500Y390000D02*
G03*
X222500Y390000I-82500J0D01*
G01*
X622500Y290000D02*
G03*
X622500Y290000I-82500J0D01*
G01*
D12*
X756500Y311000D02*
G03*
X756500Y311000I-3000J0D01*
G01*
X419000Y211500D02*
G03*
X419000Y211500I-3000J0D01*
G01*
D13*
X763650Y321000D02*
G03*
X776350Y321000I6350J0D01*
G01*
X426000Y201350D02*
G03*
X426000Y188650I0J-6350D01*
G01*
X143800Y162000D02*
G03*
X143800Y161000I0J-500D01*
G01*
D02*
G03*
X143800Y162000I0J500D01*
G01*
D02*
G03*
X143800Y161000I0J-500D01*
G01*
X937500Y150000D02*
G03*
X937500Y150000I-27500J0D01*
G01*
X822500Y115000D02*
Y155000D01*
X844750D02*
X847500D01*
X822500D02*
X825250D01*
X847500Y115000D02*
Y155000D01*
X844750Y115000D02*
X847500D01*
X822500D02*
X825250D01*
X847500Y40000D02*
Y80000D01*
X822500Y40000D02*
X825250D01*
X844750D02*
X847500D01*
X822500D02*
Y80000D01*
X825250D01*
X844750D02*
X847500D01*
X681950Y653500D02*
Y756500D01*
X686950Y653500D02*
Y756500D01*
X637950Y653500D02*
Y756500D01*
Y653500D02*
X686950D01*
X637950Y756500D02*
X686950D01*
X561950Y653500D02*
Y756500D01*
X566950Y653500D02*
Y756500D01*
X517950Y653500D02*
Y756500D01*
Y653500D02*
X566950D01*
X517950Y756500D02*
X566950D01*
X441950Y653500D02*
Y756500D01*
X446950Y653500D02*
Y756500D01*
X397950Y653500D02*
Y756500D01*
Y653500D02*
X446950D01*
X397950Y756500D02*
X446950D01*
X306950Y653500D02*
Y756500D01*
X311950Y653500D02*
Y756500D01*
X262950Y653500D02*
Y756500D01*
Y653500D02*
X311950D01*
X262950Y756500D02*
X311950D01*
X209750Y348750D02*
Y431250D01*
X743500Y219000D02*
X796500D01*
X776350Y321000D02*
X796500D01*
X743500D02*
X763650D01*
X796500Y219000D02*
Y321000D01*
X743500Y219000D02*
Y321000D01*
X557200Y545450D02*
X602800D01*
X557200D02*
Y564550D01*
X602800D01*
Y545450D02*
Y564550D01*
X595000Y546450D02*
Y563550D01*
X602800Y555000D02*
X606800D01*
X553200D02*
X557200D01*
Y449550D02*
X602800D01*
Y430450D02*
Y449550D01*
X557200Y430450D02*
X602800D01*
X557200D02*
Y449550D01*
X565000Y431450D02*
Y448550D01*
X553200Y440000D02*
X557200D01*
X602800D02*
X606800D01*
X470250Y248750D02*
Y331250D01*
X767500Y29500D02*
X773000D01*
X767500D02*
Y150500D01*
X773000D01*
X797000D02*
X802500D01*
Y30000D02*
Y150500D01*
X795000Y29500D02*
X802500D01*
Y32000D01*
X650400Y45000D02*
X652686D01*
X597314D02*
X599600D01*
X650400Y37380D02*
Y45000D01*
X599600Y37380D02*
X650400D01*
X599600D02*
Y52620D01*
X650400D01*
Y45000D02*
Y52620D01*
Y95000D02*
X652686D01*
X597314D02*
X599600D01*
X650400Y87380D02*
Y95000D01*
X599600Y87380D02*
X650400D01*
X599600D02*
Y102620D01*
X650400D01*
Y95000D02*
Y102620D01*
Y145000D02*
X652686D01*
X597314D02*
X599600D01*
X650400Y137380D02*
Y145000D01*
X599600Y137380D02*
X650400D01*
X599600D02*
Y152620D01*
X650400D01*
Y145000D02*
Y152620D01*
X512500Y29500D02*
X518000D01*
X512500D02*
Y150500D01*
X518000D01*
X542000D02*
X547500D01*
Y30000D02*
Y150500D01*
X540000Y29500D02*
X547500D01*
Y32000D01*
X324000Y168500D02*
Y221500D01*
X426000Y168500D02*
Y188650D01*
Y201350D02*
Y221500D01*
X324000Y168500D02*
X426000D01*
X324000Y221500D02*
X426000D01*
X422380Y95400D02*
X430000D01*
X422380Y44600D02*
Y95400D01*
Y44600D02*
X437620D01*
Y95400D01*
X430000D02*
X437620D01*
X430000Y42314D02*
Y44600D01*
Y95400D02*
Y97686D01*
X607500Y850000D02*
X687500D01*
X607500D02*
Y924000D01*
X687500D01*
Y850000D02*
Y924000D01*
X492500Y850000D02*
X572500D01*
X492500D02*
Y924000D01*
X572500D01*
Y850000D02*
Y924000D01*
X377500Y850000D02*
X457500D01*
X377500D02*
Y924000D01*
X457500D01*
Y850000D02*
Y924000D01*
X267500Y850000D02*
X347500D01*
X267500D02*
Y924000D01*
X347500D01*
Y850000D02*
Y924000D01*
X99800Y31000D02*
Y156000D01*
Y31000D02*
X252200D01*
Y156000D01*
X99800D02*
X252200D01*
X338500Y91000D02*
X391500D01*
X334000Y48000D02*
Y72000D01*
X396000Y48000D02*
Y72000D01*
X338500Y29000D02*
X391500D01*
X299750Y150000D02*
X302500D01*
X277500D02*
X280250D01*
X277500Y110000D02*
Y150000D01*
X299750Y110000D02*
X302500D01*
X277500D02*
X280250D01*
X302500D02*
Y150000D01*
X845000Y239750D02*
Y242500D01*
Y217500D02*
Y220250D01*
Y217500D02*
X885000D01*
Y239750D02*
Y242500D01*
Y217500D02*
Y220250D01*
X845000Y242500D02*
X885000D01*
X322500Y285000D02*
X325250D01*
X344750D02*
X347500D01*
Y325000D01*
X322500D02*
X325250D01*
X344750D02*
X347500D01*
X322500Y285000D02*
Y325000D01*
X827500Y315000D02*
X830250D01*
X849750D02*
X852500D01*
Y355000D01*
X827500D02*
X830250D01*
X849750D02*
X852500D01*
X827500Y315000D02*
Y355000D01*
X497380Y530400D02*
X505000D01*
X497380Y479600D02*
Y530400D01*
Y479600D02*
X512620D01*
Y530400D01*
X505000D02*
X512620D01*
X505000Y477314D02*
Y479600D01*
Y530400D02*
Y532686D01*
X882050Y837280D02*
X930350Y847950D01*
Y741750D02*
Y847450D01*
X882050Y751920D02*
X930350Y741250D01*
X882050Y751920D02*
Y837280D01*
X800000Y634600D02*
X807620D01*
Y685400D01*
X792380D02*
X807620D01*
X792380Y634600D02*
Y685400D01*
Y634600D02*
X800000D01*
Y685400D02*
Y687686D01*
Y632314D02*
Y634600D01*
X840000D02*
X847620D01*
Y685400D01*
X832380D02*
X847620D01*
X832380Y634600D02*
Y685400D01*
Y634600D02*
X840000D01*
Y685400D02*
Y687686D01*
Y632314D02*
Y634600D01*
D14*
X762000Y50000D02*
G03*
X761000Y50000I-500J0D01*
G01*
D02*
G03*
X762000Y50000I500J0D01*
G01*
X507000D02*
G03*
X506000Y50000I-500J0D01*
G01*
D02*
G03*
X507000Y50000I500J0D01*
G01*
X694000Y890000D02*
G03*
X693000Y890000I-500J0D01*
G01*
D02*
G03*
X694000Y890000I500J0D01*
G01*
X579000D02*
G03*
X578000Y890000I-500J0D01*
G01*
D02*
G03*
X579000Y890000I500J0D01*
G01*
X464000D02*
G03*
X463000Y890000I-500J0D01*
G01*
D02*
G03*
X464000Y890000I500J0D01*
G01*
X354000D02*
G03*
X353000Y890000I-500J0D01*
G01*
D02*
G03*
X354000Y890000I500J0D01*
G01*
X78600Y198000D02*
X276700D01*
X78600D02*
Y265650D01*
X276700D01*
Y198000D02*
Y265650D01*
D15*
X655000Y410000D02*
X740000D01*
X655000D02*
Y580000D01*
X820000D01*
Y410000D02*
Y580000D01*
X740000Y410000D02*
X820000D01*
X839961Y176078D02*
X837422Y178617D01*
X832343D01*
X829804Y176078D01*
Y165922D01*
X832343Y163382D01*
X837422D01*
X839961Y165922D01*
X855196Y178617D02*
X850117Y176078D01*
X845039Y171000D01*
Y165922D01*
X847578Y163382D01*
X852657D01*
X855196Y165922D01*
Y168461D01*
X852657Y171000D01*
X845039D01*
X835461Y102328D02*
X832922Y104867D01*
X827843D01*
X825304Y102328D01*
Y92172D01*
X827843Y89633D01*
X832922D01*
X835461Y92172D01*
X840539Y104867D02*
X850696D01*
Y102328D01*
X840539Y92172D01*
Y89633D01*
X647304Y646367D02*
Y631133D01*
X654922D01*
X657461Y633672D01*
Y643828D01*
X654922Y646367D01*
X647304D01*
X672696D02*
X662539D01*
Y638750D01*
X667617Y641289D01*
X670157D01*
X672696Y638750D01*
Y633672D01*
X670157Y631133D01*
X665078D01*
X662539Y633672D01*
X527054Y645368D02*
Y630132D01*
X534672D01*
X537211Y632672D01*
Y642828D01*
X534672Y645368D01*
X527054D01*
X549907Y630132D02*
Y645368D01*
X542289Y637750D01*
X552446D01*
X409304Y645867D02*
Y630633D01*
X416922D01*
X419461Y633172D01*
Y643328D01*
X416922Y645867D01*
X409304D01*
X424539Y643328D02*
X427078Y645867D01*
X432157D01*
X434696Y643328D01*
Y640789D01*
X432157Y638250D01*
X429618D01*
X432157D01*
X434696Y635711D01*
Y633172D01*
X432157Y630633D01*
X427078D01*
X424539Y633172D01*
X275054Y645368D02*
Y630132D01*
X282672D01*
X285211Y632672D01*
Y642828D01*
X282672Y645368D01*
X275054D01*
X300446Y630132D02*
X290289D01*
X300446Y640289D01*
Y642828D01*
X297907Y645368D01*
X292828D01*
X290289Y642828D01*
X36172Y386461D02*
X33632Y383922D01*
Y378843D01*
X36172Y376304D01*
X46328D01*
X48868Y378843D01*
Y383922D01*
X46328Y386461D01*
Y391539D02*
X48868Y394078D01*
Y399157D01*
X46328Y401696D01*
X36172D01*
X33632Y399157D01*
Y394078D01*
X36172Y391539D01*
X38711D01*
X41250Y394078D01*
Y401696D01*
X718054Y347118D02*
Y334422D01*
X720593Y331883D01*
X725672D01*
X728211Y334422D01*
Y347118D01*
X743446Y331883D02*
X733289D01*
X743446Y342039D01*
Y344578D01*
X740907Y347118D01*
X735828D01*
X733289Y344578D01*
X567343Y587868D02*
Y572632D01*
X574961D01*
X577500Y575172D01*
Y585328D01*
X574961Y587868D01*
X567343D01*
X582578Y572632D02*
X587657D01*
X585117D01*
Y587868D01*
X582578Y585328D01*
X564804Y474367D02*
Y459132D01*
X572422D01*
X574961Y461672D01*
Y471828D01*
X572422Y474367D01*
X564804D01*
X590196D02*
X585117Y471828D01*
X580039Y466750D01*
Y461672D01*
X582578Y459132D01*
X587657D01*
X590196Y461672D01*
Y464211D01*
X587657Y466750D01*
X580039D01*
X536711Y392078D02*
X534172Y394618D01*
X529093D01*
X526554Y392078D01*
Y381922D01*
X529093Y379383D01*
X534172D01*
X536711Y381922D01*
X551946Y379383D02*
X541789D01*
X551946Y389539D01*
Y392078D01*
X549407Y394618D01*
X544328D01*
X541789Y392078D01*
X781093Y175578D02*
X778554Y178118D01*
X773476D01*
X770937Y175578D01*
Y173039D01*
X773476Y170500D01*
X778554D01*
X781093Y167961D01*
Y165422D01*
X778554Y162882D01*
X773476D01*
X770937Y165422D01*
X786172Y178118D02*
Y162882D01*
X791250Y167961D01*
X796328Y162882D01*
Y178118D01*
X801407Y175578D02*
X803946Y178118D01*
X809024D01*
X811563Y175578D01*
Y173039D01*
X809024Y170500D01*
X806485D01*
X809024D01*
X811563Y167961D01*
Y165422D01*
X809024Y162882D01*
X803946D01*
X801407Y165422D01*
X611804Y61883D02*
Y77118D01*
X619422D01*
X621961Y74578D01*
Y69500D01*
X619422Y66961D01*
X611804D01*
X616883D02*
X621961Y61883D01*
X634657D02*
Y77118D01*
X627039Y69500D01*
X637196D01*
X611804Y112382D02*
Y127618D01*
X619422D01*
X621961Y125078D01*
Y120000D01*
X619422Y117461D01*
X611804D01*
X616883D02*
X621961Y112382D01*
X627039Y125078D02*
X629578Y127618D01*
X634657D01*
X637196Y125078D01*
Y122539D01*
X634657Y120000D01*
X632118D01*
X634657D01*
X637196Y117461D01*
Y114922D01*
X634657Y112382D01*
X629578D01*
X627039Y114922D01*
X611304Y159633D02*
Y174867D01*
X618922D01*
X621461Y172328D01*
Y167250D01*
X618922Y164711D01*
X611304D01*
X616382D02*
X621461Y159633D01*
X636696D02*
X626539D01*
X636696Y169789D01*
Y172328D01*
X634157Y174867D01*
X629078D01*
X626539Y172328D01*
X464093Y165578D02*
X461554Y168118D01*
X456476D01*
X453937Y165578D01*
Y163039D01*
X456476Y160500D01*
X461554D01*
X464093Y157961D01*
Y155422D01*
X461554Y152882D01*
X456476D01*
X453937Y155422D01*
X469172Y168118D02*
Y152882D01*
X474250Y157961D01*
X479328Y152882D01*
Y168118D01*
X494563Y152882D02*
X484407D01*
X494563Y163039D01*
Y165578D01*
X492024Y168118D01*
X486946D01*
X484407Y165578D01*
X364343Y264867D02*
Y252172D01*
X366883Y249632D01*
X371961D01*
X374500Y252172D01*
Y264867D01*
X379578Y249632D02*
X384657D01*
X382118D01*
Y264867D01*
X379578Y262328D01*
X927460Y477540D02*
X912225D01*
Y485158D01*
X914764Y487697D01*
X919842D01*
X922382Y485158D01*
Y477540D01*
X912225Y492775D02*
X927460D01*
X922382Y497853D01*
X927460Y502932D01*
X912225D01*
X927460Y508010D02*
X912225D01*
X917303Y513088D01*
X912225Y518167D01*
X927460D01*
X687872Y70537D02*
X685206Y69205D01*
X682540Y66539D01*
Y63873D01*
X683873Y62540D01*
X686539D01*
X687872Y63873D01*
Y65206D01*
X686539Y66539D01*
X682540D01*
X690537Y69205D02*
X691870Y70537D01*
X694536D01*
X695869Y69205D01*
Y63873D01*
X694536Y62540D01*
X691870D01*
X690537Y63873D01*
Y69205D01*
X706532Y70537D02*
Y62540D01*
Y66539D01*
X711864D01*
Y70537D01*
Y62540D01*
X714530Y67872D02*
X719861D01*
X714530Y62540D01*
X719861D01*
X735856Y70537D02*
X730525D01*
Y66539D01*
X733190D01*
X730525D01*
Y62540D01*
X738522D02*
Y67872D01*
X741188Y70537D01*
X743854Y67872D01*
Y62540D01*
Y66539D01*
X738522D01*
X751851Y69205D02*
X750518Y70537D01*
X747852D01*
X746519Y69205D01*
Y67872D01*
X747852Y66539D01*
X750518D01*
X751851Y65206D01*
Y63873D01*
X750518Y62540D01*
X747852D01*
X746519Y63873D01*
X754517Y70537D02*
X759848D01*
X757183D01*
Y62540D01*
X687872Y87540D02*
X682540D01*
X687872Y92872D01*
Y94205D01*
X686539Y95537D01*
X683873D01*
X682540Y94205D01*
X695869Y95537D02*
X690537D01*
Y91539D01*
X693203Y92872D01*
X694536D01*
X695869Y91539D01*
Y88873D01*
X694536Y87540D01*
X691870D01*
X690537Y88873D01*
X706532Y95537D02*
Y87540D01*
Y91539D01*
X711864D01*
Y95537D01*
Y87540D01*
X714530Y92872D02*
X719861D01*
X714530Y87540D01*
X719861D01*
X730525Y95537D02*
Y87540D01*
X734523D01*
X735856Y88873D01*
Y94205D01*
X734523Y95537D01*
X730525D01*
X743854D02*
X738522D01*
Y87540D01*
X743854D01*
X738522Y91539D02*
X741188D01*
X751851Y95537D02*
X746519D01*
Y91539D01*
X749185D01*
X746519D01*
Y87540D01*
X682540Y112540D02*
X685206D01*
X683873D01*
Y120537D01*
X682540Y119205D01*
X697202Y120537D02*
Y112540D01*
Y116539D01*
X702533D01*
Y120537D01*
Y112540D01*
X705199Y117872D02*
X710531D01*
X705199Y112540D01*
X710531D01*
X726526Y119205D02*
X725193Y120537D01*
X722527D01*
X721194Y119205D01*
Y117872D01*
X722527Y116539D01*
X725193D01*
X726526Y115206D01*
Y113873D01*
X725193Y112540D01*
X722527D01*
X721194Y113873D01*
X729192Y120537D02*
Y112540D01*
X734523D01*
X741188Y120537D02*
X738522D01*
X737189Y119205D01*
Y113873D01*
X738522Y112540D01*
X741188D01*
X742521Y113873D01*
Y119205D01*
X741188Y120537D01*
X745186D02*
Y112540D01*
X747852Y115206D01*
X750518Y112540D01*
Y120537D01*
X687872Y145537D02*
X682540D01*
Y141539D01*
X685206D01*
X682540D01*
Y137540D01*
X690537D02*
Y145537D01*
X694536D01*
X695869Y144205D01*
Y141539D01*
X694536Y140206D01*
X690537D01*
X693203D02*
X695869Y137540D01*
X703866Y145537D02*
X698535D01*
Y137540D01*
X703866D01*
X698535Y141539D02*
X701201D01*
X711864Y138873D02*
Y144205D01*
X710531Y145537D01*
X707865D01*
X706532Y144205D01*
Y138873D01*
X707865Y137540D01*
X710531D01*
X709198Y140206D02*
X711864Y137540D01*
X710531D02*
X711864Y138873D01*
X714530Y145537D02*
Y138873D01*
X715863Y137540D01*
X718528D01*
X719861Y138873D01*
Y145537D01*
X727859D02*
X722527D01*
Y137540D01*
X727859D01*
X722527Y141539D02*
X725193D01*
X730525Y137540D02*
Y145537D01*
X735856Y137540D01*
Y145537D01*
X743854Y144205D02*
X742521Y145537D01*
X739855D01*
X738522Y144205D01*
Y138873D01*
X739855Y137540D01*
X742521D01*
X743854Y138873D01*
X746519Y145537D02*
Y144205D01*
X749185Y141539D01*
X751851Y144205D01*
Y145537D01*
X749185Y141539D02*
Y137540D01*
X437540Y145537D02*
Y137540D01*
X440206Y140206D01*
X442872Y137540D01*
Y145537D01*
X449536D02*
X446870D01*
X445537Y144205D01*
Y138873D01*
X446870Y137540D01*
X449536D01*
X450869Y138873D01*
Y144205D01*
X449536Y145537D01*
X453535Y137540D02*
Y145537D01*
X457534D01*
X458866Y144205D01*
Y141539D01*
X457534Y140206D01*
X453535D01*
X456201D02*
X458866Y137540D01*
X461532Y145537D02*
Y137540D01*
Y140206D01*
X466864Y145537D01*
X462865Y141539D01*
X466864Y137540D01*
X477527Y145537D02*
X482859D01*
X480193D01*
Y137540D01*
X485524Y145537D02*
X488190D01*
X486857D01*
Y137540D01*
X485524D01*
X488190D01*
X492189D02*
Y145537D01*
X494855Y142872D01*
X497521Y145537D01*
Y137540D01*
X505518Y145537D02*
X500187D01*
Y137540D01*
X505518D01*
X500187Y141539D02*
X502852D01*
X462540Y69205D02*
X463873Y70537D01*
X466539D01*
X467872Y69205D01*
Y67872D01*
X466539Y66539D01*
X465206D01*
X466539D01*
X467872Y65206D01*
Y63873D01*
X466539Y62540D01*
X463873D01*
X462540Y63873D01*
X478535Y62540D02*
Y67872D01*
X479868D01*
X481201Y66539D01*
Y62540D01*
Y66539D01*
X482534Y67872D01*
X483866Y66539D01*
Y62540D01*
X486532D02*
X489198D01*
X487865D01*
Y67872D01*
X486532D01*
X493197Y62540D02*
Y67872D01*
X497196D01*
X498528Y66539D01*
Y62540D01*
X467872Y95537D02*
X462540D01*
Y91539D01*
X465206Y92872D01*
X466539D01*
X467872Y91539D01*
Y88873D01*
X466539Y87540D01*
X463873D01*
X462540Y88873D01*
X478535Y87540D02*
Y92872D01*
X479868D01*
X481201Y91539D01*
Y87540D01*
Y91539D01*
X482534Y92872D01*
X483866Y91539D01*
Y87540D01*
X486532D02*
X489198D01*
X487865D01*
Y92872D01*
X486532D01*
X493197Y87540D02*
Y92872D01*
X497196D01*
X498528Y91539D01*
Y87540D01*
X462540Y112540D02*
X465206D01*
X463873D01*
Y120537D01*
X462540Y119205D01*
X469204D02*
X470537Y120537D01*
X473203D01*
X474536Y119205D01*
Y113873D01*
X473203Y112540D01*
X470537D01*
X469204Y113873D01*
Y119205D01*
X485199Y112540D02*
Y117872D01*
X486532D01*
X487865Y116539D01*
Y112540D01*
Y116539D01*
X489198Y117872D01*
X490531Y116539D01*
Y112540D01*
X493197D02*
X495863D01*
X494530D01*
Y117872D01*
X493197D01*
X499861Y112540D02*
Y117872D01*
X503860D01*
X505193Y116539D01*
Y112540D01*
X337697Y20236D02*
X335158Y22775D01*
X330079D01*
X327540Y20236D01*
Y17697D01*
X330079Y15158D01*
X335158D01*
X337697Y12618D01*
Y10079D01*
X335158Y7540D01*
X330079D01*
X327540Y10079D01*
X342775Y22775D02*
X352932D01*
X347853D01*
Y7540D01*
X358010D02*
Y17697D01*
X363088Y22775D01*
X368167Y17697D01*
Y7540D01*
Y15158D01*
X358010D01*
X373245Y7540D02*
Y22775D01*
X380863D01*
X383402Y20236D01*
Y15158D01*
X380863Y12618D01*
X373245D01*
X378324D02*
X383402Y7540D01*
X388480Y22775D02*
X398637D01*
X393559D01*
Y7540D01*
X617540Y942540D02*
X627697D01*
X507540D02*
X517697D01*
X392540D02*
X402697D01*
X282540D02*
X292697D01*
X657540Y942618D02*
X667697D01*
X662618Y947697D02*
Y937540D01*
X542540Y942618D02*
X552697D01*
X547618Y947697D02*
Y937540D01*
X427540Y942618D02*
X437697D01*
X432618Y947697D02*
Y937540D01*
X317540Y942618D02*
X327697D01*
X322618Y947697D02*
Y937540D01*
X212540Y12618D02*
X222697D01*
X217618Y17697D02*
Y7540D01*
X132540Y12540D02*
X142697D01*
X656336Y607817D02*
Y597660D01*
X661414Y592582D01*
X666493Y597660D01*
Y607817D01*
X671571Y592582D02*
Y607817D01*
X679189D01*
X681728Y605278D01*
Y600200D01*
X679189Y597660D01*
X671571D01*
X676649D02*
X681728Y592582D01*
X686806D02*
X691885D01*
X689345D01*
Y607817D01*
X686806Y605278D01*
X335531Y113534D02*
X332991Y116073D01*
X327913D01*
X325374Y113534D01*
Y110995D01*
X327913Y108455D01*
X332991D01*
X335531Y105916D01*
Y103377D01*
X332991Y100838D01*
X327913D01*
X325374Y103377D01*
X340609Y116073D02*
Y100838D01*
X345687Y105916D01*
X350766Y100838D01*
Y116073D01*
X355844Y100838D02*
X360923D01*
X358383D01*
Y116073D01*
X355844Y113534D01*
X833882Y713740D02*
Y728975D01*
X841499D01*
X844039Y726436D01*
Y721357D01*
X841499Y718818D01*
X833882D01*
X838960D02*
X844039Y713740D01*
X849117Y728975D02*
X859274D01*
Y726436D01*
X849117Y716279D01*
Y713740D01*
X794004D02*
Y728975D01*
X801621D01*
X804161Y726436D01*
Y721357D01*
X801621Y718818D01*
X794004D01*
X799082D02*
X804161Y713740D01*
X819396Y728975D02*
X814317Y726436D01*
X809239Y721357D01*
Y716279D01*
X811778Y713740D01*
X816857D01*
X819396Y716279D01*
Y718818D01*
X816857Y721357D01*
X809239D01*
X498856Y558800D02*
Y574035D01*
X506474D01*
X509013Y571496D01*
Y566418D01*
X506474Y563878D01*
X498856D01*
X503934D02*
X509013Y558800D01*
X524248Y574035D02*
X514091D01*
Y566418D01*
X519169Y568957D01*
X521709D01*
X524248Y566418D01*
Y561339D01*
X521709Y558800D01*
X516630D01*
X514091Y561339D01*
X439843Y7383D02*
Y22617D01*
X447461D01*
X450000Y20078D01*
Y15000D01*
X447461Y12461D01*
X439843D01*
X444922D02*
X450000Y7383D01*
X455078D02*
X460157D01*
X457618D01*
Y22617D01*
X455078Y20078D01*
X892807Y865631D02*
Y875788D01*
X890267Y878327D01*
X885189D01*
X882650Y875788D01*
Y865631D01*
X885189Y863092D01*
X890267D01*
X887728Y868170D02*
X892807Y863092D01*
X890267D02*
X892807Y865631D01*
X897885Y863092D02*
X902963D01*
X900424D01*
Y878327D01*
X897885Y875788D01*
X67382Y97461D02*
Y92382D01*
Y94922D01*
X80078D01*
X82618Y92382D01*
Y89843D01*
X80078Y87304D01*
X67382Y112696D02*
Y102539D01*
X75000D01*
X72461Y107618D01*
Y110157D01*
X75000Y112696D01*
X80078D01*
X82618Y110157D01*
Y105078D01*
X80078Y102539D01*
X615711Y842868D02*
X610633D01*
X613172D01*
Y830172D01*
X610633Y827633D01*
X608093D01*
X605554Y830172D01*
X628407Y827633D02*
Y842868D01*
X620789Y835250D01*
X630946D01*
X499461Y842868D02*
X494383D01*
X496922D01*
Y830172D01*
X494383Y827633D01*
X491843D01*
X489304Y830172D01*
X504539Y840328D02*
X507078Y842868D01*
X512157D01*
X514696Y840328D01*
Y837789D01*
X512157Y835250D01*
X509618D01*
X512157D01*
X514696Y832711D01*
Y830172D01*
X512157Y827633D01*
X507078D01*
X504539Y830172D01*
X382961Y844368D02*
X377882D01*
X380422D01*
Y831672D01*
X377882Y829133D01*
X375343D01*
X372804Y831672D01*
X398196Y829133D02*
X388039D01*
X398196Y839289D01*
Y841828D01*
X395657Y844368D01*
X390578D01*
X388039Y841828D01*
X280750Y843867D02*
X275672D01*
X278211D01*
Y831172D01*
X275672Y828633D01*
X273132D01*
X270593Y831172D01*
X285828Y828633D02*
X290907D01*
X288368D01*
Y843867D01*
X285828Y841328D01*
X47682Y230000D02*
Y219843D01*
X55300D01*
Y224922D01*
Y219843D01*
X62917D01*
Y235078D02*
Y240157D01*
Y237618D01*
X47682D01*
X50222Y235078D01*
X884171Y200148D02*
X881631Y202687D01*
X876553D01*
X874014Y200148D01*
Y189991D01*
X876553Y187452D01*
X881631D01*
X884171Y189991D01*
X889249Y200148D02*
X891788Y202687D01*
X896867D01*
X899406Y200148D01*
Y197609D01*
X896867Y195070D01*
X899406Y192530D01*
Y189991D01*
X896867Y187452D01*
X891788D01*
X889249Y189991D01*
Y192530D01*
X891788Y195070D01*
X889249Y197609D01*
Y200148D01*
X891788Y195070D02*
X896867D01*
X838197Y388362D02*
X835658Y390901D01*
X830579D01*
X828040Y388362D01*
Y378205D01*
X830579Y375666D01*
X835658D01*
X838197Y378205D01*
X853432Y390901D02*
X843275D01*
Y383284D01*
X848353Y385823D01*
X850893D01*
X853432Y383284D01*
Y378205D01*
X850893Y375666D01*
X845814D01*
X843275Y378205D01*
X333245Y358390D02*
X330705Y360929D01*
X325627D01*
X323088Y358390D01*
Y348233D01*
X325627Y345694D01*
X330705D01*
X333245Y348233D01*
X345941Y345694D02*
Y360929D01*
X338323Y353312D01*
X348480D01*
X844801Y264918D02*
X842262Y267457D01*
X837183D01*
X834644Y264918D01*
Y254761D01*
X837183Y252222D01*
X842262D01*
X844801Y254761D01*
X849879Y264918D02*
X852418Y267457D01*
X857497D01*
X860036Y264918D01*
Y262379D01*
X857497Y259839D01*
X854957D01*
X857497D01*
X860036Y257300D01*
Y254761D01*
X857497Y252222D01*
X852418D01*
X849879Y254761D01*
X288287Y183384D02*
X285748Y185923D01*
X280669D01*
X278130Y183384D01*
Y173227D01*
X280669Y170688D01*
X285748D01*
X288287Y173227D01*
X293365Y170688D02*
X298443D01*
X295904D01*
Y185923D01*
X293365Y183384D01*
D16*
X879500Y150002D02*
X872835D01*
X876168Y146669D02*
Y153334D01*
M02*
