G04*
G04 #@! TF.GenerationSoftware,Altium Limited,Altium Designer,26.2.0 (7)*
G04*
G04 Layer_Color=32896*
%FSLAX44Y44*%
%MOMM*%
G71*
G04*
G04 #@! TF.SameCoordinates,EF66C442-CE4D-47CB-B162-2981B1276574*
G04*
G04*
G04 #@! TF.FilePolarity,Positive*
G04*
G01*
G75*
%ADD14C,0.1000*%
%ADD58C,0.0500*%
D14*
X757500Y12750D02*
Y167250D01*
X813000D01*
Y12750D02*
Y167250D01*
X757500Y12750D02*
X813000D01*
X502500D02*
Y167250D01*
X558000D01*
Y12750D02*
Y167250D01*
X502500Y12750D02*
X558000D01*
X597500Y840000D02*
X697500D01*
X597500D02*
Y934000D01*
X697500D01*
Y840000D02*
Y934000D01*
X482500Y840000D02*
X582500D01*
X482500D02*
Y934000D01*
X582500D01*
Y840000D02*
Y934000D01*
X367500Y840000D02*
X467500D01*
X367500D02*
Y934000D01*
X467500D01*
Y840000D02*
Y934000D01*
X257500Y840000D02*
X357500D01*
X257500D02*
Y934000D01*
X357500D01*
Y840000D02*
Y934000D01*
X68600Y188000D02*
X286700D01*
X68600D02*
Y275650D01*
X286700D01*
Y188000D02*
Y275650D01*
X89800Y166000D02*
X262200D01*
Y21000D02*
Y166000D01*
X89800Y21000D02*
X262200D01*
X89800D02*
Y166000D01*
D58*
X931300Y741650D02*
Y847650D01*
X882300Y741650D02*
X931300D01*
X882300D02*
Y847650D01*
X931300D01*
M02*
